<?xml version="1.0" encoding="utf-8"?>
<!-- Generator: Adobe Illustrator 23.0.3, SVG Export Plug-In . SVG Version: 6.00 Build 0)  -->
<svg version="1.1" id="Capa_1" xmlns="http://www.w3.org/2000/svg" xmlns:xlink="http://www.w3.org/1999/xlink" x="0px" y="0px"
	 viewBox="0 0 925 925" style="enable-background:new 0 0 925 925;" xml:space="preserve">
<style type="text/css">
	.st0{fill:none;stroke:#666666;stroke-width:3;stroke-miterlimit:10;}
</style>
<g>
	<g>
		<path class="st0" d="M352.9,53.4h88.7c33.6,0,61.6,24,68,55.7h50.6C553.4,49.7,502.8,3.4,441.6,3.4h-88.7
			c-61.2,0-111.8,46.3-118.6,105.7h50.6C291.3,77.3,319.3,53.4,352.9,53.4z"/>
		<path class="st0" d="M127.2,322.4c71.8,46.4,167.7,72,270.1,72s198.2-25.6,270.1-72c64.6-41.7,102.1-95.6,106.7-152.7
			c-17.3-21.7-43.9-35.6-73.9-35.6H561h-50H283.6h-50H94.4c-29.9,0-56.6,13.9-73.9,35.6C25.1,226.8,62.6,280.6,127.2,322.4z"/>
		<path class="st0" d="M363.1,461.1c0,15.6,12.7,28.3,28.3,28.3h11.7c15.6,0,28.3-12.7,28.3-28.3v-22.6h-68.3L363.1,461.1
			L363.1,461.1z"/>
		<path class="st0" d="M94.4,617.2h419.5v-63.7c0-7.7,3.1-15,8.6-20.4l95.7-94.1c5.4-5.3,12.6-8.2,20.1-8.2h156.2V243
			c-4.2,8.6-9,17.1-14.5,25.5c-21.5,32.9-52.2,62.3-91,87.4c-60.3,39-135.8,64.4-217.6,74.1v8.4V461c0,37.7-30.6,68.3-68.3,68.3
			h-11.7c-37.7,0-68.3-30.6-68.3-68.3v-22.6V430c-81.8-9.6-157.3-35.1-217.6-74.1c-38.8-25.1-69.5-54.5-91-87.4
			C9,260.1,4.2,251.6,0,243v279.8C0,574.9,42.3,617.2,94.4,617.2z"/>
		<g>
			<path class="st0" d="M659.6,453.6c-13.4,0-26.5,5.5-36,15l-69.1,69.6c-9.5,9.6-14.7,22.2-14.7,35.7v43.3v12.5v12.5v228.7
				c0,2.4,0.2,4.8,0.5,7.1c3.4,24.6,24.6,43.6,50.2,43.6h283.8c27.9,0,50.7-22.7,50.7-50.7V504.2c0-24.5-17.4-44.9-40.5-49.6
				c-3.3-0.7-6.7-1-10.1-1h-54.9H807h-12.5H659.6L659.6,453.6z M819.5,503.6h54.8c0.4,0,0.7,0.3,0.7,0.7V871c0,0.1,0,0.1,0,0.2
				c-0.1,0.3-0.3,0.5-0.6,0.5c0,0,0,0-0.1,0H590.5c-0.4,0-0.7-0.3-0.7-0.7V642.2v-12.5v-12.5v-33h36.7c22.9,0,41.5-18.6,41.5-41.5
				v-39.1h126.5H807H819.5L819.5,503.6z"/>
			<path class="st0" d="M750,617.3H641.1c-9.2,0-17.2,5-21.6,12.4c-2.2,3.7-3.4,7.9-3.4,12.5v0.1c0,13.8,11.2,25,25,25h182.7
				c13.8,0,25-11.2,25-25s-11.2-25-25-25h-50.7H750z"/>
			<path class="st0" d="M823.8,774.8H641.1c-13.8,0-25,11.2-25,25s11.2,25,25,25h182.7c13.8,0,25-11.2,25-25
				S837.6,774.8,823.8,774.8z"/>
			<path class="st0" d="M823.8,696.1H641.1c-13.8,0-25,11.2-25,25s11.2,25,25,25h182.7c13.8,0,25-11.2,25-25
				S837.6,696.1,823.8,696.1z"/>
		</g>
	</g>
</g>
</svg>
