<svg xmlns="http://www.w3.org/2000/svg" width="80" height="80" viewBox="0 0 80 80"><g fill="none" stroke="#666" stroke-width="2" stroke-miterlimit="10"><path stroke-linecap="round" d="M51.48 59.01l18.087 18.146c.457.46 1.203.46 1.662 0l5.546-5.546c.46-.46.46-1.204 0-1.664L58.563 51.78"/><path stroke-linecap="round" stroke-linejoin="round" d="M51.425 58.968c-4.023 2.742-8.643 4.06-13.877 4.06-13.863 0-25.1-11.24-25.1-25.1s11.236-25.1 25.1-25.1c13.86 0 25.098 11.237 25.098 25.1 0 5.092-1.516 9.83-4.123 13.787"/><circle cx="37.548" cy="37.927" r="17.641"/><path d="M43.43 36.357c0 2.816-2.282 5.1-5.1 5.1h-1.306c-2.816 0-5.098-2.283-5.098-5.1v-3.92c0-2.817 2.28-5.1 5.098-5.1h1.307c2.817 0 5.1 2.282 5.1 5.1v3.92zM25.007 50.15c.703-3.758 4.002-6.603 7.965-6.603h9.674c3.848 0 7.068 2.682 7.898 6.277M61.84 31.5c.175-1.723 1.802-3.24 3.57-3.24h.876c1.887 0 3.414 1.53 3.414 3.416v2.627c0 1.886-1.527 3.415-3.414 3.415h-.875c-1.126 0-2.126-.546-2.747-1.39"/><path stroke-linecap="round" stroke-linejoin="round" d="M34.032 43.695l3.71 5.343 3.823-5.327"/><path d="M62.44 39.977c.553-.206 1.15-.318 1.773-.318h2.844c2.816 0 5.1 2.282 5.1 5.1v5.097c0 2.815-2.283 2.745-5.1 2.745h-2.844c-2.598 0-4.742.41-5.057-2.104M13.194 31.5c-.174-1.723-1.803-3.24-3.57-3.24H8.75c-1.888 0-3.417 1.53-3.417 3.416v2.627c0 1.886 1.53 3.415 3.416 3.415h.874c1.127 0 2.127-.546 2.75-1.39M12.595 39.977c-.553-.206-1.15-.318-1.775-.318H7.978c-2.816 0-5.098 2.282-5.098 5.1v5.097c0 2.815 2.28 2.745 5.098 2.745h2.842c2.6 0 4.744.41 5.06-2.104"/><path stroke-linecap="round" d="M37.81 2.5v3.432M55.493 7.12l-2.426 2.427M19.93 7.12l2.424 2.427"/></g></svg>