<?xml version="1.0" encoding="utf-8"?>
<!-- Generator: Adobe Illustrator 23.0.3, SVG Export Plug-In . SVG Version: 6.00 Build 0)  -->
<svg version="1.1" id="Home_Page" xmlns="http://www.w3.org/2000/svg" xmlns:xlink="http://www.w3.org/1999/xlink" x="0px" y="0px"
	 viewBox="0 0 1000 800" style="enable-background:new 0 0 1000 800;" xml:space="preserve">
<style type="text/css">
	.st0{fill:#FFEC47;}
	.st1{fill:#FFFFFF;}
	.st2{fill:none;stroke:#173066;stroke-width:2.0583;stroke-linecap:round;stroke-linejoin:round;}
	.st3{fill:none;stroke:#173066;stroke-width:2.0583;stroke-linecap:round;stroke-linejoin:round;stroke-dasharray:3.9067,5.8601;}
	.st4{fill:#7ABF89;}
	.st5{fill:none;stroke:#173066;stroke-width:2.0583;stroke-linecap:round;stroke-linejoin:round;stroke-miterlimit:10;}
	.st6{fill:none;stroke:#173066;stroke-width:2.0583;stroke-linecap:round;stroke-linejoin:round;stroke-dasharray:4.3525,6.5287;}
	.st7{fill:#71CAF3;}
	.st8{fill:none;stroke:#173066;stroke-width:2.0583;stroke-linecap:round;stroke-linejoin:round;stroke-dasharray:3.7355,5.6033;}
	.st9{fill:none;stroke:#173066;stroke-width:2.0583;stroke-linecap:round;stroke-linejoin:round;stroke-dasharray:3.7329,5.5993;}
	.st10{fill:none;stroke:#173066;stroke-width:2.0583;stroke-linecap:round;stroke-linejoin:round;stroke-dasharray:3.444,5.166;}
	.st11{fill:none;stroke:#173066;stroke-width:5.4391;stroke-linecap:round;stroke-linejoin:round;stroke-miterlimit:10;}
	.st12{fill:#173066;}
	.st13{fill:none;}
	.st14{enable-background:new    ;}
	.st15{fill:none;stroke:#173066;stroke-width:2.0583;stroke-linecap:round;stroke-linejoin:round;stroke-dasharray:2.6079,3.9118;}
	.st16{fill:none;stroke:#173066;stroke-width:2.0583;stroke-linecap:round;stroke-linejoin:round;stroke-dasharray:3.4243,5.1364;}
	.st17{fill:none;stroke:#FFEC47;stroke-width:1.813;stroke-linecap:round;stroke-linejoin:round;stroke-miterlimit:10;}
	.st18{fill:#DDDDDD;}
	.st19{fill:#173066;stroke:#173066;stroke-width:2.0583;stroke-linecap:round;stroke-linejoin:round;stroke-miterlimit:10;}
	.st20{fill:none;stroke:#173066;stroke-width:2.0583;stroke-linecap:round;stroke-linejoin:round;stroke-dasharray:2.9618,4.4427;}
	.st21{fill:none;stroke:#173066;stroke-width:2.0583;stroke-linecap:round;stroke-linejoin:round;stroke-dasharray:3.9754,5.9632;}
	.st22{fill:none;stroke:#173066;stroke-width:2.0583;stroke-linecap:round;stroke-linejoin:round;stroke-dasharray:3.5926,5.3888;}
	.st23{fill:none;stroke:#173066;stroke-width:2.0583;stroke-linecap:round;stroke-linejoin:round;stroke-dasharray:3.5771,5.3657;}
	.st24{fill:none;stroke:#173066;stroke-width:2.0583;stroke-linecap:round;stroke-linejoin:round;stroke-dasharray:3.5707,5.3561;}
	.st25{fill:none;stroke:#173066;stroke-width:2.0583;stroke-linecap:round;stroke-linejoin:round;stroke-dasharray:3.2973,4.946;}
	.st26{fill:none;stroke:#173066;stroke-width:4.0763;stroke-linecap:round;stroke-linejoin:round;stroke-miterlimit:10;}
	.st27{fill:#F8C34F;}
	.st28{fill:none;stroke:#173066;stroke-width:4.0763;stroke-linecap:round;stroke-linejoin:round;}
	.st29{fill:none;stroke:#173066;stroke-width:4.0763;stroke-linecap:round;stroke-linejoin:round;stroke-dasharray:7.753,11.6295;}
	.st30{fill:none;stroke:#173066;stroke-width:2.0583;stroke-linecap:round;stroke-linejoin:round;stroke-dasharray:3.9104,5.8656;}
	.st31{fill:none;stroke:#173066;stroke-width:2.0583;stroke-linecap:round;stroke-linejoin:round;stroke-dasharray:3.209,4.8134;}
	.st32{fill:none;stroke:#173066;stroke-width:2.0583;stroke-linecap:round;stroke-linejoin:round;stroke-dasharray:4.1669,6.2504;}
	.st33{fill:none;stroke:#173066;stroke-width:2.0583;stroke-linecap:round;stroke-linejoin:round;stroke-dasharray:3.8031,5.7047;}
	.st34{fill:none;stroke:#173066;stroke-width:2.1995;stroke-linecap:round;stroke-linejoin:round;stroke-miterlimit:10;}
	.st35{fill:none;stroke:#173066;stroke-width:2.1995;stroke-linecap:round;stroke-linejoin:round;}
	.st36{fill:none;stroke:#173066;stroke-width:2.1995;stroke-linecap:round;stroke-linejoin:round;stroke-dasharray:3.6016,5.4024;}
	.st37{fill:none;stroke:#2A2F35;stroke-width:2.6095;stroke-linecap:round;stroke-linejoin:round;stroke-miterlimit:10;}
	.st38{fill:none;stroke:#2A2F35;stroke-width:2.0405;stroke-linecap:round;stroke-linejoin:round;stroke-miterlimit:10;}
	.st39{fill:#5EB4E7;}
	.st40{fill:none;stroke:#2A2F35;stroke-width:2.4335;stroke-linecap:round;stroke-linejoin:round;stroke-miterlimit:10;}
	.st41{fill:none;stroke:#2A2F35;stroke-width:2.4289;stroke-linecap:round;stroke-linejoin:round;stroke-miterlimit:10;}
	.st42{fill:none;stroke:#2A2F35;stroke-width:2.8303;stroke-linecap:round;stroke-linejoin:round;stroke-miterlimit:10;}
	.st43{fill:none;stroke:#2A2F35;stroke-width:2.3368;stroke-linecap:round;stroke-linejoin:round;stroke-miterlimit:10;}
	.st44{fill:none;stroke:#2A2F35;stroke-width:2.286;stroke-linecap:round;stroke-linejoin:round;stroke-miterlimit:10;}
	.st45{fill:#2A2F35;}
	.st46{fill:none;stroke:#2A2F35;stroke-width:2.9459;stroke-linecap:round;stroke-linejoin:round;stroke-miterlimit:10;}
	.st47{fill:none;stroke:#2A2F35;stroke-width:2.4077;stroke-linecap:round;stroke-linejoin:round;stroke-miterlimit:10;}
	.st48{fill:none;stroke:#2A2F35;stroke-width:2;stroke-linecap:round;stroke-linejoin:round;stroke-miterlimit:10;}
	.st49{display:none;}
	
		.st50{display:inline;fill:none;stroke:#2A2F35;stroke-width:3.8631;stroke-linecap:round;stroke-linejoin:round;stroke-miterlimit:10;}
	.st51{display:inline;fill:#F8C34F;}
	.st52{fill:none;stroke:#2A2F35;stroke-width:2.6303;stroke-linecap:round;stroke-linejoin:round;stroke-miterlimit:10;}
	.st53{fill:none;stroke:#173066;stroke-width:2.0583;stroke-linecap:round;stroke-linejoin:round;stroke-dasharray:3.9148,5.8722;}
	.st54{fill:#F7DAA1;}
</style>
<g id="Center_Img">
	<g>
		<g>
			<path class="st0" d="M345.8,503.1v11.2l5.2,0.6c0.8,3.6,2.2,7,4.2,10L352,529l7.9,7.9l4.1-3.2c3,2,6.4,3.4,10,4.2l0.6,5.2h11.2
				l0.6-5.2c3.6-0.8,7-2.2,10-4.2l4.1,3.2l7.9-7.9l-3.2-4.1c2-3,3.4-6.4,4.2-10l5.2-0.6v-11.2l-5.2-0.6c-0.8-3.6-2.2-7-4.2-10
				l3.2-4.1l-7.9-8l-4.1,3.2c-3-2-6.4-3.4-10-4.2l-0.6-5.2h-11.2l-0.6,5.2c-3.6,0.8-7,2.2-10,4.2l-4.1-3.2l-7.9,8l3.2,4.1
				c-2,3-3.4,6.4-4.2,10L345.8,503.1z"/>
		</g>
		<circle class="st1" cx="380.3" cy="508.7" r="18.5"/>
		<g>
			<g>
				<path class="st2" d="M380.3,527.2c-0.6,0-1.2,0-1.8-0.1"/>
				<path class="st3" d="M372.8,525.6c-5.1-2.3-9-6.7-10.4-12.2"/>
				<path class="st2" d="M361.9,510.5c-0.1-0.6-0.1-1.2-0.1-1.8"/>
			</g>
		</g>
		<path class="st4" d="M371,508.7c0-5.1,4.1-9.2,9.2-9.2s9.2,4.1,9.2,9.2c0,5.1-4.1,9.2-9.2,9.2C375.2,517.9,371,513.8,371,508.7z"
			/>
	</g>
	<g>
		<g>
			<path class="st4" d="M551.1,308.3V300l-3.8-0.5c-0.6-2.7-1.6-5.2-3.1-7.4l2.4-3l-5.9-5.9l-3,2.4c-2.2-1.4-4.7-2.5-7.4-3.1
				l-0.5-3.8h-8.3l-0.5,3.8c-2.7,0.6-5.2,1.6-7.4,3.1l-3-2.4l-5.9,5.9l2.4,3c-1.4,2.2-2.5,4.7-3.1,7.4l-3.8,0.5v8.3l3.8,0.5
				c0.6,2.7,1.6,5.2,3.1,7.4l-2.4,3l5.9,5.9l3-2.4c2.2,1.4,4.7,2.5,7.4,3.1l0.5,3.8h8.3l0.5-3.8c2.7-0.6,5.2-1.6,7.4-3.1l3,2.4
				l5.9-5.9l-2.4-3c1.4-2.2,2.5-4.7,3.1-7.4L551.1,308.3z"/>
		</g>
		<circle class="st1" cx="525.8" cy="304.1" r="13.4"/>
		<path class="st5" d="M539.1,304.1c0,7.4-6,13.4-13.4,13.4s-13.4-6-13.4-13.4s6-13.4,13.4-13.4"/>
		<g>
			<g>
				<path class="st2" d="M525.8,290.8c0.6,0,1.2,0,1.8,0.1"/>
				<path class="st6" d="M533.6,293.3c2.1,1.5,3.7,3.5,4.6,5.9"/>
				<path class="st2" d="M539,302.3c0.1,0.6,0.1,1.2,0.1,1.8"/>
			</g>
		</g>
	</g>
	<g>
		<g>
			<rect x="339.7" y="327.4" class="st7" width="365.6" height="190"/>
		</g>
		<path class="st1" d="M683.4,482.7c0,0.9-0.1,1.8-0.2,2.7c0,0.3-0.1,0.5-0.1,0.8c-0.7,3.9-2.6,7.4-5.3,10.1
			c-3.5,3.5-8.3,5.6-13.6,5.6H321.8V312h323v151.5h19.3c9.2,0,16.9,6.4,18.8,15C683.2,479.8,683.4,481.2,683.4,482.7z"/>
		<path class="st1" d="M683.4,284.8v190c0-10.7-8.6-19.3-19.3-19.3h-19.3v-190h19.3C674.8,265.5,683.4,274.1,683.4,284.8z"/>
		<path class="st1" d="M683.4,472.9c0,0.9-0.1,1.8-0.2,2.7c0,0.3-0.1,0.5-0.1,0.8c-0.7,3.9-2.6,7.4-5.3,10.1
			c-3.5,3.5-8.3,5.6-13.6,5.6H321.8v-190h323v151.5h19.3c9.2,0,16.9,6.4,18.8,15C683.2,470,683.4,471.5,683.4,472.9z"/>
		<line class="st5" x1="683.4" y1="380.6" x2="683.4" y2="454.2"/>
		<path class="st5" d="M683.4,474.8c0-10.7-8.6-19.3-19.3-19.3h-19.3v-190h19.3c10.7,0,19.3,8.6,19.3,19.3v81.6"/>
		<path class="st5" d="M440.3,304.1h204.5v151.5h19.3c10.7,0,19.3,8.6,19.3,19.3c0,5.3-2.2,10.1-5.7,13.6s-8.3,5.6-13.6,5.6H635"/>
		<polyline class="st5" points="321.8,425.3 321.8,304.1 393.7,304.1 		"/>
		<polyline class="st5" points="415.6,494.1 321.8,494.1 321.8,441 		"/>
		<line class="st5" x1="524.7" y1="494.1" x2="441.6" y2="494.1"/>
		<g>
			<g>
				<line class="st2" x1="393.7" y1="304.1" x2="395.5" y2="304.1"/>
				<line class="st8" x1="401.1" y1="304.1" x2="435.7" y2="304.1"/>
				<line class="st2" x1="438.5" y1="304.1" x2="440.3" y2="304.1"/>
			</g>
		</g>
		<g>
			<g>
				<line class="st2" x1="635" y1="494.1" x2="633.2" y2="494.1"/>
				<line class="st9" x1="627.6" y1="494.1" x2="611.8" y2="494.1"/>
				<line class="st2" x1="609" y1="494.1" x2="607.2" y2="494.1"/>
			</g>
		</g>
		<g>
			<g>
				<line class="st2" x1="567.9" y1="494.1" x2="566.1" y2="494.1"/>
				<line class="st10" x1="560.9" y1="494.1" x2="529" y2="494.1"/>
				<line class="st2" x1="526.5" y1="494.1" x2="524.7" y2="494.1"/>
			</g>
		</g>
	</g>
	<line class="st11" x1="321.8" y1="374.7" x2="321.8" y2="390.3"/>
	<g>
		<g>
			<line class="st5" x1="424.2" y1="369.6" x2="404.7" y2="369.7"/>
			<line class="st5" x1="559.4" y1="370" x2="579.8" y2="369.9"/>
		</g>
		<path class="st0" d="M562.5,456.3H423c-7,0-12.6-5.7-12.6-12.6l0,0c0-7,5.7-12.6,12.6-12.6h139.5c7,0,12.6,5.7,12.6,12.6l0,0
			C575.1,450.7,569.4,456.3,562.5,456.3z"/>
		<g>
			<polygon class="st12" points="554.3,448.9 554.3,468.3 559.5,462.9 567.7,463.2 			"/>
		</g>
		<g>
			<polygon class="st13" points="640,443.3 346.2,442.8 346.2,398.2 640,398.6 			"/>
			<g class="st14">
				<path class="st12" d="M387.6,408.2h2.6v5.3c-1.5,1.6-3.5,2.4-6.2,2.4c-2.3,0-4.2-0.7-5.7-2.2s-2.3-3.4-2.3-5.7s0.8-4.2,2.3-5.7
					s3.5-2.3,5.7-2.3s4.1,0.6,5.5,1.9l-1.4,2c-0.6-0.5-1.2-0.9-1.8-1.1c-0.6-0.2-1.3-0.3-2.1-0.3c-1.6,0-2.9,0.5-3.9,1.5
					c-1.1,1-1.6,2.3-1.6,4c0,1.6,0.5,2.9,1.5,3.9s2.3,1.5,3.7,1.5c1.5,0,2.7-0.3,3.7-0.9L387.6,408.2L387.6,408.2z"/>
				<path class="st12" d="M404.5,400.3v2.4h-8.2v4.1h7.4v2.3h-7.4v4.1h8.5v2.4h-11.1v-15.4h10.8V400.3z"/>
				<path class="st12" d="M413.8,402.7v13h-2.6v-13h-4.7v-2.4h11.9v2.4H413.8z"/>
				<path class="st12" d="M429.5,412.2l-1.5,3.5h-2.8l6.8-15.4h2.8l6.8,15.4h-2.8l-1.5-3.5H429.5z M436.2,409.8l-2.8-6.3l-2.8,6.3
					H436.2z"/>
				<path class="st12" d="M455.2,400.3h2.6v15.4H455l-8.7-11.2v11.2h-2.6v-15.4h2.6l8.9,11.5L455.2,400.3L455.2,400.3z"/>
				<path class="st12" d="M468.1,400.3h2.6v15.4h-2.6V400.3z"/>
				<path class="st12" d="M486.5,400.3h2.6v15.4h-2.8l-8.7-11.2v11.2H475v-15.4h2.6l8.9,11.5V400.3z"/>
				<path class="st12" d="M499.2,402.7v13h-2.6v-13h-4.7v-2.4h11.9v2.4H499.2z"/>
				<path class="st12" d="M517.4,400.3v2.4h-8.2v4.1h7.4v2.3h-7.4v4.1h8.5v2.4h-11.1v-15.4h10.8V400.3z"/>
				<path class="st12" d="M533.3,405.3c0,2.5-1.1,4.1-3.3,4.8l4,5.6h-3.3l-3.7-5.2h-3.4v5.2H521v-15.4h5.7c2.3,0,4,0.4,5,1.2
					C532.8,402.3,533.3,403.6,533.3,405.3z M529.8,407.5c0.5-0.5,0.8-1.2,0.8-2.2s-0.3-1.7-0.8-2.1s-1.5-0.6-2.9-0.6h-3.3v5.5h3.2
					C528.3,408.2,529.3,407.9,529.8,407.5z"/>
				<path class="st12" d="M548.6,400.3h2.6v15.4h-2.8l-8.7-11.2v11.2H537v-15.4h2.6l8.9,11.5L548.6,400.3L548.6,400.3z"/>
				<path class="st12" d="M560.1,402.3c-0.8,0-1.4,0.2-1.9,0.5s-0.7,0.8-0.7,1.4s0.2,1.1,0.7,1.4s1.5,0.7,3.1,1.1s2.8,0.9,3.6,1.6
					s1.2,1.7,1.2,3s-0.5,2.4-1.5,3.3c-1,0.8-2.3,1.3-4,1.3c-2.4,0-4.5-0.8-6.4-2.5l1.6-2c1.6,1.3,3.2,2,4.8,2c0.8,0,1.5-0.2,2-0.5
					s0.7-0.8,0.7-1.4s-0.2-1.1-0.7-1.4s-1.3-0.6-2.4-0.9c-1.1-0.3-2-0.5-2.6-0.7s-1.1-0.5-1.6-0.9c-0.9-0.7-1.4-1.7-1.4-3.2
					s0.5-2.5,1.6-3.3c1-0.8,2.3-1.2,3.8-1.2c1,0,2,0.2,2.9,0.5c1,0.3,1.8,0.8,2.5,1.4l-1.4,2c-0.5-0.4-1.1-0.7-1.8-1
					S560.8,402.3,560.1,402.3z"/>
				<path class="st12" d="M569.3,415.7v-15.4h2.6v6.7h7.6v-6.7h2.6v15.4h-2.6v-6.3h-7.6v6.3H569.3z"/>
				<path class="st12" d="M586.4,400.3h2.6v15.4h-2.6V400.3z"/>
				<path class="st12" d="M603.6,401.7c1.1,0.9,1.6,2.3,1.6,4.1c0,1.9-0.5,3.2-1.6,4.1s-2.8,1.3-5,1.3h-2.7v4.5h-2.6v-15.4h5.3
					C600.9,400.3,602.6,400.8,603.6,401.7z M601.8,408c0.5-0.5,0.8-1.4,0.8-2.4c0-1.1-0.3-1.8-1-2.3c-0.7-0.4-1.7-0.7-3.1-0.7h-2.6
					v6.2h3C600.3,408.8,601.3,408.6,601.8,408z"/>
			</g>
			<rect x="417.6" y="361.2" class="st13" width="149.9" height="41.8"/>
			<g class="st14">
				<path class="st4" d="M449.6,367.9c-1-1-2.6-1.5-3.9-1.5c-3.3,0-5.3,2.5-5.3,5.7c0,2.5,1.5,5.1,5.3,5.1c1.2,0,2.3-0.3,3.5-1.2
					v-2.7h-3.9v-2.6h6.6v6.5c-1.5,1.7-3.4,2.8-6.1,2.8c-5.8,0-8.1-3.8-8.1-7.9c0-4.3,2.7-8.3,8.1-8.3c2.1,0,4.1,0.8,5.7,2.4
					L449.6,367.9z"/>
				<path class="st4" d="M456.5,375c0.2,1.3,1.3,2.3,3.2,2.3c1,0,2.3-0.4,2.9-1l1.7,1.7c-1.1,1.2-3,1.8-4.7,1.8c-3.7,0-6-2.3-6-5.8
					c0-3.3,2.2-5.7,5.8-5.7c3.6,0,5.9,2.2,5.5,6.7H456.5z M462.4,372.8c-0.2-1.4-1.3-2.1-2.8-2.1s-2.6,0.7-3,2.1H462.4z"/>
				<path class="st4" d="M470.4,365.6v3.1h3v2.3h-3v4.7c0,1,0.6,1.5,1.4,1.5c0.4,0,0.9-0.1,1.3-0.3l0.7,2.3
					c-0.8,0.3-1.4,0.4-2.2,0.5c-2.4,0.1-3.9-1.3-3.9-4V371h-2v-2.3h2v-2.8L470.4,365.6z"/>
				<path class="st4" d="M490.9,376.6h-8.1l-1.3,2.9h-3.1l6.9-15.4h3.2l6.9,15.4h-3.2L490.9,376.6z M486.9,367.3l-2.9,6.6h5.7
					L486.9,367.3z"/>
				<path class="st4" d="M499,364.1v6c1-1.3,2.2-1.6,3.4-1.6c3.1,0,4.4,2.1,4.4,5.3v5.7h-2.7v-5.7c0-2-1-2.8-2.5-2.8
					c-1.6,0-2.7,1.3-2.7,3v5.5h-2.7v-15.4H499z"/>
				<path class="st4" d="M511.4,375c0.2,1.3,1.3,2.3,3.2,2.3c1,0,2.3-0.4,2.9-1l1.7,1.7c-1.1,1.2-3,1.8-4.7,1.8c-3.7,0-6-2.3-6-5.8
					c0-3.3,2.2-5.7,5.8-5.7s5.9,2.2,5.5,6.7H511.4z M517.3,372.8c-0.2-1.4-1.3-2.1-2.8-2.1s-2.6,0.7-3,2.1H517.3z"/>
				<path class="st4" d="M530.5,368.6h2.6v10.8h-2.5l-0.1-1.6c-0.6,1.3-2.3,1.9-3.5,1.9c-3.2,0-5.6-2-5.6-5.8c0-3.7,2.5-5.7,5.7-5.7
					c1.5,0,2.8,0.7,3.5,1.8L530.5,368.6z M524,374.1c0,2.1,1.4,3.3,3.2,3.3c4.2,0,4.2-6.6,0-6.6C525.4,370.8,524,372,524,374.1z"/>
				<path class="st4" d="M546.6,364.1v15.4h-2.5l-0.2-1.5c-0.8,1.3-2.2,1.7-3.5,1.7c-3.2,0-5.6-2.1-5.6-5.7c0-3.7,2.4-5.7,5.5-5.7
					c1.1,0,2.9,0.6,3.6,1.7v-6h2.7V364.1z M537.5,374.1c0,1.9,1.4,3.2,3.1,3.2c1.7,0,3.1-1.2,3.1-3.2c0-1.9-1.5-3.2-3.1-3.2
					C538.9,370.9,537.5,372.1,537.5,374.1z"/>
			</g>
			<rect x="425.2" y="438.7" class="st13" width="133.2" height="16.2"/>
			<g class="st14">
				<path class="st12" d="M435.4,443h1.3v2.6c-0.7,0.8-1.8,1.2-3.2,1.2c-1.2,0-2.1-0.4-2.9-1.1s-1.2-1.7-1.2-2.8
					c0-1.1,0.4-2.1,1.2-2.9c0.8-0.8,1.8-1.1,2.9-1.1s2.1,0.3,2.8,1l-0.7,1c-0.3-0.3-0.6-0.4-0.9-0.5s-0.7-0.1-1.1-0.1
					c-0.8,0-1.5,0.3-2,0.8s-0.8,1.2-0.8,2s0.3,1.5,0.8,2s1.2,0.7,1.9,0.7s1.4-0.2,1.9-0.5L435.4,443L435.4,443z"/>
				<path class="st12" d="M441.4,442.1c-0.6,0-1.1,0.2-1.4,0.6s-0.5,0.9-0.5,1.6v2.5h-1.3v-5.9h1.3v1.2c0.2-0.4,0.5-0.7,0.8-0.9
					c0.4-0.2,0.7-0.4,1.1-0.4V442.1C441.5,442.1,441.4,442.1,441.4,442.1z"/>
				<path class="st12" d="M447.6,446.8h-1.2V446c-0.5,0.6-1.2,0.9-2,0.9c-0.6,0-1.1-0.2-1.6-0.5s-0.6-0.8-0.6-1.4s0.2-1,0.7-1.3
					c0.4-0.3,1-0.4,1.8-0.4h1.6V443c0-0.8-0.4-1.2-1.3-1.2c-0.6,0-1.1,0.2-1.7,0.6l-0.6-0.8c0.7-0.6,1.6-0.8,2.5-0.8
					c0.7,0,1.3,0.2,1.7,0.5c0.4,0.3,0.7,0.9,0.7,1.6V446.8z M446.3,444.6v-0.5h-1.4c-0.9,0-1.4,0.3-1.4,0.8c0,0.3,0.1,0.5,0.3,0.7
					s0.5,0.2,0.9,0.2s0.8-0.1,1.1-0.3S446.3,444.9,446.3,444.6z"/>
				<path class="st12" d="M452.6,440.8c0.8,0,1.5,0.3,2.1,0.8s0.9,1.3,0.9,2.2s-0.3,1.6-0.9,2.2s-1.2,0.8-2,0.8s-1.4-0.3-2-1v0.9
					h-1.3v-8.2h1.3v3.3C451.1,441.2,451.8,440.8,452.6,440.8z M450.6,443.8c0,0.6,0.2,1,0.5,1.4s0.8,0.5,1.3,0.5s0.9-0.2,1.3-0.5
					c0.4-0.4,0.6-0.8,0.6-1.4s-0.2-1-0.5-1.4s-0.8-0.6-1.3-0.6s-0.9,0.2-1.3,0.6C450.8,442.8,450.6,443.3,450.6,443.8z"/>
				<path class="st12" d="M463.2,440.2v6.5h-1.3v-6.5h-2.4V439h6.1v1.2H463.2z"/>
				<path class="st12" d="M468.1,443.6v3.2h-1.3v-8.2h1.3v3.4c0.2-0.4,0.5-0.6,0.8-0.8c0.4-0.2,0.8-0.3,1.2-0.3
					c0.7,0,1.2,0.2,1.6,0.6s0.6,1,0.6,1.7v3.6H471v-3.2c0-1.1-0.5-1.6-1.4-1.6c-0.4,0-0.8,0.1-1.1,0.4
					C468.3,442.6,468.1,443,468.1,443.6z"/>
				<path class="st12" d="M479.8,444.4H475c0,0.4,0.2,0.8,0.6,1c0.4,0.3,0.8,0.4,1.3,0.4c0.8,0,1.3-0.2,1.7-0.7l0.7,0.8
					c-0.6,0.7-1.5,1-2.5,1c-0.8,0-1.6-0.3-2.2-0.8s-0.9-1.3-0.9-2.2c0-0.9,0.3-1.7,0.9-2.2s1.3-0.8,2.1-0.8c0.8,0,1.5,0.2,2.1,0.7
					s0.9,1.1,0.9,2L479.8,444.4L479.8,444.4z M475,443.4h3.5c0-0.5-0.2-0.9-0.5-1.1c-0.3-0.3-0.7-0.4-1.2-0.4s-0.9,0.1-1.3,0.4
					C475.2,442.6,475,442.9,475,443.4z"/>
				<path class="st12" d="M491,445.7c-0.8,0.8-1.8,1.1-3,1.1s-2.2-0.4-3-1.1c-0.8-0.8-1.2-1.7-1.2-2.8s0.4-2.1,1.2-2.8
					c0.8-0.8,1.8-1.1,3-1.1s2.2,0.4,3,1.1c0.8,0.8,1.2,1.7,1.2,2.8S491.8,444.9,491,445.7z M490.1,440.9c-0.5-0.5-1.2-0.8-2-0.8
					s-1.4,0.3-2,0.8c-0.5,0.5-0.8,1.2-0.8,2s0.3,1.4,0.8,2c0.5,0.5,1.2,0.8,2,0.8s1.4-0.3,2-0.8c0.5-0.5,0.8-1.2,0.8-2
					S490.6,441.4,490.1,440.9z"/>
				<path class="st12" d="M497,440.8c0.8,0,1.5,0.3,2.1,0.8s0.9,1.3,0.9,2.2s-0.3,1.6-0.9,2.2s-1.2,0.8-2,0.8s-1.4-0.3-2-1v3h-1.3
					v-8h1.3v1C495.5,441.2,496.2,440.8,497,440.8z M495,443.8c0,0.6,0.2,1,0.5,1.4s0.8,0.5,1.3,0.5s0.9-0.2,1.3-0.5
					c0.4-0.4,0.6-0.8,0.6-1.4s-0.2-1-0.5-1.4s-0.8-0.6-1.3-0.6s-0.9,0.2-1.3,0.6S495,443.3,495,443.8z"/>
				<path class="st12" d="M504.6,440.8c0.8,0,1.5,0.3,2.1,0.8s0.9,1.3,0.9,2.2s-0.3,1.6-0.9,2.2s-1.2,0.8-2,0.8s-1.4-0.3-2-1v3h-1.3
					v-8h1.3v1C503.1,441.2,503.8,440.8,504.6,440.8z M502.6,443.8c0,0.6,0.2,1,0.5,1.4s0.8,0.5,1.3,0.5s0.9-0.2,1.3-0.5
					c0.4-0.4,0.6-0.8,0.6-1.4s-0.2-1-0.5-1.4s-0.8-0.6-1.3-0.6s-0.9,0.2-1.3,0.6C502.8,442.8,502.6,443.3,502.6,443.8z"/>
				<path class="st12" d="M514,446c-0.6,0.6-1.4,0.9-2.3,0.9s-1.7-0.3-2.3-0.9c-0.6-0.6-0.9-1.3-0.9-2.1c0-0.8,0.3-1.6,0.9-2.1
					c0.6-0.6,1.4-0.9,2.3-0.9c0.9,0,1.7,0.3,2.3,0.9s0.9,1.3,0.9,2.1S514.6,445.4,514,446z M510.4,445.2c0.4,0.4,0.8,0.5,1.4,0.5
					c0.6,0,1-0.2,1.4-0.5c0.4-0.4,0.5-0.8,0.5-1.4s-0.2-1-0.5-1.4s-0.8-0.5-1.4-0.5s-1,0.2-1.4,0.5s-0.5,0.8-0.5,1.4
					S510,444.8,510.4,445.2z"/>
				<path class="st12" d="M519.5,442.1c-0.6,0-1.1,0.2-1.4,0.6c-0.3,0.4-0.5,0.9-0.5,1.6v2.5h-1.3v-5.9h1.3v1.2
					c0.2-0.4,0.5-0.7,0.8-0.9c0.4-0.2,0.7-0.4,1.1-0.4L519.5,442.1C519.6,442.1,519.5,442.1,519.5,442.1z"/>
				<path class="st12" d="M522.4,441.9v3c0,0.3,0.1,0.5,0.2,0.7c0.2,0.2,0.4,0.2,0.6,0.2c0.3,0,0.5-0.1,0.8-0.4l0.5,0.9
					c-0.4,0.4-0.9,0.6-1.5,0.6c-0.5,0-1-0.2-1.4-0.5c-0.4-0.4-0.6-0.9-0.6-1.5V442h-0.8v-1h0.8v-1.8h1.3v1.8h1.6v1h-1.5V441.9z"/>
				<path class="st12" d="M529.8,444.1v-3.2h1.3v5.9h-1.3v-1.1c-0.2,0.4-0.5,0.6-0.8,0.8s-0.7,0.3-1.2,0.3c-0.7,0-1.2-0.2-1.6-0.6
					s-0.6-1-0.6-1.7v-3.6h1.3v3.2c0,1.1,0.5,1.6,1.4,1.6c0.4,0,0.8-0.1,1.1-0.4C529.6,445,529.8,444.6,529.8,444.1z"/>
				<path class="st12" d="M534.2,443.6v3.2h-1.3v-5.9h1.3v1.1c0.2-0.4,0.5-0.6,0.8-0.8s0.7-0.3,1.2-0.3c0.7,0,1.2,0.2,1.6,0.6
					c0.4,0.4,0.6,1,0.6,1.7v3.6h-1.3v-3.2c0-1.1-0.5-1.6-1.4-1.6c-0.4,0-0.8,0.1-1.1,0.4C534.3,442.6,534.2,443,534.2,443.6z"/>
				<path class="st12" d="M540.3,439.7c-0.2-0.2-0.2-0.3-0.2-0.6c0-0.2,0.1-0.4,0.2-0.5s0.3-0.2,0.6-0.2c0.2,0,0.4,0.1,0.6,0.2
					c0.2,0.2,0.2,0.3,0.2,0.5s-0.1,0.4-0.2,0.6c-0.2,0.2-0.3,0.2-0.6,0.2C540.6,440,540.4,439.9,540.3,439.7z M541.5,446.8h-1.3
					v-5.9h1.3V446.8z"/>
				<path class="st12" d="M544.9,441.9v3c0,0.3,0.1,0.5,0.2,0.7c0.2,0.2,0.4,0.2,0.6,0.2c0.3,0,0.5-0.1,0.8-0.4l0.5,0.9
					c-0.4,0.4-0.9,0.6-1.5,0.6c-0.5,0-1-0.2-1.4-0.5c-0.4-0.4-0.6-0.9-0.6-1.5V442h-0.8v-1h0.8v-1.8h1.3v1.8h1.6v1h-1.5V441.9z"/>
				<path class="st12" d="M548.8,449.1c-0.6,0-1-0.2-1.5-0.6l0.6-1c0.3,0.2,0.5,0.4,0.8,0.4s0.5-0.1,0.7-0.3
					c0.2-0.2,0.3-0.4,0.3-0.6c0-0.1-0.8-2.1-2.4-6h1.4l1.8,4.3l1.8-4.3h1.4l-2.9,7c-0.2,0.4-0.4,0.7-0.7,0.9
					C549.5,449,549.2,449.1,548.8,449.1z"/>
			</g>
		</g>
	</g>
	<g>
		<g>
			<path class="st1" d="M682,410.2c-4.9,0-9,4-9,9s4,9,9,9c4.9,0,8.9-4,8.9-9S687,410.2,682,410.2z"/>
			<path class="st5" d="M691,419.2c0,4.9-4,9-8.9,9s-9-4-9-9s4-9,9-9"/>
			<g>
				<g>
					<path class="st2" d="M682,410.2c0.6,0,1.2,0.1,1.8,0.2"/>
					<path class="st15" d="M687.4,412c1.2,0.9,2.2,2.1,2.8,3.5"/>
					<path class="st2" d="M690.8,417.4c0.1,0.6,0.2,1.2,0.2,1.8"/>
				</g>
			</g>
		</g>
		<g>
			<g>
				<path class="st4" d="M620,511.2c-3.5,0-6.3,2.8-6.3,6.3s2.8,6.3,6.3,6.3s6.3-2.8,6.3-6.3S623.5,511.2,620,511.2z"/>
			</g>
		</g>
		<g>
			<g>
				<path class="st0" d="M396.9,329c-3.5,0-6.3,2.8-6.3,6.3s2.8,6.3,6.3,6.3s6.3-2.8,6.3-6.3C403.2,331.8,400.4,329,396.9,329z"/>
			</g>
		</g>
		<path class="st5" d="M671.5,538c-2.5,0-4.6,2-4.6,4.6c0,2.5,2,4.6,4.6,4.6c2.5,0,4.6-2.1,4.6-4.6S674,538,671.5,538z"/>
		<g>
			<g>
				<path class="st12" d="M391.2,446.4c-1.8,0-3.3,1.5-3.3,3.3s1.5,3.3,3.3,3.3s3.3-1.5,3.3-3.3S393.1,446.4,391.2,446.4z"/>
			</g>
		</g>
		<g>
			<path class="st1" d="M694.4,500.5c-2.3,0-4.2,1.9-4.2,4.1s1.9,4.1,4.2,4.1s4.2-1.9,4.2-4.1S696.7,500.5,694.4,500.5z"/>
		</g>
		<g>
			<path class="st12" d="M611.5,347.1c-2.4,0-4.3,1.9-4.3,4.3s1.9,4.3,4.3,4.3s4.3-1.9,4.3-4.3S613.9,347.1,611.5,347.1z"/>
		</g>
		<g>
			<g>
				<path class="st7" d="M350.5,452.5c-4.5,0-8.2,3.7-8.2,8.2s3.7,8.2,8.2,8.2c4.6,0,8.2-3.7,8.2-8.2S355.1,452.5,350.5,452.5z"/>
			</g>
			<path class="st5" d="M342.3,460.8c0-6.1,4.9-11,11-11s11,4.9,11,11s-4.9,11-11,11"/>
			<g>
				<g>
					<path class="st2" d="M353.3,471.8c-0.6,0-1.2,0-1.8-0.1"/>
					<path class="st16" d="M346.8,469.7c-1.6-1.2-2.9-2.8-3.7-4.6"/>
					<path class="st2" d="M342.5,462.6c-0.1-0.6-0.1-1.2-0.1-1.8"/>
				</g>
			</g>
			<path class="st5" d="M342.3,460.8c0-6.1,4.9-11,11-11s11,4.9,11,11s-4.9,11-11,11"/>
		</g>
		<g>
			<path class="st1" d="M370.8,300.2c-2.6,0-4.7,2.1-4.7,4.7s2.1,4.7,4.7,4.7s4.7-2.1,4.7-4.7C375.4,302.3,373.3,300.2,370.8,300.2z
				"/>
			<path class="st5" d="M375.4,304.8c0,2.6-2.1,4.7-4.7,4.7s-4.7-2.1-4.7-4.7s2.1-4.7,4.7-4.7"/>
			<g>
				<g>
					<path class="st2" d="M375.4,304.8c0-0.6-0.1-1.2-0.3-1.8"/>
					<path class="st2" d="M372.5,300.5c-0.5-0.2-1.1-0.4-1.8-0.4"/>
				</g>
			</g>
		</g>
		<g>
			<line class="st17" x1="641.2" y1="478.2" x2="641.2" y2="483.1"/>
			<line class="st17" x1="643.7" y1="480.6" x2="638.8" y2="480.6"/>
		</g>
		<g>
			<line class="st17" x1="532.5" y1="321.6" x2="532.5" y2="328.1"/>
			<line class="st17" x1="535.7" y1="324.9" x2="529.2" y2="324.9"/>
		</g>
		<g>
			<line class="st17" x1="347.4" y1="405.9" x2="347.4" y2="415.7"/>
			<line class="st17" x1="352.3" y1="410.8" x2="342.5" y2="410.8"/>
		</g>
	</g>
	<g>
		<path class="st1" d="M362.3,341.3v13.8c0,2.2-2.7,3.3-4.2,1.6l-10.9-11.8c-0.8-0.9-1.4-1.9-1.9-2.9l-23.4-51.7
			c-0.6-1.2-0.8-2.5-0.8-3.8c0-3.4,1.9-6.6,5.1-8.3c4.8-2.4,10.7-0.3,12.7,4.7l20.8,50l1.7,4.1C362,338.4,362.3,339.8,362.3,341.3z"
			/>
		<path class="st18" d="M362.3,341.3v8c0-4.7-4.6-7.6-6.9-6.2c1-0.7,1.7-1.9,1.6-3.3c1.7,1.6,5.4,0.2,4.1-3.3l0.3,0.7
			C362,338.4,362.3,339.8,362.3,341.3z"/>
		<g>
			<path class="st18" d="M322.1,290.7c2.1,4.7,7.4,10.7,15.5,7.4l-9.9,5.2L322.1,290.7z"/>
		</g>
		<g>
			<path class="st7" d="M345.8,299.6c-0.9,5-5.2,9.1-10.2,9.9c1.7,3.9,3.4,7.7,5.1,11.6c0.5,1.2,8.7,18.4,9.3,18.9
				c3.4,3,6.9,0.2,6.7-0.9c1.1,0.8,2.7,0.7,3.8-0.1c0.3-0.2,0.5-0.5,0.6-0.8s0.1-0.5,0-0.8c-0.3-2.6-2.1-4.8-3.2-7.3
				c-0.7-1.6-1-3.4-1.7-5.1c-0.5-1.4-1.2-2.6-1.8-3.9c-1.1-2.4-2.1-4.8-3.1-7.2c-1.8-4.4-3.5-8.8-5.3-13.3"/>
		</g>
		<path class="st5" d="M349.5,347.4l8.6,9.3c1.5,1.6,4.2,0.6,4.2-1.6v-13.8c0-1.4-0.3-2.9-0.9-4.2L338.9,283"/>
		<line class="st5" x1="331.6" y1="311.8" x2="345.3" y2="342"/>
		<path class="st5" d="M326.2,278.2L326.2,278.2c-4.4,2.2-6.3,7.6-4.3,12.1l8.1,18"/>
		<path class="st12" d="M345.8,299.5c-4.9,6.2-12.8,7.6-16.2,7.9l-2.8-6.2c3.1-0.2,11.3-1.4,16.4-7.8L345.8,299.5z"/>
		<path class="st5" d="M360.9,335.7c0.1,0.2,0.2,0.4,0.3,0.6c1.2,3.5-2.5,4.9-4.1,3.4c0.1,1.4-0.6,2.6-1.6,3.3c-1.4,1-3.4,1-4.4-0.7
			c-0.4,1.1-3.6,3.9-5.7-0.4"/>
		<path class="st19" d="M362.3,354c0,1-3.5,2.7-5.5,1.3c0,0,2.4,2.7,4,2C362.5,356.5,362.3,355.5,362.3,354z"/>
		<g>
			<path class="st0" d="M334.9,281.3c-1.3-1.6-3.5-1.9-5.5-1.5c-0.4,0.1-0.8,0.2-1,0.5s-0.3,0.7-0.2,1c0.2,1.2,1.2,2.1,2.3,2.7
				c1.4,0.7,3,1.1,4.4,0.4c0.2-0.1,0.5-0.3,0.6-0.5s0.1-0.5,0.1-0.7C335.5,282.5,335.3,281.9,334.9,281.3"/>
		</g>
		<g>
			<g>
				<path class="st2" d="M338.9,282.9c-0.2-0.5-0.5-1-0.8-1.5"/>
				<path class="st20" d="M334.9,278.4c-1.5-0.9-3.2-1.3-5-1.2"/>
				<path class="st2" d="M327.7,277.6c-0.5,0.2-1,0.4-1.6,0.6"/>
			</g>
		</g>
		<g>
			<path class="st5" d="M360.1,357.5c-9.5,1.7-15.6,1.1-20.9,0.4"/>
		</g>
		<g>
			<g>
				<path class="st2" d="M339.2,357.9c-0.6-0.1-1.1-0.2-1.7-0.2"/>
				<path class="st21" d="M331.6,357c-2.2-0.1-4.4,0-6.9,0.5"/>
				<path class="st2" d="M321.8,358.2c-0.5,0.2-1.1,0.3-1.6,0.5"/>
			</g>
		</g>
	</g>
	<g>
		<path class="st1" d="M578.1,329c-2-8.7,2.6-17.8,8.7-24.5c8.1-8.8,19-14.9,30.6-17.1c1,11.3-1.2,23.4-8.2,32.5
			s-18.5,14.9-29.2,11.6"/>
		<path class="st1" d="M578.1,329c-2-8.7,2.6-17.8,8.7-24.5c8.1-8.8,19-14.9,30.6-17.1c1,11.3-1.2,23.4-8.2,32.5
			s-18.5,14.9-29.2,11.6"/>
		<g>
			<path class="st7" d="M580.1,331.5c0-9.8,6.3-32.9,42.6-42.5C621,337.2,588.2,335.9,580.1,331.5"/>
		</g>
		<path class="st5" d="M597.2,312c-5.1,7.1-10.2,14.2-17.1,19.5c-2.3,1.8-4.8,3.3-7.4,4.7"/>
		<path class="st5" d="M586.8,304.5c8.1-8.8,19-14.9,30.6-17.1c1,11.3-1.2,23.4-8.2,32.5s-18.5,14.9-29.2,11.6"/>
		<g>
			<g>
				<path class="st2" d="M578.1,329c-0.1-0.6-0.3-1.2-0.3-1.8"/>
				<path class="st22" d="M577.8,321.8c0.7-4.9,3-9.7,6.1-13.8"/>
				<path class="st2" d="M585.7,305.9c0.4-0.5,0.8-0.9,1.2-1.4"/>
			</g>
		</g>
	</g>
	<g>
		<path class="st1" d="M509.3,551.2c-10,5.7-22,3.2-29.9-5.4c-7.9-8.6-10.8-21.2-9.7-33c0.1-0.5,0.1-1.1,0.5-1.5
			c0.4-0.3,0.9-0.3,1.4-0.3c9.6,0.5,19.2,3.9,26.7,10.3c6.1,5.2,10.6,12.5,12.5,20.4C510.8,541.7,512.2,547.5,509.3,551.2z"/>
		<path class="st1" d="M510.8,541.7c-1.9-8-6.4-15.2-12.5-20.4c-7.5-6.4-17.1-9.8-26.7-10.3c-0.5,0-1,0-1.4,0.3
			c-0.4,0.4-0.5,0.9-0.5,1.5c-1.1,11.8,1.8,24.4,9.7,33c7.9,8.6,19.9,11.1,29.9,5.4"/>
		<g>
			<path class="st4" d="M511,550.3c-8.2-30.1-36.7-34.8-42.2-35.5c-1.8,12.3,0.7,23.1,2.8,27.3C481.4,561.4,503.2,556.9,511,550.3"
				/>
		</g>
		<path class="st5" d="M479.4,545.8c7.9,8.6,19.9,11.1,29.9,5.4"/>
		<path class="st5" d="M510.8,541.7c-1.9-8-6.4-15.2-12.5-20.4c-7.5-6.4-17.1-9.8-26.7-10.3c-0.5,0-1,0-1.4,0.3
			c-0.4,0.4-0.5,0.9-0.5,1.5"/>
		<path class="st5" d="M514.5,559.8c-4.9-8.8-10.6-17.4-19.1-21.9"/>
		<g>
			<g>
				<path class="st2" d="M469.7,512.8c-0.1,0.5-0.1,1-0.1,1.6"/>
				<path class="st23" d="M469.5,519.8c0.4,8.2,2.6,16.2,7.2,22.7"/>
				<path class="st2" d="M478.3,544.6c0.3,0.4,0.7,0.8,1,1.2"/>
			</g>
		</g>
	</g>
	<g>
		<path class="st1" d="M587.5,510.6l1.5,1.6c1.8,1.8,4.6,1.8,6.4,0c1.8-1.8,1.8-4.6,0-6.4l1.1,1.1l2.9-2.9c1.9-2,1.9-5.1,0-7.1
			l-7.9-7.9c-1.9-2-5.1-2-7.1,0l-2.9,2.9l1.1,1.1c-1.8-1.8-4.6-1.8-6.4,0s-1.8,4.6,0,6.4l1.5,1.5l-21,2.8
			c0.4,7.6-2.2,22.4-13.9,34.8l6.9,6.9c12.5-11.7,27.2-14.2,34.8-13.9L587.5,510.6z"/>
		<path class="st0" d="M573.1,523.3c-2.2,2.2-5.1,2.9-6.5,1.4c-1.4-1.4-0.8-4.3,1.4-6.5s5.1-2.8,6.5-1.4
			C576,518.2,575.3,521.1,573.1,523.3z"/>
		<g>
			<path class="st7" d="M580.4,503.5l8.6,8.6c1.8,1.8,4.6,1.8,6.4,0l0,0c1.8-1.8,1.8-4.6,0-6.4l-8.6-8.6c-1.8-1.8-4.6-1.8-6.4,0l0,0
				C578.7,498.9,578.7,501.8,580.4,503.5"/>
		</g>
		<path class="st5" d="M577.9,501l-21,2.8c0.4,7.6-2.2,22.4-13.9,34.8"/>
		<path class="st5" d="M549.9,545.4c12.5-11.7,27.2-14.2,34.8-13.9l2.8-21"/>
		<path class="st5" d="M595.4,512.1L595.4,512.1c1.8-1.8,1.8-4.6,0-6.4L582.7,493c-1.8-1.8-4.6-1.8-6.4,0l0,0
			c-1.8,1.8-1.8,4.6,0,6.4"/>
		<path class="st5" d="M599.4,497l-7.9-7.9c-1.9-2-5.1-2-7.1,0l-2.9,2.9l15,15l2.9-2.9C601.4,502.1,601.4,498.9,599.4,497z"/>
		<path class="st5" d="M573.1,523.3c-2.2,2.2-5.8,2.2-8,0s-2.2-5.8,0-8s5.8-2.2,8,0S575.3,521.1,573.1,523.3z"/>
		<g>
			<g>
				<line class="st2" x1="565.1" y1="523.3" x2="563.9" y2="524.6"/>
				<line class="st24" x1="560.1" y1="528.4" x2="543" y2="545.4"/>
				<line class="st2" x1="541.1" y1="547.3" x2="539.8" y2="548.6"/>
			</g>
		</g>
		<g>
			<g>
				<line class="st2" x1="576.3" y1="499.4" x2="577.6" y2="500.7"/>
				<path class="st25" d="M581.1,504.2l7.9,7.9c0.7,0.7,1.5,1.1,2.4,1.3"/>
				<path class="st2" d="M593.9,513.1c0.5-0.2,1.1-0.5,1.5-1"/>
			</g>
		</g>
	</g>
	<g>
		<line class="st26" x1="159.3" y1="438.1" x2="151.7" y2="446.9"/>
		<g>
			<path class="st12" d="M131.3,470.3L131.3,470.3c-2.6-2.3-2.9-6.2-0.6-8.8l12.2-14c2.3-2.6,6.2-2.9,8.8-0.6l0,0
				c2.6,2.3,2.9,6.2,0.6,8.8l-12.2,14C137.9,472.3,133.9,472.6,131.3,470.3z"/>
		</g>
		<g>
			<path class="st27" d="M209.4,434.5c-12.9,14.8-35.3,16.4-50.1,3.5s-16.4-35.3-3.5-50.1c12.9-14.8,35.3-16.4,50.1-3.5
				S222.3,419.7,209.4,434.5z"/>
		</g>
		<path class="st1" d="M201,427.2c-8.8,10.1-24.2,11.2-34.3,2.4c-10.1-8.8-11.2-24.2-2.4-34.3s24.2-11.2,34.3-2.4
			C208.7,401.7,209.8,417.1,201,427.2z"/>
		<g>
			<g>
				<path class="st28" d="M198.5,392.9c0.9,0.8,1.8,1.6,2.5,2.5"/>
				<path class="st29" d="M206.3,405.7c1,4.4,0.8,9.1-0.6,13.4"/>
				<path class="st28" d="M203.1,424.3c-0.6,1-1.4,2-2.2,2.9"/>
			</g>
		</g>
	</g>
	<g>
		<g>
			<line class="st2" x1="636" y1="357.9" x2="636" y2="359.7"/>
			<line class="st30" x1="636" y1="365.5" x2="636" y2="372.4"/>
			<line class="st2" x1="636" y1="375.3" x2="636" y2="377.1"/>
		</g>
	</g>
	<g>
		<g>
			<line class="st2" x1="309.1" y1="456.1" x2="309.1" y2="457.9"/>
			<line class="st31" x1="309.1" y1="462.7" x2="309.1" y2="468.4"/>
			<line class="st2" x1="309.1" y1="470.8" x2="309.1" y2="472.6"/>
		</g>
	</g>
	<line class="st11" x1="651" y1="517.4" x2="670.9" y2="517.4"/>
	<g>
		<path class="st5" d="M580.1,236.6h14c3,0,5.3,2.4,5.3,5.3v6.7c0,2.9-2.4,5.3-5.3,5.3h-34.6c-2.9,0-5.3-2.4-5.3-5.3V242
			c0-3,2.4-5.3,5.3-5.3h11.8"/>
		<path class="st5" d="M577.9,283.2h-2.6c-1,0-1.8-0.8-1.8-1.8v-10.9c0-1,0.8-1.8,1.8-1.8h2.6c1,0,1.8,0.8,1.8,1.8v10.9
			C579.8,282.3,578.9,283.2,577.9,283.2z"/>
		<path class="st5" d="M599.9,245.4h2.1c1.9,0,3.5,1.6,3.5,3.5v8.7c0,1.9-1.6,3.5-3.5,3.5h-25.4v7.5"/>
		<g>
			<path class="st0" d="M570.3,233.7h-5h-2.8c-1.2,0-2.2,1-2.2,2.2v7.5c0,1.4,1.1,2.5,2.5,2.5l0,0c1.4,0,2.5-1.1,2.5-2.5v-1.2
				c0-1.4,1.1-2.5,2.5-2.5l0,0c1.4,0,2.5,1.1,2.5,2.5v4.8c0,1.4,1.1,2.5,2.5,2.5l0,0c1.4,0,2.5-1.1,2.5-2.5v-11.1
				c0-1.2-1-2.2-2.2-2.2H570.3z"/>
		</g>
	</g>
	<g>
		<g>
			<path class="st1" d="M357.5,274.4h5v-2.1c0-5.6,4.1-10.3,9.4-11.3c1.4-8.4,8.2-15,16.8-16.1c0.8-0.1,1.7-0.2,2.5-0.2
				c10.8,0,19.5,8.8,19.5,19.6c0,0.3,0,0.5,0,0.8l0,0c5.2,0,9.4,4.2,9.4,9.4h9.8"/>
			<path class="st0" d="M414.1,274.3h-49.4v-2.1c0-5.6,4.1-10.3,9.4-11.3c1.4-8.4,8.2-15,16.8-16.1c8,1.3,14.2,9.5,14.2,19.4
				c0,0.3,0,0.5,0,0.8l0,0C409.4,264.9,414.1,269.1,414.1,274.3z"/>
			<path class="st5" d="M410.8,264.2c0,0.3,0,0.5,0,0.8l0,0c5.2,0,9.4,4.2,9.4,9.4h9.8"/>
			<path class="st5" d="M357.5,274.4h5v-2.1c0-5.6,4.1-10.3,9.4-11.3c1.4-8.4,8.2-15,16.8-16.1c0.8-0.1,1.7-0.2,2.5-0.2"/>
			<g>
				<g>
					<path class="st2" d="M391.2,244.7c0.6,0,1.2,0,1.8,0.1"/>
					<path class="st32" d="M399.1,246.3c5.4,2.4,9.6,7.2,11.1,13"/>
					<path class="st2" d="M410.7,262.4c0,0.6,0.1,1.2,0.1,1.8"/>
				</g>
			</g>
		</g>
		<line class="st5" x1="411.9" y1="274.4" x2="362.5" y2="274.4"/>
	</g>
	<g>
		<polygon class="st0" points="430.8,484.8 419.8,478.9 419.8,472.7 430.8,478.6 		"/>
		<path class="st1" d="M419.8,493.3c0,2.3-1.9,4.2-4.2,4.2c-2.3,0-4.2-1.9-4.2-4.2s1.9-4.2,4.2-4.2C418,489.1,419.8,491,419.8,493.3
			z"/>
		<path class="st1" d="M435,501.5c0,2.3-1.9,4.2-4.2,4.2s-4.2-1.9-4.2-4.2s1.9-4.2,4.2-4.2S435,499.1,435,501.5z"/>
		<path class="st5" d="M419.8,493.3c0,2.3-1.9,4.2-4.2,4.2c-2.3,0-4.2-1.9-4.2-4.2s1.9-4.2,4.2-4.2"/>
		<polyline class="st5" points="419.8,493.3 419.8,472.7 435,480.9 435,501.5 		"/>
		<path class="st5" d="M435,501.5c0,2.3-1.9,4.2-4.2,4.2s-4.2-1.9-4.2-4.2s1.9-4.2,4.2-4.2S435,499.1,435,501.5z"/>
		<line class="st5" x1="419.8" y1="478.9" x2="430.8" y2="484.8"/>
	</g>
	<g>
		<path class="st0" d="M315,520.1L315,520.1c2.5,0,4.4,2.7,4.4,5.9l0,0c0,3.3-2,5.9-4.4,5.9h-9.8c-2.4,0-4.4-2.6-4.4-5.9l0,0
			c0-3.3,2-5.9,4.4-5.9l0,0"/>
		<line class="st5" x1="307" y1="525.4" x2="307" y2="504.2"/>
		<line class="st5" x1="307" y1="504.2" x2="302.1" y2="512.1"/>
		<line class="st5" x1="307" y1="504.2" x2="311.9" y2="512.1"/>
		<path class="st5" d="M313.5,520.1L313.5,520.1c3.3,0,5.9,2.7,5.9,5.9l0,0c0,3.3-2.6,5.9-5.9,5.9h-13"/>
		<g>
			<g>
				<path class="st2" d="M300.5,532c-0.6,0-1.1-0.1-1.7-0.2"/>
				<path class="st33" d="M294.9,527.9c-0.2-0.6-0.3-1.2-0.3-1.9c0-1.7,0.7-3.2,1.8-4.3"/>
				<path class="st2" d="M298.8,520.4c0.5-0.2,1.1-0.2,1.6-0.2l0,0"/>
			</g>
		</g>
	</g>
	<g>
		<polyline class="st1" points="622.6,453.5 622.6,464 596.4,464 596.4,448.7 622.6,448.7 		"/>
		<g>
			<rect x="600.1" y="448.7" class="st4" width="22.5" height="11.8"/>
		</g>
		<polyline class="st1" points="596.4,448.7 609.5,457.2 622.6,448.7 		"/>
		<polyline class="st5" points="622.6,454.6 622.6,464 596.4,464 596.4,448.7 622.6,448.7 		"/>
		<polyline class="st5" points="596.4,448.7 609.5,457.2 622.6,448.7 		"/>
	</g>
	<g>
		<g>
			<polygon class="st7" points="299.3,418 299.3,441 304.4,435.4 328.4,435.4 328.4,418 			"/>
		</g>
	</g>
	<g>
		<path class="st1" d="M697.9,373.5v9.3l8-9.3h8c2.7,0,4.8-2,4.8-4.5v-16.2c0-2.5-2.2-4.6-4.8-4.6h-46.3h-1.8c-2.7,0-4.8,2-4.8,4.6
			V369c0,2.5,2.2,4.5,4.8,4.5h26.7"/>
		<g>
			<path class="st4" d="M713,373.5h-41.1c-3.2,0-5.7-2.4-5.7-5.4v-11.8c0-1.7,1.4-3,3.2-3H713c3.2,0,5.7,2.4,5.7,5.4v9.4
				C718.7,371.1,716.1,373.5,713,373.5z"/>
		</g>
		<path class="st34" d="M713.9,348.2c2.7,0,4.8,2,4.8,4.6V369c0,2.5-2.2,4.6-4.8,4.6h-8l-8,9.3v-9.3"/>
		<path class="st34" d="M692.4,373.5h-26.7c-2.7,0-4.8-2-4.8-4.5v-16.2c0-2.5,2.2-4.6,4.8-4.6"/>
		<line class="st34" x1="693" y1="348.2" x2="713.9" y2="348.2"/>
		<g>
			<path class="st1" d="M677.9,360.9c0,1.7-1.5,3-3.2,3c-1.8,0-3.2-1.4-3.2-3s1.5-3,3.2-3C676.5,357.8,677.9,359.2,677.9,360.9z"/>
			<path class="st1" d="M693,360.9c0,1.7-1.5,3-3.2,3c-1.8,0-3.2-1.4-3.2-3s1.5-3,3.2-3C691.6,357.8,693,359.2,693,360.9z"/>
			<path class="st1" d="M708.2,360.9c0,1.7-1.5,3-3.2,3c-1.8,0-3.2-1.4-3.2-3s1.5-3,3.2-3C706.7,357.8,708.2,359.2,708.2,360.9z"/>
		</g>
		<g>
			<g>
				<line class="st35" x1="665.8" y1="348.2" x2="667.7" y2="348.2"/>
				<line class="st36" x1="673.1" y1="348.2" x2="688.4" y2="348.2"/>
				<line class="st35" x1="691.1" y1="348.2" x2="693" y2="348.2"/>
			</g>
		</g>
	</g>
</g>
<g id="Paper">
	<path class="st37" d="M746.2,177.7h-23.8v-32c0-4.1,3.4-7.5,7.5-7.5h8.8c4.1,0,7.5,3.4,7.5,7.5V177.7z"/>
	<path class="st37" d="M705.9,229.1h6c5.8,0,10.5-4.9,10.5-10.9v-40.4v-27.1c0-6.9,5.3-12.4,11.9-12.4h-56.7
		c-6.7,0-12.1,5.6-12.1,12.5v60.5"/>
	<path class="st37" d="M705.9,211.3h-39.7l0,0c-4,5.2-4,12.6,0,17.7l0,0h39.7l0,0C701.8,223.9,701.8,216.5,705.9,211.3L705.9,211.3z
		"/>
	<rect x="673" y="164.4" class="st27" width="24.8" height="5.2"/>
	<rect x="701.4" y="164.4" class="st27" width="14.6" height="5.2"/>
	<rect x="673" y="178.1" class="st27" width="8.7" height="5.2"/>
	<rect x="685.4" y="178.1" class="st27" width="8.7" height="5.2"/>
	<rect x="697.9" y="178.1" class="st27" width="18.1" height="5.2"/>
	<rect x="673" y="191.8" class="st27" width="14.1" height="5.2"/>
	<rect x="690.3" y="191.8" class="st27" width="10.5" height="5.2"/>
	<rect x="703.7" y="191.8" class="st27" width="12.3" height="5.2"/>
</g>
<g id="Book">
	<rect x="296.4" y="582.8" class="st27" width="11.9" height="4.9"/>
	<rect x="296.4" y="590.4" class="st27" width="11.9" height="4.9"/>
	<path class="st38" d="M298.4,645.4h9.9V569h-9.9c-1.1,0-2,0.9-2,2v72.4C296.4,644.5,297.3,645.4,298.4,645.4z"/>
	<path class="st38" d="M308.3,645.4h52l-0.2-3.5c-1.6-24.3-1.5-48.6,0.2-72.9l0,0h-52V645.4z"/>
	<rect x="315.2" y="580.4" class="st39" width="37.5" height="19.4"/>
</g>
<g id="toms">
	
		<ellipse transform="matrix(0.7071 -0.7071 0.7071 0.7071 2.675 305.0613)" class="st40" cx="369.6" cy="149.3" rx="18.4" ry="45.4"/>
	<path class="st40" d="M340,158.1c-0.7,1.4-1.4,2.8-2,4.1"/>
	<path class="st40" d="M336.3,166.5c-2.1,6.5-1.9,11.9,1.2,14.9c7.2,7.2,27.4-1.4,45.1-19.1s26.3-38,19.1-45.1
		c-7.2-7.2-27.4,1.4-45.1,19.1c-4.4,4.4-8.2,8.9-11.3,13.3c-0.8,1.1-1.5,2.2-2.2,3.2c-0.3,0.4-0.6,0.9-0.8,1.3"/>
	<path class="st27" d="M376.8,149.3c0-4-3.2-7.2-7.2-7.2s-7.2,3.2-7.2,7.2s3.2,7.2,7.2,7.2S376.8,153.3,376.8,149.3z"/>
	<circle class="st39" cx="351.8" cy="182.8" r="4.7"/>
	<circle class="st27" cx="356.3" cy="117.8" r="4.7"/>
</g>
<g id="Notes">
	<polyline class="st41" points="830.7,271.4 837.3,271.4 837.3,343.5 780.6,343.5 780.6,336.9 	"/>
	<polygon class="st27" points="830.7,315.4 809.3,336.9 774,336.9 774,264.7 830.7,264.7 	"/>
	<polygon class="st39" points="809.3,336.9 809.3,315.4 830.7,315.4 	"/>
	<line class="st41" x1="784.5" y1="283.8" x2="806.3" y2="283.8"/>
	<line class="st41" x1="784.5" y1="295.6" x2="790.5" y2="295.6"/>
	<line class="st41" x1="796.9" y1="295.6" x2="802.8" y2="295.6"/>
	<line class="st41" x1="808.6" y1="295.6" x2="821.9" y2="295.6"/>
	<line class="st41" x1="784.5" y1="307.5" x2="796.9" y2="307.5"/>
	<line class="st41" x1="802.4" y1="307.5" x2="821.9" y2="307.5"/>
	<line class="st41" x1="813" y1="283.8" x2="821.9" y2="283.8"/>
</g>
<g id="Graduation">
	<polyline class="st42" points="225.3,219.1 225.3,241.7 186,230.4 186,206.3 	"/>
	<polyline class="st42" points="225.3,219.1 225.3,241.7 264.6,230.4 264.6,206.3 	"/>
	<polygon class="st27" points="253.1,191.9 225.3,182.8 197.5,191.9 169.8,200.9 197.5,210 225.3,219.1 253.1,210 280.9,200.9 	"/>
	<polyline class="st42" points="225.3,200.9 253.1,210 253.1,239.7 	"/>
	<path class="st39" d="M258.5,254.9h-10.8v-10.7c0-2.5,2-4.4,4.4-4.4h1.9c2.5,0,4.4,2,4.4,4.4v10.7H258.5z"/>
</g>
<g id="Degree">
	<path class="st43" d="M182.1,284c0,5.5,1,10.9,3.1,16.1l-0.8-0.1c-9.4-1.7-18.9-2.7-28.5-3c-5.1-0.2-10.3-0.1-15.4,0.1
		c-8.8,0.4-17.5,1.4-26.2,3c-2.1-5.2-3.1-10.6-3.1-16.1s1-10.9,3.1-16.1l0.4,0.1c8.5,1.5,17.2,2.5,25.8,2.9
		c5.1,0.2,10.3,0.3,15.4,0.1c9.7-0.3,19.3-1.3,28.9-3l0.4-0.1C183.1,273.1,182.1,278.5,182.1,284z"/>
	<path class="st43" d="M185.2,267.9L185.2,267.9c7.4,9.4,7.4,22.7,0,32.1l0,0"/>
	<path class="st43" d="M155.9,271.1V297c-5.1-0.2-10.3-0.1-15.4,0.1V271C145.6,271.2,150.8,271.2,155.9,271.1z"/>
	<polygon class="st39" points="143.3,303.5 139.8,299.9 134.7,299.8 139.6,288.3 148.2,292 	"/>
	<polygon class="st39" points="153.1,303.5 156.7,299.9 161.7,299.8 156.8,288.3 148.2,292 	"/>
	<circle class="st27" cx="148.2" cy="284" r="10.2"/>
	<path class="st43" d="M154.1,284c0-3.3-2.7-5.9-5.9-5.9c-3.3,0-5.9,2.7-5.9,5.9s2.7,5.9,5.9,5.9C151.5,289.9,154.1,287.3,154.1,284
		z"/>
</g>
<g id="Calc_1_">
	<path class="st44" d="M552.8,202.5h-46.4c-4.2,0-7.5-3.4-7.5-7.5v-50.4c0-4.2,3.4-7.5,7.5-7.5h46.4c4.2,0,7.5,3.4,7.5,7.5V195
		C560.3,199.1,556.9,202.5,552.8,202.5z"/>
	<rect x="508.4" y="167.2" class="st44" width="14.1" height="14.1"/>
	<rect x="522.5" y="167.2" class="st44" width="14.1" height="14.1"/>
	<rect x="536.6" y="167.2" class="st44" width="14.1" height="28.1"/>
	<rect x="508.4" y="181.3" class="st44" width="14.1" height="14.1"/>
	<rect x="522.5" y="181.3" class="st44" width="14.1" height="14.1"/>
	<rect x="508.4" y="143.9" class="st39" width="42.4" height="16.5"/>
	<line class="st44" x1="512.9" y1="174.2" x2="517.7" y2="174.2"/>
	<line class="st44" x1="512.9" y1="188.3" x2="517.7" y2="188.3"/>
	<line class="st44" x1="527.2" y1="188.3" x2="531.9" y2="188.3"/>
	<line class="st44" x1="541.3" y1="178.5" x2="546" y2="178.5"/>
	<line class="st44" x1="541.3" y1="183.9" x2="546" y2="183.9"/>
	<line class="st44" x1="515.3" y1="186" x2="515.3" y2="190.7"/>
	<line class="st44" x1="527.9" y1="172.5" x2="531.3" y2="175.9"/>
	<line class="st44" x1="531.3" y1="172.5" x2="527.9" y2="175.9"/>
	<path class="st45" d="M530.8,185.2c0,0.7-0.6,1.2-1.2,1.2c-0.7,0-1.2-0.6-1.2-1.2s0.6-1.2,1.2-1.2
		C530.3,183.9,530.8,184.5,530.8,185.2z"/>
	<circle class="st45" cx="529.6" cy="191.7" r="1.2"/>
</g>
<g id="Chatbox">
	<path class="st46" d="M162.2,543.5c15.1,0,27.3,12.2,27.3,27.3c0,11.5-7.2,21.4-17.3,25.4c1.8,3.3,4.5,6.3,7.8,8.9
		c-0.9-0.1-1.8-0.2-2.6-0.4c-5.4-1.1-10.1-3.5-13.5-6.7c-0.5,0-1.1,0.1-1.6,0.1c-15.1,0-27.3-12.2-27.3-27.3
		C134.9,555.7,147.1,543.5,162.2,543.5z"/>
	<path class="st39" d="M126.4,558.2c-15.1,0-27.3,12.2-27.3,27.3c0,11.5,7.2,21.4,17.3,25.4c-1.8,3.3-4.5,6.3-7.8,8.9
		c0.9-0.1,1.8-0.2,2.6-0.4c5.4-1.1,10.1-3.5,13.5-6.7c0.5,0,1.1,0.1,1.6,0.1c15.1,0,27.3-12.2,27.3-27.3S141.4,558.2,126.4,558.2z"
		/>
	<path class="st45" d="M116,584.6c0,1.8-1.5,3.2-3.2,3.2c-1.8,0-3.2-1.5-3.2-3.2c0-1.8,1.5-3.2,3.2-3.2
		C114.6,581.3,116,582.8,116,584.6z"/>
	
		<ellipse transform="matrix(0.9806 -0.1961 0.1961 0.9806 -112.1931 36.1413)" class="st45" cx="126.4" cy="584.6" rx="3.2" ry="3.2"/>
	<circle class="st45" cx="140" cy="584.6" r="3.2"/>
	<path class="st27" d="M155.5,569.2c0,1.8-1.5,3.2-3.2,3.2c-1.8,0-3.2-1.5-3.2-3.2s1.5-3.2,3.2-3.2
		C154,565.9,155.5,567.4,155.5,569.2z"/>
	<circle class="st27" cx="165.8" cy="569.2" r="3.2"/>
	<circle class="st27" cx="179.4" cy="569.2" r="3.2"/>
</g>
<g id="Pencil">
	<polyline class="st41" points="867.8,378.6 844.8,374.1 849.3,397.1 	"/>
	<line class="st41" x1="854.9" y1="376.5" x2="847.2" y2="384.2"/>
	
		<rect x="865" y="379.5" transform="matrix(0.7071 -0.7071 0.7071 0.7071 -31.1325 740.8275)" class="st27" width="27.4" height="57"/>
	<line class="st41" x1="901.9" y1="409.9" x2="880.6" y2="431.2"/>
	<line class="st41" x1="909.5" y1="417.5" x2="888.2" y2="438.8"/>
</g>
<g id="Triangle_1">
	<path class="st39" d="M801,543.8v68.5h56.3L801,543.8z M811.5,573.8l22.6,27.5h-22.6V573.8z"/>
	<line class="st47" x1="800.4" y1="601.4" x2="806.5" y2="601.4"/>
	<line class="st47" x1="800.4" y1="592.2" x2="806.5" y2="592.2"/>
	<line class="st47" x1="800.4" y1="582.9" x2="806.5" y2="582.9"/>
	<line class="st47" x1="800.4" y1="573.7" x2="806.5" y2="573.7"/>
	<line class="st47" x1="800.4" y1="564.4" x2="806.5" y2="564.4"/>
</g>
<g id="Triangle_2">
	<path class="st27" d="M871.1,573.3l-1.2-68.5h-56.3L871.1,573.3z M860.7,543.2l-23.8-27.5h22.6L860.7,543.2z"/>
	<line class="st47" x1="870.6" y1="515.6" x2="864.5" y2="515.6"/>
	<line class="st47" x1="870.6" y1="524.9" x2="864.5" y2="524.9"/>
	<line class="st47" x1="870.6" y1="534.1" x2="864.5" y2="534.1"/>
	<line class="st47" x1="871.8" y1="543.4" x2="865.7" y2="543.4"/>
	<path class="st48" d="M878.5,517.5"/>
</g>
<g id="Lens" class="st49">
	<line class="st50" x1="169.5" y1="446.7" x2="159.8" y2="456.4"/>
	<line class="st50" x1="148.9" y1="445.5" x2="158.6" y2="435.8"/>
	<path class="st50" d="M131.2,483.7l-9.5-9.5c-2.3-2.3-2.3-6.2,0-8.5l20.4-20.4c2.3-2.3,6.2-2.3,8.5,0l9.5,9.5
		c2.3,2.3,2.3,6.2,0,8.5l-20.4,20.4C137.3,486,133.5,486,131.2,483.7z"/>
	<path class="st51" d="M206.7,447.7c25.9-15.3,24-53.3-5.8-65.3c-7.7-3.1-16.4-3.1-24.1,0c-29.7,12-31.6,50-5.8,65.3
		C182.1,454.3,195.7,454.3,206.7,447.7z"/>
	<path class="st50" d="M195.9,439.7c22.7-8.2,22.7-38.3,0-46.5c-4.5-1.6-9.6-1.6-14.1,0c-22.7,8.2-22.7,38.3,0,46.5
		C186.4,441.4,191.4,441.4,195.9,439.7z"/>
</g>
<g id="Calc">
	<path class="st52" d="M725.4,663.9H672c-4.8,0-8.7-3.9-8.7-8.7v-58c0-4.8,3.9-8.7,8.7-8.7h53.4c4.8,0,8.7,3.9,8.7,8.7v58
		C734.1,660,730.2,663.9,725.4,663.9z"/>
	<rect x="674.3" y="623.2" class="st52" width="16.2" height="16.2"/>
	<rect x="690.6" y="623.2" class="st52" width="16.2" height="16.2"/>
	<rect x="706.8" y="623.2" class="st52" width="16.2" height="32.3"/>
	<rect x="674.3" y="639.4" class="st52" width="16.2" height="16.2"/>
	<rect x="690.6" y="639.4" class="st52" width="16.2" height="16.2"/>
	<rect x="674.3" y="596.4" class="st39" width="48.7" height="19"/>
	<line class="st52" x1="679.6" y1="631.3" x2="685" y2="631.3"/>
	<line class="st52" x1="679.6" y1="647.6" x2="685" y2="647.6"/>
	<line class="st52" x1="696" y1="647.6" x2="701.4" y2="647.6"/>
	<line class="st52" x1="712.1" y1="636.3" x2="717.6" y2="636.3"/>
	<line class="st52" x1="712.1" y1="642.5" x2="717.6" y2="642.5"/>
	<line class="st52" x1="682.3" y1="644.8" x2="682.3" y2="650.3"/>
	<line class="st52" x1="696.8" y1="629.4" x2="700.6" y2="633.2"/>
	<line class="st52" x1="700.6" y1="629.4" x2="696.8" y2="633.2"/>
	<path class="st45" d="M700.1,643.9c0,0.8-0.6,1.4-1.4,1.4s-1.4-0.6-1.4-1.4c0-0.8,0.6-1.4,1.4-1.4S700.1,643.1,700.1,643.9z"/>
	<circle class="st45" cx="698.7" cy="651.4" r="1.4"/>
</g>
<g id="Search">
	<line class="st5" x1="457.5" y1="316.7" x2="461.7" y2="320.9"/>
	<g>
		<path class="st12" d="M472.8,332L472.8,332c-1.2,1.2-3.2,1.2-4.5,0l-6.6-6.6c-1.2-1.2-1.2-3.2,0-4.5l0,0c1.2-1.2,3.2-1.2,4.5,0
			l6.6,6.6C474,328.7,474,330.7,472.8,332z"/>
	</g>
	<g>
		<path class="st7" d="M457.5,291.4c7,7,7,18.4,0,25.4s-18.4,7-25.4,0s-7-18.4,0-25.4S450.5,284.4,457.5,291.4z"/>
	</g>
	<path class="st1" d="M453.5,295.4c4.8,4.8,4.8,12.6,0,17.4s-12.6,4.8-17.4,0s-4.8-12.6,0-17.4S448.7,290.6,453.5,295.4z"/>
	<g>
		<g>
			<path class="st2" d="M436.1,295.4c0.4-0.4,0.9-0.8,1.4-1.2"/>
			<path class="st53" d="M442.9,291.9c2.3-0.4,4.6-0.1,6.7,0.8"/>
			<path class="st2" d="M452.1,294.2c0.5,0.4,0.9,0.8,1.4,1.2"/>
		</g>
	</g>
</g>
<g id="Laptop">
	<path class="st39" d="M518.2,699.9h-12.8c-1.4,0-2.5-1.1-2.5-2.5v-2.5h17.8v2.5C520.7,698.8,519.6,699.9,518.2,699.9z"/>
	<path class="st48" d="M570.5,694.9H457.6v-65.3c0-3.7,3-6.7,6.7-6.7h99.6c3.7,0,6.7,3,6.7,6.7v65.3H570.5z"/>
	<polygon class="st27" points="564,688.4 464,688.4 464,688.4 464,629.3 564,629.3 	"/>
	<path class="st48" d="M573.5,704.9H454.6c-2.4,0-4.3-1.9-4.3-4.3v-5.1c0-0.4,0.3-0.7,0.7-0.7h126.1c0.4,0,0.7,0.3,0.7,0.7v5.1
		C577.8,703,575.8,704.9,573.5,704.9z"/>
	<polygon class="st54" points="464,629.3 464,688.4 511.8,688.4 478.3,629.3 	"/>
	<polygon class="st54" points="494.3,629.4 527.3,688.4 542.1,688.4 509.3,629.4 	"/>
</g>
</svg>
