<?xml version="1.0" encoding="utf-8"?>
<!-- Generator: Adobe Illustrator 23.0.3, SVG Export Plug-In . SVG Version: 6.00 Build 0)  -->
<svg version="1.1" id="OBJECTS" xmlns="http://www.w3.org/2000/svg" xmlns:xlink="http://www.w3.org/1999/xlink" x="0px" y="0px"
	 viewBox="0 0 500 500" style="enable-background:new 0 0 500 500;" xml:space="preserve">
<style type="text/css">
	.st0{fill:#FFEC47;}
	.st1{fill:#FFFFFF;}
	.st2{fill:none;stroke:#173066;stroke-width:2.0583;stroke-linecap:round;stroke-linejoin:round;}
	.st3{fill:none;stroke:#173066;stroke-width:2.0583;stroke-linecap:round;stroke-linejoin:round;stroke-dasharray:3.9067,5.8601;}
	.st4{fill:#7ABF89;}
	.st5{fill:none;stroke:#173066;stroke-width:2.0583;stroke-linecap:round;stroke-linejoin:round;stroke-miterlimit:10;}
	.st6{fill:none;stroke:#173066;stroke-width:2.0583;stroke-linecap:round;stroke-linejoin:round;stroke-dasharray:4.3525,6.5287;}
	.st7{fill:#71CAF3;}
	.st8{fill:#62ADCE;}
	.st9{fill:#E5E5E5;}
	.st10{fill:none;stroke:#173066;stroke-width:2.0583;stroke-linecap:round;stroke-linejoin:round;stroke-dasharray:3.7355,5.6033;}
	.st11{fill:none;stroke:#173066;stroke-width:2.0583;stroke-linecap:round;stroke-linejoin:round;stroke-dasharray:3.7329,5.5993;}
	.st12{fill:none;stroke:#173066;stroke-width:2.0583;stroke-linecap:round;stroke-linejoin:round;stroke-dasharray:3.444,5.166;}
	.st13{fill:none;stroke:#173066;stroke-width:5.4391;stroke-linecap:round;stroke-linejoin:round;stroke-miterlimit:10;}
	.st14{fill:#173066;}
	.st15{fill:none;}
	.st16{font-family:'Raleway-Black';}
	.st17{font-size:24px;}
	.st18{letter-spacing:1;}
	.st19{font-family:'Raleway-SemiBold';}
	.st20{font-size:25px;}
	.st21{font-family:'Raleway-Medium';}
	.st22{font-size:11px;}
	.st23{fill:none;stroke:#173066;stroke-width:2.0583;stroke-linecap:round;stroke-linejoin:round;stroke-dasharray:2.6079,3.9118;}
	.st24{fill:none;stroke:#173066;stroke-width:2.0583;stroke-linecap:round;stroke-linejoin:round;stroke-dasharray:3.4243,5.1364;}
	.st25{fill:none;stroke:#FFEC47;stroke-width:1.813;stroke-linecap:round;stroke-linejoin:round;stroke-miterlimit:10;}
	.st26{fill:#DDDDDD;}
	.st27{fill:#173066;stroke:#173066;stroke-width:2.0583;stroke-linecap:round;stroke-linejoin:round;stroke-miterlimit:10;}
	.st28{fill:none;stroke:#173066;stroke-width:2.0583;stroke-linecap:round;stroke-linejoin:round;stroke-dasharray:2.9618,4.4427;}
	.st29{fill:none;stroke:#173066;stroke-width:2.0583;stroke-linecap:round;stroke-linejoin:round;stroke-dasharray:3.9754,5.9632;}
	.st30{fill:none;stroke:#173066;stroke-width:2.0583;stroke-linecap:round;stroke-linejoin:round;stroke-dasharray:3.5926,5.3888;}
	.st31{fill:none;stroke:#7ABF89;stroke-width:1.813;stroke-linecap:round;stroke-linejoin:round;stroke-miterlimit:10;}
	.st32{fill:none;stroke:#7ABF89;stroke-width:1.813;stroke-linecap:round;stroke-linejoin:round;}
	.st33{fill:none;stroke:#7ABF89;stroke-width:1.813;stroke-linecap:round;stroke-linejoin:round;stroke-dasharray:3.0502,4.5752;}
	.st34{fill:none;stroke:#173066;stroke-width:2.0583;stroke-linecap:round;stroke-linejoin:round;stroke-dasharray:3.5771,5.3657;}
	.st35{fill:none;stroke:#173066;stroke-width:2.0583;stroke-linecap:round;stroke-linejoin:round;stroke-dasharray:3.5707,5.3561;}
	.st36{fill:none;stroke:#173066;stroke-width:2.0583;stroke-linecap:round;stroke-linejoin:round;stroke-dasharray:3.2973,4.946;}
	.st37{fill:none;stroke:#173066;stroke-width:2.0583;stroke-linecap:round;stroke-linejoin:round;stroke-dasharray:3.9148,5.8722;}
	.st38{fill:none;stroke:#173066;stroke-width:2.0583;stroke-linecap:round;stroke-linejoin:round;stroke-dasharray:3.9104,5.8656;}
	.st39{fill:none;stroke:#173066;stroke-width:2.0583;stroke-linecap:round;stroke-linejoin:round;stroke-dasharray:3.209,4.8134;}
	.st40{fill:none;stroke:#173066;stroke-width:2.0583;stroke-linecap:round;stroke-linejoin:round;stroke-dasharray:4.1669,6.2504;}
	.st41{fill:none;stroke:#173066;stroke-width:2.0583;stroke-linecap:round;stroke-linejoin:round;stroke-dasharray:3.8031,5.7047;}
	.st42{fill:none;stroke:#173066;stroke-width:2.0583;stroke-linecap:round;stroke-linejoin:round;stroke-dasharray:3.3211,4.9817;}
	.st43{fill:none;stroke:#173066;stroke-width:2.0583;stroke-linecap:round;stroke-linejoin:round;stroke-dasharray:3.1026,4.6539;}
	.st44{fill:none;stroke:#FFFFFF;stroke-width:2.0583;stroke-linecap:round;stroke-linejoin:round;}
	.st45{fill:none;stroke:#FFFFFF;stroke-width:2.0583;stroke-linecap:round;stroke-linejoin:round;stroke-dasharray:4.0882,6.1324;}
	.st46{fill:none;stroke:#173066;stroke-width:2.1995;stroke-linecap:round;stroke-linejoin:round;stroke-miterlimit:10;}
	.st47{fill:none;stroke:#173066;stroke-width:2.1995;stroke-linecap:round;stroke-linejoin:round;}
	.st48{fill:none;stroke:#173066;stroke-width:2.1995;stroke-linecap:round;stroke-linejoin:round;stroke-dasharray:3.6016,5.4024;}
</style>
<g>
	<g>
		<g>
			<path class="st0" d="M95.83,353.06v11.24l5.19,0.63c0.77,3.63,2.21,7.01,4.17,10.02l-3.23,4.13l7.94,7.94l4.12-3.23
				c3.01,1.96,6.39,3.39,10.02,4.17l0.63,5.19h11.24l0.63-5.19c3.63-0.77,7.01-2.21,10.02-4.17l4.12,3.23l7.94-7.94l-3.23-4.13
				c1.96-3.01,3.39-6.39,4.17-10.02l5.19-0.63v-11.24l-5.19-0.63c-0.77-3.63-2.21-7.01-4.17-10.02l3.23-4.12l-7.94-7.95l-4.12,3.23
				c-3.01-1.96-6.39-3.39-10.02-4.16l-0.63-5.19h-11.24l-0.63,5.19c-3.63,0.77-7.01,2.21-10.02,4.16l-4.12-3.23l-7.94,7.95
				l3.23,4.12c-1.96,3.01-3.39,6.39-4.17,10.02L95.83,353.06z"/>
		</g>
		<circle class="st1" cx="130.28" cy="358.68" r="18.48"/>
		<g>
			<g>
				<path class="st2" d="M130.28,377.16c-0.61,0-1.22-0.03-1.81-0.09"/>
				<path class="st3" d="M122.82,375.59c-5.1-2.25-8.99-6.74-10.42-12.23"/>
				<path class="st2" d="M111.89,360.49c-0.06-0.6-0.09-1.2-0.09-1.81"/>
			</g>
		</g>
		<path class="st4" d="M121.04,358.68c0-5.1,4.14-9.24,9.24-9.24c5.1,0,9.24,4.14,9.24,9.24c0,5.1-4.14,9.24-9.24,9.24
			C125.18,367.92,121.04,363.78,121.04,358.68z"/>
	</g>
	<g>
		<g>
			<path class="st4" d="M301.14,158.29v-8.28l-3.82-0.46c-0.57-2.68-1.63-5.16-3.07-7.39l2.38-3.04l-5.86-5.85l-3.04,2.38
				c-2.22-1.44-4.71-2.5-7.38-3.07l-0.46-3.82h-8.28l-0.46,3.82c-2.67,0.57-5.16,1.63-7.39,3.07l-3.04-2.38l-5.85,5.85l2.38,3.04
				c-1.44,2.22-2.5,4.71-3.07,7.39l-3.82,0.46v8.28l3.82,0.46c0.57,2.68,1.63,5.17,3.07,7.39l-2.38,3.04l5.85,5.85l3.04-2.38
				c2.22,1.44,4.71,2.5,7.39,3.07l0.46,3.82h8.28l0.46-3.82c2.67-0.57,5.17-1.63,7.38-3.07l3.04,2.38l5.86-5.85l-2.38-3.04
				c1.44-2.22,2.5-4.71,3.07-7.39L301.14,158.29z"/>
		</g>
		<circle class="st1" cx="275.75" cy="154.15" r="13.4"/>
		<path class="st5" d="M289.14,154.15c0,7.4-6,13.4-13.4,13.4c-7.4,0-13.4-6-13.4-13.4c0-7.4,6-13.4,13.4-13.4"/>
		<g>
			<g>
				<path class="st2" d="M275.75,140.75c0.61,0,1.22,0.04,1.81,0.12"/>
				<path class="st6" d="M283.57,143.27c2.06,1.48,3.68,3.53,4.63,5.92"/>
				<path class="st2" d="M289.02,152.34c0.08,0.59,0.12,1.2,0.12,1.81"/>
			</g>
		</g>
	</g>
	<g>
		<g>
			<rect x="89.71" y="177.37" class="st7" width="365.64" height="190.03"/>
		</g>
		<path class="st1" d="M433.4,332.7c0,0.92-0.07,1.81-0.19,2.68c-0.03,0.27-0.08,0.54-0.12,0.81c-0.71,3.92-2.63,7.44-5.34,10.15
			c-3.49,3.49-8.31,5.65-13.64,5.65H71.8V161.96h323.03v151.46h19.28c9.19,0,16.87,6.41,18.81,15.01
			C433.23,329.8,433.4,331.23,433.4,332.7z"/>
		<g>
			<path class="st8" d="M455.35,177.37c-13.14,0-21.95,11.7-21.95,24.05v-24.05H455.35z"/>
		</g>
		<path class="st1" d="M433.4,134.79v190.03c0-10.66-8.62-19.28-19.28-19.28h-19.28V115.5h19.28
			C424.77,115.5,433.4,124.13,433.4,134.79z"/>
		<path class="st0" d="M433.4,134.79v182.43c0-10.66-7.03-19.28-15.74-19.28h-15.74V115.5h12.19
			C424.77,115.5,433.4,124.13,433.4,134.79z"/>
		<path class="st1" d="M429.09,324.33c0,0.92-0.07,1.81-0.19,2.68c-0.03,0.27-0.08,0.54-0.12,0.81c-0.71,3.92-2.63,7.44-5.34,10.15
			c-3.49,3.49-8.31,5.65-13.64,5.65H67.49V153.58h323.03v151.46h19.28c9.19,0,16.87,6.41,18.81,15.01
			C428.92,321.43,429.09,322.86,429.09,324.33z"/>
		<g>
			<path class="st9" d="M71.8,317.53c0,11.38,8.52,26.57,23.52,26.57H71.8L71.8,317.53z"/>
		</g>
		<g>
			<path class="st9" d="M71.8,190.01c0-19.18,11.07-25.46,15.08-16.59l17.24-3.95c-3.95-9.47-0.45-15.39,8.4-15.39H71.8V190.01z"/>
		</g>
		<g>
			<path class="st9" d="M433.21,327.5l0.12,2.71c-0.05-0.65-0.14-1.28-0.24-1.9c-1.64-9-9.5-15.81-18.97-15.81H385.4V154.08h9.43
				v151.46h19.28c9.19,0,16.87,6.41,18.81,15.01L433.21,327.5z"/>
		</g>
		<line class="st5" x1="433.4" y1="230.56" x2="433.4" y2="304.18"/>
		<path class="st5" d="M433.4,324.82c0-10.66-8.62-19.28-19.28-19.28h-19.28V115.5h19.28c10.66,0,19.28,8.64,19.28,19.3v81.57"/>
		<path class="st5" d="M190.31,154.08h204.52v151.46h19.28c10.66,0,19.28,8.62,19.28,19.28c0,5.32-2.16,10.15-5.65,13.64
			c-3.49,3.49-8.31,5.65-13.64,5.65h-29.06"/>
		<polyline class="st5" points="71.8,275.25 71.8,154.08 143.72,154.08 		"/>
		<polyline class="st5" points="165.64,344.11 71.8,344.11 71.8,290.96 		"/>
		<line class="st5" x1="274.66" y1="344.11" x2="191.65" y2="344.11"/>
		<g>
			<g>
				<line class="st2" x1="143.72" y1="154.08" x2="145.54" y2="154.08"/>
				<line class="st10" x1="151.14" y1="154.08" x2="185.69" y2="154.08"/>
				<line class="st2" x1="188.49" y1="154.08" x2="190.31" y2="154.08"/>
			</g>
		</g>
		<g>
			<g>
				<line class="st2" x1="385.05" y1="344.11" x2="383.24" y2="344.11"/>
				<line class="st11" x1="377.64" y1="344.11" x2="361.77" y2="344.11"/>
				<line class="st2" x1="358.97" y1="344.11" x2="357.16" y2="344.11"/>
			</g>
		</g>
		<g>
			<g>
				<line class="st2" x1="317.89" y1="344.11" x2="316.08" y2="344.11"/>
				<line class="st12" x1="310.91" y1="344.11" x2="279.05" y2="344.11"/>
				<line class="st2" x1="276.47" y1="344.11" x2="274.66" y2="344.11"/>
			</g>
		</g>
	</g>
	<line class="st13" x1="71.8" y1="224.67" x2="71.8" y2="240.33"/>
	<g>
		<path class="st8" d="M118,352.19c-17.52,0-28.3,5.22-28.3,15.21v-15.21H118z"/>
	</g>
	<g>
		<g>
			<line class="st5" x1="174.2" y1="219.62" x2="154.74" y2="219.72"/>
			<line class="st5" x1="309.42" y1="219.96" x2="329.83" y2="219.86"/>
		</g>
		<path class="st0" d="M312.45,306.32h-139.5c-6.98,0-12.65-5.66-12.65-12.65l0,0c0-6.98,5.66-12.65,12.65-12.65h139.5
			c6.98,0,12.65,5.66,12.65,12.65l0,0C325.1,300.66,319.44,306.32,312.45,306.32z"/>
		<g>
			<polygon class="st14" points="304.3,298.89 304.3,318.28 309.51,312.94 317.66,313.18 			"/>
		</g>
		<g>
			<polygon class="st15" points="390.05,293.27 96.19,292.79 96.19,248.17 390.05,248.65 			"/>
			<text transform="matrix(1 0 0 1 124.8608 265.6902)" class="st14 st16 st17 st18">GET AN INTERSHIP</text>
			<rect x="167.61" y="211.24" class="st15" width="149.92" height="41.83"/>
			<text transform="matrix(1 0 0 1 180.1237 229.4944)" class="st4 st19 st20">Get Ahead</text>
			<rect x="175.2" y="288.72" class="st15" width="133.16" height="16.17"/>
			<text transform="matrix(1.0291 0 0 1 178.7764 296.75)" class="st14 st21 st22">Grab The Opportunity</text>
		</g>
	</g>
	<g>
		<g>
			<path class="st1" d="M432.03,260.24c-4.94,0-8.95,4.01-8.95,8.95c0,4.94,4.01,8.95,8.95,8.95c4.94,0,8.95-4.01,8.95-8.95
				C440.98,264.25,436.97,260.24,432.03,260.24z"/>
			<path class="st5" d="M440.98,269.19c0,4.94-4.01,8.95-8.95,8.95c-4.94,0-8.95-4.01-8.95-8.95c0-4.94,4.01-8.95,8.95-8.95"/>
			<g>
				<g>
					<path class="st2" d="M432.03,260.24c0.62,0,1.22,0.06,1.8,0.18"/>
					<path class="st23" d="M437.37,262.01c1.22,0.91,2.2,2.12,2.83,3.52"/>
					<path class="st2" d="M440.8,267.39c0.12,0.58,0.18,1.19,0.18,1.8"/>
				</g>
			</g>
		</g>
		<g>
			<g>
				<path class="st4" d="M370.02,361.16c-3.46,0-6.27,2.81-6.27,6.27c0,3.46,2.81,6.27,6.27,6.27c3.46,0,6.27-2.81,6.27-6.27
					C376.29,363.97,373.48,361.16,370.02,361.16z"/>
			</g>
		</g>
		<g>
			<g>
				<path class="st0" d="M146.91,179.02c-3.46,0-6.27,2.81-6.27,6.27c0,3.46,2.81,6.27,6.27,6.27c3.46,0,6.27-2.81,6.27-6.27
					C153.19,181.83,150.38,179.02,146.91,179.02z"/>
			</g>
		</g>
		<path class="st5" d="M421.49,388.04c-2.52,0-4.57,2.05-4.57,4.57c0,2.53,2.05,4.57,4.57,4.57c2.53,0,4.57-2.05,4.57-4.57
			C426.06,390.08,424.02,388.04,421.49,388.04z"/>
		<g>
			<g>
				<path class="st14" d="M141.22,296.41c-1.84,0-3.33,1.49-3.33,3.33c0,1.84,1.49,3.33,3.33,3.33c1.84,0,3.33-1.49,3.33-3.33
					C144.55,297.9,143.06,296.41,141.22,296.41z"/>
			</g>
		</g>
		<g>
			<g>
				<path class="st0" d="M446.25,157.42c-2.53,0-4.57,2.05-4.57,4.57c0,2.52,2.05,4.57,4.57,4.57c2.52,0,4.57-2.05,4.57-4.57
					C450.82,159.47,448.77,157.42,446.25,157.42z"/>
			</g>
		</g>
		<g>
			<g>
				<circle class="st0" cx="242.7" cy="119.8" r="4.57"/>
			</g>
		</g>
		<g>
			<g>
				<path class="st7" d="M95.67,104.15c-1.49,0-2.7,1.21-2.7,2.7s1.21,2.7,2.7,2.7c1.49,0,2.7-1.21,2.7-2.7
					S97.16,104.15,95.67,104.15z"/>
			</g>
		</g>
		<g>
			<path class="st14" d="M209.94,93.63c-3.88,0-7.03,3.15-7.03,7.03c0,3.88,3.15,7.03,7.03,7.03c3.88,0,7.03-3.15,7.03-7.03
				C216.97,96.78,213.82,93.63,209.94,93.63z"/>
		</g>
		<g>
			<path class="st1" d="M444.37,350.48c-2.29,0-4.15,1.86-4.15,4.15c0,2.29,1.86,4.15,4.15,4.15c2.29,0,4.15-1.86,4.15-4.15
				C448.52,352.34,446.67,350.48,444.37,350.48z"/>
		</g>
		<g>
			<path class="st14" d="M331.94,394.96c-2.06,0-3.74,1.67-3.74,3.74c0,2.06,1.67,3.74,3.74,3.74s3.74-1.67,3.74-3.74
				C335.68,396.63,334.01,394.96,331.94,394.96z"/>
		</g>
		<g>
			<path class="st14" d="M361.5,197.09c-2.4,0-4.34,1.94-4.34,4.34c0,2.4,1.94,4.34,4.34,4.34c2.4,0,4.34-1.94,4.34-4.34
				C365.84,199.03,363.9,197.09,361.5,197.09z"/>
		</g>
		<g>
			<g>
				<path class="st7" d="M100.54,302.52c-4.54,0-8.23,3.69-8.23,8.23c0,4.55,3.69,8.23,8.23,8.23c4.55,0,8.23-3.69,8.23-8.23
					C108.77,306.21,105.08,302.52,100.54,302.52z"/>
			</g>
			<path class="st5" d="M92.31,310.75c0-6.09,4.94-11.03,11.03-11.03c6.09,0,11.03,4.94,11.03,11.03c0,6.09-4.94,11.03-11.03,11.03"
				/>
			<g>
				<g>
					<path class="st2" d="M103.34,321.78c-0.62,0-1.22-0.05-1.81-0.15"/>
					<path class="st24" d="M96.84,319.67c-1.61-1.18-2.89-2.78-3.67-4.64"/>
					<path class="st2" d="M92.46,312.56c-0.1-0.59-0.15-1.19-0.15-1.81"/>
				</g>
			</g>
			<path class="st5" d="M92.31,310.75c0-6.09,4.94-11.03,11.03-11.03c6.09,0,11.03,4.94,11.03,11.03c0,6.09-4.94,11.03-11.03,11.03"
				/>
		</g>
		<g>
			<path class="st1" d="M120.75,150.17c-2.58,0-4.67,2.09-4.67,4.67c0,2.58,2.09,4.67,4.67,4.67c2.58,0,4.67-2.09,4.67-4.67
				C125.42,152.25,123.33,150.17,120.75,150.17z"/>
			<path class="st5" d="M125.42,154.83c0,2.58-2.09,4.67-4.67,4.67c-2.58,0-4.67-2.09-4.67-4.67c0-2.58,2.09-4.67,4.67-4.67"/>
			<g>
				<g>
					<path class="st2" d="M125.42,154.83c0-0.63-0.12-1.23-0.35-1.77"/>
					<path class="st2" d="M122.52,150.51c-0.55-0.22-1.14-0.35-1.77-0.35"/>
				</g>
			</g>
		</g>
		<g>
			<line class="st25" x1="391.23" y1="328.19" x2="391.23" y2="333.11"/>
			<line class="st25" x1="393.69" y1="330.65" x2="388.77" y2="330.65"/>
		</g>
		<g>
			<line class="st25" x1="282.45" y1="171.6" x2="282.45" y2="178.15"/>
			<line class="st25" x1="285.72" y1="174.88" x2="279.17" y2="174.88"/>
		</g>
		<g>
			<line class="st25" x1="97.42" y1="255.88" x2="97.42" y2="265.72"/>
			<line class="st25" x1="102.34" y1="260.8" x2="92.5" y2="260.8"/>
		</g>
	</g>
	<g>
		<path class="st1" d="M112.29,191.26v13.81c0,2.19-2.69,3.25-4.17,1.63l-10.9-11.79c-0.8-0.86-1.45-1.86-1.94-2.94l-23.37-51.67
			c-0.55-1.24-0.82-2.53-0.82-3.8c0-3.39,1.87-6.65,5.08-8.28c4.8-2.42,10.66-0.26,12.72,4.71l20.82,49.98l1.72,4.13
			C112,188.38,112.29,189.81,112.29,191.26z"/>
		<path class="st26" d="M112.29,191.26v7.98c0-4.7-4.61-7.6-6.88-6.21c1-0.71,1.72-1.9,1.61-3.32c1.69,1.59,5.38,0.17,4.14-3.35
			l0.28,0.67C112,188.38,112.29,189.81,112.29,191.26z"/>
		<g>
			<path class="st26" d="M72.1,140.73c2.12,4.69,7.43,10.69,15.53,7.39l-9.85,5.18L72.1,140.73z"/>
		</g>
		<g>
			<path class="st7" d="M95.83,149.58c-0.93,4.98-5.23,9.14-10.23,9.92c1.68,3.86,3.36,7.73,5.05,11.59
				c0.51,1.16,8.69,18.36,9.33,18.92c3.37,3,6.91,0.17,6.67-0.9c1.13,0.76,2.74,0.71,3.81-0.13c0.27-0.21,0.52-0.48,0.63-0.81
				c0.08-0.27,0.07-0.55,0.04-0.83c-0.29-2.65-2.15-4.83-3.2-7.28c-0.7-1.65-1.04-3.44-1.66-5.13c-0.5-1.35-1.18-2.62-1.81-3.91
				c-1.14-2.35-2.12-4.77-3.09-7.19c-1.77-4.42-3.55-8.83-5.32-13.25"/>
		</g>
		<path class="st5" d="M99.51,197.39l8.61,9.32c1.49,1.61,4.17,0.56,4.17-1.63v-13.81c0-1.45-0.29-2.89-0.85-4.23l-22.54-54.1"/>
		<line class="st5" x1="81.6" y1="161.75" x2="95.27" y2="191.98"/>
		<path class="st5" d="M76.17,128.23L76.17,128.23c-4.43,2.24-6.3,7.56-4.26,12.08l8.14,18.01"/>
		<path class="st14" d="M95.81,149.5c-4.89,6.2-12.79,7.6-16.16,7.92l-2.81-6.19c3.05-0.23,11.33-1.44,16.44-7.78L95.81,149.5z"/>
		<path class="st5" d="M110.9,185.73c0.11,0.21,0.19,0.43,0.26,0.63c1.24,3.52-2.46,4.94-4.14,3.35c0.11,1.42-0.61,2.6-1.61,3.32
			c-1.44,1.01-3.45,1.04-4.41-0.65c-0.36,1.07-3.65,3.91-5.72-0.41"/>
		<path class="st27" d="M112.28,204.05c0,1.02-3.51,2.67-5.46,1.27c0,0,2.39,2.71,4.02,1.95
			C112.49,206.52,112.28,205.52,112.28,204.05z"/>
		<g>
			<path class="st0" d="M84.87,131.3c-1.34-1.62-3.52-1.94-5.46-1.52c-0.36,0.08-0.75,0.2-0.98,0.49c-0.23,0.28-0.27,0.68-0.22,1.04
				c0.16,1.2,1.2,2.09,2.27,2.66c1.36,0.72,3.03,1.12,4.41,0.45c0.23-0.11,0.46-0.26,0.58-0.48c0.11-0.21,0.13-0.45,0.12-0.69
				C85.55,132.54,85.3,131.85,84.87,131.3"/>
		</g>
		<g>
			<g>
				<path class="st2" d="M88.9,132.93c-0.22-0.53-0.48-1.03-0.79-1.49"/>
				<path class="st28" d="M84.9,128.43c-1.5-0.85-3.23-1.27-4.98-1.19"/>
				<path class="st2" d="M77.74,127.61c-0.53,0.16-1.05,0.36-1.57,0.62"/>
			</g>
		</g>
		<g>
			<path class="st5" d="M110.09,207.49c-9.54,1.74-15.63,1.09-20.87,0.37"/>
		</g>
		<g>
			<g>
				<path class="st2" d="M89.22,207.85c-0.57-0.08-1.12-0.16-1.67-0.23"/>
				<path class="st29" d="M81.63,207c-2.16-0.09-4.4,0.02-6.92,0.52"/>
				<path class="st2" d="M71.8,208.23c-0.52,0.15-1.06,0.32-1.61,0.51"/>
			</g>
		</g>
	</g>
	<g>
		<path class="st1" d="M328.12,178.96c-2.03-8.7,2.62-17.8,8.73-24.45c8.07-8.76,18.98-14.88,30.62-17.13
			c0.96,11.32-1.23,23.38-8.21,32.49c-6.97,9.1-18.46,14.88-29.18,11.58"/>
		<path class="st1" d="M328.12,178.96c-2.03-8.7,2.62-17.8,8.73-24.45c8.07-8.76,18.98-14.88,30.62-17.13
			c0.96,11.32-1.23,23.38-8.21,32.49c-6.97,9.1-18.46,14.88-29.18,11.58"/>
		<g>
			<path class="st7" d="M330.08,181.45c0-9.84,6.27-32.91,42.63-42.52C371.01,187.17,338.21,185.92,330.08,181.45"/>
		</g>
		<path class="st5" d="M347.22,161.99c-5.07,7.06-10.24,14.23-17.14,19.45c-2.34,1.77-4.84,3.29-7.41,4.67"/>
		<path class="st5" d="M336.85,154.51c8.07-8.76,18.98-14.88,30.62-17.13c0.96,11.32-1.23,23.38-8.21,32.49
			c-6.97,9.1-18.46,14.88-29.18,11.58"/>
		<g>
			<g>
				<path class="st2" d="M328.12,178.96c-0.14-0.59-0.25-1.19-0.32-1.78"/>
				<path class="st30" d="M327.84,171.8c0.69-4.9,3.04-9.67,6.13-13.82"/>
				<path class="st2" d="M335.65,155.87c0.39-0.46,0.79-0.92,1.2-1.36"/>
			</g>
		</g>
	</g>
	<g>
		<path class="st31" d="M50.79,239.69c-0.54,7.17-8.69,8.87-11,2.75c-1.14-3.02,1.6-5.33,4.06-4.56"/>
		<path class="st31" d="M41.2,254.23c-6.52-1.16-12.69-11.3-6.51-18.68c1.44-1.72,3.25-3.19,5.43-3.93"/>
		<g>
			<g>
				<path class="st32" d="M40.12,231.61c0.57-0.19,1.16-0.33,1.76-0.4"/>
				<path class="st33" d="M46.35,231.94c0.24,0.12,0.47,0.25,0.7,0.39c1.27,0.8,2.29,2.02,2.94,3.38"/>
				<path class="st32" d="M50.69,237.88c0.11,0.6,0.14,1.21,0.1,1.81"/>
			</g>
		</g>
	</g>
	<g>
		<path class="st1" d="M259.26,401.19c-9.99,5.71-22.04,3.23-29.91-5.37c-7.86-8.58-10.75-21.2-9.69-33.01
			c0.05-0.54,0.13-1.13,0.53-1.48c0.38-0.34,0.93-0.33,1.42-0.31c9.62,0.5,19.23,3.87,26.73,10.27c6.08,5.19,10.65,12.45,12.5,20.4
			C260.83,391.68,262.19,397.51,259.26,401.19z"/>
		<path class="st1" d="M260.83,391.68c-1.85-7.95-6.42-15.21-12.5-20.4c-7.49-6.4-17.11-9.77-26.73-10.27
			c-0.5-0.03-1.04-0.03-1.42,0.31c-0.4,0.35-0.48,0.94-0.53,1.48c-1.05,11.81,1.84,24.43,9.69,33.01
			c7.87,8.6,19.92,11.08,29.91,5.37"/>
		<g>
			<path class="st4" d="M261.04,400.33c-8.22-30.08-36.68-34.8-42.21-35.48c-1.78,12.25,0.66,23.09,2.8,27.32
				C231.39,411.41,253.17,406.9,261.04,400.33"/>
		</g>
		<path class="st5" d="M229.35,395.82c7.87,8.6,19.92,11.08,29.91,5.37"/>
		<path class="st5" d="M260.83,391.68c-1.85-7.95-6.42-15.21-12.5-20.4c-7.49-6.4-17.11-9.77-26.73-10.27
			c-0.5-0.03-1.04-0.03-1.42,0.31c-0.4,0.35-0.48,0.94-0.53,1.48"/>
		<path class="st5" d="M264.51,409.76c-4.92-8.77-10.56-17.38-19.11-21.88"/>
		<g>
			<g>
				<path class="st2" d="M219.66,362.81c-0.05,0.53-0.09,1.05-0.12,1.58"/>
				<path class="st34" d="M219.5,369.76c0.35,8.15,2.64,16.24,7.18,22.73"/>
				<path class="st2" d="M228.31,394.62c0.34,0.41,0.68,0.81,1.04,1.2"/>
			</g>
		</g>
	</g>
	<g>
		<path class="st1" d="M337.49,360.58l1.55,1.55c1.76,1.76,4.62,1.76,6.38,0c1.76-1.76,1.76-4.62,0-6.38l1.14,1.14l2.85-2.85
			c1.95-1.95,1.95-5.11,0-7.06l-7.93-7.93c-1.95-1.95-5.11-1.95-7.06,0l-2.85,2.85l1.14,1.14c-1.76-1.76-4.62-1.76-6.38,0
			c-1.76,1.76-1.76,4.62,0,6.38l1.55,1.55l-21,2.78c0.38,7.63-2.18,22.36-13.86,34.82l6.88,6.88
			c12.46-11.67,27.19-14.24,34.82-13.86L337.49,360.58z"/>
		<path class="st0" d="M323.11,373.32c-2.2,2.2-5.13,2.85-6.53,1.44c-1.41-1.41-0.76-4.33,1.44-6.53c2.2-2.2,5.13-2.85,6.53-1.44
			C325.96,368.19,325.31,371.11,323.11,373.32z"/>
		<g>
			<path class="st7" d="M330.42,353.52l8.62,8.62c1.76,1.76,4.62,1.76,6.38,0l0,0c1.76-1.76,1.76-4.62,0-6.38l-8.62-8.62
				c-1.76-1.76-4.62-1.76-6.38,0l0,0C328.66,348.9,328.66,351.75,330.42,353.52"/>
		</g>
		<path class="st5" d="M327.88,350.97l-21,2.78c0.38,7.63-2.18,22.36-13.86,34.82"/>
		<path class="st5" d="M299.89,395.44c12.46-11.67,27.19-14.24,34.82-13.86l2.78-21"/>
		<path class="st5" d="M345.42,362.13L345.42,362.13c1.76-1.76,1.76-4.62,0-6.38l-12.72-12.72c-1.76-1.76-4.62-1.76-6.38,0l0,0
			c-1.76,1.76-1.76,4.62,0,6.38"/>
		<path class="st5" d="M349.4,346.98l-7.93-7.93c-1.95-1.95-5.11-1.95-7.06,0l-2.85,2.85l15,15l2.85-2.85
			C351.36,352.09,351.36,348.93,349.4,346.98z"/>
		<path class="st5" d="M323.11,373.32c-2.2,2.2-5.77,2.2-7.97,0c-2.2-2.2-2.2-5.77,0-7.97c2.2-2.2,5.77-2.2,7.97,0
			C325.31,367.54,325.31,371.11,323.11,373.32z"/>
		<g>
			<g>
				<line class="st2" x1="315.14" y1="373.32" x2="313.86" y2="374.6"/>
				<line class="st35" x1="310.07" y1="378.39" x2="293.03" y2="395.43"/>
				<line class="st2" x1="291.13" y1="397.32" x2="289.85" y2="398.6"/>
			</g>
		</g>
		<g>
			<g>
				<line class="st2" x1="326.32" y1="349.42" x2="327.6" y2="350.7"/>
				<path class="st36" d="M331.1,354.19l7.94,7.94c0.69,0.69,1.55,1.11,2.45,1.26"/>
				<path class="st2" d="M343.91,363.13c0.55-0.22,1.06-0.55,1.5-1"/>
			</g>
		</g>
	</g>
	<g>
		<line class="st5" x1="212.16" y1="165.58" x2="216.32" y2="169.74"/>
		<g>
			<path class="st14" d="M227.4,180.83L227.4,180.83c-1.23,1.23-3.24,1.23-4.47,0l-6.62-6.62c-1.23-1.23-1.23-3.24,0-4.47l0,0
				c1.23-1.23,3.24-1.23,4.47,0l6.62,6.62C228.64,177.59,228.64,179.59,227.4,180.83z"/>
		</g>
		<g>
			<path class="st7" d="M212.16,140.21c7,7,7,18.36,0,25.37c-7.01,7-18.36,7-25.37,0c-7.01-7-7.01-18.36,0-25.37
				C193.79,133.21,205.15,133.21,212.16,140.21z"/>
		</g>
		<path class="st1" d="M208.16,144.21c4.8,4.8,4.8,12.57,0,17.37c-4.8,4.8-12.57,4.8-17.37,0c-4.8-4.8-4.8-12.57,0-17.37
			C195.59,139.42,203.36,139.42,208.16,144.21z"/>
		<g>
			<g>
				<path class="st2" d="M190.79,144.21c0.43-0.43,0.89-0.83,1.37-1.19"/>
				<path class="st37" d="M197.52,140.77c2.25-0.36,4.59-0.09,6.72,0.8"/>
				<path class="st2" d="M206.78,143.03c0.48,0.36,0.94,0.75,1.37,1.19"/>
			</g>
		</g>
	</g>
	<g>
		<path class="st0" d="M381.41,406.25c0,6.37-5.16,11.53-11.53,11.53c-6.37,0-11.53-5.16-11.53-11.53c0-6.37,5.16-11.53,11.53-11.53
			C376.25,394.72,381.41,399.88,381.41,406.25z"/>
		<polygon class="st0" points="381.41,417.77 378.32,409.33 373.13,414.52 		"/>
		<g>
			<path class="st1" d="M369.88,408.34L369.88,408.34c-0.91,0-1.64-0.73-1.64-1.64v-6.23c0-0.91,0.73-1.64,1.64-1.64l0,0
				c0.91,0,1.64,0.73,1.64,1.64v6.23C371.52,407.6,370.79,408.34,369.88,408.34z"/>
			<path class="st1" d="M369.88,413.66L369.88,413.66c-0.91,0-1.64-0.73-1.64-1.64l0,0c0-0.91,0.73-1.64,1.64-1.64l0,0
				c0.91,0,1.64,0.73,1.64,1.64l0,0C371.52,412.93,370.79,413.66,369.88,413.66z"/>
		</g>
	</g>
	<g>
		<g>
			<line class="st2" x1="386.02" y1="207.85" x2="386.02" y2="209.66"/>
			<line class="st38" x1="386.02" y1="215.53" x2="386.02" y2="222.37"/>
			<line class="st2" x1="386.02" y1="225.31" x2="386.02" y2="227.12"/>
		</g>
	</g>
	<g>
		<g>
			<line class="st2" x1="59.1" y1="306.1" x2="59.1" y2="307.92"/>
			<line class="st39" x1="59.1" y1="312.73" x2="59.1" y2="318.35"/>
			<line class="st2" x1="59.1" y1="320.75" x2="59.1" y2="322.57"/>
		</g>
	</g>
	<line class="st13" x1="401.03" y1="367.4" x2="420.92" y2="367.4"/>
	<g>
		<path class="st5" d="M330.08,86.65h13.96c2.95,0,5.34,2.39,5.34,5.34v6.74c0,2.95-2.39,5.34-5.34,5.34h-34.59
			c-2.95,0-5.34-2.39-5.34-5.34v-6.74c0-2.95,2.39-5.34,5.34-5.34h11.77"/>
		<path class="st5" d="M327.92,133.16h-2.62c-1.01,0-1.83-0.82-1.83-1.83V120.4c0-1.01,0.82-1.83,1.83-1.83h2.62
			c1.01,0,1.83,0.82,1.83,1.83v10.93C329.75,132.34,328.93,133.16,327.92,133.16z"/>
		<path class="st5" d="M349.87,95.36h2.11c1.92,0,3.47,1.55,3.47,3.47v8.72c0,1.92-1.56,3.47-3.47,3.47h-25.36v7.55"/>
		<g>
			<path class="st0" d="M320.3,83.7h-4.96h-2.8c-1.2,0-2.16,0.97-2.16,2.16v7.54c0,1.37,1.11,2.48,2.48,2.48l0,0
				c1.37,0,2.48-1.11,2.48-2.48v-1.16c0-1.37,1.11-2.48,2.48-2.48l0,0c1.37,0,2.48,1.11,2.48,2.48v4.75c0,1.37,1.11,2.48,2.48,2.48
				l0,0c1.37,0,2.48-1.11,2.48-2.48V85.86c0-1.19-0.97-2.16-2.16-2.16H320.3z"/>
		</g>
	</g>
	<g>
		<g>
			<path class="st1" d="M107.51,124.4h5.01v-2.12c0-5.64,4.07-10.32,9.42-11.3c1.42-8.44,8.22-15.04,16.75-16.14
				c0.83-0.12,1.66-0.17,2.52-0.17c10.79,0,19.55,8.76,19.55,19.57c0,0.25-0.03,0.51-0.03,0.76c0.02,0,0.02,0,0.03,0
				c5.18,0,9.4,4.22,9.4,9.4h9.77"/>
			<path class="st0" d="M161.89,124.4h-49.37v-2.12c0-5.64,4.07-10.32,9.42-11.3c1.42-8.44,8.22-15.04,16.75-16.14
				c8.01,1.25,14.21,9.47,14.21,19.4c0,0.25-0.02,0.51-0.03,0.76c0.02,0,0.02,0,0.03,0C157.24,115,161.89,119.22,161.89,124.4z"/>
			<path class="st5" d="M160.76,114.24c0,0.25-0.03,0.51-0.03,0.76c0.02,0,0.02,0,0.03,0c5.18,0,9.4,4.22,9.4,9.4h9.77"/>
			<path class="st5" d="M107.51,124.4h5.01v-2.12c0-5.64,4.07-10.32,9.42-11.3c1.42-8.44,8.22-15.04,16.75-16.14
				c0.83-0.12,1.66-0.17,2.52-0.17"/>
			<g>
				<g>
					<path class="st2" d="M141.22,94.68c0.61,0,1.22,0.03,1.81,0.08"/>
					<path class="st40" d="M149.06,96.31c5.44,2.39,9.59,7.18,11.09,13.04"/>
					<path class="st2" d="M160.68,112.43c0.05,0.6,0.08,1.2,0.08,1.81"/>
				</g>
			</g>
		</g>
		<line class="st5" x1="161.89" y1="124.4" x2="112.52" y2="124.4"/>
	</g>
	<g>
		<polygon class="st0" points="180.82,334.81 169.83,328.88 169.83,322.68 180.77,328.6 		"/>
		<path class="st1" d="M169.84,343.27c0,2.32-1.88,4.2-4.2,4.2c-2.32,0-4.2-1.88-4.2-4.2c0-2.32,1.88-4.2,4.2-4.2
			C167.96,339.07,169.84,340.96,169.84,343.27z"/>
		<path class="st1" d="M185.02,351.47c0,2.32-1.88,4.2-4.2,4.2c-2.32,0-4.2-1.88-4.2-4.2c0-2.32,1.88-4.2,4.2-4.2
			C183.14,347.27,185.02,349.15,185.02,351.47z"/>
		<path class="st5" d="M169.84,343.27c0,2.32-1.88,4.2-4.2,4.2c-2.32,0-4.2-1.88-4.2-4.2c0-2.32,1.88-4.2,4.2-4.2"/>
		<polyline class="st5" points="169.84,343.27 169.84,322.68 185.02,330.88 185.02,351.47 		"/>
		<path class="st5" d="M185.02,351.47c0,2.32-1.88,4.2-4.2,4.2c-2.32,0-4.2-1.88-4.2-4.2c0-2.32,1.88-4.2,4.2-4.2
			C183.14,347.27,185.02,349.15,185.02,351.47z"/>
		<line class="st5" x1="169.84" y1="328.88" x2="180.82" y2="334.81"/>
	</g>
	<g>
		<g>
			<polygon class="st7" points="243.48,327.42 235.12,323.44 250.57,312.54 			"/>
			<polygon class="st7" points="234.92,334.63 242.01,319.75 250.36,323.73 			"/>
		</g>
		<polygon class="st7" points="237.12,337.1 252.03,331.8 249.41,337.09 		"/>
	</g>
	<g>
		<path class="st0" d="M64.98,370.13H65c2.45,0,4.43,2.65,4.43,5.92l0,0c0,3.27-1.99,5.92-4.43,5.92h-9.76
			c-2.45,0-4.43-2.65-4.43-5.92l0,0c0-3.27,1.99-5.92,4.43-5.92h0.02"/>
		<line class="st5" x1="57" y1="375.4" x2="57" y2="354.22"/>
		<line class="st5" x1="57" y1="354.22" x2="52.06" y2="362.11"/>
		<line class="st5" x1="57" y1="354.22" x2="61.94" y2="362.11"/>
		<path class="st5" d="M63.5,370.13h0.02c3.27,0,5.92,2.65,5.92,5.92l0,0c0,3.27-2.65,5.92-5.92,5.92H50.49"/>
		<g>
			<g>
				<path class="st2" d="M50.49,381.97c-0.58,0-1.14-0.08-1.67-0.24"/>
				<path class="st41" d="M44.87,377.92c-0.19-0.59-0.3-1.21-0.3-1.87c0-1.68,0.7-3.19,1.82-4.27"/>
				<path class="st2" d="M48.84,370.36c0.52-0.15,1.08-0.23,1.65-0.23h0.02"/>
			</g>
		</g>
	</g>
	<g>
		<polyline class="st1" points="372.59,303.45 372.59,313.95 346.38,313.95 346.38,298.7 372.59,298.7 		"/>
		<g>
			<rect x="350.12" y="298.7" class="st4" width="22.47" height="11.82"/>
		</g>
		<polyline class="st1" points="346.38,298.7 359.49,307.18 372.59,298.7 		"/>
		<polyline class="st5" points="372.59,304.61 372.59,313.95 346.38,313.95 346.38,298.7 372.59,298.7 		"/>
		<polyline class="st5" points="346.38,298.7 359.49,307.18 372.59,298.7 		"/>
	</g>
	<g>
		<g>
			<path class="st5" d="M54.75,196.61v-15.38c0-1.78-1.44-3.23-3.23-3.23h-17c-1.78,0-3.23,1.44-3.23,3.23v15.38
				c0,1.78,1.44,3.23,3.23,3.23h5.4"/>
			<polygon class="st0" points="49.42,193.25 43.05,190.17 36.69,193.25 36.69,175.48 49.42,175.48 			"/>
		</g>
		<g>
			<g>
				<path class="st2" d="M54.75,196.61c0,0.59-0.16,1.14-0.43,1.61"/>
				<line class="st42" x1="49.91" y1="199.83" x2="44.1" y2="199.83"/>
				<line class="st2" x1="41.61" y1="199.83" x2="39.93" y2="199.83"/>
			</g>
		</g>
	</g>
	<g>
		<g>
			<path class="st7" d="M192.49,408.27c0,3.96-3.21,7.17-7.17,7.17c-3.96,0-7.17-3.21-7.17-7.17c0-3.96,3.21-7.17,7.17-7.17
				C189.28,401.1,192.49,404.31,192.49,408.27z"/>
		</g>
		<g>
			<path class="st5" d="M185.53,394.24c7.73,0.11,13.82,6.68,13.82,14.41v1.29c0,1.89-1.53,3.43-3.43,3.43l0,0
				c-1.89,0-3.43-1.54-3.43-3.43v-1.42c0-3.82-2.88-7.16-6.7-7.4c-4.18-0.27-7.65,3.04-7.65,7.16c0,3.96,3.21,7.17,7.17,7.17"/>
			<path class="st5" d="M195.24,418.19c-2.87,2.87-6.98,4.5-11.45,4.03c-6.48-0.69-11.72-5.92-12.42-12.4"/>
			<path class="st5" d="M188.79,414.55c-1.02,0.57-2.21,0.89-3.46,0.89c-3.96,0-7.18-3.21-7.18-7.17c0-3.96,3.22-7.17,7.18-7.17
				c3.96,0,7.17,3.21,7.17,7.17"/>
			<g>
				<g>
					<path class="st2" d="M171.37,409.83c-0.07-0.61-0.09-1.22-0.08-1.81"/>
					<path class="st43" d="M172.14,403.45c1.53-4.18,4.99-7.43,9.31-8.67"/>
					<path class="st2" d="M183.72,394.33c0.59-0.07,1.2-0.1,1.81-0.09"/>
				</g>
			</g>
		</g>
	</g>
	<g>
		<g>
			<polygon class="st7" points="49.33,267.95 49.33,290.96 54.39,285.35 78.35,285.35 78.35,267.95 			"/>
		</g>
		<path class="st1" d="M63.84,275.09c0-3.31-5.56-3.31-5.56,0.69c0,3.32,3.41,3.8,5.56,5.95c2.15-2.15,5.56-2.63,5.56-5.95
			C69.4,271.78,63.84,271.78,63.84,275.09z"/>
	</g>
	<g>
		<g>
			<path class="st44" d="M412.02,125.12c0.61,0,1.22,0.04,1.81,0.12"/>
			<path class="st45" d="M419.54,127.34c3.78,2.46,6.28,6.73,6.28,11.58v3.65"/>
			<line class="st44" x1="425.82" y1="145.64" x2="425.82" y2="147.45"/>
		</g>
	</g>
	<g>
		<path class="st1" d="M447.94,223.54v9.27l7.96-9.27h7.96c2.68,0,4.84-2.04,4.84-4.55v-16.22c0-2.51-2.17-4.55-4.84-4.55h-46.27
			h-1.83c-2.68,0-4.85,2.04-4.85,4.55v16.22c0,2.51,2.17,4.55,4.85,4.55h26.68"/>
		<g>
			<path class="st4" d="M462.97,223.54H421.9c-3.16,0-5.73-2.41-5.73-5.38V206.4c0-1.67,1.44-3.03,3.22-3.03h43.58
				c3.17,0,5.73,2.41,5.73,5.38v9.4C468.7,221.13,466.14,223.54,462.97,223.54z"/>
		</g>
		<path class="st46" d="M463.86,198.22c2.68,0,4.84,2.04,4.84,4.55v16.22c0,2.51-2.17,4.55-4.84,4.55h-7.96l-7.96,9.27v-9.27"/>
		<path class="st46" d="M442.43,223.54h-26.68c-2.68,0-4.85-2.04-4.85-4.55v-16.22c0-2.51,2.17-4.55,4.85-4.55"/>
		<line class="st46" x1="443.04" y1="198.22" x2="463.86" y2="198.22"/>
		<g>
			<path class="st1" d="M427.91,210.88c0,1.68-1.45,3.04-3.23,3.04c-1.79,0-3.24-1.36-3.24-3.04c0-1.68,1.45-3.04,3.24-3.04
				C426.46,207.84,427.91,209.2,427.91,210.88z"/>
			<path class="st1" d="M443.04,210.88c0,1.68-1.45,3.04-3.24,3.04c-1.79,0-3.23-1.36-3.23-3.04c0-1.68,1.45-3.04,3.23-3.04
				C441.59,207.84,443.04,209.2,443.04,210.88z"/>
			<path class="st1" d="M458.17,210.88c0,1.68-1.45,3.04-3.23,3.04c-1.79,0-3.24-1.36-3.24-3.04c0-1.68,1.45-3.04,3.24-3.04
				C456.73,207.84,458.17,209.2,458.17,210.88z"/>
		</g>
		<g>
			<g>
				<line class="st47" x1="415.76" y1="198.22" x2="417.69" y2="198.22"/>
				<line class="st48" x1="423.1" y1="198.22" x2="438.4" y2="198.22"/>
				<line class="st47" x1="441.1" y1="198.22" x2="443.04" y2="198.22"/>
			</g>
		</g>
	</g>
</g>
</svg>
