<?xml version="1.0" encoding="utf-8"?>
<!-- Generator: Adobe Illustrator 23.0.3, SVG Export Plug-In . SVG Version: 6.00 Build 0)  -->
<svg version="1.1" id="Layer_1" xmlns="http://www.w3.org/2000/svg" xmlns:xlink="http://www.w3.org/1999/xlink" x="0px" y="0px"
	 viewBox="0 0 114 26" style="enable-background:new 0 0 114 26;" xml:space="preserve">
<style type="text/css">
	.st0{fill:none;stroke:#000000;stroke-width:0.5248;stroke-linecap:round;stroke-miterlimit:10;}
	.st1{fill:#31B4DD;}
	.st2{fill:#0F95C9;}
	.st3{fill-rule:evenodd;clip-rule:evenodd;fill:#B6D957;}
	.st4{fill-rule:evenodd;clip-rule:evenodd;fill:#216B75;}
	.st5{fill-rule:evenodd;clip-rule:evenodd;fill:#FBD260;}
	.st6{fill-rule:evenodd;clip-rule:evenodd;fill:#FFFFFF;}
	.st7{fill:#EDAE48;}
</style>
<g id="Graduation">
	<polyline class="st0" points="94.2,4.8 94.2,11.8 101.9,14.9 110.3,11.8 110.3,6.4 110.3,5.7 	"/>
	<line class="st0" x1="101.7" y1="14.9" x2="101.8" y2="8.1"/>
	<polygon class="st1" points="101.6,1.5 91.7,5.1 102,9.7 112,6.1 	"/>
	<polyline class="st0" points="106.6,16.5 106.6,8 102.4,6 	"/>
	<path class="st2" d="M108.2,19.1v-1.6c0-0.9-0.7-1.6-1.6-1.6s-1.6,0.7-1.6,1.6v1.6H108.2z"/>
</g>
<g id="Bulb">
	<ellipse class="st3" cx="7.5" cy="21.5" rx="1" ry="1.7"/>
	<path class="st4" d="M8.5,19.9c-0.3-0.4-0.6-0.7-1-0.7s-0.7,0.3-1,0.7l0,0c-0.3,0.4-0.4,1-0.4,1.6s0.2,1.2,0.4,1.6l0,0
		c0.3,0.4,0.6,0.7,1,0.7s0.7-0.3,1-0.7l0,0c0.3-0.4,0.4-1,0.4-1.6S8.8,20.3,8.5,19.9L8.5,19.9z M8,22.3L8,22.3
		c-0.1,0.2-0.3,0.3-0.5,0.3S7.1,22.5,7,22.3l0,0c-0.1-0.2-0.2-0.5-0.2-0.8s0.1-0.6,0.2-0.8l0,0c0.1-0.2,0.3-0.3,0.5-0.3
		s0.4,0.1,0.5,0.3l0,0c0.1,0.2,0.2,0.5,0.2,0.8S8.2,22.1,8,22.3z"/>
	<ellipse class="st5" cx="7.5" cy="10.6" rx="4.2" ry="6.7"/>
	<path class="st4" d="M7.5,3.3c-1.3,0-2.4,0.8-3.2,2.1C3.5,6.8,3,8.6,3,10.6s0.5,3.8,1.3,5.2c0.8,1.3,2,2.1,3.2,2.1s2.4-0.8,3.2-2.1
		c0.8-1.3,1.3-3.1,1.3-5.2s-0.5-3.8-1.3-5.2C9.9,4.1,8.8,3.3,7.5,3.3z M10.2,15c-0.7,1.1-1.6,1.8-2.7,1.8s-2-0.7-2.7-1.8
		c-0.7-1.1-1.1-2.6-1.1-4.3c0-1.7,0.4-3.2,1.1-4.3c0.7-1.1,1.6-1.8,2.7-1.8s2,0.7,2.7,1.8s1.1,2.6,1.1,4.3
		C11.4,12.3,10.9,13.8,10.2,15z"/>
	<path class="st6" d="M8.8,16.5H6.4c-0.4,0-0.7,0.5-0.7,1.1l0,0c0,0.6,0.3,1.1,0.7,1.1h2.4c0.4,0,0.7-0.5,0.7-1.1l0,0
		C9.5,17,9.2,16.5,8.8,16.5z"/>
	<path class="st4" d="M9.5,16.4c-0.2-0.3-0.5-0.5-0.8-0.5H6.3c-0.3,0-0.6,0.2-0.8,0.5l0,0c-0.2,0.3-0.3,0.7-0.3,1.2s0.1,0.9,0.3,1.2
		l0,0c0.2,0.3,0.5,0.5,0.8,0.5h2.4c0.3,0,0.6-0.2,0.8-0.5s0.3-0.7,0.3-1.2C9.8,17.2,9.7,16.7,9.5,16.4L9.5,16.4z M9,18
		c-0.1,0.1-0.2,0.2-0.3,0.2H6.3c-0.1,0-0.2-0.1-0.3-0.2l0,0c0-0.1,0-0.2,0-0.4s0-0.3,0.1-0.4l0,0C6.2,17.1,6.3,17,6.4,17h2.4
		c0.1,0,0.2,0.1,0.3,0.2l0,0c0.1,0.1,0.1,0.2,0.1,0.4S9.1,17.9,9,18z"/>
	<path class="st6" d="M8.8,18.8H6.4c-0.4,0-0.7,0.5-0.7,1.1l0,0C5.7,20.5,6,21,6.4,21h2.4c0.4,0,0.7-0.5,0.7-1.1l0,0
		C9.5,19.3,9.2,18.8,8.8,18.8z"/>
	<path class="st4" d="M9.5,18.7c-0.2-0.3-0.5-0.5-0.8-0.5H6.3c-0.3,0-0.6,0.2-0.8,0.5l0,0c-0.2,0.3-0.3,0.7-0.3,1.2s0.1,0.9,0.3,1.2
		l0,0c0.2,0.3,0.5,0.5,0.8,0.5h2.4c0.3,0,0.6-0.2,0.8-0.5s0.3-0.7,0.3-1.2C9.8,19.5,9.7,19,9.5,18.7L9.5,18.7z M9,20.3
		c-0.1,0.1-0.2,0.2-0.3,0.2H6.3c-0.1,0-0.2-0.1-0.3-0.2l0,0c0-0.1,0-0.2,0-0.4s0-0.3,0.1-0.4l0,0c0.1-0.1,0.2-0.2,0.3-0.2h2.4
		c0.1,0,0.2,0.1,0.3,0.2l0,0c0.1,0.1,0.1,0.2,0.1,0.4C9.1,20.1,9.1,20.2,9,20.3z"/>
	<path class="st4" d="M9.8,6.4C9.3,5.8,8.7,5.3,8.1,5.1C7.9,5,7.7,5.3,7.7,5.6S7.8,6.2,8,6.3c0.5,0.1,1,0.5,1.3,1
		c0.4,0.5,0.7,1.2,0.8,2c0.1,0.3,0.3,0.5,0.5,0.4s0.3-0.4,0.2-0.7C10.7,7.9,10.3,7,9.8,6.4z"/>
</g>
<g>
	<path class="st2" d="M19.6,15h1.7v9.2h-1.1l0,0L15.4,18v6.2h-1.7V15h1.4l4.5,5.7C19.6,20.7,19.6,15,19.6,15z"/>
	<path class="st2" d="M25.3,16.6h-2.9V15c2.6,0,4.9,0,7.5,0v1.6H27v7.6h-1.7V16.6z"/>
	<path class="st2" d="M37.8,24.2h-6.9c0-3,0-6.1,0-9.2h6.9v1.7h-5.1v2.1h5v1.6h-5v2.1h5.1V24.2z"/>
	<path class="st2" d="M47.2,24.2h-2.1l-2.7-3.1h-1.7v3.1H39V15c1.5,0,2.9,0,4.4,0c2.2,0,3.3,1.5,3.3,3c0,1.3-0.6,2.5-2.3,2.9
		l2.8,3.1V24.2z M40.9,16.7v2.9h2.6c1.1,0,1.6-0.7,1.6-1.5c0-0.7-0.5-1.5-1.6-1.5h-2.6V16.7z"/>
	<path class="st2" d="M54,15h1.7v9.2h-1.1l0,0L49.8,18v6.2h-1.7V15h1.4l4.5,5.7V15z"/>
</g>
<g>
	<g>
		<path class="st7" d="M65,20.8h-3.6v3.7H59V11.9c2,0,4,0,5.9,0C71.2,11.9,71.2,20.8,65,20.8z M61.4,18.6H65c3,0,3-4.5,0-4.5h-3.6
			V18.6z"/>
		<path class="st7" d="M77.8,24.5H71c0-3,0-6.1,0-9.2h6.9V17h-5.1v2.1h5v1.6h-5v2.1h5.1L77.8,24.5L77.8,24.5z"/>
		<path class="st7" d="M87.2,19.8c0,2.3-1.4,4.7-4.6,4.7c-1.1,0-2.5,0-3.6,0v-9.2c1.1,0,2.5,0,3.6,0C85.8,15.3,87.2,17.6,87.2,19.8z
			 M80.7,22.8h1.9c2.1,0,2.9-1.5,2.9-3c0-1.4-0.9-2.9-2.9-2.9h-1.9V22.8z"/>
		<path class="st7" d="M88.5,24.5v-9.2h1.7v9.2H88.5z"/>
		<path class="st7" d="M98.3,22.8h-4.8l-0.8,1.7h-1.9l4.1-9.2h1.9l4.1,9.2H99L98.3,22.8z M95.9,17.3l-1.7,3.9h3.4L95.9,17.3z"/>
	</g>
</g>
<path class="st6" d="M10.5,12L10.5,12c-0.3,0-0.5-0.2-0.5-0.3c0-0.3,0-0.7,0-1c0-0.1,0-0.2,0-0.3c0,0,0-0.1,0.1-0.2s0.2-0.1,0.4-0.1
	l0,0c0.3,0,0.5,0.2,0.5,0.3v1.3C11,11.9,10.8,12,10.5,12z"/>
</svg>
