<?xml version="1.0" encoding="utf-8"?>
<!-- Generator: Adobe Illustrator 23.0.3, SVG Export Plug-In . SVG Version: 6.00 Build 0)  -->
<svg version="1.1" id="Layer_1" xmlns="http://www.w3.org/2000/svg" xmlns:xlink="http://www.w3.org/1999/xlink" x="0px" y="0px"
	 viewBox="0 0 1400 1200" style="enable-background:new 0 0 1400 1200;" xml:space="preserve">
<style type="text/css">
	.st0{fill-rule:evenodd;clip-rule:evenodd;fill:#FF7446;}
	.st1{fill-rule:evenodd;clip-rule:evenodd;fill:#FFFFFF;}
	.st2{fill-rule:evenodd;clip-rule:evenodd;fill:#7D4057;}
	.st3{fill-rule:evenodd;clip-rule:evenodd;fill:#E6E6E6;}
	.st4{fill-rule:evenodd;clip-rule:evenodd;fill:#FF6766;}
	.st5{fill-rule:evenodd;clip-rule:evenodd;fill:#B3B3B3;}
</style>
<g>
	<g>
		<g>
			<g>
				<g>
					<path class="st0" d="M1098,143.8H548.4c-32.7,0-59.4,26.7-59.4,59.4v815.6c0,32.7,26.7,59.4,59.4,59.4H1098
						c32.7,0,59.4-26.7,59.4-59.4V203.2C1157.4,170.5,1130.7,143.8,1098,143.8z"/>
					<rect x="547.8" y="231.6" class="st1" width="550.7" height="758.8"/>
					<path class="st2" d="M541.6,338.8c0,3.4,2.7,6.2,6.2,6.2s6.2-2.7,6.2-6.2v-101h538.3v746.4H553.9V450.8c0-3.4-2.7-6.2-6.2-6.2
						s-6.2,2.7-6.2,6.2v545.8h563.1V225.4H541.6L541.6,338.8L541.6,338.8z"/>
					<path class="st2" d="M1098,137.6H548.4c-18,0-34.5,7.4-46.3,19.2s-19.2,28.3-19.2,46.3V485c0,3.4,2.7,6.2,6.2,6.2
						c3.4,0,6.2-2.7,6.2-6.2V203.2c0-14.6,6-27.9,15.7-37.6s22.9-15.7,37.6-15.7H1098c14.6,0,27.9,6,37.6,15.7s15.7,22.9,15.7,37.6
						v815.6c0,14.6-6,27.9-15.7,37.6s-22.9,15.7-37.6,15.7H548.4c-14.6,0-27.9-6-37.6-15.7s-15.7-22.9-15.7-37.6V664.8
						c0-3.4-2.7-6.2-6.2-6.2c-3.4,0-6.2,2.7-6.2,6.2v353.9c0,18,7.4,34.5,19.2,46.3c11.9,11.9,28.3,19.2,46.3,19.2H1098
						c18,0,34.5-7.4,46.3-19.2c11.9-11.9,19.2-28.3,19.2-46.3V203.2c0-18-7.4-34.5-19.2-46.3C1132.4,145,1116,137.6,1098,137.6z"/>
					<circle class="st2" cx="831.2" cy="129" r="59.4"/>
					<path class="st1" d="M489,510.6c-3.4,0-6.2,2.7-6.2,6.2V557c0,3.4,2.7,6.2,6.2,6.2c3.4,0,6.2-2.7,6.2-6.2v-40.3
						C495.2,513.3,492.4,510.6,489,510.6z"/>
				</g>
				<g>
					<path class="st2" d="M905.3,167.3H757.1c-10,0-18.9,4.1-25.5,10.6S721,193.5,721,203.4v21.7c0,10,4.1,18.9,10.6,25.5
						s15.5,10.6,25.5,10.6h148.2c10,0,18.9-4.1,25.5-10.6s10.6-15.5,10.6-25.5v-21.7c0-10-4.1-18.9-10.6-25.5
						C924.2,171.4,915.2,167.3,905.3,167.3z M929,225c0,6.5-2.7,12.4-7,16.7c-4.3,4.3-10.2,7-16.7,7H757.1c-6.5,0-12.4-2.7-16.7-7
						c-4.3-4.3-7-10.2-7-16.7v-21.7c0-6.5,2.7-12.4,7-16.7s10.2-7,16.7-7h148.2c6.5,0,12.4,2.7,16.7,7c4.3,4.3,7,10.2,7,16.7V225z"
						/>
					<path class="st3" d="M949.8,114.1H712.5c-16.4,0-29.9,13.4-29.9,29.9v21.7c0,16.4,13.4,29.9,29.9,29.9h237.3
						c16.4,0,29.9-13.4,29.9-29.9V144C979.8,127.5,966.3,114.1,949.8,114.1z"/>
					<path class="st2" d="M949.8,107.9H712.5c-10,0-18.9,4.1-25.5,10.6c-6.5,6.5-10.6,15.5-10.6,25.5v21.7c0,10,4.1,18.9,10.6,25.5
						c6.5,6.5,15.5,10.6,25.5,10.6h237.3c10,0,18.9-4.1,25.5-10.6c6.5-6.5,10.6-15.5,10.6-25.5V144c0-10-4.1-18.9-10.6-25.5
						C968.8,111.9,959.8,107.9,949.8,107.9z M973.5,165.6c0,6.5-2.7,12.4-7,16.7c-4.3,4.3-10.2,7-16.7,7H712.5
						c-6.5,0-12.4-2.7-16.7-7c-4.3-4.3-7-10.2-7-16.7V144c0-6.5,2.7-12.4,7-16.7s10.2-7,16.7-7h237.3c6.5,0,12.4,2.7,16.7,7
						s7,10.2,7,16.7V165.6z"/>
					<path class="st2" d="M846.3,154.5H717.5c-3.4,0-6.2,2.7-6.2,6.2c0,3.4,2.7,6.2,6.2,6.2h128.8c3.4,0,6.2-2.7,6.2-6.2
						C852.5,157.2,849.7,154.5,846.3,154.5z"/>
					<path class="st2" d="M887.9,154.5h-22.9c-3.4,0-6.2,2.7-6.2,6.2c0,3.4,2.7,6.2,6.2,6.2h22.9c3.4,0,6.2-2.7,6.2-6.2
						C894.1,157.2,891.3,154.5,887.9,154.5z"/>
				</g>
				<g>
					<g>
						<path class="st3" d="M653.9,417.8v203.3h80.6V417.8H660H653.9z M666.3,430.2h55.8v178.6h-55.8V430.2z"/>
						<path class="st3" d="M722.1,417.8v203.3h80.6V417.8h-74.4H722.1z M734.5,430.2h55.8v178.6h-55.8V430.2z"/>
						<path class="st3" d="M790.3,417.8v203.3h80.6V417.8h-74.4H790.3z M802.7,430.2h55.8v178.6h-55.8V430.2z"/>
						<path class="st3" d="M858.5,417.8v203.3h80.6V417.8h-74.3H858.5z M870.9,430.2h55.8v178.6h-55.8V430.2z"/>
						<path class="st3" d="M926.7,417.8v203.3h80.6V417.8h-74.4H926.7z M939.1,430.2h55.8v178.6h-55.8V430.2z"/>
						<path class="st3" d="M653.9,477.3v84.4h80.6v-84.4H660H653.9z M666.3,489.7h55.8v59.6h-55.8V489.7z"/>
						<path class="st3" d="M722.1,477.3v84.4h80.6v-84.4h-74.4H722.1z M734.5,489.7h55.8v59.6h-55.8V489.7z"/>
						<path class="st3" d="M790.3,477.3v84.4h80.6v-84.4h-74.4H790.3z M802.7,489.7h55.8v59.6h-55.8V489.7z"/>
						<path class="st3" d="M858.5,477.3v84.4h80.6v-84.4h-74.3H858.5z M870.9,489.7h55.8v59.6h-55.8V489.7z"/>
						<path class="st3" d="M926.7,477.3v84.4h80.6v-84.4h-74.4H926.7z M939.1,489.7h55.8v59.6h-55.8V489.7z"/>
						<path class="st2" d="M1001.1,608.8H666.3V424c0-3.4-2.7-6.2-6.2-6.2c-3.4,0-6.2,2.7-6.2,6.2v197.2h347.2
							c3.4,0,6.2-2.7,6.2-6.2C1007.3,611.5,1004.6,608.8,1001.1,608.8z"/>
						<path class="st2" d="M660.1,417.8h-14.9c-3.4,0-6.2,2.7-6.2,6.2c0,3.4,2.7,6.2,6.2,6.2h14.9c3.4,0,6.2-2.7,6.2-6.2
							C666.3,420.6,663.5,417.8,660.1,417.8z"/>
						<path class="st2" d="M660.1,465.5h-14.9c-3.4,0-6.2,2.7-6.2,6.2c0,3.4,2.7,6.2,6.2,6.2h14.9c3.4,0,6.2-2.7,6.2-6.2
							C666.3,468.3,663.5,465.5,660.1,465.5z"/>
						<path class="st2" d="M660.1,513.3h-14.9c-3.4,0-6.2,2.7-6.2,6.2s2.7,6.2,6.2,6.2h14.9c3.4,0,6.2-2.7,6.2-6.2
							S663.5,513.3,660.1,513.3z"/>
						<path class="st2" d="M660.1,561h-14.9c-3.4,0-6.2,2.7-6.2,6.2c0,3.4,2.7,6.2,6.2,6.2h14.9c3.4,0,6.2-2.7,6.2-6.2
							C666.3,563.8,663.5,561,660.1,561z"/>
						<path class="st2" d="M660.1,608.8h-14.9c-3.4,0-6.2,2.7-6.2,6.2c0,3.4,2.7,6.2,6.2,6.2h14.9c3.4,0,6.2-2.7,6.2-6.2
							S663.5,608.8,660.1,608.8z"/>
						<path class="st2" d="M969.4,593.9c-3.4,0-6.2,2.7-6.2,6.2v14.9c0,3.4,2.7,6.2,6.2,6.2s6.2-2.7,6.2-6.2v-14.9
							C975.6,596.7,972.8,593.9,969.4,593.9z"/>
						<path class="st2" d="M910.8,593.9c-3.4,0-6.2,2.7-6.2,6.2v14.9c0,3.4,2.7,6.2,6.2,6.2s6.2-2.7,6.2-6.2v-14.9
							C917.1,596.7,914.3,593.9,910.8,593.9z"/>
						<path class="st2" d="M852.2,593.9c-3.4,0-6.2,2.7-6.2,6.2v14.9c0,3.4,2.7,6.2,6.2,6.2s6.2-2.7,6.2-6.2v-14.9
							C858.5,596.7,855.7,593.9,852.2,593.9z"/>
						<path class="st2" d="M793.7,593.9c-3.4,0-6.2,2.7-6.2,6.2v14.9c0,3.4,2.7,6.2,6.2,6.2s6.2-2.7,6.2-6.2v-14.9
							C799.9,596.7,797.1,593.9,793.7,593.9z"/>
						<path class="st2" d="M735.1,593.9c-3.4,0-6.2,2.7-6.2,6.2v14.9c0,3.4,2.7,6.2,6.2,6.2c3.4,0,6.2-2.7,6.2-6.2v-14.9
							C741.3,596.7,738.5,593.9,735.1,593.9z"/>
						<path class="st2" d="M924.4,413.3L826,546l-71.3-71.4l-75.2,76.5c-2.4,2.5-2.4,6.3,0.1,8.8c2.5,2.4,6.3,2.4,8.8-0.1l66.4-67.6
							l72.6,72.7l96.5-130.3l72,105.6c1.9,2.8,5.8,3.6,8.6,1.6c2.8-1.9,3.6-5.8,1.6-8.6L924.4,413.3z"/>
						<circle class="st4" cx="754.6" cy="485.5" r="12.5"/>
						<circle class="st4" cx="924.2" cy="424" r="12.5"/>
					</g>
					<g>
						<path class="st3" d="M653.9,710.9v203.3h80.6V710.9H660L653.9,710.9L653.9,710.9z M666.3,723.3h55.8v178.6h-55.8V723.3z"/>
						<path class="st3" d="M722.1,710.9v203.3h80.6V710.9h-74.4L722.1,710.9L722.1,710.9z M734.5,723.3h55.8v178.6h-55.8V723.3z"/>
						<path class="st3" d="M790.3,710.9v203.3h80.6V710.9h-74.4L790.3,710.9L790.3,710.9z M802.7,723.3h55.8v178.6h-55.8V723.3z"/>
						<path class="st3" d="M858.5,710.9v203.3h80.6V710.9h-74.3L858.5,710.9L858.5,710.9z M870.9,723.3h55.8v178.6h-55.8V723.3z"/>
						<path class="st3" d="M926.7,710.9v203.3h80.6V710.9h-74.4L926.7,710.9L926.7,710.9z M939.1,723.3h55.8v178.6h-55.8V723.3z"/>
						<path class="st3" d="M653.9,770.4v84.4h80.6v-84.4H660H653.9z M666.3,782.8h55.8v59.6h-55.8V782.8z"/>
						<path class="st3" d="M722.1,770.4v84.4h80.6v-84.4h-74.4H722.1z M734.5,782.8h55.8v59.6h-55.8V782.8z"/>
						<path class="st3" d="M790.3,770.4v84.4h80.6v-84.4h-74.4H790.3z M802.7,782.8h55.8v59.6h-55.8V782.8z"/>
						<path class="st3" d="M858.5,770.4v84.4h80.6v-84.4h-74.3H858.5z M870.9,782.8h55.8v59.6h-55.8V782.8z"/>
						<path class="st3" d="M926.7,770.4v84.4h80.6v-84.4h-74.4H926.7z M939.1,782.8h55.8v59.6h-55.8V782.8z"/>
						<path class="st2" d="M1001.1,901.9H666.3V717.1c0-3.4-2.7-6.2-6.2-6.2c-3.4,0-6.2,2.7-6.2,6.2v197.2h347.2
							c3.4,0,6.2-2.7,6.2-6.2C1007.3,904.6,1004.6,901.9,1001.1,901.9z"/>
						<path class="st2" d="M660.1,710.9h-14.9c-3.4,0-6.2,2.7-6.2,6.2c0,3.4,2.7,6.2,6.2,6.2h14.9c3.4,0,6.2-2.7,6.2-6.2
							C666.3,713.7,663.5,710.9,660.1,710.9z"/>
						<path class="st2" d="M660.1,758.6h-14.9c-3.4,0-6.2,2.7-6.2,6.2c0,3.4,2.7,6.2,6.2,6.2h14.9c3.4,0,6.2-2.7,6.2-6.2
							C666.3,761.5,663.5,758.6,660.1,758.6z"/>
						<path class="st2" d="M660.1,806.4h-14.9c-3.4,0-6.2,2.7-6.2,6.2s2.7,6.2,6.2,6.2h14.9c3.4,0,6.2-2.7,6.2-6.2
							S663.5,806.4,660.1,806.4z"/>
						<path class="st2" d="M660.1,854.1h-14.9c-3.4,0-6.2,2.7-6.2,6.2c0,3.4,2.7,6.2,6.2,6.2h14.9c3.4,0,6.2-2.7,6.2-6.2
							S663.5,854.1,660.1,854.1z"/>
						<path class="st2" d="M660.1,901.9h-14.9c-3.4,0-6.2,2.7-6.2,6.2c0,3.4,2.7,6.2,6.2,6.2h14.9c3.4,0,6.2-2.7,6.2-6.2
							S663.5,901.9,660.1,901.9z"/>
						<path class="st2" d="M969.4,887c-3.4,0-6.2,2.7-6.2,6.2v14.9c0,3.4,2.7,6.2,6.2,6.2s6.2-2.7,6.2-6.2v-14.9
							C975.6,889.8,972.8,887,969.4,887z"/>
						<path class="st2" d="M910.8,887c-3.4,0-6.2,2.7-6.2,6.2v14.9c0,3.4,2.7,6.2,6.2,6.2s6.2-2.7,6.2-6.2v-14.9
							C917.1,889.8,914.3,887,910.8,887z"/>
						<path class="st2" d="M852.2,887c-3.4,0-6.2,2.7-6.2,6.2v14.9c0,3.4,2.7,6.2,6.2,6.2s6.2-2.7,6.2-6.2v-14.9
							C858.5,889.8,855.7,887,852.2,887z"/>
						<path class="st2" d="M793.7,887c-3.4,0-6.2,2.7-6.2,6.2v14.9c0,3.4,2.7,6.2,6.2,6.2s6.2-2.7,6.2-6.2v-14.9
							C799.9,889.8,797.1,887,793.7,887z"/>
						<path class="st2" d="M735.1,887c-3.4,0-6.2,2.7-6.2,6.2v14.9c0,3.4,2.7,6.2,6.2,6.2c3.4,0,6.2-2.7,6.2-6.2v-14.9
							C741.3,889.8,738.5,887,735.1,887z"/>
						<g>
							<rect x="683.2" y="743.1" class="st4" width="194.4" height="33.5"/>
							<rect x="683.2" y="776.5" class="st2" width="101.2" height="33.5"/>
							<rect x="683.2" y="810" class="st4" width="66.3" height="33.5"/>
							<rect x="683.2" y="843.5" class="st2" width="147.4" height="33.5"/>
						</g>
					</g>
					<rect x="675.3" y="644.2" class="st3" width="325.9" height="37.7"/>
					<g>
						<rect x="660.1" y="313.9" class="st0" width="341" height="74.3"/>
						<rect x="660.1" y="313.9" class="st2" width="89.9" height="74.3"/>
						<path class="st1" d="M690.8,343.7c1.1,0,2.2,0.1,3.3,0.5c1,0.3,2.2,0.7,3.5,1.3l3-7.6c-3-1.5-6.3-2.3-9.8-2.3
							c-5.1,0-8.9,1.3-11.7,4.1c-2.7,2.7-4.1,6.6-4.1,11.6c0,5,1.3,8.8,3.8,11.4c2.5,2.7,6.2,3.9,11.1,3.9c3.7,0,6.9-0.9,9.6-2.7
							v-8.2c-2.7,1.8-5.7,2.7-8.7,2.7c-3.6,0-5.3-2.4-5.3-7.2c0-2.4,0.4-4.2,1.3-5.5C687.8,344.3,689.1,343.7,690.8,343.7z"/>
						<path class="st1" d="M718.9,353.9c-0.3,1-0.4,2.1-0.4,3h-0.2c0-0.3,0-0.6-0.1-0.9c-0.1-0.3-0.1-0.6-0.1-0.9
							c-0.1-0.3-0.1-0.5-0.1-0.7c-0.1-0.2-0.1-0.4-0.1-0.4l-5.1-17.7H702l11.4,29.9h10.2l11.4-29.9h-10.8L718.9,353.9z"/>
					</g>
				</g>
			</g>
			<g>
				<g>
					<circle class="st4" cx="413.6" cy="865.4" r="212.8"/>
					<circle class="st1" cx="413.6" cy="865.4" r="156.7"/>
					<circle class="st4" cx="413.6" cy="865.4" r="81.4"/>
					<circle class="st1" cx="413.6" cy="865.4" r="38.7"/>
					<path class="st2" d="M413.6,646.5L413.6,646.5c-16,0-32,1.8-47.8,5.3c-15.7,3.5-30.9,8.7-45.4,15.5c-3.1,1.4-4.4,5.1-3,8.2
						c1.4,3.1,5.1,4.4,8.2,3c13.7-6.5,28.1-11.4,42.9-14.7c14.7-3.3,29.8-5,45.1-5l0,0c57,0,108.6,23.1,146.1,60.5
						c37.4,37.4,60.5,89,60.5,146.1c0,57-23.1,108.7-60.5,146.1c-37.4,37.4-89,60.5-146.1,60.5s-108.7-23.1-146.1-60.5
						c-37.4-37.4-60.5-89-60.5-146.1l0,0c0-25.6,4.8-50.6,13.7-74c9-23.4,22.3-45.2,39.4-64.2c2.3-2.5,2.1-6.5-0.4-8.8
						c-2.5-2.3-6.5-2.1-8.8,0.4c-18.1,20.1-32.2,43.2-41.7,68.1c-9.6,24.9-14.6,51.5-14.6,78.5l0,0c0,60.5,24.5,115.2,64.1,154.8
						c39.7,39.7,94.4,64.2,154.8,64.2s115.2-24.5,154.8-64.2c39.7-39.7,64.2-94.4,64.2-154.8c0-60.5-24.5-115.2-64.2-154.8
						C528.8,671,474.1,646.5,413.6,646.5z"/>
					<path class="st2" d="M471.3,690.3c-3.3-1-6.8,0.7-7.8,3.9c-1,3.3,0.7,6.8,3.9,7.8c35.3,11.6,64.8,33.9,85.6,62.6
						c20.7,28.7,32.7,63.7,32.7,100.9c0,3.4,2.7,6.2,6.2,6.2s6.2-2.7,6.2-6.2c0-39.8-12.8-77.4-35-108.1
						C540.8,726.6,509.1,702.7,471.3,690.3z"/>
					<path class="st1" d="M590.3,889.6c-3.3-0.6-6.5,1.7-7.1,5c-1.4,8-3.3,15.9-5.8,23.5c-2.5,7.6-5.5,15.2-9.1,22.5
						c-1.5,3-0.2,6.8,2.9,8.2c3,1.5,6.8,0.2,8.2-2.9c3.8-7.8,7-15.8,9.7-24.1c2.7-8.3,4.8-16.7,6.2-25.3
						C596,893.4,593.7,890.2,590.3,889.6z"/>
					<path class="st2" d="M428.9,726.4c-2.5-0.3-5.1-0.4-7.6-0.6l0,0c-2.7-0.1-5.3-0.2-7.6-0.2c-27.6,0-54,8.2-76.2,22.7
						s-40.3,35.2-51.6,60.5c-1.4,3.1,0,6.8,3.1,8.1c3.1,1.4,6.8,0,8.1-3.1c10.2-23,26.7-42,47-55.2c20.3-13.1,44.3-20.6,69.5-20.6
						c2.5,0,4.8,0.1,7,0.1c2.3,0.1,4.6,0.3,7,0.6c3.4,0.4,6.5-2.1,6.8-5.5C434.6,729.8,432.2,726.8,428.9,726.4z"/>
					<path class="st2" d="M474.8,739.7c-3.3-1.6-6.8-3.1-10.2-4.5c-3.6-1.4-7.1-2.6-10.5-3.6c-3.3-1-6.8,0.9-7.7,4.2
						c-1,3.3,0.9,6.8,4.2,7.7c3.3,1,6.5,2.1,9.6,3.3c3.2,1.3,6.3,2.6,9.3,4.1c3,1.5,6.8,0.2,8.2-2.9
						C479.1,744.8,477.8,741.2,474.8,739.7z"/>
					<path class="st1" d="M301.5,677.4c-3,1.8-5.9,3.6-8.6,5.4c-2.7,1.8-5.4,3.7-8.4,5.8c-2.7,2-3.3,5.9-1.3,8.6
						c2,2.7,5.9,3.3,8.6,1.3c2.5-1.8,5.1-3.6,7.9-5.5c2.7-1.8,5.4-3.5,8.2-5.1c2.9-1.8,3.9-5.6,2.2-8.5
						C308.2,676.6,304.4,675.7,301.5,677.4z"/>
				</g>
				<g>
					<path class="st3" d="M413.6,849H116.6c-8.2,0-14.9,6.7-14.9,14.9l0,0c0,8.2,6.7,14.9,14.9,14.9h297.1c8.2,0,14.9-6.7,14.9-14.9
						l0,0C428.5,855.7,421.8,849,413.6,849z"/>
					<path class="st1" d="M148.7,812.5c-1.4-3.9-5.8-7-9.6-7H80.8c-3.9,0-5.8,3.1-4.3,7L87.6,842c1.4,3.9,5.8,7,9.6,7h58.4
						c3.9,0,5.8-3.1,4.3-7L148.7,812.5z"/>
					<path class="st2" d="M154.5,810.3c-1.2-3-3.4-5.8-6.1-7.7c-2.7-2-6.1-3.2-9.3-3.2H80.8c-1.5,0-2.9,0.3-4.2,0.7
						c-2.2,0.8-3.9,2.2-5.1,3.9c-1.1,1.7-1.8,3.8-1.8,6c0,1.5,0.3,3,0.9,4.6l11.1,29.6c1.2,3,3.4,5.8,6.1,7.7c2.7,2,6.1,3.2,9.3,3.2
						h58.4c1.5,0,2.9-0.3,4.2-0.7c2.2-0.8,3.9-2.2,5.1-3.9c1.1-1.7,1.8-3.8,1.8-6c0-1.5-0.3-3-0.9-4.6L154.5,810.3z M97.2,842.8
						c-0.6,0-1.3-0.3-2.1-0.9c-0.8-0.6-1.5-1.3-1.8-2.1l-10.6-28.1h56.4c0.6,0,1.3,0.3,2.1,0.9c0.8,0.6,1.5,1.3,1.8,2.1l10.6,28.1
						H97.2z"/>
					<path class="st0" d="M155.6,879.8H97.2c-3.9,0-8.2,3.1-9.6,7l-11.1,29.6c-1.4,3.9,0.5,7,4.3,7h58.4c3.9,0,8.2-3.1,9.6-7
						l11.1-29.6C161.4,883,159.4,879.8,155.6,879.8z"/>
					<path class="st2" d="M159.8,874.3c-1.3-0.5-2.7-0.7-4.2-0.7H97.2c-3.3,0-6.5,1.3-9.3,3.3c-2.7,1.9-4.9,4.7-6.1,7.7l-11.1,29.6
						c-0.6,1.6-0.9,3.2-0.9,4.6c0,2.2,0.6,4.2,1.8,6s2.9,3.2,5.1,3.9c1.3,0.5,2.7,0.7,4.2,0.7h58.4c3.3,0,6.5-1.3,9.3-3.2
						c2.7-1.9,4.9-4.7,6.1-7.7l11.1-29.6c0.6-1.6,0.9-3.2,0.9-4.6c0-2.2-0.6-4.2-1.8-6C163.6,876.6,161.9,875.2,159.8,874.3z
						 M142.9,914.2c-0.3,0.7-1,1.5-1.8,2.1c-0.7,0.5-1.5,0.9-2.1,0.9H82.7L93.3,889c0.3-0.7,1-1.5,1.8-2.1c0.7-0.5,1.5-0.9,2.1-0.9
						h56.4L142.9,914.2z"/>
					<path class="st0" d="M221.1,812.5c-1.4-3.9-5.8-7-9.6-7h-58.4c-3.9,0-5.8,3.1-4.3,7L160,842c1.4,3.9,5.8,7,9.6,7H228
						c3.9,0,5.8-3.1,4.3-7L221.1,812.5z"/>
					<path class="st2" d="M226.9,810.3c-1.2-3-3.4-5.8-6.1-7.7c-2.7-2-6.1-3.2-9.3-3.2h-58.4c-1.5,0-2.9,0.3-4.2,0.7
						c-2.2,0.8-3.9,2.2-5.1,3.9c-1.1,1.7-1.8,3.8-1.8,6c0,1.5,0.3,3,0.9,4.6l11.1,29.6c1.2,3,3.4,5.8,6.1,7.7c2.7,2,6.1,3.2,9.3,3.2
						h58.4c1.5,0,2.9-0.3,4.2-0.7c2.2-0.8,3.9-2.2,5.1-3.9c1.1-1.7,1.8-3.8,1.8-6c0-1.5-0.3-3-0.9-4.6L226.9,810.3z M169.6,842.8
						c-0.6,0-1.3-0.3-2.1-0.9c-0.8-0.6-1.5-1.3-1.8-2.1l-10.6-28.1h56.4c0.6,0,1.3,0.3,2.1,0.9c0.8,0.6,1.5,1.3,1.8,2.1l10.6,28.1
						H169.6z"/>
					<path class="st1" d="M228,879.8h-58.4c-3.9,0-8.2,3.1-9.6,7l-11.1,29.6c-1.4,3.9,0.5,7,4.3,7h58.4c3.9,0,8.2-3.1,9.6-7
						l11.1-29.6C233.8,883,231.8,879.8,228,879.8z"/>
					<path class="st2" d="M232.1,874.3c-1.3-0.5-2.7-0.7-4.2-0.7h-58.3c-3.3,0-6.5,1.3-9.3,3.3c-2.7,1.9-4.9,4.7-6.1,7.7l-11.1,29.6
						c-0.6,1.6-0.9,3.2-0.9,4.6c0,2.2,0.6,4.2,1.8,6c1.2,1.8,2.9,3.2,5.1,3.9c1.3,0.5,2.7,0.7,4.2,0.7h58.4c3.3,0,6.5-1.3,9.3-3.2
						c2.7-1.9,4.9-4.7,6.1-7.7l11.1-29.6c0.6-1.6,0.9-3.2,0.9-4.6c0-2.2-0.6-4.2-1.8-6C236,876.6,234.3,875.2,232.1,874.3z
						 M215.3,914.2c-0.3,0.7-1,1.5-1.8,2.1c-0.7,0.5-1.5,0.9-2.1,0.9h-56.4l10.6-28.1c0.3-0.7,1-1.5,1.8-2.1
						c0.7-0.5,1.5-0.9,2.1-0.9H226L215.3,914.2z"/>
					<path class="st2" d="M140.5,874c-3.2-1.2-6.8,0.4-7.9,3.6l-6.9,18.3c-1.2,3.2,0.4,6.8,3.6,7.9c3.2,1.2,6.8-0.4,7.9-3.6
						l6.9-18.3C145.2,878.8,143.7,875.2,140.5,874z"/>
					<path class="st2" d="M185,899.2c-3.2-1.2-6.8,0.4-7.9,3.6l-6.9,18.3c-1.2,3.2,0.4,6.8,3.6,7.9s6.8-0.4,7.9-3.6l6.9-18.3
						C189.8,904,188.2,900.4,185,899.2z"/>
					<path class="st2" d="M181.7,803.3c-1.2-3.2-4.8-4.8-7.9-3.6c-3.2,1.2-4.8,4.8-3.6,7.9l6.9,18.3c1.2,3.2,4.8,4.8,7.9,3.6
						c3.2-1.2,4.8-4.8,3.6-7.9L181.7,803.3z"/>
					<path class="st2" d="M102.9,803.3c-1.2-3.2-4.8-4.8-7.9-3.6c-3.2,1.2-4.8,4.8-3.6,7.9l6.9,18.3c1.2,3.2,4.8,4.8,7.9,3.6
						c3.2-1.2,4.8-4.8,3.6-7.9L102.9,803.3z"/>
					<path class="st2" d="M428.5,849c-3.8-3.9-9.1-6.2-14.9-6.2l0,0H327c-3.4,0-6.2,2.7-6.2,6.2s2.7,6.2,6.2,6.2h86.7l0,0
						c2.4,0,4.5,1,6.1,2.5s2.5,3.7,2.5,6.2c0,2.4-1,4.5-2.5,6.1l0,0c-1.6,1.6-3.7,2.5-6.1,2.5H116.6c-2.4,0-4.5-1-6.1-2.5l0,0
						c-1.6-1.6-2.5-3.7-2.5-6.1c0-2.4,1-4.5,2.5-6.2l0,0c1.6-1.6,3.8-2.6,6.1-2.6l0,0h148.5c3.4,0,6.2-2.7,6.2-6.2
						c0-3.4-2.7-6.2-6.2-6.2H116.6l0,0c-5.8,0-11.1,2.4-14.9,6.2l0,0c-3.8,3.8-6.2,9.1-6.2,14.9c0,5.8,2.4,11,6.2,14.9l0,0
						c3.8,3.8,9.1,6.2,14.9,6.2h297.1c5.8,0,11.1-2.4,14.9-6.2l0,0c3.8-3.8,6.2-9.1,6.2-14.9C434.6,858.1,432.3,852.8,428.5,849z"/>
					<path class="st2" d="M311.2,842.9H295c-3.4,0-6.2,2.7-6.2,6.2s2.7,6.2,6.2,6.2h16.3c3.4,0,6.2-2.7,6.2-6.2
						S314.6,842.9,311.2,842.9z"/>
				</g>
			</g>
			<g>
				<path class="st1" d="M548.6,404.9c-0.4-3.3-1-6.5-1.9-9.7c-0.9-3.3-1.9-6.4-3.2-9.4l0.1-0.1c2.2-2.2,3.2-5,3.2-7.9
					c0-2.9-1.1-5.7-3.3-7.9L522.6,349l-0.1-0.1c-2.2-2.2-5.1-3.3-7.9-3.3c-2.9,0-5.7,1.1-7.9,3.3l0,0c-6-2.6-12.5-4.3-19.1-5.1
					c-0.8-3-2.7-5.3-5.2-6.8c-2.5-1.4-5.5-1.9-8.5-1.1l-28.7,7.7c-3,0.8-5.3,2.7-6.8,5.2c-1.4,2.5-1.9,5.5-1.1,8.5
					c-5.3,4-10,8.8-14,14l0,0c-3-0.8-6-0.3-8.5,1.1s-4.4,3.8-5.2,6.8l-7.7,28.8c-0.8,3-0.3,6,1.1,8.5c1.4,2.5,3.8,4.5,6.8,5.2
					c0.4,3.3,1,6.5,1.9,9.7c0.9,3.3,1.9,6.4,3.2,9.4c-2.2,2.2-3.3,5-3.3,7.9c0,2.9,1.1,5.7,3.3,7.9l21,21c2.2,2.2,5.1,3.3,7.9,3.3
					s5.7-1.1,7.9-3.3l0,0c6,2.6,12.5,4.3,19.1,5.1c0.8,3,2.7,5.3,5.2,6.8c2.5,1.4,5.5,1.9,8.5,1.1l28.7-7.7c3-0.8,5.3-2.7,6.8-5.2
					c1.4-2.5,1.9-5.5,1.1-8.5c5.3-4,10-8.8,14-14l0,0c3,0.8,6,0.3,8.5-1.1c2.5-1.4,4.4-3.8,5.2-6.8l7.7-28.8c0.8-3,0.3-6-1.1-8.5
					C553.9,407.7,551.5,405.7,548.6,404.9z M507.9,430c-4.2,7.4-11.4,13.1-20.3,15.5s-17.9,1-25.3-3.3c-7.4-4.2-13.1-11.4-15.5-20.3
					c-2.4-8.9-1-17.9,3.3-25.3c4.2-7.4,11.4-13.1,20.3-15.5c8.9-2.4,17.9-1,25.3,3.3c7.4,4.2,13.1,11.4,15.5,20.3
					C513.7,413.6,512.2,422.6,507.9,430z"/>
				<path class="st2" d="M560.7,407.1c-1.1-1.9-2.6-3.7-4.5-5c-0.7-0.5-1.3-1-2.1-1.3l-0.3-1.7c-0.4-1.8-0.7-3.6-1.2-5.3
					c-0.4-1.8-1-3.5-1.6-5.1l-0.6-1.7c0.4-0.7,0.8-1.5,1.1-2.2c0.9-2.2,1.3-4.4,1.3-6.6c0-2.2-0.4-4.5-1.3-6.6
					c-0.8-2.1-2.1-4-3.7-5.6l0,0L527,344.8l0,0l-0.1-0.1c-1.6-1.6-3.6-2.9-5.6-3.7c-2.1-0.9-4.4-1.3-6.6-1.3l0,0
					c-2.2,0-4.5,0.4-6.6,1.3c-0.7,0.3-1.5,0.7-2.2,1.1c-2.2-0.8-4.5-1.6-6.8-2.2c-2.3-0.6-4.6-1.1-7-1.6c-0.4-0.7-0.9-1.4-1.3-2.1
					c-1.4-1.9-3.1-3.3-5.1-4.5l0,0c-1.9-1.1-4.2-1.9-6.4-2.2c-2.2-0.3-4.5-0.1-6.8,0.4l-28.7,7.7c-2.2,0.6-4.3,1.6-6.1,3
					c-1.9,1.4-3.3,3.1-4.5,5.1l0,0c-1.1,1.9-1.9,4.1-2.2,6.4c-0.1,0.8-0.1,1.6-0.1,2.5c-1.9,1.6-3.6,3.1-5.3,4.8
					c-1.7,1.7-3.3,3.4-4.8,5.3c-0.8,0-1.6,0.1-2.5,0.1c-2.3,0.3-4.5,1-6.4,2.2l0,0c-1.9,1.1-3.6,2.6-5.1,4.5c-1.3,1.7-2.4,3.8-3,6
					l0,0l-7.7,28.8c-0.6,2.2-0.7,4.5-0.4,6.8c0.3,2.3,1,4.5,2.2,6.5c1.1,1.9,2.6,3.7,4.5,5c0.7,0.5,1.3,1,2.1,1.3l0.3,1.7
					c0.4,1.8,0.7,3.6,1.2,5.3c0.4,1.8,1,3.5,1.6,5.2l0.6,1.7c-0.4,0.7-0.8,1.5-1.1,2.2c-0.9,2.1-1.3,4.4-1.3,6.6l0,0
					c0,2.2,0.4,4.5,1.3,6.6c0.8,2.1,2.1,4,3.7,5.6l0,0l21,21c1.6,1.6,3.6,2.9,5.6,3.7c2.1,0.9,4.4,1.3,6.6,1.3l0,0
					c2.2,0,4.5-0.4,6.6-1.3c0.7-0.3,1.5-0.7,2.2-1.1c2.2,0.8,4.5,1.6,6.8,2.2c2.3,0.6,4.6,1.1,7,1.6c0.4,0.7,0.9,1.4,1.3,2.1
					c1.4,1.8,3.1,3.3,5.1,4.5c1.9,1.1,4.2,1.9,6.4,2.2c2.2,0.3,4.5,0.1,6.8-0.4l28.7-7.7c2.2-0.6,4.3-1.6,6.1-3
					c1.9-1.4,3.3-3.1,4.5-5.1l0,0c1.1-1.9,1.9-4.2,2.2-6.4c0.1-0.8,0.1-1.6,0.1-2.5c1.9-1.6,3.6-3.1,5.3-4.8
					c1.7-1.7,3.3-3.4,4.8-5.3c0.8,0,1.6-0.1,2.5-0.1c2.3-0.3,4.5-1,6.5-2.2c1.9-1.1,3.6-2.6,5.1-4.5c1.3-1.7,2.4-3.8,3-6l0,0
					l7.7-28.8c0.6-2.2,0.7-4.5,0.4-6.8C562.6,411.2,561.8,409,560.7,407.1z M550.5,417l-7.7,28.8l0,0c-0.1,0.6-0.4,1.2-0.9,1.7
					c-0.4,0.5-0.9,1-1.5,1.3c-0.6,0.3-1.2,0.5-1.9,0.7c-0.6,0.1-1.3,0.1-1.9-0.1l-3.9-1.3l-2.7,3.6c-1.8,2.4-3.8,4.7-5.9,6.8
					c-2.2,2.2-4.4,4.1-6.8,5.9l-3.3,2.5l1,4c0.1,0.7,0.2,1.3,0.1,2c-0.1,0.7-0.3,1.3-0.6,1.9l0,0c-0.4,0.6-0.8,1.1-1.3,1.5
					c-0.4,0.4-1,0.7-1.7,0.8l-28.7,7.7c-0.7,0.1-1.3,0.2-1.9,0.1c-0.7-0.1-1.3-0.3-1.9-0.7c-0.6-0.3-1-0.7-1.5-1.3
					c-0.4-0.5-0.7-1-0.8-1.7l-1.1-4l-4.2-0.5c-3-0.4-5.9-1-8.8-1.7c-3-0.8-5.8-1.8-8.5-3l-3.9-1.6l-3,3l0,0c-0.5,0.4-1,0.8-1.6,1.1
					c-0.6,0.2-1.3,0.4-1.9,0.4l0,0c-0.7,0-1.3-0.1-1.9-0.4c-0.5-0.2-1.1-0.6-1.6-1.1l-21-21l0,0c-0.4-0.5-0.8-1-1.1-1.6
					c-0.2-0.6-0.4-1.3-0.4-1.9l0,0c0-0.7,0.1-1.3,0.4-1.9c0.2-0.6,0.6-1.1,1.1-1.6l3-3l-1.6-3.9c-0.5-1.3-1.1-2.7-1.6-4.2
					c-0.5-1.5-1-2.9-1.3-4.3c-0.4-1.5-0.7-3-1-4.4c-0.3-1.5-0.5-3-0.7-4.5l-0.5-4.2l-4-1.1c-0.7-0.1-1.3-0.4-1.7-0.8
					c-0.5-0.4-1-0.9-1.3-1.5c-0.3-0.6-0.5-1.2-0.7-1.9c-0.1-0.6-0.1-1.3,0.1-1.9l7.7-28.8l0,0c0.1-0.6,0.4-1.2,0.9-1.7
					c0.4-0.5,0.9-1,1.5-1.3l0,0c0.6-0.3,1.2-0.5,1.9-0.6c0.6-0.1,1.3-0.1,1.9,0.1l3.9,1.3l2.7-3.6c1.8-2.4,3.8-4.7,5.9-6.8
					c2.2-2.2,4.4-4.1,6.8-5.9l3.3-2.5l-1-4c-0.1-0.7-0.2-1.3-0.1-1.9l0,0c0.1-0.7,0.3-1.3,0.6-1.9l0,0c0.4-0.6,0.8-1.1,1.3-1.5
					c0.5-0.4,1-0.7,1.7-0.8l28.7-7.7c0.7-0.1,1.3-0.2,1.9-0.1c0.7,0.1,1.3,0.3,1.9,0.6l0,0c0.6,0.4,1.1,0.8,1.5,1.3
					c0.4,0.5,0.7,1,0.8,1.7l1.1,4l4.2,0.5c3,0.4,5.9,1,8.8,1.7c3,0.8,5.8,1.8,8.5,3l3.9,1.6l3-3c0.5-0.5,1-0.9,1.6-1.1
					c0.6-0.2,1.3-0.4,1.9-0.4l0,0c0.7,0,1.3,0.1,1.9,0.4c0.6,0.2,1.1,0.6,1.6,1l0.1,0.1v0.1l20.9,20.9l0,0c0.4,0.5,0.8,1,1.1,1.6
					c0.2,0.6,0.4,1.3,0.4,1.9c0,0.7-0.1,1.3-0.4,1.9c-0.2,0.5-0.6,1.1-1.1,1.6l-0.4,0.4l-2.3,3.3l1.3,3c0.5,1.3,1.1,2.7,1.6,4.2
					c0.5,1.5,1,2.9,1.3,4.3c0.4,1.5,0.7,3,1,4.4c0.3,1.5,0.5,3,0.7,4.5l0.5,4.2l4,1.1c0.7,0.1,1.3,0.4,1.7,0.8
					c0.5,0.4,1,0.9,1.3,1.5c0.3,0.6,0.5,1.2,0.7,1.9C550.7,415.7,550.7,416.4,550.5,417z"/>
				<path class="st2" d="M510.5,389.2c-3.2-4.2-7.1-7.6-11.6-10.2c-4.5-2.6-9.4-4.3-14.6-5c-5.1-0.7-10.2-0.4-15.4,1
					c-5.1,1.4-9.8,3.7-13.8,6.8c-4.2,3.2-7.6,7.1-10.2,11.6l0,0c-2.6,4.5-4.3,9.4-5,14.6c-0.7,5-0.4,10.2,1,15.4
					c1.4,5.2,3.7,9.8,6.8,13.8c3.2,4.2,7.1,7.6,11.6,10.2l0,0c4.5,2.6,9.4,4.3,14.6,5c5.1,0.7,10.2,0.4,15.4-1
					c5.1-1.4,9.8-3.7,13.8-6.8c4.2-3.2,7.6-7.1,10.2-11.6c2.6-4.5,4.3-9.4,5-14.6c0.7-5,0.4-10.2-1-15.4
					C515.9,397.9,513.5,393.3,510.5,389.2z M506,416.9c-0.4,3.6-1.6,7-3.4,10c-1.8,3-4.2,5.8-7,7.9c-2.7,2.1-5.9,3.7-9.5,4.7
					c-3.6,1-7.1,1.2-10.5,0.7c-3.6-0.4-7-1.6-10-3.4l0,0c-3-1.8-5.8-4.2-7.9-7c-2.1-2.7-3.7-5.9-4.7-9.5c-1-3.6-1.2-7.1-0.7-10.5
					c0.4-3.6,1.6-7,3.4-10l0,0c1.8-3,4.2-5.8,7-7.9c2.7-2.1,5.9-3.7,9.5-4.7c3.6-1,7.1-1.2,10.5-0.7c3.6,0.4,7,1.6,10,3.4
					c3,1.8,5.8,4.2,7.9,7c2.1,2.7,3.7,5.9,4.7,9.5S506.5,413.5,506,416.9z"/>
				<path class="st4" d="M445.5,277.6c-0.4-3.3-1-6.5-1.9-9.7c-0.9-3.3-1.9-6.4-3.2-9.4l0.1-0.1c2.2-2.2,3.2-5.1,3.2-7.9
					c0-2.9-1.1-5.7-3.3-7.9l-20.9-20.9l-0.1-0.1c-2.2-2.2-5.1-3.3-7.9-3.3c-2.9,0-5.7,1.1-7.9,3.3l0,0c-6-2.6-12.5-4.3-19.1-5.1
					c-0.8-3-2.7-5.3-5.2-6.8s-5.5-1.9-8.5-1.1l-28.7,7.7c-3,0.8-5.3,2.7-6.8,5.2c-1.4,2.5-1.9,5.5-1.1,8.5c-5.3,4-10,8.8-14,14l0,0
					c-3-0.8-6-0.3-8.5,1.1c-2.5,1.4-4.4,3.8-5.2,6.8l-7.7,28.8c-0.8,3-0.3,6,1.1,8.5c1.4,2.5,3.8,4.5,6.8,5.2c0.4,3.3,1,6.5,1.9,9.7
					c0.9,3.3,1.9,6.4,3.2,9.4c-2.2,2.2-3.3,5-3.3,7.9c0,2.9,1.1,5.7,3.3,7.9l21,21c2.2,2.2,5.1,3.3,7.9,3.3c2.9,0,5.7-1.1,7.9-3.3
					l0,0c6,2.6,12.5,4.3,19.1,5.1c0.8,3,2.7,5.3,5.2,6.8c2.5,1.4,5.5,1.9,8.5,1.1l28.7-7.7c3-0.8,5.3-2.7,6.8-5.2
					c1.4-2.5,1.9-5.5,1.1-8.5c5.3-4,10-8.8,14-14l0,0c3,0.8,6,0.3,8.5-1.1s4.4-3.8,5.2-6.8l7.7-28.8c0.8-3,0.3-6-1.1-8.5
					C450.9,280.3,448.5,278.4,445.5,277.6z M404.9,302.6c-4.2,7.4-11.4,13.1-20.3,15.5c-8.9,2.4-17.9,1-25.3-3.3
					c-7.4-4.2-13.1-11.4-15.5-20.3c-2.4-8.9-1-17.9,3.3-25.3c4.2-7.4,11.4-13.1,20.3-15.5c8.9-2.4,17.9-1,25.3,3.3
					c7.4,4.2,13.1,11.4,15.5,20.3C410.6,286.2,409.2,295.2,404.9,302.6z"/>
				<path class="st2" d="M457.7,279.7c-1.1-1.9-2.6-3.7-4.5-5c-0.7-0.5-1.3-1-2.1-1.3l-0.3-1.7c-0.4-1.8-0.7-3.6-1.2-5.3
					c-0.4-1.8-1-3.5-1.6-5.1l-0.6-1.7c0.4-0.7,0.8-1.5,1.1-2.2c0.9-2.1,1.3-4.4,1.3-6.6l0,0c0-2.2-0.4-4.5-1.3-6.6
					c-0.8-2.1-2.1-4-3.7-5.6l0,0l-20.9-20.9l0,0l-0.1-0.1l0,0c-1.6-1.6-3.6-2.9-5.6-3.7c-2.1-0.9-4.4-1.3-6.6-1.3l0,0
					c-2.2,0-4.5,0.4-6.6,1.3c-0.7,0.3-1.5,0.7-2.2,1.1c-2.2-0.8-4.5-1.6-6.8-2.2c-2.3-0.6-4.6-1.1-7-1.6c-0.4-0.7-0.9-1.4-1.3-2.1
					c-1.4-1.8-3.1-3.3-5.1-4.5l0,0c-1.9-1.1-4.2-1.9-6.4-2.2c-2.2-0.3-4.5-0.1-6.8,0.4l-28.7,7.7c-2.2,0.6-4.3,1.6-6.1,3
					c-1.9,1.4-3.3,3.1-4.5,5.1l0,0c-1.1,1.9-1.9,4.2-2.2,6.4c-0.1,0.8-0.1,1.6-0.1,2.5c-1.9,1.6-3.6,3.1-5.3,4.8
					c-1.7,1.7-3.3,3.4-4.8,5.3c-0.8,0-1.6,0.1-2.5,0.1c-2.3,0.3-4.5,1-6.4,2.2l0,0c-1.9,1.1-3.6,2.6-5.1,4.5c-1.3,1.7-2.4,3.8-3,6
					l0,0l-7.7,28.8c-0.6,2.2-0.7,4.5-0.4,6.8c0.3,2.3,1,4.5,2.2,6.5l0,0c1.1,1.9,2.7,3.7,4.5,5.1c0.7,0.5,1.3,1,2.1,1.3l0.3,1.7
					c0.4,1.8,0.7,3.6,1.2,5.3c0.5,1.8,1,3.6,1.6,5.2l0.6,1.7c-0.4,0.7-0.8,1.5-1.1,2.2c-0.9,2.1-1.3,4.4-1.3,6.6l0,0
					c0,2.2,0.4,4.5,1.3,6.6c0.8,2.1,2.1,4,3.7,5.6l0,0l21,21c1.6,1.6,3.6,2.9,5.6,3.7c2.1,0.9,4.4,1.3,6.6,1.3l0,0
					c2.2,0,4.5-0.4,6.6-1.3c0.7-0.3,1.5-0.7,2.2-1.1c2.2,0.8,4.5,1.6,6.8,2.2c2.3,0.6,4.6,1.1,7,1.6c0.4,0.7,0.9,1.4,1.3,2.1
					c1.4,1.8,3.1,3.3,5.1,4.5c1.9,1.1,4.2,1.9,6.4,2.2c2.2,0.3,4.5,0.1,6.8-0.4l28.7-7.7c2.2-0.6,4.3-1.6,6.1-3
					c1.9-1.4,3.3-3.1,4.5-5.1l0,0c1.1-1.9,1.9-4.2,2.2-6.4c0.1-0.8,0.1-1.6,0.1-2.5c1.9-1.6,3.6-3.1,5.3-4.8
					c1.7-1.7,3.3-3.4,4.8-5.3c0.8,0,1.6-0.1,2.5-0.1c2.3-0.3,4.5-1,6.5-2.2c1.9-1.1,3.6-2.6,5.1-4.5c1.3-1.7,2.4-3.8,3-6l0,0
					l7.7-28.8c0.6-2.2,0.7-4.5,0.4-6.8C459.5,283.9,458.8,281.6,457.7,279.7z M447.5,289.7l-7.7,28.8l0,0c-0.1,0.6-0.4,1.2-0.9,1.7
					c-0.4,0.5-0.9,1-1.5,1.3c-0.6,0.3-1.2,0.5-1.9,0.7c-0.6,0.1-1.3,0.1-1.9-0.1l-0.4-0.1l-3.8-0.7l-2.4,3.1
					c-1.8,2.4-3.8,4.7-5.9,6.8c-2.2,2.2-4.4,4.1-6.8,5.9l-3.3,2.5l1,4c0.1,0.7,0.2,1.3,0.1,2c-0.1,0.7-0.3,1.3-0.6,1.9l0,0
					c-0.4,0.6-0.8,1.1-1.3,1.5c-0.5,0.4-1,0.7-1.7,0.8l-28.7,7.7c-0.7,0.1-1.3,0.2-1.9,0.1c-0.7-0.1-1.3-0.3-1.9-0.7
					c-0.6-0.3-1-0.7-1.5-1.3c-0.4-0.5-0.7-1-0.8-1.7l-1.1-4l-4.2-0.5c-3-0.4-5.9-1-8.8-1.7c-3-0.8-5.8-1.8-8.5-3l-4.8-2l-2.5,3.6
					c-0.4,0.3-0.8,0.6-1.2,0.7c-0.6,0.2-1.3,0.4-1.9,0.4l0,0c-0.7,0-1.3-0.1-1.9-0.4c-0.5-0.2-1.1-0.6-1.6-1.1l-21-21l0,0
					c-0.4-0.5-0.8-1-1.1-1.6c-0.2-0.6-0.4-1.3-0.4-1.9l0,0c0-0.7,0.1-1.3,0.4-1.9s0.6-1.1,1.1-1.6l3-3l-1.6-3.9
					c-0.5-1.3-1.1-2.7-1.6-4.2c-0.5-1.5-1-2.9-1.3-4.4c-0.4-1.5-0.7-3-1-4.4c-0.3-1.5-0.5-3-0.7-4.5l-0.5-4.2l-4-1.1
					c-0.7-0.1-1.3-0.4-1.7-0.8c-0.5-0.4-1-0.9-1.3-1.5l0,0c-0.3-0.6-0.5-1.2-0.7-1.9c-0.1-0.6-0.1-1.3,0.1-1.9l7.7-28.8l0,0
					c0.1-0.6,0.4-1.2,0.9-1.7c0.4-0.5,0.9-1,1.5-1.3l0,0c0.6-0.3,1.2-0.5,1.9-0.6c0.6-0.1,1.3-0.1,1.9,0.1l4.1,1l2.5-3.3
					c1.8-2.4,3.8-4.7,5.9-6.8c2.2-2.2,4.4-4.1,6.8-5.9l3.3-2.5l-1-4c-0.1-0.7-0.2-1.3-0.1-2c0.1-0.7,0.3-1.3,0.6-1.9l0,0
					c0.4-0.6,0.8-1.1,1.3-1.5c0.4-0.4,1-0.7,1.7-0.8l28.7-7.7c0.7-0.1,1.3-0.2,1.9-0.1c0.7,0.1,1.3,0.3,1.9,0.6l0,0
					c0.6,0.4,1.1,0.8,1.5,1.3c0.4,0.5,0.7,1,0.8,1.7l1.1,4l4.2,0.5c3,0.4,5.9,1,8.8,1.7c3,0.8,5.8,1.8,8.5,3l3.9,1.6l3-3
					c0.5-0.5,1-0.9,1.6-1.1c0.6-0.2,1.3-0.4,1.9-0.4l0,0c0.7,0,1.3,0.1,1.9,0.4c0.5,0.2,1.1,0.6,1.6,1.1l0,0l0.1,0.1l0,0l20.9,20.9
					l0,0c0.4,0.5,0.8,1,1.1,1.6c0.2,0.6,0.4,1.3,0.4,1.9l0,0c0,0.7-0.1,1.3-0.4,1.9c-0.2,0.6-0.6,1.1-1,1.6l-0.4,0.4l-2.2,3.3l1.3,3
					c0.5,1.3,1.1,2.7,1.6,4.2c0.5,1.5,1,2.9,1.3,4.3c0.4,1.5,0.7,3,1,4.4c0.3,1.5,0.5,3,0.7,4.5l0.5,4.2l4,1.1
					c0.7,0.1,1.3,0.4,1.7,0.8c0.5,0.4,1,0.9,1.3,1.5c0.3,0.6,0.5,1.2,0.7,1.9C447.7,288.3,447.6,289,447.5,289.7z"/>
				<path class="st2" d="M407.4,261.9c-3.2-4.2-7.1-7.6-11.6-10.2c-4.5-2.6-9.4-4.3-14.6-5c-5.1-0.7-10.2-0.4-15.4,1
					c-5.1,1.4-9.8,3.7-13.8,6.8c-4.2,3.2-7.6,7.1-10.2,11.6c-2.6,4.5-4.3,9.4-5,14.6c-0.7,5-0.4,10.2,1,15.4
					c1.4,5.1,3.7,9.8,6.8,13.8c3.2,4.2,7.1,7.6,11.6,10.2l0,0c4.5,2.6,9.4,4.3,14.6,5c5.1,0.7,10.2,0.4,15.4-1
					c5.2-1.4,9.8-3.7,13.8-6.8c4.2-3.2,7.6-7.1,10.2-11.6l0,0c2.6-4.5,4.3-9.4,5-14.6c0.7-5.1,0.4-10.2-1-15.4
					C412.8,270.6,410.4,265.9,407.4,261.9z M403,289.5c-0.4,3.6-1.6,7-3.4,10l0,0c-1.8,3-4.2,5.8-7,7.9c-2.7,2.1-5.9,3.7-9.5,4.7
					c-3.6,1-7.1,1.2-10.5,0.7c-3.6-0.4-7-1.6-10-3.4l0,0c-3-1.8-5.8-4.2-7.9-7c-2.1-2.7-3.7-5.9-4.7-9.5c-1-3.6-1.2-7.1-0.7-10.5
					c0.4-3.6,1.6-7,3.4-10s4.2-5.8,7-7.9c2.7-2.1,5.9-3.7,9.5-4.7c3.6-1,7.1-1.2,10.5-0.7c3.6,0.4,7,1.6,10,3.4c3,1.8,5.8,4.2,7.9,7
					c2.1,2.7,3.7,5.9,4.7,9.5C403.2,282.5,403.5,286.1,403,289.5z"/>
			</g>
			<g>
				<path class="st2" d="M1159,1061.3c-1-4.3-5.4-7.8-9.7-7.8h-50c-4.3,0-7,3.5-5.9,7.8l4.2,17.2c1,4.3,5.4,7.8,9.7,7.8h50
					c4.3,0,7-3.5,5.9-7.8L1159,1061.3z"/>
				<path class="st1" d="M1213.9,1022.1c-1-4.3-5.4-7.8-9.7-7.8h-25c-4.3,0-7,3.5-5.9,7.8l4.2,17.2c1,4.3,5.4,7.8,9.7,7.8h25
					c4.3,0,7-3.5,5.9-7.8L1213.9,1022.1z"/>
			</g>
			<g>
				<rect x="960.1" y="859.2" class="st3" width="60" height="109.2"/>
				<path class="st2" d="M953.9,853v121.6h72.4V853h-66.2H953.9z M966.3,865.4h47.6v96.9h-47.6V865.4z"/>
				<path class="st4" d="M1021.3,960.7H959c-6.8,0-12.3,5.5-12.3,12.3v169.8c0,23.9,19.5,43.4,43.4,43.4s43.4-19.5,43.4-43.4V973
					C1033.5,966.2,1028,960.7,1021.3,960.7z"/>
				<path class="st2" d="M1021.3,954.5H959c-5.1,0-9.7,2.1-13.1,5.4s-5.4,7.9-5.4,13.1v169.8c0,13.7,5.6,26.1,14.6,35.1
					s21.4,14.6,35.1,14.6c13.7,0,26.1-5.6,35.1-14.6c9-9,14.6-21.4,14.6-35.1V973c0-5-2.1-9.7-5.4-13.1S1026.3,954.5,1021.3,954.5z
					 M1027.4,1142.7c0,10.2-4.2,19.5-10.9,26.3c-6.8,6.8-16,10.9-26.3,10.9s-19.5-4.2-26.3-10.9c-6.8-6.8-10.9-16-10.9-26.3V973
					c0-1.7,0.7-3.2,1.8-4.3c1.1-1.1,2.6-1.8,4.3-1.8h62.2c1.7,0,3.2,0.7,4.3,1.8s1.8,2.6,1.8,4.3L1027.4,1142.7L1027.4,1142.7z"/>
				<circle class="st1" cx="990.1" cy="790.2" r="118"/>
				<path class="st2" d="M990.1,666c-34.3,0-65.4,13.9-87.8,36.4C879.9,724.9,866,756,866,790.2c0,34.3,13.9,65.4,36.4,87.8
					c22.5,22.5,53.5,36.4,87.8,36.4c34.3,0,65.4-13.9,87.8-36.4c22.5-22.5,36.4-53.5,36.4-87.8c0-34.3-13.9-65.4-36.4-87.8
					C1055.5,679.9,1024.5,666,990.1,666z M1069.2,869.3C1049,889.5,1021,902,990.1,902s-58.8-12.6-79.1-32.8
					c-20.2-20.2-32.8-48.2-32.8-79.1s12.6-58.8,32.8-79.1c20.2-20.2,48.2-32.8,79.1-32.8s58.8,12.6,79.1,32.8
					c20.2,20.2,32.8,48.2,32.8,79.1C1101.9,821.1,1089.4,849,1069.2,869.3z"/>
				<path class="st2" d="M907.1,822.5c-3.8-10.3-5.8-21.4-5.8-32.6c0-2.6,0.1-5.2,0.3-7.8c0.2-2.7,0.5-5.2,1-7.7
					c0.6-3.3-1.7-6.5-5.1-7.1c-3.3-0.6-6.5,1.7-7.1,5.1c-0.5,3-0.9,5.9-1.1,8.8c-0.2,3-0.4,5.9-0.4,8.8c0,12.7,2.3,25.2,6.6,36.9
					c4.3,11.7,10.7,22.7,18.9,32.4c2.2,2.6,6.1,2.9,8.7,0.7c2.6-2.2,2.9-6.1,0.7-8.7C916.6,842.6,910.9,832.9,907.1,822.5z"/>
				<path class="st2" d="M917.9,725.8c-2.7-2-6.6-1.4-8.6,1.3c-2.9,3.9-5.5,8.1-7.7,12.3c-2.2,4.2-4.2,8.6-5.9,13.2
					c-1.2,3.2,0.4,6.8,3.6,7.9c3.2,1.2,6.8-0.4,7.9-3.6c1.5-3.9,3.3-7.9,5.3-11.7c2.1-3.9,4.3-7.4,6.8-10.8
					C921.3,731.7,920.6,727.8,917.9,725.8z"/>
				<path class="st2" d="M990.1,739.5c-14,0-26.7,5.7-35.9,14.9c-9.2,9.2-14.9,21.9-14.9,35.9c0,14,5.6,26.7,14.9,35.9
					c9.2,9.2,21.9,14.9,35.9,14.9c14,0,26.7-5.7,35.9-14.9c9.2-9.2,14.9-21.9,14.9-35.9c0-14-5.6-26.7-14.9-35.9
					C1016.8,745.1,1004.1,739.5,990.1,739.5z M1017.3,817.4c-6.9,6.9-16.6,11.2-27.1,11.2c-10.6,0-20.2-4.3-27.1-11.2
					c-6.9-6.9-11.2-16.6-11.2-27.1c0-10.6,4.3-20.2,11.2-27.1c6.9-6.9,16.6-11.2,27.1-11.2c10.6,0,20.2,4.3,27.1,11.2
					s11.2,16.6,11.2,27.1C1028.5,800.8,1024.2,810.4,1017.3,817.4z"/>
				<path class="st2" d="M990.1,725.7c-3.4,0-6.2,2.7-6.2,6.2v116.7c0,3.4,2.7,6.2,6.2,6.2s6.2-2.7,6.2-6.2V731.8
					C996.3,728.4,993.6,725.7,990.1,725.7z"/>
				<path class="st2" d="M1048.5,784H931.8c-3.4,0-6.2,2.7-6.2,6.2c0,3.4,2.7,6.2,6.2,6.2h116.7c3.4,0,6.2-2.7,6.2-6.2
					C1054.7,786.8,1051.9,784,1048.5,784z"/>
				<path class="st2" d="M967.9,954.5c-3.4,0-6.2,2.7-6.2,6.2v100.6c0,3.4,2.7,6.2,6.2,6.2s6.2-2.7,6.2-6.2V960.7
					C974.2,957.3,971.4,954.5,967.9,954.5z"/>
				<path class="st1" d="M967.9,1069.7c-3.4,0-6.2,2.7-6.2,6.2v17.9c0,3.4,2.7,6.2,6.2,6.2s6.2-2.7,6.2-6.2v-17.9
					C974.2,1072.5,971.4,1069.7,967.9,1069.7z"/>
			</g>
			<g>
				<g>
					<path class="st2" d="M415.6,571.4h-50c-4.3,0-8.7,3.5-9.7,7.8l-4.2,17.2c-1,4.3,1.6,7.8,5.9,7.8h50c4.3,0,8.7-3.5,9.7-7.8
						l4.2-17.2C422.5,575,419.9,571.4,415.6,571.4z"/>
					<path class="st1" d="M335.7,532.2h-25c-4.3,0-8.7,3.5-9.7,7.8l-4.2,17.2c-1,4.3,1.6,7.8,5.9,7.8h25c4.3,0,8.7-3.5,9.7-7.8
						l4.2-17.2C342.6,535.8,340,532.2,335.7,532.2z"/>
				</g>
				<g>
					<path class="st2" d="M548,152c0,35.1-28.4,63.5-63.5,63.5c35.1,0,63.5,28.4,63.5,63.5c0-35.1,28.4-63.5,63.5-63.5
						C576.4,215.5,548,187.2,548,152z"/>
					<path class="st1" d="M618.2,99.2c0,16.4-13.3,29.7-29.7,29.7c16.4,0,29.7,13.3,29.7,29.7c0-16.4,13.3-29.7,29.7-29.7
						C631.5,129,618.2,115.7,618.2,99.2z"/>
				</g>
				<path class="st1" d="M276.3,369.1h-11.4v-11.4c0-5.9-4.8-10.8-10.8-10.8c-5.9,0-10.8,4.8-10.8,10.8v11.4h-11.4
					c-5.9,0-10.8,4.8-10.8,10.8s4.8,10.8,10.8,10.8h11.4v11.4c0,5.9,4.8,10.8,10.8,10.8c5.9,0,10.8-4.8,10.8-10.8v-11.4h11.4
					c5.9,0,10.8-4.8,10.8-10.8C287,374,282.3,369.1,276.3,369.1z"/>
			</g>
			<g>
				<path class="st2" d="M1197.4,419.8c-3.4,0-6.2,2.7-6.2,6.2v104c0,3.4,2.7,6.2,6.2,6.2s6.2-2.7,6.2-6.2V426
					C1203.6,422.6,1200.8,419.8,1197.4,419.8z"/>
				<path class="st1" d="M1199.1,689.9c-3.9-1.1-7.9,1.8-7.9,5.9v24.7c0,2.7,1.9,5.2,4.5,5.9c3.9,1.1,7.9-1.8,7.9-5.9v-24.7
					C1203.6,693.1,1201.8,690.6,1199.1,689.9z"/>
				<path class="st1" d="M1199.1,751.8c-3.9-1.1-7.9,1.8-7.9,5.9v24.7c0,2.7,1.9,5.2,4.5,5.9c3.9,1.1,7.9-1.8,7.9-5.9v-24.7
					C1203.6,755,1201.8,752.6,1199.1,751.8z"/>
				<path class="st1" d="M1199.1,628c-3.9-1.1-7.9,1.8-7.9,5.9v24.7c0,2.7,1.9,5.2,4.5,5.9c3.9,1.1,7.9-1.8,7.9-5.9V634
					C1203.6,631.2,1201.8,628.8,1199.1,628z"/>
				<path class="st1" d="M1199.1,566.1c-3.9-1.1-7.9,1.8-7.9,5.9v24.7c0,2.7,1.9,5.2,4.5,5.9c3.9,1.1,7.9-1.8,7.9-5.9v-24.7
					C1203.6,569.3,1201.8,566.9,1199.1,566.1z"/>
				<path class="st2" d="M607.3,1072H222.2c-3.4,0-6.2,2.7-6.2,6.2c0,3.4,2.7,6.2,6.2,6.2h385.1c3.4,0,6.2-2.7,6.2-6.2
					C613.6,1074.8,610.7,1072,607.3,1072z"/>
				<path class="st1" d="M203,1072h-21c-3.4,0-6.2,2.7-6.2,6.2c0,3.4,2.7,6.2,6.2,6.2h21c3.4,0,6.2-2.7,6.2-6.2
					C209.3,1074.8,206.4,1072,203,1072z"/>
				<path class="st2" d="M946.7,1117.9h-89.4c-3.4,0-6.2,2.7-6.2,6.2c0,3.4,2.7,6.2,6.2,6.2h89.4c3.4,0,6.2-2.7,6.2-6.2
					C952.9,1120.7,950.1,1117.9,946.7,1117.9z"/>
				<path class="st1" d="M836.9,1117.9h-89.4c-3.4,0-6.2,2.7-6.2,6.2c0,3.4,2.7,6.2,6.2,6.2h89.4c3.4,0,6.2-2.7,6.2-6.2
					C843,1120.7,840.3,1117.9,836.9,1117.9z"/>
				<path class="st1" d="M720.9,1117.9h-31.3c-3.4,0-6.2,2.7-6.2,6.2c0,3.4,2.7,6.2,6.2,6.2h31.3c3.4,0,6.2-2.7,6.2-6.2
					C727.1,1120.7,724.4,1117.9,720.9,1117.9z"/>
			</g>
			<g>
				
					<rect x="1245.3" y="99.4" transform="matrix(0.7071 -0.7071 0.7071 0.7071 289.3192 927.5862)" class="st5" width="38" height="30.2"/>
				<path class="st2" d="M1267.1,81.6l-35.6,35.6l30.2,30.2l35.6-35.6L1271.5,86L1267.1,81.6z M1261.6,129.8l-12.6-12.6l18.1-18.1
					l12.6,12.6L1261.6,129.8z"/>
				<path class="st0" d="M1274.2,74.7c-2.9-2.9-7.6-2.9-10.4,0l-9.7,9.7c-2.9,2.9-2.9,7.6,0,10.4l29.9,29.9c2.9,2.9,7.6,2.9,10.4,0
					l9.7-9.7c2.9-2.9,2.9-7.6,0-10.4L1274.2,74.7z"/>
				<path class="st2" d="M1308.4,100.3l-29.9-29.9l0,0c-2.7-2.7-6.1-3.9-9.6-3.9c-3.4,0-6.9,1.3-9.6,3.9l0,0l-9.7,9.7l0,0
					c-2.7,2.7-3.9,6.1-3.9,9.6c0,3.5,1.3,6.9,3.9,9.6l29.9,29.9l0,0c2.7,2.7,6.1,3.9,9.6,3.9c3.5,0,6.9-1.3,9.6-3.9l9.7-9.7
					c2.7-2.7,3.9-6.1,3.9-9.6C1312.5,106.4,1311.1,103,1308.4,100.3L1308.4,100.3z M1299.8,110.7l-9.7,9.7c-0.2,0.2-0.5,0.3-0.8,0.3
					c-0.3,0-0.6-0.1-0.8-0.3l0,0l-29.9-29.9c-0.2-0.2-0.3-0.5-0.3-0.8c0-0.3,0.1-0.6,0.3-0.8l0,0l9.7-9.7l0,0
					c0.2-0.2,0.5-0.3,0.8-0.3c0.3,0,0.6,0.1,0.8,0.3l0,0l29.9,29.9l0,0c0.2,0.2,0.3,0.5,0.3,0.8
					C1300.1,110.2,1300,110.5,1299.8,110.7z"/>
				<rect x="1128.9" y="43.9" class="st5" width="47.3" height="59.4"/>
				<path class="st2" d="M1122.7,37.8v71.8h59.7V37.8H1129H1122.7z M1135,50.1h34.9v47H1135V50.1z"/>
				<path class="st0" d="M1185.6,18.7h-66.1c-6.3,0-11.5,5.2-11.5,11.5v21.5c0,6.3,5.2,11.5,11.5,11.5h66.1
					c6.3,0,11.5-5.2,11.5-11.5V30.3C1197.1,23.9,1191.9,18.7,1185.6,18.7z"/>
				<path class="st2" d="M1185.6,12.6h-66.1c-4.9,0-9.3,2-12.5,5.2l0,0c-3.2,3.2-5.2,7.6-5.2,12.5v21.5c0,4.8,2,9.3,5.2,12.5l0,0
					c3.2,3.2,7.6,5.2,12.5,5.2h66.1c4.8,0,9.3-2,12.5-5.2l0,0c3.2-3.2,5.2-7.6,5.2-12.5V30.3c0-4.9-2-9.3-5.2-12.5
					C1194.9,14.6,1190.4,12.6,1185.6,12.6z M1190.9,51.8c0,1.5-0.6,2.7-1.6,3.7l0,0c-1,1-2.3,1.6-3.8,1.6h-66.1
					c-1.5,0-2.8-0.6-3.8-1.6c-1-1-1.6-2.3-1.6-3.8V30.2c0-1.5,0.6-2.8,1.6-3.8l0,0c1-1,2.3-1.6,3.7-1.6h66.1c1.5,0,2.7,0.6,3.7,1.6
					s1.6,2.3,1.6,3.7v21.7H1190.9z"/>
				<circle class="st1" cx="1150.6" cy="225.5" r="141.1"/>
				<circle class="st2" cx="1150.6" cy="138.8" r="9.3"/>
				<ellipse class="st2" cx="1089.2" cy="164.2" rx="9.3" ry="9.3"/>
				<circle class="st2" cx="1063.8" cy="225.5" r="9.3"/>
				<ellipse class="st2" cx="1089.2" cy="286.8" rx="9.3" ry="9.3"/>
				<circle class="st2" cx="1150.6" cy="312.2" r="9.3"/>
				<ellipse class="st2" cx="1211.8" cy="286.8" rx="9.3" ry="9.3"/>
				<circle class="st2" cx="1237.2" cy="225.5" r="9.3"/>
				<ellipse class="st2" cx="1211.8" cy="164.2" rx="9.3" ry="9.3"/>
				<path class="st2" d="M1122.9,189.1c-2.5-2.5-6.3-2.5-8.8,0s-2.5,6.3,0,8.8l32,32c2.5,2.5,6.3,2.5,8.8,0c2.5-2.5,2.5-6.3,0-8.8
					L1122.9,189.1z"/>
				<path class="st2" d="M1150.6,78.2c-40.7,0-77.5,16.5-104.1,43.1c-26.7,26.7-43.1,63.5-43.1,104.1c0,40.7,16.5,77.5,43.1,104.1
					c26.7,26.7,63.5,43.1,104.1,43.1c12.9,0,25.7-1.7,38.1-5s24.3-8.2,35.5-14.7c3-1.7,3.9-5.5,2.2-8.5c-1.7-3-5.5-3.9-8.5-2.2
					c-10.2,5.9-21.2,10.4-32.5,13.4c-11.3,3-23.1,4.6-34.9,4.6c-37.3,0-71-15.1-95.4-39.5c-24.4-24.4-39.5-58.1-39.5-95.4
					s15.1-71,39.5-95.4c24.4-24.4,58.1-39.5,95.4-39.5s71,15.1,95.4,39.5c24.4,24.4,39.5,58.1,39.5,95.4c0,3.4,2.7,6.2,6.2,6.2
					s6.2-2.7,6.2-6.2c0-40.7-16.5-77.5-43.1-104.1C1228,94.7,1191.2,78.2,1150.6,78.2z"/>
				<path class="st2" d="M1290.4,244.9c-3.3-0.6-6.5,1.6-7.2,5c-1.9,10.7-5.2,21.2-9.7,31c-4.5,10-10.1,19.3-16.9,27.8
					c-2.1,2.7-1.6,6.5,1,8.7c2.7,2.1,6.5,1.6,8.7-1c7.4-9.4,13.5-19.6,18.4-30.4c4.8-10.8,8.4-22.2,10.5-33.9
					C1296,248.7,1293.8,245.5,1290.4,244.9z"/>
				<path class="st2" d="M1309.2,289c-3.1-1.4-6.8,0.1-8.2,3.2c-13.2,29.8-34.5,54.3-60.7,71.3c-26.1,17-57.2,26.7-89.8,26.7
					c-25.3,0-49.9-5.8-72-16.6c-22.2-10.8-42-26.6-57.6-46.4c-2.1-2.7-5.9-3.2-8.7-1c-2.7,2.1-3.2,5.9-1,8.7
					c16.8,21.4,38,38.4,61.9,50c23.8,11.6,50.3,17.8,77.5,17.8c35,0,68.3-10.3,96.5-28.7c28.1-18.3,51.1-44.6,65.3-76.6
					C1313.7,294,1312.3,290.4,1309.2,289z"/>
				<path class="st1" d="M1321.4,227c-3.4-0.1-6.3,2.5-6.5,5.9c-0.3,6.2-0.9,12.3-1.9,18.4c-1,6.1-2.3,12.1-3.9,18
					c-0.9,3.3,1,6.7,4.3,7.6c3.3,0.9,6.7-1,7.6-4.3c1.8-6.4,3.2-12.8,4.2-19.5c1-6.5,1.7-13.1,2-19.8
					C1327.5,230,1324.9,227.1,1321.4,227z"/>
			</g>
		</g>
	</g>
</g>
</svg>
