<?xml version="1.0" encoding="utf-8"?>
<!-- Generator: Adobe Illustrator 23.0.3, SVG Export Plug-In . SVG Version: 6.00 Build 0)  -->
<svg version="1.1" id="Ñëîé_3" xmlns="http://www.w3.org/2000/svg" xmlns:xlink="http://www.w3.org/1999/xlink" x="0px" y="0px"
	 viewBox="0 0 600 600" style="enable-background:new 0 0 600 600;" xml:space="preserve">
<style type="text/css">
	.st0{fill:#F1F1F1;}
	.st1{fill:#F29325;}
	.st2{fill:#FDC625;}
	.st3{fill:#E85625;}
	.st4{fill:#FFFDFD;}
	.st5{fill:#CBCBCB;}
	.st6{fill:#B6B6B6;}
	.st7{fill:url(#SVGID_1_);}
	.st8{fill:#5F6062;}
	.st9{fill:#EDEDED;}
	.st10{fill:url(#SVGID_2_);}
	.st11{fill:#FFFFFF;}
	.st12{fill:#5B89C7;}
	.st13{fill:none;stroke:#253364;stroke-width:7.0794;stroke-linecap:round;stroke-linejoin:round;stroke-miterlimit:10;}
	.st14{fill:#253364;}
	.st15{fill:#9FDB84;}
	.st16{display:none;}
	.st17{display:inline;}
	.st18{fill:none;stroke:#253364;stroke-width:7.0794;stroke-linecap:round;stroke-linejoin:round;}
	
		.st19{fill:none;stroke:#253364;stroke-width:7.0794;stroke-linecap:round;stroke-linejoin:round;stroke-dasharray:13.4649,20.1971;}
	.st20{fill:#52B6E7;}
	.st21{fill:none;stroke:#253D59;stroke-width:1.7224;stroke-linecap:round;stroke-linejoin:round;stroke-miterlimit:10;}
	.st22{fill:#FFFFFF;stroke:#253D59;stroke-width:1.7224;stroke-linecap:round;stroke-linejoin:round;stroke-miterlimit:10;}
	.st23{fill:#E6E88C;stroke:#253D59;stroke-width:1.7224;stroke-linecap:round;stroke-linejoin:round;stroke-miterlimit:10;}
	.st24{fill:none;stroke:#253D59;stroke-width:1.7224;stroke-miterlimit:10;}
	.st25{fill:none;stroke:#2F3338;stroke-width:2.6095;stroke-linecap:round;stroke-linejoin:round;stroke-miterlimit:10;}
	.st26{fill:#E9C158;}
</style>
<g>
	<path class="st0" d="M490.3,298.9c-1.5,9.5-10.3,16-19.8,14.5s-16-10.3-14.5-19.8c1.5-9.5,10.3-16,19.8-14.5
		C485.2,280.5,491.7,289.4,490.3,298.9z"/>
	<g>
		<path class="st0" d="M67,444l-8.6-2.6l67.7-181.7c2.4-8,13.5-8.7,16.9-1.1l38,84.6l56.1-166.6c2.6-7.8,13.4-8.3,16.8-0.9
			l77.9,171.7l64.8-205.6c2.6-8.2,14.1-8.5,17.1-0.5l54.7,145.9c1.1,2.9,5.2,2.9,6.3,0l35.5-93.7l8.4,3.2l-38.6,102
			c-3,7.8-14,7.8-17,0l-54.4-145.1c-1.1-3-5.4-2.9-6.4,0.2l-68.9,218.8l-84.1-185.5c-1.3-2.8-5.3-2.6-6.3,0.3l-60.7,180.4
			l-43.8-97.5c-1.3-2.9-5.4-2.6-6.3,0.4L67,444z"/>
	</g>
	<g>
		<g>
			<g>
				<g>
					<path class="st1" d="M104.3,440.3c0,0,2,25,14.5,26.6h-18.6v-26.4L104.3,440.3z"/>
				</g>
			</g>
		</g>
		<g>
			<g>
				<g>
					<path class="st1" d="M104.3,440.3c0,0,2,25,14.5,26.6h-18.6v-26.4L104.3,440.3z"/>
				</g>
			</g>
		</g>
		<g>
			<g>
				<g>
					<path class="st1" d="M95.9,440.3c0,0-2,25-14.5,26.6h18.6c1.3-3.6,3-9.7,2.2-17.3c-0.4-3.6-1.3-6.7-2.2-9.1
						C98.7,440.4,97.3,440.4,95.9,440.3z"/>
				</g>
			</g>
		</g>
		<g>
			<g>
				<g>
					<path class="st2" d="M123,466.9H77.2l0,0c0-3.6,3-6.6,6.6-6.6h32.5C120,460.3,123,463.2,123,466.9L123,466.9z"/>
				</g>
			</g>
		</g>
		<g>
			<g>
				<g>
					<path class="st2" d="M134.9,380h-23.2H88.5H65.4c0,0-0.8,61.4,33.8,63l0,0c0.3,0,0.6,0,0.9,0c0.3,0,0.6,0,0.9,0l0,0
						C135.7,441.4,134.9,380,134.9,380z"/>
				</g>
			</g>
		</g>
		<g>
			<g>
				<g>
					<path class="st2" d="M120.2,430.2l-1.5-3.4c0.3-0.1,31.1-14,28.3-29.6c-0.6-3.3-1.8-5.2-3.6-5.9c-4.6-1.6-13,4.6-15.6,6.9
						l-2.5-2.8c1.2-1.1,11.8-10.3,19.3-7.7c3.2,1.1,5.2,4,6.1,8.7C154,415,121.6,429.6,120.2,430.2z"/>
				</g>
			</g>
		</g>
		<g>
			<g>
				<g>
					<path class="st2" d="M80.7,430.2c-1.4-0.6-33.8-15.2-30.5-33.6c0.8-4.7,2.9-7.6,6.1-8.7c7.5-2.6,18.1,6.6,19.3,7.7l-2.5,2.8
						l1.2-1.4l-1.2,1.4c-2.8-2.5-11-8.5-15.6-6.9c-1.8,0.6-3,2.6-3.6,5.9c-2.8,15.6,28,29.5,28.3,29.6L80.7,430.2z"/>
				</g>
			</g>
		</g>
		<g>
			<g>
				<g>
					<path class="st2" d="M134,380.3H66.2c-2.1,0-3.9-1.7-3.9-3.9l0,0c0-2.1,1.7-3.9,3.9-3.9H134c2.1,0,3.9,1.7,3.9,3.9l0,0
						C137.9,378.6,136.2,380.3,134,380.3z"/>
				</g>
			</g>
		</g>
		<g>
			<g>
				<g>
					<path class="st1" d="M100.2,389.4l3.6,7.2l8,1.2c0.1,0,0.1,0.1,0,0.1l-5.8,5.6l1.4,7.9c0,0.1-0.1,0.1-0.1,0.1l-7.1-3.8
						l-7.1,3.8c-0.1,0-0.1,0-0.1-0.1l1.4-7.9l-5.8-5.6c0,0,0-0.1,0-0.1l8-1.2l3.6-7.2C100.1,389.3,100.2,389.3,100.2,389.4z"/>
				</g>
			</g>
		</g>
	</g>
	<g>
		<g>
			<g>
				<g>
					<path class="st3" d="M485.1,331.4c-40.3,0-72.9,32.6-72.9,72.9s32.7,72.9,72.9,72.9c40.3,0,72.9-32.6,72.9-72.9
						S525.3,331.4,485.1,331.4z M485.1,453.4c-27.1,0-49.2-22-49.2-49.2c0-27.1,22.1-49.2,49.2-49.2c15.2,0,28.8,6.9,37.9,17.8
						c5.2,1.7,8.5,7.5,8.3,12.8c0,0.4-0.1,0.9-0.1,1.3c2,5.4,3.1,11.2,3.1,17.2C534.2,431.4,512.2,453.4,485.1,453.4z"/>
				</g>
			</g>
		</g>
		<g>
			<g>
				<path class="st4" d="M485.1,343.7c-33.5,0-60.6,27.1-60.6,60.6c0,33.5,27.1,60.6,60.6,60.6c33.5,0,60.6-27.1,60.6-60.6
					C545.7,370.8,518.5,343.7,485.1,343.7z M485.1,441.1c-20.3,0-36.9-16.5-36.9-36.8s16.5-36.8,36.9-36.8c3.5,0,6.9,0.5,10.1,1.4
					c2.5-1.8,5.6-2.9,8.7-2.9c6.9,0,11.5,7.1,11.3,13.3c0,1.1-0.2,2.1-0.6,3.1c4.5,6.1,7.2,13.7,7.2,21.9
					C521.9,424.6,505.4,441.1,485.1,441.1z"/>
			</g>
		</g>
		<g>
			<g>
				<g>
					<g>
						<path class="st3" d="M485.1,356c-26.7,0-48.3,21.6-48.3,48.3s21.6,48.3,48.3,48.3s48.3-21.6,48.3-48.3S511.7,356,485.1,356z
							 M511.6,399.5c-0.1,2.2-0.8,4.2-2,5.8c-0.6,13-11.4,23.5-24.5,23.5c-13.6,0-24.6-11-24.6-24.6c0-13.5,11-24.6,24.6-24.6
							c6.5,0,12.4,2.5,16.8,6.7C507.9,387.4,511.8,393.8,511.6,399.5z"/>
					</g>
				</g>
			</g>
		</g>
		<g>
			<g>
				<g>
					<path class="st4" d="M485.1,368.9c-19.5,0-35.3,15.8-35.3,35.3s15.8,35.3,35.3,35.3c19.5,0,35.3-15.8,35.3-35.3
						S504.6,368.9,485.1,368.9z M498.1,405.1c-0.3,7-6.9,11.3-13.3,11.3c-4.1,0-7.4-2.5-9.4-5.9c-1.1-1.7-1.8-3.7-1.9-5.9
						c0-0.5-0.1-1,0-1.5c0.3-7,6.9-11.3,13.3-11.3C493.7,391.9,498.3,398.9,498.1,405.1z"/>
				</g>
			</g>
		</g>
		<g>
			<g>
				<g>
					<path class="st3" d="M485.1,382.1c-12.2,0-22.1,9.9-22.1,22.1c0,12.2,9.9,22.1,22.1,22.1c12.2,0,22.1-9.9,22.1-22.1
						C507.2,392,497.3,382.1,485.1,382.1L485.1,382.1z"/>
				</g>
			</g>
		</g>
	</g>
	<rect x="266.6" y="381.8" class="st5" width="73.8" height="73.8"/>
	<polygon class="st6" points="340.4,455.6 266.6,455.6 252.4,469.1 354.7,469.1 	"/>
	<linearGradient id="SVGID_1_" gradientUnits="userSpaceOnUse" x1="170.4446" y1="380.0154" x2="436.6165" y2="380.0154">
		<stop  offset="0" style="stop-color:#DBDBDB"/>
		<stop  offset="1" style="stop-color:#E2E2E2"/>
	</linearGradient>
	<path class="st7" d="M421.2,429.5H185.8c-8.5,0-15.4-6.9-15.4-15.4v-83.5h266.2v83.5C436.6,422.6,429.7,429.5,421.2,429.5z"/>
	<path class="st8" d="M436.6,407H170.4V262.9c0-10.1,8.2-18.4,18.4-18.4h229.4c10.1,0,18.4,8.2,18.4,18.4V407z"/>
	<path class="st9" d="M417.9,398H189.1c-4.1,0-7.4-3.3-7.4-7.4V261c0-4.1,3.3-7.4,7.4-7.4h228.8c4.1,0,7.4,3.3,7.4,7.4v129.5
		C425.4,394.6,422,398,417.9,398z"/>
	<path class="st5" d="M309.4,418.2c0,3.9-3.2,7.1-7.1,7.1s-7.1-3.2-7.1-7.1c0-3.9,3.2-7.1,7.1-7.1S309.4,414.3,309.4,418.2z"/>
	<linearGradient id="SVGID_2_" gradientUnits="userSpaceOnUse" x1="252.3797" y1="472.1186" x2="354.6813" y2="472.1186">
		<stop  offset="0" style="stop-color:#DBDBDB"/>
		<stop  offset="1" style="stop-color:#E2E2E2"/>
	</linearGradient>
	<rect x="252.4" y="469.1" class="st10" width="102.3" height="6"/>
	<g>
		<path class="st11" d="M383.8,327.4H199.9v-47.7h183.9c11,0,19.9,8.9,19.9,19.9v7.9C403.7,318.5,394.8,327.4,383.8,327.4z"/>
		<path class="st12" d="M393.2,327.4h-25.1v-47.7h25.1c12.5,0,22.6,10.1,22.6,22.6v2.5C415.8,317.3,405.7,327.4,393.2,327.4z"/>
		<g>
			<line class="st13" x1="216" y1="360.8" x2="206.3" y2="378.5"/>
			<g>
				<path class="st14" d="M180.5,425.6L180.5,425.6c-5.2-2.8-7.2-9.7-4.3-14.8l15.3-28c2.8-5.2,9.7-7.2,14.8-4.3l0,0
					c5.2,2.8,7.2,9.7,4.3,14.8l-15.3,28C192.5,426.5,185.6,428.5,180.5,425.6z"/>
			</g>
			<g>
				<path class="st15" d="M299.7,336.3c-16.5,30.2-54.1,41.2-83.7,24.5s-41.2-54.1-24.5-83.7s54.1-41.2,83.7-24.5
					S316.2,306.2,299.7,336.3z"/>
			</g>
			<path class="st11" d="M282.8,327.1c-11.3,20.6-36.9,28.1-57.5,16.8c-20.6-11.3-28.1-36.9-16.8-57.5
				c11.3-20.6,36.9-28.1,57.5-16.8S294,306.5,282.8,327.1z"/>
			<g class="st16">
				<g class="st17">
					<path class="st18" d="M265.9,269.5"/>
					<path class="st19" d="M283.8,288.4c3.3,7.1,5.1,15.2,3.7,23.1"/>
					<path class="st18" d="M285.2,320.8c-0.6,2-2,3.7-2.7,5.7"/>
				</g>
			</g>
		</g>
		<g>
			<path class="st5" d="M212,309.1l1.3-0.8c0.9,1.7,2,2.5,3.2,2.5c0.5,0,1-0.1,1.4-0.4c0.5-0.2,0.8-0.6,1-1c0.2-0.4,0.4-0.8,0.4-1.3
				c0-0.5-0.2-1-0.5-1.5c-0.5-0.7-1.4-1.5-2.6-2.5c-1.3-1-2.1-1.7-2.4-2.1c-0.5-0.7-0.8-1.5-0.8-2.3c0-0.7,0.2-1.3,0.5-1.8
				c0.3-0.5,0.8-1,1.3-1.3c0.6-0.3,1.2-0.5,1.9-0.5c0.7,0,1.4,0.2,2,0.5c0.6,0.4,1.3,1,2,2l-1.2,0.9c-0.6-0.8-1.1-1.3-1.5-1.5
				c-0.4-0.2-0.8-0.4-1.3-0.4c-0.6,0-1.1,0.2-1.5,0.6c-0.4,0.4-0.6,0.8-0.6,1.4c0,0.3,0.1,0.7,0.2,1c0.1,0.3,0.4,0.7,0.8,1
				c0.2,0.2,0.9,0.7,2,1.5c1.3,1,2.2,1.8,2.7,2.6c0.5,0.8,0.7,1.5,0.7,2.3c0,1.1-0.4,2.1-1.3,2.9c-0.8,0.8-1.9,1.2-3.1,1.2
				c-0.9,0-1.8-0.2-2.5-0.7C213.3,311.1,212.6,310.3,212,309.1z"/>
			<path class="st5" d="M233.5,308.2l1.2,0.6c-0.4,0.8-0.9,1.4-1.4,1.9c-0.5,0.5-1.1,0.9-1.8,1.1c-0.7,0.3-1.4,0.4-2.2,0.4
				c-1.8,0-3.3-0.6-4.3-1.8c-1-1.2-1.6-2.6-1.6-4.1c0-1.4,0.4-2.7,1.3-3.8c1.1-1.4,2.6-2.1,4.5-2.1c1.9,0,3.5,0.7,4.6,2.2
				c0.8,1,1.2,2.3,1.3,3.9h-10.2c0,1.3,0.4,2.4,1.3,3.2c0.8,0.8,1.8,1.3,3,1.3c0.6,0,1.1-0.1,1.7-0.3c0.5-0.2,1-0.5,1.4-0.8
				C232.6,309.5,233,308.9,233.5,308.2z M233.5,305.2c-0.2-0.8-0.5-1.4-0.8-1.9c-0.4-0.5-0.9-0.8-1.5-1.1c-0.6-0.3-1.3-0.4-1.9-0.4
				c-1.1,0-2.1,0.4-2.9,1.1c-0.6,0.5-1,1.3-1.3,2.3H233.5z"/>
			<path class="st5" d="M249.1,300.6V312h-1.4V310c-0.6,0.7-1.3,1.3-2.1,1.7c-0.8,0.4-1.6,0.6-2.5,0.6c-1.6,0-3-0.6-4.1-1.7
				c-1.1-1.2-1.7-2.6-1.7-4.2c0-1.6,0.6-3,1.7-4.2c1.1-1.2,2.5-1.7,4.1-1.7c0.9,0,1.8,0.2,2.5,0.6c0.8,0.4,1.4,1,2,1.8v-2.1H249.1z
				 M243.3,301.7c-0.8,0-1.6,0.2-2.2,0.6c-0.7,0.4-1.2,1-1.6,1.7c-0.4,0.7-0.6,1.5-0.6,2.3c0,0.8,0.2,1.6,0.6,2.3
				c0.4,0.7,1,1.3,1.6,1.7c0.7,0.4,1.4,0.6,2.2,0.6c0.8,0,1.6-0.2,2.3-0.6c0.7-0.4,1.3-0.9,1.6-1.6c0.4-0.7,0.6-1.5,0.6-2.3
				c0-1.3-0.4-2.4-1.3-3.3C245.6,302.2,244.5,301.7,243.3,301.7z"/>
			<path class="st5" d="M251.8,300.6h1.5v1.7c0.4-0.7,0.9-1.1,1.4-1.5c0.5-0.3,1-0.5,1.5-0.5c0.4,0,0.8,0.1,1.3,0.4l-0.8,1.2
				c-0.3-0.1-0.6-0.2-0.8-0.2c-0.5,0-1,0.2-1.4,0.6c-0.5,0.4-0.8,1-1,1.9c-0.2,0.6-0.3,2-0.3,3.9v3.8h-1.5V300.6z"/>
			<path class="st5" d="M269.8,303l-1.2,0.7c-1-1.3-2.4-2-4.1-2c-1.4,0-2.5,0.4-3.4,1.3c-0.9,0.9-1.4,2-1.4,3.2
				c0,0.8,0.2,1.6,0.6,2.3c0.4,0.7,1,1.3,1.7,1.7c0.7,0.4,1.6,0.6,2.5,0.6c1.7,0,3-0.7,4.1-2l1.2,0.8c-0.5,0.8-1.3,1.4-2.2,1.9
				c-0.9,0.4-2,0.7-3.1,0.7c-1.8,0-3.3-0.6-4.5-1.7c-1.2-1.1-1.8-2.5-1.8-4.2c0-1.1,0.3-2.1,0.8-3.1c0.6-0.9,1.3-1.7,2.3-2.2
				c1-0.5,2-0.8,3.2-0.8c0.7,0,1.5,0.1,2.2,0.3c0.7,0.2,1.3,0.5,1.8,0.9C269,301.9,269.4,302.4,269.8,303z"/>
			<path class="st5" d="M272.6,296.3h1.5v6.4c0.6-0.8,1.2-1.4,1.9-1.7c0.7-0.4,1.5-0.6,2.3-0.6c0.8,0,1.6,0.2,2.3,0.6
				c0.7,0.4,1.1,1,1.5,1.7c0.3,0.7,0.5,1.9,0.5,3.4v5.8H281v-5.4c0-1.3-0.1-2.2-0.2-2.6c-0.2-0.7-0.5-1.3-1-1.7
				c-0.5-0.4-1.1-0.6-1.9-0.6c-0.9,0-1.7,0.3-2.4,0.9c-0.7,0.6-1.2,1.3-1.4,2.2c-0.1,0.6-0.2,1.6-0.2,3.1v4.2h-1.5V296.3z"/>
		</g>
		<g>
			<path class="st5" d="M284.8,295 M285.7,314.5h-0.9"/>
		</g>
	</g>
	<g>
		<path class="st5" d="M236.2,160.6c24.8,0,45,14.7,45,32.8c0,7.3-3.3,14.1-8.9,19.6l7.9,13.2l-15.5-7.4c-7.8,4.6-17.7,7.4-28.5,7.4
			c-24.8,0-45-14.7-45-32.8C191.2,175.3,211.3,160.6,236.2,160.6z"/>
		<path class="st20" d="M224.7,151.7c-24.8,0-45,14.7-45,32.8c0,7.3,3.3,14.1,8.9,19.6l-7.9,13.2l15.5-7.4
			c7.8,4.6,17.7,7.4,28.5,7.4c24.8,0,45-14.7,45-32.8C269.7,166.4,249.5,151.7,224.7,151.7z"/>
		<g>
			<circle class="st11" cx="203.3" cy="184.5" r="6.4"/>
			<circle class="st11" cx="224.7" cy="184.5" r="6.4"/>
			<path class="st11" d="M252.4,184.5c0,3.5-2.9,6.4-6.4,6.4c-3.5,0-6.4-2.9-6.4-6.4c0-3.5,2.9-6.4,6.4-6.4
				C249.6,178.1,252.4,180.9,252.4,184.5z"/>
		</g>
	</g>
	
		<ellipse transform="matrix(0.7071 -0.7071 0.7071 0.7071 -144.7994 172.2505)" class="st0" cx="135.5" cy="260.9" rx="17.4" ry="17.4"/>
	
		<ellipse transform="matrix(0.9255 -0.3787 0.3787 0.9255 -163.5279 55.1845)" class="st0" cx="58.5" cy="443.4" rx="17.4" ry="17.4"/>
	
		<ellipse transform="matrix(0.1593 -0.9872 0.9872 0.1593 197.8796 518.996)" class="st0" cx="403.7" cy="143.3" rx="17.4" ry="17.4"/>
</g>
<rect x="55.3" y="475.1" class="st5" width="489.3" height="10"/>
<g id="Assesment">
	<path class="st21" d="M95.1,207.8c0,4.1-3.3,7.7-7.7,7.7c-4.4,0-7.7-3.3-7.7-7.7s3.3-7.7,7.7-7.7C91.8,200.1,95.1,203.4,95.1,207.8
		z"/>
	<rect x="52.9" y="213.9" class="st22" width="68.7" height="99.9"/>
	<polygon class="st23" points="116.1,288.6 93.5,305.8 58.7,305.8 58.7,220.2 116.1,220.2 	"/>
	<polygon class="st22" points="116.1,288.6 93.5,305.8 104.8,284 	"/>
	<rect x="74.7" y="209.5" class="st22" width="25.7" height="12.4"/>
	<path class="st22" d="M84.1,215.3c0,1.7-1.4,2.8-2.8,2.8c-1.7,0-2.8-1.4-2.8-2.8c0-1.7,1.4-2.8,2.8-2.8
		C83,212.5,84.1,213.6,84.1,215.3z"/>
	<path class="st22" d="M96.2,215.3c0,1.7-1.4,2.8-2.8,2.8c-1.7,0-2.8-1.4-2.8-2.8c0-1.7,1.4-2.8,2.8-2.8
		C94.9,212.5,96.2,213.6,96.2,215.3z"/>
	<g>
		<line class="st24" x1="67.8" y1="237.3" x2="108.4" y2="237.3"/>
		<line class="st24" x1="67.8" y1="245.1" x2="91" y2="245.1"/>
		<line class="st24" x1="95.1" y1="245.1" x2="108.4" y2="245.1"/>
		<line class="st24" x1="67.8" y1="252.2" x2="91" y2="252.2"/>
		<line class="st24" x1="95.1" y1="252.2" x2="108.4" y2="252.2"/>
		<line class="st24" x1="67.8" y1="259.4" x2="91" y2="259.4"/>
		<line class="st24" x1="95.1" y1="259.4" x2="108.4" y2="259.4"/>
		<line class="st24" x1="67.8" y1="266.3" x2="91" y2="266.3"/>
		<line class="st24" x1="95.1" y1="266.3" x2="108.4" y2="266.3"/>
		<line class="st24" x1="67.8" y1="273.5" x2="91" y2="273.5"/>
		<line class="st24" x1="95.1" y1="273.5" x2="108.4" y2="273.5"/>
		<line class="st24" x1="67.8" y1="280.4" x2="91" y2="280.4"/>
		<line class="st24" x1="95.1" y1="280.4" x2="108.4" y2="280.4"/>
	</g>
</g>
<path class="st25" d="M528.2,194.7h-23.8v-32c0-4.1,3.4-7.5,7.5-7.5h8.8c4.1,0,7.5,3.4,7.5,7.5V194.7z"/>
<path class="st25" d="M487.9,246.1h6c5.8,0,10.5-4.9,10.5-10.9v-40.4v-27.1c0-6.9,5.3-12.4,11.9-12.4h-56.7
	c-6.7,0-12.1,5.6-12.1,12.5v60.5"/>
<path class="st25" d="M487.9,228.3h-39.7l0,0c-4,5.2-4,12.6,0,17.7l0,0h39.7l0,0C483.8,240.9,483.8,233.5,487.9,228.3L487.9,228.3z"
	/>
<rect x="455" y="181.4" class="st26" width="24.8" height="5.2"/>
<rect x="483.4" y="181.4" class="st26" width="14.6" height="5.2"/>
<rect x="455" y="195.1" class="st26" width="8.7" height="5.2"/>
<rect x="467.4" y="195.1" class="st26" width="8.7" height="5.2"/>
<rect x="479.9" y="195.1" class="st26" width="18.1" height="5.2"/>
<rect x="455" y="208.8" class="st26" width="14.1" height="5.2"/>
<rect x="472.3" y="208.8" class="st26" width="10.5" height="5.2"/>
<rect x="485.7" y="208.8" class="st26" width="12.3" height="5.2"/>
</svg>
