<svg xmlns="http://www.w3.org/2000/svg" width="80" height="80" viewBox="0 0 80 80"><path fill="none" stroke="#666" stroke-width="2" stroke-miterlimit="10" d="M58.14 58.335c0 .646-.523 1.17-1.172 1.17H23.42c-.645 0-1.17-.523-1.17-1.17V46.632c0-.646.524-1.17 1.17-1.17H56.97c.648 0 1.172.523 1.172 1.17v11.703z"/><g fill="#666"><path d="M34.395 51.13c0 .658-.206 1.163-.618 1.512-.412.35-.998.524-1.758.524h-.56v2.18h-1.298v-6.128h1.957c.742 0 1.307.16 1.693.48.388.32.582.796.582 1.43zm-2.934.972h.43c.398 0 .697-.08.895-.237.198-.157.298-.388.298-.69 0-.303-.084-.528-.25-.674-.166-.144-.427-.217-.78-.217h-.592v1.82zM41.112 52.273c0 1.014-.25 1.793-.754 2.338s-1.224.818-2.163.818c-.938 0-1.66-.272-2.162-.817s-.754-1.326-.754-2.346.25-1.798.755-2.337c.505-.537 1.228-.807 2.17-.807s1.66.27 2.16.813.747 1.323.747 2.34zm-4.47 0c0 .684.13 1.2.39 1.546s.647.52 1.164.52c1.037 0 1.555-.69 1.555-2.066 0-1.38-.514-2.07-1.545-2.07-.517 0-.906.174-1.17.52s-.394.864-.394 1.55zM46 53.644c0 .553-.2.99-.6 1.308-.396.318-.95.478-1.66.478-.653 0-1.232-.123-1.735-.37v-1.205c.414.184.764.313 1.05.39.287.075.55.112.786.112.286 0 .505-.055.657-.163.15-.108.228-.27.228-.486 0-.12-.033-.228-.1-.32-.067-.094-.166-.184-.296-.27-.13-.087-.396-.226-.795-.416-.375-.176-.655-.345-.843-.507s-.337-.35-.448-.566c-.11-.216-.168-.467-.168-.755 0-.54.184-.968.552-1.277.367-.31.875-.466 1.522-.466.32 0 .623.038.912.113s.592.182.907.318l-.42 1.01c-.327-.134-.598-.228-.812-.28-.213-.053-.424-.08-.63-.08-.246 0-.435.058-.566.172-.13.115-.196.264-.196.45 0 .112.026.213.08.298.052.086.137.168.253.248.114.08.39.224.822.43.572.274.965.548 1.178.823.213.273.32.61.32 1.01zM49.474 55.345h-1.3V50.3h-1.663v-1.082h4.627v1.08h-1.663v5.047z"/></g><path fill="none" stroke="#666" stroke-width="2" stroke-linecap="round" stroke-linejoin="round" stroke-miterlimit="10" d="M69.063 21.892v48.146c0 3.017-2.447 5.462-5.463 5.462H16.4c-3.02 0-5.464-2.445-5.464-5.462V9.962c0-3.017 2.445-5.462 5.463-5.462h35.32"/><path fill="none" stroke="#666" stroke-width="2" stroke-linecap="round" stroke-miterlimit="10" d="M51.728 4.524L69.044 21.84"/><g fill="none" stroke="#666" stroke-width="2" stroke-linecap="round" stroke-linejoin="round" stroke-miterlimit="10"><path d="M27.614 29.37h30.428M22.347 29.37h1.172M27.614 36.488h30.428M22.347 36.488h1.172"/></g><path fill="none" stroke="#666" stroke-width="2" stroke-linecap="round" stroke-linejoin="round" stroke-miterlimit="10" d="M51.704 4.89v11.703c0 3.017 2.445 5.462 5.46 5.462h11.41"/></svg>