<?xml version="1.0" encoding="utf-8"?>
<!-- Generator: Adobe Illustrator 23.0.3, SVG Export Plug-In . SVG Version: 6.00 Build 0)  -->
<svg version="1.1" id="Layer_1" xmlns="http://www.w3.org/2000/svg" xmlns:xlink="http://www.w3.org/1999/xlink" x="0px" y="0px"
	 viewBox="0 0 30 30" style="enable-background:new 0 0 30 30;" xml:space="preserve">
<style type="text/css">
	.st0{fill:none;stroke:#020202;stroke-width:0.75;stroke-miterlimit:10;}
	.st1{fill:#FFAB30;stroke:#1C1C1C;stroke-width:0.75;stroke-miterlimit:10;}
	.st2{fill:none;stroke:#1C1C1C;stroke-width:0.75;stroke-miterlimit:10;}
	.st3{fill:none;stroke:#FFAB30;stroke-width:1.5;stroke-linecap:round;stroke-miterlimit:10;}
	.st4{fill:#1C1C1C;}
</style>
<g>
	<path class="st0" d="M23,10H8v11h3v3.5c0,0.8,0.7,1.5,1.5,1.5s1.5-0.7,1.5-1.5V21h3v3.5c0,0.8,0.7,1.5,1.5,1.5s1.5-0.7,1.5-1.5V21
		h3V10z"/>
	<path class="st1" d="M5.6,20H5.4C4.6,20,4,19.4,4,18.6v-5.2C4,12.6,4.6,12,5.4,12h0.2C6.4,12,7,12.6,7,13.4v5.2
		C7,19.4,6.4,20,5.6,20z"/>
	<path class="st1" d="M25.6,19h-0.2c-0.8,0-1.4-0.6-1.4-1.4v-5.2c0-0.8,0.6-1.4,1.4-1.4h0.2c0.8,0,1.4,0.6,1.4,1.4v5.2
		C27,18.4,26.4,19,25.6,19z"/>
	<path class="st2" d="M23,8c0.6-1.6-3.1-6-7.5-6C11,2,7.4,6.6,8,8C8.4,8.9,22.6,8.9,23,8z"/>
	<line class="st3" x1="11" y1="1" x2="13" y2="4"/>
	<line class="st3" x1="20.2" y1="1" x2="18.2" y2="4.1"/>
	<circle class="st4" cx="13.5" cy="5.5" r="0.5"/>
	<circle class="st4" cx="17.5" cy="5.5" r="0.5"/>
</g>
</svg>
