<?xml version="1.0" encoding="utf-8"?>
<!-- Generator: Adobe Illustrator 19.2.1, SVG Export Plug-In . SVG Version: 6.00 Build 0)  -->
<svg version="1.1" id="Layer_1" xmlns="http://www.w3.org/2000/svg" xmlns:xlink="http://www.w3.org/1999/xlink" x="0px" y="0px"
	 viewBox="0 0 70 70" style="enable-background:new 0 0 70 70;" xml:space="preserve">
<style type="text/css">
	.st0{display:none;}
	.st1{display:inline;}
	.st2{fill:#013D46;}
	.st3{fill:#FFAB31;}
	.st4{fill:none;stroke:#000000;stroke-width:2;stroke-linecap:round;stroke-linejoin:round;stroke-miterlimit:10;}
	.st5{fill:#42A555;}
	.st6{fill:#FF705B;}
	.st7{fill:none;stroke:#013D46;stroke-width:2;stroke-linecap:round;stroke-linejoin:round;stroke-miterlimit:10;}
</style>
<g class="st0">
	<g class="st1">
		<path class="st2" d="M45.6,60.6c-0.3,0-0.6-0.3-0.6-0.6c0-4.1,0-7.1,0-9.2c0-0.4-0.1-0.9-0.1-1.7c-0.3-7.3-3.6-11.4-9.2-11.4
			c-0.1,0-0.2,0-0.3,0c-5.8,0.1-9.5,4.7-9.5,11.7V60c0,0.3-0.3,0.6-0.6,0.6s-0.6-0.3-0.6-0.6V46.4c0-0.2,0.1-0.4,0.3-0.5
			c1.1-5.6,5-9.3,10.4-9.4c0.1,0,0.2,0,0.3,0c5.3,0,8.9,3.4,10.1,9.3c0.5,0.1,0.5,0.6,0.5,0.9c0.1,2.6,0.1,3.8,0,4.4c0,2,0,4.9,0,9
			C46.2,60.3,45.9,60.6,45.6,60.6C45.6,60.6,45.6,60.6,45.6,60.6z"/>
	</g>
	<g class="st1">
		<path class="st2" d="M52.5,70c-0.7,0-2.5,0-6.9,0c-0.3,0-0.6-0.3-0.6-0.6V33.5H25.8v35.9c0,0.3-0.3,0.6-0.6,0.6H11.7
			c-0.3,0-0.6-0.3-0.6-0.6L11,27.2H9.5c-0.3,0-0.6-0.3-0.6-0.6v-3.2c0-0.3,0.3-0.6,0.6-0.6h2.7v-6.4c0-0.3,0.3-0.6,0.6-0.6h0.7V12
			c0-0.3,0.3-0.6,0.6-0.6h3.1V6c0-0.3,0.3-0.6,0.6-0.6h5.4c0.9-1,4.5-4.7,11.2-5.3C34.5,0,34.6,0,34.7,0h1.4c0.1,0,0.2,0,0.3,0.1
			c6.7,0.6,10.3,4.3,11.2,5.3H53c0.3,0,0.6,0.3,0.6,0.6v5.4h3.1c0.3,0,0.6,0.3,0.6,0.6v3.7H58c0.3,0,0.6,0.3,0.6,0.6v6.4h2.7
			c0.3,0,0.6,0.3,0.6,0.6v3.2c0,0.3-0.3,0.6-0.6,0.6h-1.5l-0.1,42.2c0,0.3-0.3,0.6-0.6,0.6c-5.3,0-5.7,0-5.9,0
			C53.1,70,53,70,52.5,70z M46.2,68.8c6.6,0,6.7,0,6.9,0c0.2,0,0.6,0,5.4,0l0.1-42.2c0-0.3,0.3-0.6,0.6-0.6h1.5v-2H58
			c-0.3,0-0.6-0.3-0.6-0.6v-6.4h-0.7c-0.3,0-0.6-0.3-0.6-0.6v-3.7H53c-0.3,0-0.6-0.3-0.6-0.6V6.6h-5c-0.2,0-0.4-0.1-0.5-0.2
			c0,0-3.8-4.8-11.4-5.1C27.8,1.5,24,6.3,24,6.4c-0.1,0.2-0.3,0.2-0.5,0.2h-5V12c0,0.3-0.3,0.6-0.6,0.6h-3.1v3.7
			c0,0.3-0.3,0.6-0.6,0.6h-0.7v6.4c0,0.3-0.3,0.6-0.6,0.6h-2.7v2h1.5c0.3,0,0.6,0.3,0.6,0.6l0.1,42.2h12.3V32.9
			c0-0.3,0.3-0.6,0.6-0.6h20.4c0.3,0,0.6,0.3,0.6,0.6V68.8z"/>
	</g>
	<g class="st1">
		<path class="st2" d="M59.6,27.2H11.2c-0.3,0-0.6-0.3-0.6-0.6s0.3-0.6,0.6-0.6h48.4c0.3,0,0.6,0.3,0.6,0.6S59.9,27.2,59.6,27.2z"/>
	</g>
	<g class="st1">
		<path class="st2" d="M52.9,16.9H17.9c-0.3,0-0.6-0.3-0.6-0.6c0-0.3,0.3-0.6,0.6-0.6h35.1c0.3,0,0.6,0.3,0.6,0.6
			C53.6,16.6,53.3,16.9,52.9,16.9z"/>
	</g>
	<g class="st1">
		<g>
			<path class="st2" d="M24.9,43.3H11.8c-0.3,0-0.6-0.3-0.6-0.6s0.3-0.6,0.6-0.6h13.1c0.3,0,0.6,0.3,0.6,0.6S25.2,43.3,24.9,43.3z"
				/>
		</g>
		<g>
			<path class="st2" d="M24.9,50.6H11.8c-0.3,0-0.6-0.3-0.6-0.6s0.3-0.6,0.6-0.6h13.1c0.3,0,0.6,0.3,0.6,0.6S25.2,50.6,24.9,50.6z"
				/>
		</g>
		<g>
			<path class="st2" d="M59,43.3H45.9c-0.3,0-0.6-0.3-0.6-0.6s0.3-0.6,0.6-0.6H59c0.3,0,0.6,0.3,0.6,0.6S59.3,43.3,59,43.3z"/>
		</g>
		<g>
			<path class="st2" d="M59,50.6H45.9c-0.3,0-0.6-0.3-0.6-0.6s0.3-0.6,0.6-0.6H59c0.3,0,0.6,0.3,0.6,0.6S59.3,50.6,59,50.6z"/>
		</g>
	</g>
	<g class="st1">
		<g>
			<circle class="st3" cx="18.5" cy="35.2" r="2.3"/>
			<path class="st2" d="M18.5,38.1c-1.6,0-2.9-1.3-2.9-2.9s1.3-2.9,2.9-2.9s2.9,1.3,2.9,2.9S20.1,38.1,18.5,38.1z M18.5,33.5
				c-0.9,0-1.7,0.8-1.7,1.7s0.8,1.7,1.7,1.7s1.7-0.8,1.7-1.7S19.5,33.5,18.5,33.5z"/>
		</g>
		<g>
			<circle class="st3" cx="52.3" cy="35.2" r="2.3"/>
			<path class="st2" d="M52.3,38.1c-1.6,0-2.9-1.3-2.9-2.9s1.3-2.9,2.9-2.9s2.9,1.3,2.9,2.9S53.9,38.1,52.3,38.1z M52.3,33.5
				c-0.9,0-1.7,0.8-1.7,1.7s0.8,1.7,1.7,1.7s1.7-0.8,1.7-1.7S53.2,33.5,52.3,33.5z"/>
		</g>
	</g>
	<g class="st1">
		<rect x="27" y="8.4" class="st3" width="16.9" height="4.6"/>
		<path class="st2" d="M43.9,13.6H27c-0.3,0-0.6-0.3-0.6-0.6V8.4c0-0.3,0.3-0.6,0.6-0.6h16.9c0.3,0,0.6,0.3,0.6,0.6V13
			C44.5,13.3,44.2,13.6,43.9,13.6z M27.6,12.4h15.7V9H27.6V12.4z"/>
	</g>
</g>
<g class="st0">
	<g class="st1">
		<path class="st2" d="M68.8,49.4H1.2c-0.3,0-0.5-0.2-0.5-0.5s0.2-0.5,0.5-0.5h67.6c0.3,0,0.5,0.2,0.5,0.5S69.1,49.4,68.8,49.4z"/>
	</g>
	<g class="st1">
		<path class="st2" d="M68.8,51.7H1.2c-0.3,0-0.5-0.2-0.5-0.5c0-0.3,0.2-0.5,0.5-0.5h67.6c0.3,0,0.5,0.2,0.5,0.5
			C69.3,51.5,69.1,51.7,68.8,51.7z"/>
	</g>
	<g class="st1">
		<g>
			<path class="st2" d="M2,38.7c-0.2,0-0.4-0.1-0.5-0.3c-0.1-0.3,0-0.6,0.2-0.7l10.4-5.6c0.3-0.1,0.6,0,0.7,0.2
				c0.1,0.3,0,0.6-0.2,0.7L2.3,38.6C2.2,38.6,2.1,38.7,2,38.7z"/>
		</g>
		<g>
			<path class="st2" d="M3,44c-0.1,0-0.3,0-0.4-0.1c-0.2-0.2-0.2-0.5,0-0.7L11.9,33c0.2-0.2,0.5-0.2,0.7,0c0.2,0.2,0.2,0.5,0,0.7
				L3.4,43.9C3.3,44,3.1,44,3,44z"/>
		</g>
		<g>
			<path class="st2" d="M12.5,48.8c-0.1,0-0.2,0-0.2-0.1l-9.6-5.2c-0.3-0.1-0.4-0.5-0.2-0.7c0.1-0.3,0.5-0.4,0.7-0.2l9.6,5.2
				c0.3,0.1,0.4,0.5,0.2,0.7C12.9,48.7,12.7,48.8,12.5,48.8z"/>
		</g>
		<g>
			<path class="st2" d="M12.4,41.6c-0.1,0-0.3-0.1-0.4-0.2l-3.4-3.3c-0.2-0.2-0.2-0.5,0-0.7c0.2-0.2,0.5-0.2,0.7,0l3.4,3.3
				c0.2,0.2,0.2,0.5,0,0.7C12.7,41.5,12.5,41.6,12.4,41.6z"/>
		</g>
		<g>
			<path class="st2" d="M8.2,46.1c-0.1,0-0.2,0-0.3-0.1c-0.2-0.2-0.2-0.5-0.1-0.7l3.9-4.5c0.2-0.2,0.5-0.2,0.7-0.1
				c0.2,0.2,0.2,0.5,0.1,0.7l-3.9,4.5C8.5,46.1,8.4,46.1,8.2,46.1z"/>
		</g>
		<g>
			<path class="st2" d="M2.9,49.1c-0.3,0-0.5-0.2-0.5-0.5V37.7c0-0.3,0.2-0.5,0.5-0.5s0.5,0.2,0.5,0.5v10.9
				C3.4,48.9,3.2,49.1,2.9,49.1z"/>
		</g>
		<g>
			<path class="st2" d="M12.5,49.1c-0.3,0-0.5-0.2-0.5-0.5V32.9c0-0.3,0.2-0.5,0.5-0.5s0.5,0.2,0.5,0.5v15.7
				C13,48.9,12.8,49.1,12.5,49.1z"/>
		</g>
		<g>
			<path class="st2" d="M34.8,42.8c-0.1,0-0.1,0-0.2,0l-22.1-9.7c-0.3-0.1-0.4-0.4-0.3-0.7c0.1-0.3,0.4-0.4,0.7-0.3L35,41.8
				c0.3,0.1,0.4,0.4,0.3,0.7C35.2,42.7,35,42.8,34.8,42.8z"/>
		</g>
		<g>
			<path class="st2" d="M24,44c-0.1,0-0.3,0-0.4-0.1L12.4,33.8c-0.2-0.2-0.2-0.5,0-0.7c0.2-0.2,0.5-0.2,0.7,0l11.3,10.1
				c0.2,0.2,0.2,0.5,0,0.7C24.3,44,24.2,44,24,44z"/>
		</g>
		<g>
			<path class="st2" d="M34.6,46.2c-0.1,0-0.2,0-0.3-0.1l-12.5-8.9c-0.2-0.2-0.3-0.5-0.1-0.7c0.2-0.2,0.5-0.3,0.7-0.1l12.5,8.9
				c0.2,0.2,0.3,0.5,0.1,0.7C34.9,46.1,34.7,46.2,34.6,46.2z"/>
		</g>
		<g>
			<path class="st2" d="M24.4,48.5c-0.2,0-0.5-0.2-0.5-0.4c-0.1-0.3,0.1-0.6,0.4-0.6l9.9-2.1c0.3-0.1,0.6,0.1,0.6,0.4
				c0.1,0.3-0.1,0.6-0.4,0.6l-9.9,2.1C24.5,48.5,24.5,48.5,24.4,48.5z"/>
		</g>
		<g>
			<path class="st2" d="M24.4,47.8c-0.1,0-0.3-0.1-0.4-0.2c-0.2-0.2-0.2-0.6,0-0.7l5.4-4.8c0.2-0.2,0.6-0.2,0.7,0
				c0.2,0.2,0.2,0.6,0,0.7l-5.4,4.8C24.7,47.8,24.5,47.8,24.4,47.8z"/>
		</g>
		<g>
			<path class="st2" d="M12.5,48.8c-0.2,0-0.4-0.1-0.5-0.3c-0.1-0.3,0-0.6,0.3-0.7l11.6-5.2c0.3-0.1,0.6,0,0.7,0.3
				c0.1,0.3,0,0.6-0.3,0.7l-11.6,5.2C12.7,48.8,12.6,48.8,12.5,48.8z"/>
		</g>
		<g>
			<path class="st2" d="M12.7,41.6c-0.2,0-0.3-0.1-0.4-0.2c-0.2-0.2-0.2-0.6,0.1-0.7l4.1-3.3c0.2-0.2,0.6-0.2,0.7,0.1
				c0.2,0.2,0.2,0.6-0.1,0.7L13,41.4C12.9,41.5,12.8,41.6,12.7,41.6z"/>
		</g>
		<g>
			<path class="st2" d="M17.7,46.1c-0.1,0-0.3,0-0.4-0.1l-4.7-4.5c-0.2-0.2-0.2-0.5,0-0.7c0.2-0.2,0.5-0.2,0.7,0l4.7,4.5
				c0.2,0.2,0.2,0.5,0,0.7C18,46.1,17.8,46.1,17.7,46.1z"/>
		</g>
		<g>
			<path class="st2" d="M24.2,49.1c-0.3,0-0.5-0.2-0.5-0.5V37.7c0-0.3,0.2-0.5,0.5-0.5s0.5,0.2,0.5,0.5v10.9
				C24.7,48.9,24.4,49.1,24.2,49.1z"/>
		</g>
		<g>
			<path class="st2" d="M34.8,49.1c-0.3,0-0.5-0.2-0.5-0.5v-6.1c0-0.3,0.2-0.5,0.5-0.5s0.5,0.2,0.5,0.5v6.1
				C35.3,48.9,35.1,49.1,34.8,49.1z"/>
		</g>
		<g>
			<path class="st2" d="M12.5,49.1c-0.3,0-0.5-0.2-0.5-0.5V32.9c0-0.3,0.2-0.5,0.5-0.5s0.5,0.2,0.5,0.5v15.7
				C13,48.9,12.8,49.1,12.5,49.1z"/>
		</g>
	</g>
	<g class="st1">
		<g>
			<path class="st2" d="M67.7,38.7c-0.1,0-0.2,0-0.2-0.1L57.1,33c-0.3-0.1-0.4-0.5-0.2-0.7c0.1-0.3,0.5-0.4,0.7-0.2l10.4,5.6
				c0.3,0.1,0.4,0.5,0.2,0.7C68,38.6,67.9,38.7,67.7,38.7z"/>
		</g>
		<g>
			<path class="st2" d="M66.7,44c-0.1,0-0.3-0.1-0.4-0.2L57,33.7c-0.2-0.2-0.2-0.5,0-0.7c0.2-0.2,0.5-0.2,0.7,0l9.3,10.1
				c0.2,0.2,0.2,0.5,0,0.7C67,44,66.8,44,66.7,44z"/>
		</g>
		<g>
			<path class="st2" d="M57.2,48.8c-0.2,0-0.4-0.1-0.5-0.3c-0.1-0.3,0-0.6,0.2-0.7l9.6-5.2c0.3-0.1,0.6,0,0.7,0.2
				c0.1,0.3,0,0.6-0.2,0.7l-9.6,5.2C57.3,48.8,57.3,48.8,57.2,48.8z"/>
		</g>
		<g>
			<path class="st2" d="M57.3,41.6c-0.1,0-0.3-0.1-0.4-0.2c-0.2-0.2-0.2-0.5,0-0.7l3.4-3.3c0.2-0.2,0.5-0.2,0.7,0
				c0.2,0.2,0.2,0.5,0,0.7l-3.4,3.3C57.6,41.5,57.4,41.6,57.3,41.6z"/>
		</g>
		<g>
			<path class="st2" d="M61.5,46.1c-0.1,0-0.3-0.1-0.4-0.2l-3.9-4.5c-0.2-0.2-0.2-0.6,0.1-0.7c0.2-0.2,0.6-0.2,0.7,0.1l3.9,4.5
				c0.2,0.2,0.2,0.6-0.1,0.7C61.7,46.1,61.6,46.1,61.5,46.1z"/>
		</g>
		<g>
			<path class="st2" d="M66.8,49.1c-0.3,0-0.5-0.2-0.5-0.5V37.7c0-0.3,0.2-0.5,0.5-0.5s0.5,0.2,0.5,0.5v10.9
				C67.3,48.9,67.1,49.1,66.8,49.1z"/>
		</g>
		<g>
			<path class="st2" d="M57.2,49.1c-0.3,0-0.5-0.2-0.5-0.5V32.9c0-0.3,0.2-0.5,0.5-0.5c0.3,0,0.5,0.2,0.5,0.5v15.7
				C57.7,48.9,57.5,49.1,57.2,49.1z"/>
		</g>
		<g>
			<path class="st2" d="M34.9,42.8c-0.2,0-0.4-0.1-0.5-0.3c-0.1-0.3,0-0.6,0.3-0.7l22.1-9.7c0.3-0.1,0.6,0,0.7,0.3
				c0.1,0.3,0,0.6-0.3,0.7l-22.1,9.7C35.1,42.8,35,42.8,34.9,42.8z"/>
		</g>
		<g>
			<path class="st2" d="M45.6,44c-0.1,0-0.3-0.1-0.4-0.2c-0.2-0.2-0.2-0.6,0-0.7L56.6,33c0.2-0.2,0.5-0.2,0.7,0
				c0.2,0.2,0.2,0.6,0,0.7L46,43.9C45.9,44,45.8,44,45.6,44z"/>
		</g>
		<g>
			<path class="st2" d="M35.1,46.2c-0.2,0-0.3-0.1-0.4-0.2c-0.2-0.2-0.1-0.6,0.1-0.7l12.5-8.9c0.2-0.2,0.6-0.1,0.7,0.1
				c0.2,0.2,0.1,0.6-0.1,0.7l-12.5,8.9C35.3,46.2,35.2,46.2,35.1,46.2z"/>
		</g>
		<g>
			<path class="st2" d="M45.3,48.5c0,0-0.1,0-0.1,0l-9.9-2.1c-0.3-0.1-0.5-0.3-0.4-0.6c0.1-0.3,0.3-0.5,0.6-0.4l9.9,2.1
				c0.3,0.1,0.5,0.3,0.4,0.6C45.7,48.3,45.5,48.5,45.3,48.5z"/>
		</g>
		<g>
			<path class="st2" d="M45.3,47.8c-0.1,0-0.2,0-0.3-0.1l-5.4-4.8c-0.2-0.2-0.2-0.5,0-0.7c0.2-0.2,0.5-0.2,0.7,0l5.4,4.8
				c0.2,0.2,0.2,0.5,0,0.7C45.6,47.8,45.4,47.8,45.3,47.8z"/>
		</g>
		<g>
			<path class="st2" d="M57.2,48.8c-0.1,0-0.1,0-0.2,0l-11.6-5.2c-0.3-0.1-0.4-0.4-0.3-0.7c0.1-0.3,0.4-0.4,0.7-0.3l11.6,5.2
				c0.3,0.1,0.4,0.4,0.3,0.7C57.6,48.7,57.4,48.8,57.2,48.8z"/>
		</g>
		<g>
			<path class="st2" d="M57,41.6c-0.1,0-0.2,0-0.3-0.1l-4.1-3.3c-0.2-0.2-0.3-0.5-0.1-0.7c0.2-0.2,0.5-0.3,0.7-0.1l4.1,3.3
				c0.2,0.2,0.3,0.5,0.1,0.7C57.3,41.5,57.2,41.6,57,41.6z"/>
		</g>
		<g>
			<path class="st2" d="M52,46.1c-0.1,0-0.3-0.1-0.4-0.2c-0.2-0.2-0.2-0.5,0-0.7l4.7-4.5c0.2-0.2,0.5-0.2,0.7,0
				c0.2,0.2,0.2,0.5,0,0.7L52.4,46C52.2,46.1,52.1,46.1,52,46.1z"/>
		</g>
		<g>
			<path class="st2" d="M45.5,49.1c-0.3,0-0.5-0.2-0.5-0.5V37.7c0-0.3,0.2-0.5,0.5-0.5c0.3,0,0.5,0.2,0.5,0.5v10.9
				C46.1,48.9,45.8,49.1,45.5,49.1z"/>
		</g>
		<g>
			<path class="st2" d="M34.9,49.1c-0.3,0-0.5-0.2-0.5-0.5v-6.1c0-0.3,0.2-0.5,0.5-0.5s0.5,0.2,0.5,0.5v6.1
				C35.4,48.9,35.2,49.1,34.9,49.1z"/>
		</g>
		<g>
			<path class="st2" d="M57.2,49.1c-0.3,0-0.5-0.2-0.5-0.5V32.9c0-0.3,0.2-0.5,0.5-0.5c0.3,0,0.5,0.2,0.5,0.5v15.7
				C57.7,48.9,57.5,49.1,57.2,49.1z"/>
		</g>
	</g>
	<g class="st1">
		<circle class="st3" cx="23.9" cy="23.6" r="5.4"/>
		<path class="st2" d="M23.9,29.5c-3.3,0-6-2.7-6-6s2.7-6,6-6c3.3,0,6,2.7,6,6S27.2,29.5,23.9,29.5z M23.9,18.7
			c-2.7,0-4.9,2.2-4.9,4.9s2.2,4.9,4.9,4.9c2.7,0,4.9-2.2,4.9-4.9S26.6,18.7,23.9,18.7z"/>
	</g>
</g>
<g class="st0">
	<g class="st1">
		<g>
			<path class="st2" d="M39.8,38.2H20.3c-0.3,0-0.6-0.3-0.6-0.6S20,37,20.3,37h19.5c0.3,0,0.6,0.3,0.6,0.6S40.1,38.2,39.8,38.2z"/>
		</g>
	</g>
	<g class="st1">
		<g>
			<path class="st2" d="M64.2,70H6.1c-0.3,0-0.6-0.3-0.6-0.6c0-0.3,0.3-0.6,0.6-0.6h58.1c0.3,0,0.6,0.3,0.6,0.6
				C64.8,69.7,64.5,70,64.2,70z"/>
		</g>
	</g>
	<g class="st1">
		<g>
			<path class="st2" d="M24.9,46.5H9.4c-0.3,0-0.6-0.3-0.6-0.6s0.3-0.6,0.6-0.6h15.5c0.3,0,0.6,0.3,0.6,0.6S25.2,46.5,24.9,46.5z"/>
		</g>
	</g>
	<g class="st1">
		<g>
			<path class="st2" d="M6.1,46c-0.2,0-0.4-0.1-0.5-0.3c-0.2-0.3-0.1-0.6,0.2-0.8L20,37.1c0.3-0.2,0.6-0.1,0.8,0.2
				c0.2,0.3,0.1,0.6-0.2,0.8L6.4,45.9C6.3,46,6.2,46,6.1,46z"/>
		</g>
	</g>
	<g class="st1">
		<g>
			<path class="st2" d="M6.1,59c-0.2,0-0.4-0.1-0.5-0.3c-0.2-0.3-0.1-0.6,0.2-0.8l18.8-10.3c0.3-0.2,0.6-0.1,0.8,0.2
				c0.2,0.3,0.1,0.6-0.2,0.8L6.4,59C6.3,59,6.2,59,6.1,59z"/>
		</g>
	</g>
	<g class="st1">
		<g>
			<path class="st2" d="M51.6,43H40.1c-0.3,0-0.6-0.3-0.6-0.6s0.3-0.6,0.6-0.6h11.5c0.3,0,0.6,0.3,0.6,0.6S51.9,43,51.6,43z"/>
		</g>
	</g>
	<g class="st1">
		<g>
			<g>
				<path class="st2" d="M43.5,41.1L43.5,41.1c-0.3,0-0.6-0.3-0.6-0.6s0.3-0.6,0.6-0.6s0.6,0.3,0.6,0.6S43.9,41.1,43.5,41.1z"/>
			</g>
		</g>
		<g>
			<g>
				<path class="st2" d="M45.9,41.1L45.9,41.1c-0.3,0-0.6-0.3-0.6-0.6s0.3-0.6,0.6-0.6s0.6,0.3,0.6,0.6S46.2,41.1,45.9,41.1z"/>
			</g>
		</g>
		<g>
			<g>
				<path class="st2" d="M48.2,41.1L48.2,41.1c-0.3,0-0.6-0.3-0.6-0.6s0.3-0.6,0.6-0.6s0.6,0.3,0.6,0.6S48.5,41.1,48.2,41.1z"/>
			</g>
		</g>
	</g>
	<g class="st1">
		<g>
			<g>
				<path class="st2" d="M11.2,48.6L11.2,48.6c-0.3,0-0.6-0.3-0.6-0.6s0.3-0.6,0.6-0.6c0.3,0,0.6,0.3,0.6,0.6S11.5,48.6,11.2,48.6z"
					/>
			</g>
		</g>
		<g>
			<g>
				<path class="st2" d="M13.5,48.6L13.5,48.6c-0.3,0-0.6-0.3-0.6-0.6s0.3-0.6,0.6-0.6c0.3,0,0.6,0.3,0.6,0.6S13.8,48.6,13.5,48.6z"
					/>
			</g>
		</g>
		<g>
			<g>
				<path class="st2" d="M15.8,48.6L15.8,48.6c-0.3,0-0.6-0.3-0.6-0.6s0.3-0.6,0.6-0.6s0.6,0.3,0.6,0.6S16.1,48.6,15.8,48.6z"/>
			</g>
		</g>
	</g>
	<g class="st1">
		<g>
			<path class="st2" d="M18.1,48.6L18.1,48.6c-0.3,0-0.6-0.3-0.6-0.6s0.3-0.6,0.6-0.6s0.6,0.3,0.6,0.6S18.4,48.6,18.1,48.6z"/>
		</g>
	</g>
	<g class="st1">
		<g>
			<path class="st2" d="M20.4,48.6L20.4,48.6c-0.3,0-0.6-0.3-0.6-0.6s0.3-0.6,0.6-0.6s0.6,0.3,0.6,0.6S20.7,48.6,20.4,48.6z"/>
		</g>
	</g>
	<g class="st1">
		<g>
			<path class="st4" d="M28.8,65.5"/>
		</g>
	</g>
	<g class="st1">
		<g>
			<g>
				<path class="st2" d="M34.8,36c-0.3,0-0.6-0.3-0.6-0.6c0-1.5,0-2.7,0-3.7c0-1.2,0-2,0-2.5c0.1-1.5,1-2,1.7-2c1,0,1.7,0.9,1.7,2.1
					v6.1c0,0.3-0.3,0.6-0.6,0.6s-0.6-0.3-0.6-0.6v-6.1c0-0.4-0.2-0.9-0.6-0.9c-0.3,0-0.5,0.3-0.6,0.9c0,0.5,0,1.3,0,2.4
					c0,0.9,0,2.2,0,3.7C35.4,35.7,35.1,36,34.8,36z"/>
			</g>
		</g>
		<g>
			<g>
				<path class="st2" d="M41.8,36c-0.3,0-0.6-0.3-0.6-0.6v-8.7c0-0.3,0.3-0.6,0.6-0.6s0.6,0.3,0.6,0.6v8.7
					C42.3,35.7,42.1,36,41.8,36z"/>
			</g>
		</g>
		<g>
			<g>
				<path class="st2" d="M39.4,36c-0.3,0-0.6-0.3-0.6-0.6v-8.7c0-0.3,0.3-0.6,0.6-0.6s0.6,0.3,0.6,0.6v8.7C40,35.7,39.8,36,39.4,36z
					"/>
			</g>
		</g>
		<g>
			<g>
				<path class="st2" d="M32.5,36c-0.3,0-0.6-0.3-0.6-0.6v-8.7c0-0.3,0.3-0.6,0.6-0.6s0.6,0.3,0.6,0.6v8.7
					C33.1,35.7,32.8,36,32.5,36z"/>
			</g>
		</g>
	</g>
	<g class="st1">
		<g>
			<g>
				<path class="st2" d="M27.9,36c-0.3,0-0.6-0.3-0.6-0.6c0-1.5,0-2.7,0-3.7c0-1.2,0-1.9,0-2.5c0-0.6-0.2-0.9-0.6-0.9
					c-0.4,0-0.6,0.5-0.6,0.9v6.1c0,0.3-0.3,0.6-0.6,0.6S25,35.7,25,35.4v-6.1c0-1.2,0.7-2,1.7-2.1c0,0,0,0,0,0c0.8,0,1.7,0.5,1.7,2
					c0,0.5,0,1.3,0,2.5c0,0.9,0,2.1,0,3.7C28.5,35.7,28.2,36,27.9,36C27.9,36,27.9,36,27.9,36z"/>
			</g>
		</g>
		<g>
			<g>
				<path class="st2" d="M21,36c-0.3,0-0.6-0.3-0.6-0.6v-8.7c0-0.3,0.3-0.6,0.6-0.6s0.6,0.3,0.6,0.6v8.7C21.5,35.7,21.3,36,21,36z"
					/>
			</g>
		</g>
		<g>
			<g>
				<path class="st2" d="M23.3,36c-0.3,0-0.6-0.3-0.6-0.6v-8.7c0-0.3,0.3-0.6,0.6-0.6s0.6,0.3,0.6,0.6v8.7
					C23.8,35.7,23.6,36,23.3,36z"/>
			</g>
		</g>
		<g>
			<g>
				<path class="st2" d="M30.2,36c-0.3,0-0.6-0.3-0.6-0.6v-8.7c0-0.3,0.3-0.6,0.6-0.6s0.6,0.3,0.6,0.6v8.7
					C30.8,35.7,30.5,36,30.2,36z"/>
			</g>
		</g>
	</g>
	<g class="st1">
		<g>
			<g>
				<path class="st2" d="M29,46.5c-0.2,0-0.4-0.1-0.5-0.3c-0.2-0.3-0.1-0.6,0.2-0.8l15.5-9.2c0.3-0.2,0.6-0.1,0.8,0.2
					c0.2,0.3,0.1,0.6-0.2,0.8l-15.5,9.2C29.2,46.4,29.1,46.5,29,46.5z"/>
			</g>
		</g>
		<g>
			<g>
				<path class="st2" d="M64.2,47.4c-0.1,0-0.2,0-0.3-0.1l-17-10.1c-0.3-0.2-0.4-0.5-0.2-0.8c0.2-0.3,0.5-0.4,0.8-0.2l17,10.1
					c0.3,0.2,0.4,0.5,0.2,0.8C64.6,47.3,64.4,47.4,64.2,47.4z"/>
			</g>
		</g>
		<g>
			<g>
				<path class="st2" d="M47,37.2c-0.3,0-0.6-0.3-0.6-0.6c0-0.8,0-1.3,0-1.6c0-0.1,0-0.2,0-0.3c0-0.1,0-0.1,0-0.2
					c0-0.6-0.2-0.9-0.6-0.9c-0.4,0-0.6,0.5-0.6,0.9v2.1c0,0.3-0.3,0.6-0.6,0.6s-0.6-0.3-0.6-0.6v-2.1c0-1.2,0.7-2,1.7-2.1
					c0.8,0,1.7,0.5,1.7,2c0,0,0,0.1,0,0.1c0,0,0,0.1,0,0.1c0,0.1,0,0.1,0,0.2c0,0.2,0,0.7,0,1.8C47.6,36.9,47.4,37.2,47,37.2
					C47,37.2,47,37.2,47,37.2z"/>
			</g>
		</g>
	</g>
	<g class="st1">
		<g>
			<path class="st2" d="M28.6,68.2c-0.3,0-0.6-0.3-0.6-0.6c0-1.8,0-5.4,0-9.2c0-6.2,0-13.2,0-14c0-0.7-0.2-1.5-1-1.5c0,0,0,0,0,0
				c-0.7,0-1.1,0.6-1.1,1.6v23.2c0,0.3-0.3,0.6-0.6,0.6s-0.6-0.3-0.6-0.6V44.4c0-1.6,0.9-2.7,2.2-2.7c0,0,0,0,0.1,0
				c1,0,2.1,0.7,2.2,2.6c0,0.9,0,7.6,0,14.1c0,3.8,0,7.3,0,9.2C29.2,67.9,28.9,68.2,28.6,68.2C28.6,68.2,28.6,68.2,28.6,68.2z"/>
		</g>
	</g>
	<g class="st1">
		<g>
			<path class="st2" d="M8.8,67.9c-0.3,0-0.6-0.3-0.6-0.6V44.1c0-0.3,0.3-0.6,0.6-0.6s0.6,0.3,0.6,0.6v23.2
				C9.4,67.7,9.1,67.9,8.8,67.9z"/>
		</g>
	</g>
	<g class="st1">
		<g>
			<path class="st2" d="M61.3,67.9c-0.3,0-0.6-0.3-0.6-0.6V45.1c0-0.3,0.3-0.6,0.6-0.6s0.6,0.3,0.6,0.6v22.3
				C61.9,67.7,61.6,67.9,61.3,67.9z"/>
		</g>
	</g>
	<g class="st1">
		<g>
			<g>
				<g>
					<path class="st2" d="M44.6,63.7h-7.2c-0.3,0-0.6-0.3-0.6-0.6s0.3-0.6,0.6-0.6h7.2c0.3,0,0.6,0.3,0.6,0.6S44.9,63.7,44.6,63.7z"
						/>
				</g>
			</g>
			<g>
				<g>
					<g>
						<path class="st4" d="M43.5,60.2"/>
					</g>
				</g>
				<g>
					<g>
						<path class="st2" d="M42.9,51.7c-0.3,0-0.6-0.3-0.6-0.6v-2.9c0-1.3-1.1-1.9-1.4-1.9c-0.3,0-1.4,0.7-1.4,2v2.9
							c0,0.3-0.3,0.6-0.6,0.6s-0.6-0.3-0.6-0.6v-2.9c0-1.9,1.7-3.1,2.6-3.1c1.1,0,2.6,1.2,2.6,3.1v2.9
							C43.5,51.4,43.2,51.7,42.9,51.7z"/>
					</g>
				</g>
				<g>
					<g>
						<g>
							<path class="st2" d="M43.8,63.3c-0.3,0-0.6-0.3-0.6-0.6V51.3c0-0.3,0.3-0.6,0.6-0.6s0.6,0.3,0.6,0.6v11.4
								C44.4,63,44.2,63.3,43.8,63.3z"/>
						</g>
					</g>
					<g>
						<g>
							<path class="st2" d="M38.1,63c-0.3,0-0.6-0.3-0.6-0.6V51.3c0-0.3,0.3-0.6,0.6-0.6s0.6,0.3,0.6,0.6v11.2
								C38.6,62.8,38.4,63,38.1,63z"/>
						</g>
					</g>
					<g>
						<g>
							<path class="st2" d="M43.3,53.9h-4.6c-0.3,0-0.6-0.3-0.6-0.6s0.3-0.6,0.6-0.6h4.6c0.3,0,0.6,0.3,0.6,0.6S43.6,53.9,43.3,53.9
								z"/>
						</g>
					</g>
				</g>
			</g>
		</g>
		<g>
			<g>
				<g>
					<path class="st2" d="M54.4,63.7h-7.2c-0.3,0-0.6-0.3-0.6-0.6s0.3-0.6,0.6-0.6h7.2c0.3,0,0.6,0.3,0.6,0.6S54.7,63.7,54.4,63.7z"
						/>
				</g>
			</g>
			<g>
				<g>
					<g>
						<path class="st4" d="M53.3,60.2"/>
					</g>
				</g>
				<g>
					<g>
						<path class="st2" d="M52.7,51.7c-0.3,0-0.6-0.3-0.6-0.6v-2.9c0-1.3-1.1-1.9-1.4-1.9c-0.3,0-1.4,0.7-1.4,2v2.9
							c0,0.3-0.3,0.6-0.6,0.6s-0.6-0.3-0.6-0.6v-2.9c0-1.9,1.7-3.1,2.6-3.1c1.1,0,2.6,1.2,2.6,3.1v2.9
							C53.3,51.4,53.1,51.7,52.7,51.7z"/>
					</g>
				</g>
				<g>
					<g>
						<g>
							<path class="st2" d="M53.7,63.3c-0.3,0-0.6-0.3-0.6-0.6V51.3c0-0.3,0.3-0.6,0.6-0.6s0.6,0.3,0.6,0.6v11.4
								C54.2,63,54,63.3,53.7,63.3z"/>
						</g>
					</g>
					<g>
						<g>
							<path class="st2" d="M47.9,63c-0.3,0-0.6-0.3-0.6-0.6V51.3c0-0.3,0.3-0.6,0.6-0.6s0.6,0.3,0.6,0.6v11.2
								C48.5,62.8,48.2,63,47.9,63z"/>
						</g>
					</g>
					<g>
						<g>
							<path class="st2" d="M53.1,53.9h-4.6c-0.3,0-0.6-0.3-0.6-0.6s0.3-0.6,0.6-0.6h4.6c0.3,0,0.6,0.3,0.6,0.6S53.4,53.9,53.1,53.9
								z"/>
						</g>
					</g>
				</g>
			</g>
		</g>
	</g>
	<g class="st1">
		<g>
			<path class="st3" d="M20.3,21.3c0.8,1.2,1.5,2.3,2.3,3.6c0.9,0,1.7,0,2.8,0c0.5-1,1.1-2.2,1.8-3.6c0.9,1.3,1.6,2.4,2.4,3.6
				c1.5,0,0.3,0,2.2,0h-1.6c2,0,1.3,0,2.8,0c0.8-1.2,1.6-2.3,2.4-3.6c0.7,1.4,1.3,2.6,1.8,3.6c1.1,0,2,0,2.8,0
				c0.8-1.3,1.6-2.4,2.3-3.6L41,23c-2.7-5.2-5.9-11.2-9.6-18.3h-0.1c-3.7,7.1-6.9,13.1-9.6,18.3L20.3,21.3z"/>
		</g>
		<g>
			<path class="st2" d="M40.2,25.5h-2.8c-0.2,0-0.4-0.1-0.5-0.3l-1.4-2.7l-1.9,2.8c-0.1,0.2-0.3,0.3-0.5,0.3h-3.5
				c-0.2,0-0.4-0.1-0.5-0.3l-1.9-2.8l-1.4,2.7c-0.1,0.2-0.3,0.3-0.5,0.3h-2.8c-0.2,0-0.4-0.1-0.5-0.3l-2.3-3.6
				c-0.2-0.3-0.1-0.6,0.1-0.8c0.2-0.2,0.6-0.1,0.8,0.1l0.9,1.1l9.2-17.5c0.1-0.2,0.3-0.3,0.5-0.3h0.1c0.2,0,0.4,0.1,0.5,0.3L41.2,22
				l0.9-1.1c0.2-0.2,0.5-0.3,0.8-0.1c0.2,0.2,0.3,0.5,0.1,0.8l-2.3,3.6C40.5,25.4,40.4,25.5,40.2,25.5z M37.7,24.3h2.1l0.7-1
				L31.4,5.9l-9.1,17.4l0.7,1h2.1l1.6-3.3c0.1-0.2,0.3-0.3,0.5-0.3c0.2,0,0.4,0.1,0.5,0.3l2.2,3.3h2.9l2.2-3.3
				c0.1-0.2,0.3-0.3,0.5-0.3c0.2,0,0.4,0.1,0.5,0.3L37.7,24.3z"/>
		</g>
	</g>
	<g class="st1">
		<g>
			<circle class="st3" cx="31.4" cy="2.2" r="1.7"/>
		</g>
		<g>
			<path class="st2" d="M31.4,4.5c-1.2,0-2.2-1-2.2-2.2c0-1.2,1-2.2,2.2-2.2c1.2,0,2.2,1,2.2,2.2C33.6,3.5,32.6,4.5,31.4,4.5z
				 M31.4,1.2c-0.6,0-1.1,0.5-1.1,1.1s0.5,1.1,1.1,1.1c0.6,0,1.1-0.5,1.1-1.1S32,1.2,31.4,1.2z"/>
		</g>
	</g>
</g>
<g class="st0">
	<g class="st1">
		<path class="st2" d="M27.9,33.1c-0.2,0-0.4-0.2-0.4-0.4V27c0-0.2,0.2-0.4,0.4-0.4c0.2,0,0.4,0.2,0.4,0.4v5.7
			C28.3,32.9,28.1,33.1,27.9,33.1z"/>
	</g>
	<g class="st1">
		<path class="st2" d="M26.4,27c0,1.9,0,3.8,0,5.7"/>
	</g>
	<g class="st1">
		<polygon class="st3" points="29.6,21.2 30.6,17.3 29.1,16.8 26.2,12.4 28,11.9 27.1,10.3 29.8,4.8 27.6,3.5 22.7,3.8 16.7,1.1 
			13.6,3 15.7,4.8 15.8,9.2 19.2,12.9 16.4,17.8 16.4,18.7 13,22.5 23,24 32.7,22.5 		"/>
	</g>
	<g class="st1">
		<polygon class="st5" points="26.2,43.8 14.8,45.3 17.7,53.1 23.5,68.9 25.8,68 26.3,66.9 27.2,65.9 29.1,63.6 30.1,57.8 
			29.5,55.9 30.7,52 32.2,51.1 33.5,51 35,48.9 36.2,48.4 38,46.6 38.6,45.3 		"/>
	</g>
	<g class="st1">
		<path class="st3" d="M17.7,53.1l5.8,15.7l2.3-0.9l0.6-1.1l0.9-1l1.9-2.3l1-5.7l-0.7-2l1.3-3.8l1.4-0.9l1.3-0.2l1.5-2.1l1.2-0.5
			l1.8-1.8l0.6-1.3h-7.9C27.1,48.9,22.6,51.6,17.7,53.1z"/>
	</g>
	<g class="st1">
		<polygon class="st6" points="56.6,37.8 56.5,37.7 56.5,37.8 		"/>
	</g>
	<g class="st1">
		<path class="st3" d="M64.3,22.5l-1.2-1.8l-4.2,0.1l-0.6,0.8l-1.3,0.8l-3.3,2.1l-0.2,2h-3.1l-3.7-3l-1.9,4l-5-2.1
			c-0.6,7.7-4,14.6-9.2,19.7h7.9l0.3-0.6l4.3-2.4l0.3-2.1l2.3-1.7l2.5,0.5l-2.2-8l3.8-1.6l2.1,1.4l3,0.3l-2.4,3.5l1.5-0.1l2.4,3.1
			l0.7-4.5l2.1,0.4l0.7-4.1l0.7-0.9l0.2-1.4l4-1.4l0.4-1.8L64.3,22.5z"/>
	</g>
	<g class="st1">
		<path class="st3" d="M30.7,45.3H14.8l2.9,7.9C22.6,51.6,27.1,48.9,30.7,45.3z"/>
	</g>
	<g class="st1">
		<path class="st3" d="M13,22.5l-1.5,1.6l-2.8-0.9l-1.2,3.4l0.8,0.6l1.7,3.6l0,1.7l-5.3,1.9l3.4,1.7l-1.8,1L8,39.7l2.8,1.4l3-3.9
			l-0.1,2l1,2.4L14.3,44l0.5,1.3h15.9c5.1-5.1,8.5-12,9.2-19.7l-7.1-3L13,22.5L13,22.5z"/>
	</g>
	<g class="st1">
		<path class="st2" d="M66.2,23.3L64,20.1c-0.2-0.3-0.6-0.5-1-0.5l-4.2,0.1c-0.4,0-0.7,0.2-0.9,0.5l-0.4,0.6l-4.4,2.8
			c-0.3,0.2-0.5,0.5-0.5,0.8l-0.1,1h-1.7l-3.4-2.7c-0.3-0.2-0.6-0.3-1-0.2c-0.3,0.1-0.6,0.3-0.8,0.6l-1.4,3l-13.4-5.7l0.8-2.9
			c0.1-0.6-0.2-1.2-0.7-1.3l-1.1-0.4L28,13.1l0.3-0.1c0.3-0.1,0.6-0.3,0.8-0.6c0.1-0.3,0.1-0.7-0.1-1l-0.6-1.1l2.4-5
			c0.3-0.5,0.1-1.2-0.4-1.5l-2.2-1.3c-0.2-0.1-0.4-0.2-0.6-0.2l-4.6,0.2l-5.8-2.5c-0.3-0.1-0.7-0.1-1,0.1L13,2
			c-0.3,0.2-0.5,0.5-0.5,0.9s0.1,0.7,0.4,0.9l1.7,1.5l0.1,3.9c0,0.3,0.1,0.5,0.3,0.7l2.8,3.1l-2.4,4.3c-0.1,0.2-0.1,0.3-0.1,0.5
			l0,0.5l-4.2,4.6L9,22.2c-0.6-0.2-1.2,0.1-1.4,0.7l-1.2,3.4c-0.2,0.5,0,1,0.4,1.3L7.4,28L9,31.1l0,0.7l-4.6,1.6
			c-0.4,0.2-0.7,0.5-0.7,1s0.2,0.9,0.6,1.1l1.4,0.7c-0.2,0.1-0.4,0.4-0.4,0.6c-0.1,0.3,0,0.7,0.1,1l1.7,2.6c0.1,0.2,0.3,0.3,0.4,0.4
			l2.8,1.4c0.5,0.2,1.1,0.1,1.4-0.3l1.2-1.6l0.7,1.6l-0.4,2.1c0,0.2,0,0.4,0.1,0.6l9.2,24.9c0.2,0.4,0.6,0.7,1.1,0.7
			c0.1,0,0.3,0,0.4-0.1l2.3-0.9c0.3-0.1,0.5-0.3,0.6-0.5l0.5-1l0.8-0.9l1.9-2.3c0.1-0.2,0.2-0.3,0.2-0.5l1-5.7c0-0.2,0-0.4,0-0.6
			l-0.5-1.6l1-3.1l0.9-0.5l1.1-0.1c0.3,0,0.6-0.2,0.8-0.5l1.3-1.8c0.4-0.2,1-0.3,1.3-0.7c0.4-0.4,0.8-0.8,1.2-1.2
			c0.3-0.3,0.6-0.6,0.8-1c0.2-0.5,0.4-1,0.6-1.5l4-2.2c0.3-0.2,0.5-0.5,0.6-0.8l0.2-1.6l1.5-1.1l2,0.4c0.4,0.1,0.8-0.1,1-0.3
			c0.3-0.3,0.4-0.7,0.3-1.1l-1.9-7l2.3-1l1.6,1.1c0.1,0.1,0.3,0.2,0.5,0.2L53,32l-1.3,2c-0.2,0.4-0.3,0.8,0,1.2
			c0.2,0.4,0.6,0.6,1,0.6l0.9,0l2,2.8c0.3,0.4,0.7,0.5,1.2,0.4c0.4-0.1,0.8-0.5,0.8-0.9l0.6-3.5l0.9,0.2c0.3,0.1,0.6,0,0.9-0.2
			c0.2-0.2,0.4-0.4,0.5-0.7l0.6-3.8l0.5-0.7c0.1-0.2,0.2-0.3,0.2-0.5l0.1-0.7l3.3-1.1c0.4-0.1,0.6-0.4,0.7-0.8l0.4-1.8
			C66.4,23.9,66.3,23.6,66.2,23.3z M63.9,24.9l-3.4,1.2c-0.4,0.1-0.7,0.5-0.7,0.9l-0.1,1.1l-0.5,0.7c-0.1,0.1-0.2,0.3-0.2,0.5
			l-0.5,3l-0.9-0.2c-0.3-0.1-0.6,0-0.9,0.2c-0.2,0.2-0.4,0.4-0.5,0.7l-0.3,2L55,33.9c-0.1-0.1-0.2-0.2-0.3-0.3l1.3-1.8
			c0.2-0.3,0.3-0.7,0.1-1.1c-0.2-0.4-0.5-0.6-0.9-0.6l-2.8-0.3l-1.9-1.2c-0.3-0.2-0.7-0.2-1-0.1l-3.8,1.6c-0.5,0.2-0.8,0.8-0.7,1.3
			l1.7,6.2l-0.7-0.1c-0.3-0.1-0.6,0-0.9,0.2l-2.3,1.7c-0.2,0.2-0.4,0.5-0.4,0.8l-0.2,1.5l-3.8,2.1c-0.2,0.1-0.4,0.3-0.5,0.6L37.1,46
			l-1.5,1.5l-1,0.4c-0.2,0.1-0.4,0.2-0.5,0.4l-1.2,1.7L32,50c-0.2,0-0.3,0.1-0.5,0.2l-1.4,0.9c-0.2,0.1-0.4,0.4-0.5,0.6l-1.3,3.8
			c-0.1,0.2-0.1,0.5,0,0.7l0.6,1.7l-0.9,5.2l-1.7,2.1l-0.9,1c-0.1,0.1-0.1,0.1-0.1,0.2L25,67.1l-0.8,0.3l-8.7-23.5l0.4-2.1
			c0-0.2,0-0.4-0.1-0.6l-0.9-2.2l0.1-1.8c0-0.5-0.3-0.9-0.7-1.1c-0.5-0.2-1,0-1.3,0.4l-2.4,3.2l-1.7-0.8L8,37.5l0.6-0.3
			c0.4-0.2,0.6-0.6,0.6-1c0-0.4-0.2-0.8-0.6-1l-0.5-0.3l-0.5-0.2l2.8-1c0.5-0.2,0.8-0.6,0.7-1.1l0-1.7c0-0.2,0-0.3-0.1-0.5l-1.7-3.6
			c-0.1-0.2-0.2-0.3-0.3-0.4l-0.2-0.1l0.5-1.6l1.7,0.6c0.4,0.1,0.9,0,1.2-0.3l4.9-5.4c0.2-0.2,0.3-0.5,0.3-0.7l0-0.6l2.6-4.7
			c0.2-0.4,0.2-0.9-0.2-1.3l-3.1-3.4l-0.1-3.9c0-0.3-0.1-0.6-0.4-0.8l-0.9-0.8l1.3-0.8l5.5,2.4c0.2,0.1,0.3,0.1,0.5,0.1l4.6-0.2
			l1,0.6l-2.2,4.6c-0.2,0.3-0.1,0.7,0,1l0.2,0.3l-0.4,0.1c-0.4,0.1-0.6,0.3-0.8,0.7c-0.1,0.3-0.1,0.7,0.1,1l2.9,4.4
			c0.1,0.2,0.3,0.4,0.6,0.4l0.5,0.2l-0.7,2.9c-0.1,0.5,0.1,1.1,0.6,1.3l15.3,6.5c0.6,0.2,1.2,0,1.5-0.6l1.2-2.7l2.5,2.1
			c0.2,0.2,0.5,0.3,0.7,0.3h3.1c0.6,0,1.1-0.4,1.1-1l0.1-1.5l4.1-2.6c0.1-0.1,0.2-0.2,0.3-0.3l0.2-0.4l3-0.1l1.6,2.3L63.9,24.9z"/>
	</g>
</g>
<g class="st0">
	<g class="st1">
		<rect x="20" y="18.8" class="st3" width="5.5" height="40.2"/>
		<path class="st2" d="M25.5,59.3H20c-0.2,0-0.3-0.2-0.3-0.3V18.8c0-0.2,0.2-0.3,0.3-0.3h5.5c0.2,0,0.3,0.2,0.3,0.3V59
			C25.8,59.2,25.7,59.3,25.5,59.3z M20.4,58.6h4.8V19.1h-4.8V58.6z"/>
	</g>
	<g class="st1">
		<polygon class="st3" points="24.4,18.6 21.1,18.6 21.1,10.3 21.4,9.4 21.7,9.2 23.7,9.2 24,9.4 24.4,10.3 		"/>
	</g>
	<g class="st1">
		<polygon class="st3" points="49.6,18.6 46.3,18.6 46.3,10.3 46.7,9.4 46.9,9.2 48.9,9.2 49.2,9.4 49.6,10.3 		"/>
	</g>
	<g class="st1">
		<rect x="45.2" y="18.8" class="st3" width="5.5" height="40.2"/>
		<path class="st2" d="M50.7,59.3h-5.5c-0.2,0-0.3-0.2-0.3-0.3V18.8c0-0.2,0.2-0.3,0.3-0.3h5.5c0.2,0,0.3,0.2,0.3,0.3V59
			C51.1,59.2,50.9,59.3,50.7,59.3z M45.6,58.6h4.8V19.1h-4.8V58.6z"/>
	</g>
	<g class="st1">
		<g>
			<path class="st2" d="M43,59.3c-0.1,0-0.2-0.1-0.3-0.2c-0.2-0.3-0.2-0.7-0.2-1c0-0.1,0-0.2,0-0.3l0-0.2c0-3.7,0-7.6,0-11.3
				c0-1.4-0.4-2.8-1.2-4.6c-1-2-2.7-3-4.5-4.2c-0.4-0.3-0.8-0.5-1.2-0.8c-0.1-0.1-0.5,0-0.8,0.2c-0.4,0.3-0.8,0.5-1.2,0.8
				c-0.3,0.2-0.6,0.4-0.9,0.6c-3.2,2.1-4.7,5-4.6,8.7c0.1,2.7,0,5.4,0,8c0,0.9,0,1.8,0,2.8c0,0.1,0,0.2,0,0.3c0,0.3,0.1,0.7-0.2,1
				c-0.1,0.2-0.3,0.2-0.5,0.1c-0.2-0.1-0.2-0.3-0.1-0.5c0.1-0.1,0.1-0.3,0.1-0.6c0-0.1,0-0.2,0-0.3c0-0.9,0-1.8,0-2.8
				c0-2.6,0-5.3,0-8c-0.1-3.9,1.5-7,4.9-9.3c0.3-0.2,0.6-0.4,1-0.6c0.4-0.2,0.8-0.5,1.2-0.8c0.4-0.3,1.1-0.5,1.5-0.2
				c0.4,0.3,0.8,0.5,1.2,0.8c1.8,1.1,3.7,2.3,4.8,4.4c0.9,1.8,1.3,3.3,1.3,4.9c0,3.8,0,7.6,0,11.3l0,0.2c0,0.1,0,0.2,0,0.3
				c0,0.3,0,0.4,0.1,0.6c0.1,0.2,0.1,0.4-0.1,0.5C43.2,59.3,43.1,59.3,43,59.3z"/>
		</g>
		<g>
			<path class="st2" d="M25.5,59.3c-0.2,0-0.3-0.2-0.3-0.3l0-4.5c0-5.8,0-11.9,0-17.8c0-0.2,0-0.4-0.1-0.6c-0.1-0.3-0.1-0.7,0-1.2
				c0.2-0.8,0.2-1.6,0-2.8c0-0.2,0.1-0.4,0.3-0.4c0.2,0,0.4,0.1,0.4,0.3c0.2,1.2,0.2,2.1,0,3c-0.1,0.3,0,0.6,0.1,0.9
				c0,0.2,0.1,0.5,0.1,0.8c0,5.9,0,12,0,17.8l0,4.5C25.8,59.2,25.7,59.3,25.5,59.3z"/>
		</g>
		<g>
			<path class="st2" d="M45.2,59.3c-0.2,0-0.3-0.2-0.3-0.3l0-4.5c0-5.8,0-11.9,0-17.8c0-0.3,0-0.5,0.1-0.8c0.1-0.3,0.1-0.6,0.1-0.9
				c-0.2-0.9-0.2-1.8,0-3c0-0.2,0.2-0.3,0.4-0.3c0.2,0,0.3,0.2,0.3,0.4c-0.2,1.1-0.2,2,0,2.8c0.1,0.4,0,0.8,0,1.2
				c0,0.2-0.1,0.4-0.1,0.6c0,5.9,0,12,0,17.8l0,4.5C45.5,59.2,45.4,59.3,45.2,59.3z"/>
		</g>
		<g>
			<path class="st2" d="M20,59.3c-0.2,0-0.3-0.2-0.3-0.3V26.6c0-0.2,0.2-0.3,0.3-0.3c0.2,0,0.3,0.2,0.3,0.3V59
				C20.4,59.2,20.2,59.3,20,59.3z"/>
		</g>
		<g>
			<path class="st2" d="M50.6,59.3c-0.2,0-0.3-0.2-0.3-0.3v-27c0-0.2,0.2-0.3,0.3-0.3s0.3,0.2,0.3,0.3v27
				C51,59.2,50.8,59.3,50.6,59.3z"/>
		</g>
		<g>
			<path class="st2" d="M65.9,59.2c-0.2,0-0.3-0.2-0.3-0.3V35.6c0-0.2,0.2-0.3,0.3-0.3c0.2,0,0.3,0.2,0.3,0.3v23.3
				C66.2,59.1,66.1,59.2,65.9,59.2z"/>
		</g>
		<g>
			<path class="st2" d="M46,15.8H24.6c-0.2,0-0.3-0.2-0.3-0.3s0.2-0.3,0.3-0.3H46c0.2,0,0.3,0.2,0.3,0.3S46.2,15.8,46,15.8z"/>
		</g>
		<g>
			<path class="st2" d="M50.6,32.1c-0.2,0-0.3-0.2-0.3-0.3V19.1H20.4v7.2c0,0.2-0.2,0.3-0.3,0.3c-0.2,0-0.3-0.2-0.3-0.3v-7.6
				c0-0.2,0.2-0.3,0.3-0.3h30.6c0.2,0,0.3,0.2,0.3,0.3v12.9C51,31.9,50.8,32.1,50.6,32.1z"/>
		</g>
		<g>
			<path class="st2" d="M1.3,59.6c-0.2,0-0.3-0.1-0.3-0.3C1,59.1,1.1,59,1.3,59c0.3,0,0.7-0.1,1-0.1c0.7-0.1,1.5-0.1,2.3-0.1
				c2.5,0.1,5.1,0.1,7.5,0.1c0.5,0,1,0,1.5,0l1,0c3.6,0,7.3-0.1,10.9,0c5,0.1,10.2,0.1,15.4,0.1c1.4,0,2.9,0,4.3-0.1
				c1.7-0.1,3.6-0.1,5.3-0.1c1.4,0,2.9,0,4.3,0c1.2,0,2.3,0,3.5,0c1.5,0,2.9,0,4.4,0c0.6,0,1.3,0,1.9,0h4.8c0.2,0,0.3,0.2,0.3,0.3
				c0,0.2-0.2,0.3-0.3,0.3h-4.8c-0.6,0-1.3,0-1.9,0c-1.4,0-2.9,0-4.4,0c-1.2,0-2.3,0-3.5,0c-1.4,0-2.9,0-4.4,0c-1.8,0-3.6,0-5.3,0.1
				c-1.4,0-2.9,0.1-4.3,0.1c-5.2,0-10.3,0-15.4-0.1c-3.6-0.1-7.3,0-10.9,0l-1,0c-0.5,0-1,0-1.5,0c-2.5,0-5,0.1-7.6-0.1
				c-0.7,0-1.4,0-2.1,0.1C2,59.6,1.7,59.6,1.3,59.6C1.4,59.6,1.3,59.6,1.3,59.6z"/>
		</g>
		<g>
			<path class="st2" d="M3.3,35.6c-0.8,0-1.4-0.5-1.6-1.4c0-0.2-0.1-0.4-0.2-0.6c-0.2-0.5-0.4-1-0.3-1.7c0-0.1,0.1-0.2,0.2-0.3
				c0.8-0.4,1.7-0.3,2.5-0.3c0.2,0,0.5,0,0.7,0c0.6,0,1.3,0,1.9,0c1.1,0,2.1,0,3.2,0c3.5,0.1,7,0.1,10.5,0.1c1.6,0,3.3,0,4.9,0
				c2.3,0,4.7,0,6.9,0c1.6,0,3.3,0,4.9,0c6.5,0,13,0,19.5,0l7.9,0l1,0l2.3,0l0.1,0c0.3,0,0.8,0,1.2,0.3c0.1,0.1,0.1,0.1,0.1,0.2
				c0.1,0.7-0.2,1.3-0.4,1.9c-0.1,0.3-0.2,0.6-0.3,0.8c-0.2,0.8-1,0.8-1.3,0.8c-0.7,0-1.4,0-2.1,0c-0.3,0-0.6,0-0.9,0l-3.2,0
				c-4.9,0-9.7,0-14.6,0c-0.1,0-0.2,0-0.3,0c-0.3,0-0.7,0.1-1-0.2c-0.2-0.1-0.2-0.3-0.1-0.5c0.1-0.2,0.3-0.2,0.5-0.1
				c0.1,0.1,0.3,0.1,0.6,0.1c0.1,0,0.2,0,0.3,0c0,0,0,0,0,0c4.9,0,9.7,0,14.6,0l3.2,0c0.3,0,0.6,0,0.9,0c0.7,0,1.4,0,2.1,0
				c0.5,0,0.6-0.1,0.6-0.3c0.1-0.3,0.2-0.6,0.3-0.9c0.2-0.5,0.4-1,0.4-1.5c-0.2-0.1-0.3-0.1-0.6-0.1l-0.2,0l-2.3,0l-1,0l-7.9,0
				c-6.5,0-13,0-19.5,0c-1.6,0-3.3,0-4.9,0c-2.3,0-4.6,0-7,0c-1.6,0-3.3,0-4.9,0c-3.4,0-7,0-10.5-0.1c-1.1,0-2.1,0-3.2,0
				c-0.6,0-1.3,0-1.9,0c-0.2,0-0.5,0-0.8,0c-0.7,0-1.4-0.1-2,0.1c0,0.4,0.1,0.8,0.3,1.2c0.1,0.2,0.1,0.4,0.2,0.6
				c0.2,0.7,0.5,0.9,1.1,0.8c0.5-0.1,1.1,0,1.6,0c0.2,0,0.5,0,0.7,0l3.2,0c5,0,10,0,15,0c0.1,0,0.2,0,0.3,0c0.3,0,0.4,0,0.6-0.1
				c0.2-0.1,0.4-0.1,0.5,0.1c0.1,0.2,0.1,0.4-0.1,0.5c-0.3,0.2-0.7,0.2-1,0.2c-0.1,0-0.2,0-0.3,0c-5,0-10,0-15,0l-3.2,0
				c-0.2,0-0.5,0-0.7,0c-0.5,0-1,0-1.5,0C3.5,35.6,3.4,35.6,3.3,35.6z"/>
		</g>
		<g>
			<path class="st2" d="M4.5,26.9c-0.3,0-0.6-0.1-0.8-0.3c-0.3-0.2-0.4-0.6-0.4-1.2c0-0.5,0-1.1,0-1.5l0-0.6c0-0.1,0.1-0.2,0.2-0.3
				C4,22.7,4.5,22.8,5,22.8c0.2,0,0.3,0,0.5,0c1.7,0,3.5,0,5.2,0c2.1,0,4.4,0,6.6-0.1c0.3,0,0.7,0,1,0c0.5,0,1,0,1.4,0
				c0.2,0,0.4,0.1,0.4,0.3s-0.1,0.4-0.3,0.4c-0.5,0.1-1.1,0.1-1.6,0.1c-0.3,0-0.6,0-0.9,0c-2.2,0.1-4.4,0.1-6.6,0.1
				c-1.7,0-3.5,0-5.2,0c-0.2,0-0.4,0-0.5,0c-0.4,0-0.7-0.1-1,0.1l0,0.4c0,0.5,0,1,0,1.5c0,0.3,0.1,0.5,0.2,0.6
				c0.1,0.1,0.3,0.1,0.6,0.1c0.5-0.1,1-0.1,1.4-0.1c6,0,12,0,18,0c0.1,0,0.2,0,0.3,0c0.3,0,0.5,0,0.7-0.1c0.2-0.1,0.4,0,0.5,0.2
				c0.1,0.2,0,0.4-0.2,0.5c-0.4,0.2-0.7,0.2-1.1,0.1c-0.1,0-0.2,0-0.3,0c0,0,0,0,0,0c-6,0-12,0-18,0c-0.4,0-0.9,0-1.3,0.1
				C4.7,26.9,4.6,26.9,4.5,26.9z"/>
		</g>
		<g>
			<path class="st2" d="M66.1,27c0,0-0.1,0-0.1,0c-2.7-0.3-5.4-0.2-8.1-0.2c-1.6,0-3.2,0.1-4.8,0c-1.4,0-2.9,0-4.4,0
				c-0.8,0-1.5,0-2.3,0c-0.1,0-0.2,0-0.2,0c-0.3,0-0.6,0-1-0.1c-0.2-0.1-0.2-0.3-0.2-0.5c0.1-0.2,0.3-0.2,0.5-0.2
				c0.2,0.1,0.4,0.1,0.7,0.1c0.1,0,0.2,0,0.3,0c0.8,0,1.5,0,2.3,0c1.4,0,2.9,0,4.4,0c1.6,0,3.2,0,4.8,0c2.7,0,5.4-0.1,8.2,0.2
				c0.2,0,0.4,0,0.6-0.2c0.1-0.1,0.2-0.3,0.1-0.6c-0.1-0.5-0.1-1.1,0-1.6c0-0.1,0-0.3,0-0.4c-0.7-0.2-1.4-0.2-2-0.2
				c-0.2,0-0.3,0-0.5,0c-4.9,0.1-9.1,0.1-13.3,0c-0.2,0-0.3-0.2-0.3-0.4c0-0.2,0.2-0.3,0.4-0.3c4.2,0.2,8.3,0.1,13.2,0
				c0.2,0,0.3,0,0.5,0c0.8,0,1.7-0.1,2.5,0.3c0.1,0.1,0.2,0.2,0.2,0.3c0,0.2,0,0.5,0,0.7c0,0.5,0,1,0,1.4c0.1,0.6-0.1,0.9-0.3,1.1
				C66.8,26.9,66.4,27,66.1,27z"/>
		</g>
		<g>
			<path class="st2" d="M62.2,59.3c-0.2,0-0.3-0.2-0.3-0.3c0-1.2,0-2.3,0-3.5c0-2.7,0-5.5,0-8.2c0-3-0.7-4.9-2.5-6.4
				c-0.1-0.1-0.2-0.1-0.3-0.2c-0.2-0.1-0.4-0.2-0.5-0.4c-0.3-0.4-0.8-0.7-1.8,0c-1.6,1.2-2.7,2.7-3.1,4.6c-0.1,0.5-0.1,1.1,0,1.7
				c0,0.3,0,0.6,0,0.8V59c0,0.2-0.2,0.3-0.3,0.3s-0.3-0.2-0.3-0.3V47.4c0-0.3,0-0.5,0-0.8c0-0.6-0.1-1.2,0.1-1.8
				c0.4-2,1.6-3.8,3.3-5c1.3-0.9,2.2-0.4,2.7,0.1c0.1,0.1,0.2,0.2,0.4,0.3c0.1,0.1,0.2,0.1,0.3,0.2c1.9,1.6,2.7,3.7,2.7,6.9
				c0,2.7,0,5.5,0,8.2c0,1.2,0,2.3,0,3.5C62.5,59.2,62.3,59.3,62.2,59.3z"/>
		</g>
		<g>
			<path class="st2" d="M17.3,59.3c-0.2,0-0.3-0.2-0.3-0.3c0-1.1,0-2.2,0-3.3c0-2.7,0-5.5,0-8.3l0-0.1c0-1.5,0-3-0.9-4.4
				c-0.6-1-1.4-1.8-2.4-2.6c-0.7-0.5-1.2-0.3-1.9,0.2c-1.7,1.4-2.6,2.7-2.8,4.4c-0.1,0.8-0.1,1.7-0.1,2.5l0,0c0,2.8,0,5.7,0,8.5l0,3
				c0,0.2-0.2,0.3-0.3,0.3S8.2,59.2,8.2,59l0-3c0-2.8,0-5.7,0-8.5l0,0c0-0.8,0-1.7,0.1-2.6c0.2-1.8,1.2-3.3,3-4.8
				c0.4-0.3,1.5-1.2,2.8-0.2c1.1,0.9,1.9,1.7,2.6,2.7c0.9,1.5,0.9,3.1,1,4.7l0,0.1c0,2.8,0,5.6,0,8.3c0,1.1,0,2.2,0,3.3
				C17.6,59.2,17.5,59.3,17.3,59.3z"/>
		</g>
		<g>
			<path class="st2" d="M55.5,59.3C55.5,59.3,55.5,59.3,55.5,59.3c-0.2,0-0.3-0.2-0.3-0.3c0-1,0-2,0-3c0-1.6,0-3.3,0.1-4.9
				c0.1-1.3,1-2.1,1.9-2.8c0.6-0.4,1.1-0.1,1.4,0.1c1.6,1,1.9,2.7,1.9,3.9c0,1.6,0,3.2,0,4.7l0,2c0,0.2-0.2,0.3-0.3,0.3
				s-0.3-0.2-0.3-0.3l0-2c0-1.6,0-3.1,0-4.7c0-1.7-0.5-2.7-1.5-3.4c-0.4-0.2-0.5-0.2-0.6-0.1c-0.9,0.7-1.5,1.3-1.6,2.3
				c-0.1,1.6-0.1,3.3-0.1,4.9c0,1,0,2,0,3C55.9,59.2,55.7,59.3,55.5,59.3z"/>
		</g>
		<g>
			<path class="st2" d="M15.1,59.3c-0.2,0-0.3-0.2-0.3-0.3l0-2.1c0-1.6,0-3.3,0-4.9c0-1.4-0.5-2.4-1.6-3.1c-0.3-0.2-0.4-0.2-0.7,0
				C11.5,49.6,11,50.6,11,52c0,1.6,0,3.3,0,4.9l0,2.1c0,0.2-0.2,0.3-0.3,0.3c-0.2,0-0.3-0.2-0.3-0.3l0-2.1c0-1.6,0-3.3,0-4.9
				c0-1.7,0.6-2.9,1.9-3.7c0.5-0.3,1-0.3,1.5,0c1.3,0.9,1.9,2.1,1.9,3.7c0,1.6,0,3.3,0,4.9l0,2.1C15.5,59.2,15.3,59.3,15.1,59.3z"/>
		</g>
		<g>
			<path class="st2" d="M61.8,46.5h-8.1c-0.2,0-0.3-0.2-0.3-0.3s0.2-0.3,0.3-0.3h8.1c0.2,0,0.3,0.2,0.3,0.3S62,46.5,61.8,46.5z"/>
		</g>
		<g>
			<path class="st2" d="M16.9,46.5H8.8c-0.2,0-0.3-0.2-0.3-0.3s0.2-0.3,0.3-0.3h8.1c0.2,0,0.3,0.2,0.3,0.3S17.1,46.5,16.9,46.5z"/>
		</g>
		<g>
			<path class="st2" d="M45.2,32.2c-0.2,0-0.3-0.2-0.3-0.3V19c0-0.2,0.2-0.3,0.3-0.3s0.3,0.2,0.3,0.3v12.8
				C45.5,32,45.4,32.2,45.2,32.2z"/>
		</g>
		<g>
			<path class="st2" d="M25.5,32.2c-0.2,0-0.3-0.2-0.3-0.3V19c0-0.2,0.2-0.3,0.3-0.3c0.2,0,0.3,0.2,0.3,0.3v12.8
				C25.8,32,25.7,32.2,25.5,32.2z"/>
		</g>
		<g>
			<path class="st2" d="M24.3,18.9c-0.2,0-0.3-0.1-0.3-0.3c0-0.8,0-1.5,0-2.3c0-1.3,0.1-2.7-0.2-4.1c-0.1-0.3,0-0.6,0.1-0.9
				c0-0.2,0.1-0.4,0.1-0.6c0-0.4-0.2-0.8-0.4-1.1c-0.2-0.2-0.5-0.4-0.8-0.4c-0.6,0-1.3,0.7-1.3,1.5c0,1.9,0,3.8,0,5.7l0,2.2
				c0,0.2-0.2,0.3-0.3,0.3c-0.2,0-0.3-0.2-0.3-0.3l0-2.2c0-1.9,0-3.8,0-5.7c0-1.1,0.9-2.2,1.9-2.2c0.5,0,0.9,0.2,1.3,0.6
				c0.4,0.4,0.6,1,0.6,1.6c0,0.2,0,0.5-0.1,0.7c0,0.3-0.1,0.5-0.1,0.7c0.3,1.4,0.2,2.9,0.2,4.2c0,0.7,0,1.5,0,2.2
				C24.7,18.8,24.5,18.9,24.3,18.9C24.3,18.9,24.3,18.9,24.3,18.9z"/>
		</g>
		<g>
			<path class="st2" d="M46.3,18.9C46.3,18.9,46.3,18.9,46.3,18.9c-0.2,0-0.3-0.2-0.3-0.4c0-0.7,0-1.5,0-2.2c0-1.4-0.1-2.8,0.2-4.2
				c0-0.2,0-0.4-0.1-0.7c0-0.2-0.1-0.5-0.1-0.7c0-0.6,0.2-1.2,0.6-1.6c0.4-0.4,0.8-0.6,1.3-0.6c1,0,1.9,1,1.9,2.2c0,1.9,0,3.8,0,5.7
				l0,2.2c0,0.2-0.2,0.3-0.3,0.3s-0.3-0.2-0.3-0.3l0-2.2c0-1.9,0-3.8,0-5.7c0-0.7-0.6-1.5-1.3-1.5c-0.3,0-0.6,0.1-0.8,0.4
				c-0.3,0.3-0.4,0.7-0.4,1.1c0,0.2,0,0.4,0.1,0.6c0.1,0.3,0.1,0.6,0.1,0.9c-0.2,1.4-0.2,2.8-0.2,4.1c0,0.7,0,1.5,0,2.3
				C46.7,18.8,46.5,18.9,46.3,18.9z"/>
		</g>
		<g>
			<path class="st2" d="M35.3,32c-0.2,0-0.3-0.2-0.3-0.3v-4.9c0-0.2,0.2-0.3,0.3-0.3c0.2,0,0.3,0.2,0.3,0.3v4.9
				C35.7,31.8,35.5,32,35.3,32z"/>
		</g>
		<g>
			<path class="st2" d="M4.7,32c-0.2,0-0.3-0.2-0.3-0.3v-4.8c0-0.2,0.2-0.3,0.3-0.3S5,26.6,5,26.8v4.8C5,31.8,4.8,32,4.7,32z"/>
		</g>
		<g>
			<path class="st2" d="M28.8,32c-0.2,0-0.3-0.2-0.3-0.3v-4.8c0-0.2,0.2-0.3,0.3-0.3s0.3,0.2,0.3,0.3v4.8C29.2,31.8,29,32,28.8,32z"
				/>
		</g>
		<g>
			<path class="st2" d="M32,32c-0.2,0-0.3-0.2-0.3-0.3v-4.8c0-0.2,0.2-0.3,0.3-0.3c0.2,0,0.3,0.2,0.3,0.3v4.8
				C32.4,31.8,32.2,32,32,32z"/>
		</g>
		<g>
			<path class="st2" d="M38.6,32c-0.2,0-0.3-0.2-0.3-0.3v-4.8c0-0.2,0.2-0.3,0.3-0.3s0.3,0.2,0.3,0.3v4.8C39,31.8,38.8,32,38.6,32z"
				/>
		</g>
		<g>
			<path class="st2" d="M41.8,32c-0.2,0-0.3-0.2-0.3-0.3v-4.8c0-0.2,0.2-0.3,0.3-0.3s0.3,0.2,0.3,0.3v4.8C42.2,31.8,42,32,41.8,32z"
				/>
		</g>
		<g>
			<path class="st2" d="M66,32c-0.2,0-0.3-0.2-0.3-0.3v-4.8c0-0.2,0.2-0.3,0.3-0.3c0.2,0,0.3,0.2,0.3,0.3v4.8
				C66.3,31.8,66.2,32,66,32z"/>
		</g>
		<g>
			<path class="st2" d="M4.5,59.3c-0.2,0-0.3-0.2-0.3-0.3V35.5c0-0.2,0.2-0.3,0.3-0.3c0.2,0,0.3,0.2,0.3,0.3V59
				C4.9,59.2,4.7,59.3,4.5,59.3z"/>
		</g>
		<g>
			<path class="st2" d="M45.2,26.8H25.5c-0.2,0-0.3-0.2-0.3-0.3c0-0.2,0.2-0.3,0.3-0.3h19.7c0.2,0,0.3,0.2,0.3,0.3
				C45.5,26.7,45.4,26.8,45.2,26.8z"/>
		</g>
		<g>
			<path class="st2" d="M24,12.5h-2.6c-0.2,0-0.3-0.2-0.3-0.3c0-0.2,0.2-0.3,0.3-0.3H24c0.2,0,0.3,0.2,0.3,0.3
				C24.3,12.4,24.2,12.5,24,12.5z"/>
		</g>
		<g>
			<path class="st2" d="M49.2,12.5h-2.6c-0.2,0-0.3-0.2-0.3-0.3c0-0.2,0.2-0.3,0.3-0.3h2.6c0.2,0,0.3,0.2,0.3,0.3
				C49.6,12.4,49.4,12.5,49.2,12.5z"/>
		</g>
		<g>
			<path class="st2" d="M22.7,9.1c-0.2,0-0.3-0.2-0.3-0.3v-2c0-0.2,0.2-0.3,0.3-0.3c0.2,0,0.3,0.2,0.3,0.3v2
				C23.1,8.9,22.9,9.1,22.7,9.1z"/>
		</g>
		<g>
			<path class="st2" d="M47.9,9.1c-0.2,0-0.3-0.2-0.3-0.3v-2c0-0.2,0.2-0.3,0.3-0.3s0.3,0.2,0.3,0.3v2C48.3,8.9,48.1,9.1,47.9,9.1z"
				/>
		</g>
	</g>
</g>
<g>
	<g>
		<g>
			<path class="st2" d="M51.9,16.1L51.9,16.1c-0.3,0-0.5-0.2-0.5-0.5s0.2-0.5,0.5-0.5c0.3,0,0.5,0.2,0.5,0.5S52.2,16.1,51.9,16.1z"
				/>
		</g>
		<g>
			<path class="st2" d="M53.9,16.1L53.9,16.1c-0.3,0-0.5-0.2-0.5-0.5s0.2-0.5,0.5-0.5c0.3,0,0.5,0.2,0.5,0.5S54.2,16.1,53.9,16.1z"
				/>
		</g>
		<g>
			<path class="st2" d="M55.9,16.1L55.9,16.1c-0.3,0-0.5-0.2-0.5-0.5s0.2-0.5,0.5-0.5c0.3,0,0.5,0.2,0.5,0.5S56.2,16.1,55.9,16.1z"
				/>
		</g>
	</g>
	<g>
		<g>
			<path class="st2" d="M51.9,16.6L51.9,16.6c-0.3,0-0.5-0.2-0.5-0.5s0.2-0.5,0.5-0.5c0.3,0,0.5,0.2,0.5,0.5S52.2,16.6,51.9,16.6z"
				/>
		</g>
		<g>
			<path class="st2" d="M53.9,16.6L53.9,16.6c-0.3,0-0.5-0.2-0.5-0.5s0.2-0.5,0.5-0.5c0.3,0,0.5,0.2,0.5,0.5S54.2,16.6,53.9,16.6z"
				/>
		</g>
		<g>
			<path class="st2" d="M55.9,16.6L55.9,16.6c-0.3,0-0.5-0.2-0.5-0.5s0.2-0.5,0.5-0.5c0.3,0,0.5,0.2,0.5,0.5S56.2,16.6,55.9,16.6z"
				/>
		</g>
	</g>
	<g>
		<g>
			<path class="st2" d="M51.9,16.6L51.9,16.6c-0.3,0-0.5-0.2-0.5-0.5s0.2-0.5,0.5-0.5c0.3,0,0.5,0.2,0.5,0.5S52.2,16.6,51.9,16.6z"
				/>
		</g>
		<g>
			<path class="st2" d="M53.9,16.6L53.9,16.6c-0.3,0-0.5-0.2-0.5-0.5s0.2-0.5,0.5-0.5c0.3,0,0.5,0.2,0.5,0.5S54.2,16.6,53.9,16.6z"
				/>
		</g>
		<g>
			<path class="st2" d="M55.9,16.6L55.9,16.6c-0.3,0-0.5-0.2-0.5-0.5s0.2-0.5,0.5-0.5c0.3,0,0.5,0.2,0.5,0.5S56.2,16.6,55.9,16.6z"
				/>
		</g>
	</g>
	<g>
		<path class="st7" d="M65.3,36.9"/>
	</g>
	<g>
		<path class="st2" d="M7.5,35.1H3.8c-0.3,0-0.5-0.2-0.5-0.5v-1.5H1.7v1.5c0,0.3-0.2,0.5-0.5,0.5s-0.5-0.2-0.5-0.5v-2
			c0-0.3,0.2-0.5,0.5-0.5h2.6c0.3,0,0.5,0.2,0.5,0.5v1.5h3.2c0.3,0,0.5,0.2,0.5,0.5C8,34.9,7.8,35.1,7.5,35.1z"/>
	</g>
	<g>
		<path class="st2" d="M13.8,35.1h-3.7c-0.3,0-0.5-0.2-0.5-0.5v-1.5H8v1.5c0,0.3-0.2,0.5-0.5,0.5S7,34.9,7,34.6v-2
			c0-0.3,0.2-0.5,0.5-0.5h2.6c0.3,0,0.5,0.2,0.5,0.5v1.5h3.2c0.3,0,0.5,0.2,0.5,0.5C14.3,34.9,14,35.1,13.8,35.1z"/>
	</g>
	<g>
		<path class="st2" d="M20,35.1h-3.7c-0.3,0-0.5-0.2-0.5-0.5v-1.5h-1.6v1.5c0,0.3-0.2,0.5-0.5,0.5s-0.5-0.2-0.5-0.5v-2
			c0-0.3,0.2-0.5,0.5-0.5h2.6c0.3,0,0.5,0.2,0.5,0.5v1.5H20c0.3,0,0.5,0.2,0.5,0.5C20.5,34.9,20.3,35.1,20,35.1z"/>
	</g>
	<g>
		<path class="st2" d="M64.9,35.1h-3.7c-0.3,0-0.5-0.2-0.5-0.5v-1.5h-1.6v1.5c0,0.3-0.2,0.5-0.5,0.5c-0.3,0-0.5-0.2-0.5-0.5v-2
			c0-0.3,0.2-0.5,0.5-0.5h2.6c0.3,0,0.5,0.2,0.5,0.5v1.5h3.2c0.3,0,0.5,0.2,0.5,0.5C65.4,34.9,65.2,35.1,64.9,35.1z"/>
	</g>
	<g>
		<path class="st2" d="M69.5,35.1h-2c-0.3,0-0.5-0.2-0.5-0.5v-1.5h-1.6v1.5c0,0.3-0.2,0.5-0.5,0.5c-0.3,0-0.5-0.2-0.5-0.5v-2
			c0-0.3,0.2-0.5,0.5-0.5h2.6c0.3,0,0.5,0.2,0.5,0.5v1.5h1.5c0.3,0,0.5,0.2,0.5,0.5C70,34.9,69.8,35.1,69.5,35.1z"/>
	</g>
	<g>
		<path class="st2" d="M70,34.6c0,0.3-0.2,0.5-0.5,0.5c-0.3,0-0.5-0.2-0.5-0.5"/>
	</g>
	<g>
		<g>
			<path class="st7" d="M46.2,13.9"/>
		</g>
		<g>
			<path class="st2" d="M46.2,14.4c-0.3,0-0.5-0.2-0.5-0.5V8.6c0-0.3,0.2-0.5,0.5-0.5h2.5c0.3,0,0.5,0.2,0.5,0.5v1.5h2.6V8.6
				c0-0.3,0.2-0.5,0.5-0.5h2.6c0.3,0,0.5,0.2,0.5,0.5v1.5h2.7V8.6c0-0.3,0.2-0.5,0.5-0.5h2.5c0.3,0,0.5,0.2,0.5,0.5v4.5
				c0,0.3-0.2,0.5-0.5,0.5c-0.3,0-0.5-0.2-0.5-0.5v-4h-1.5v1.5c0,0.3-0.2,0.5-0.5,0.5h-3.7c-0.3,0-0.5-0.2-0.5-0.5V9.1h-1.6v1.5
				c0,0.3-0.2,0.5-0.5,0.5h-3.6c-0.3,0-0.5-0.2-0.5-0.5V9.1h-1.5v4.7C46.7,14.1,46.4,14.4,46.2,14.4z"/>
		</g>
	</g>
	<g>
		<path class="st2" d="M34.3,23.6c-0.3,0-0.5-0.2-0.5-0.5V20c0-0.3,0.2-0.5,0.5-0.5c0.3,0,0.5,0.2,0.5,0.5v3.1
			C34.8,23.4,34.6,23.6,34.3,23.6z"/>
	</g>
	<g>
		<path class="st2" d="M16.5,49h-3.1c-0.3,0-0.5-0.2-0.5-0.5c0-0.3,0.2-0.5,0.5-0.5h3.1c0.3,0,0.5,0.2,0.5,0.5
			C17,48.8,16.8,49,16.5,49z"/>
	</g>
	<g>
		<circle class="st3" cx="10.7" cy="15.7" r="4.9"/>
		<path class="st2" d="M10.7,21.1c-3,0-5.4-2.4-5.4-5.4c0-3,2.4-5.4,5.4-5.4s5.4,2.4,5.4,5.4C16.1,18.7,13.7,21.1,10.7,21.1z
			 M10.7,11.3c-2.4,0-4.4,2-4.4,4.4s2,4.4,4.4,4.4s4.4-2,4.4-4.4S13.1,11.3,10.7,11.3z"/>
	</g>
	<g>
		<polygon class="st3" points="48.1,27.6 20.6,27.6 34.3,23.4 		"/>
		<path class="st2" d="M48.1,28.1H20.6c-0.2,0-0.5-0.2-0.5-0.4c0-0.2,0.1-0.5,0.3-0.6L34.2,23c0.1,0,0.2,0,0.3,0l13.7,4.2
			c0.2,0.1,0.4,0.3,0.3,0.6C48.5,27.9,48.3,28.1,48.1,28.1z M24,27.1h20.7L34.3,24L24,27.1z"/>
	</g>
	<g>
		<path class="st2" d="M48.5,36.5H20.1c-0.3,0-0.5-0.2-0.5-0.5v-6.3c0-0.3,0.2-0.5,0.5-0.5h28.4c0.3,0,0.5,0.2,0.5,0.5V36
			C49,36.3,48.8,36.5,48.5,36.5z M20.6,35.5H48v-5.3H20.6V35.5z"/>
	</g>
	<g>
		<path class="st2" d="M58.7,62.2c-0.3,0-0.5-0.2-0.5-0.5V22.5h-9.1v13.1c0,0.3-0.2,0.5-0.5,0.5c-0.3,0-0.5-0.2-0.5-0.5V22
			c0-0.3,0.2-0.5,0.5-0.5h10.1c0.3,0,0.5,0.2,0.5,0.5v39.7C59.2,62,58.9,62.2,58.7,62.2z"/>
	</g>
	<g>
		<path class="st2" d="M59.9,22.5H47.3c-0.3,0-0.5-0.2-0.5-0.5v-2.5c0-0.3,0.2-0.5,0.5-0.5h12.5c0.3,0,0.5,0.2,0.5,0.5V22
			C60.4,22.2,60.2,22.5,59.9,22.5z M47.8,21.5h11.5V20H47.8V21.5z"/>
	</g>
	<g>
		<g>
			<path class="st2" d="M52.1,25h-3.2c-0.3,0-0.5-0.2-0.5-0.5V22c0-0.3,0.2-0.5,0.5-0.5h3.2c0.3,0,0.5,0.2,0.5,0.5v2.5
				C52.6,24.7,52.3,25,52.1,25z M49.3,24h2.2v-1.5h-2.2V24z"/>
		</g>
		<g>
			<path class="st2" d="M55.4,25h-3.2c-0.3,0-0.5-0.2-0.5-0.5V22c0-0.3,0.2-0.5,0.5-0.5h3.2c0.3,0,0.5,0.2,0.5,0.5v2.5
				C55.9,24.7,55.6,25,55.4,25z M52.6,24h2.2v-1.5h-2.2V24z"/>
		</g>
		<g>
			<path class="st2" d="M58.7,25h-3.2c-0.3,0-0.5-0.2-0.5-0.5V22c0-0.3,0.2-0.5,0.5-0.5h3.2c0.3,0,0.5,0.2,0.5,0.5v2.5
				C59.2,24.7,58.9,25,58.7,25z M55.9,24h2.2v-1.5h-2.2V24z"/>
		</g>
	</g>
	<g>
		<rect x="46.2" y="13.1" class="st3" width="14.9" height="6.3"/>
		<path class="st2" d="M61.1,20H46.2c-0.3,0-0.5-0.2-0.5-0.5v-6.3c0-0.3,0.2-0.5,0.5-0.5h14.9c0.3,0,0.5,0.2,0.5,0.5v6.3
			C61.6,19.7,61.4,20,61.1,20z M46.7,19h13.9v-5.3H46.7V19z"/>
	</g>
	<g>
		<path class="st2" d="M53.7,49H14.9c-0.3,0-0.5-0.2-0.5-0.5v-7.3c0-0.3,0.2-0.5,0.5-0.5h38.8c0.3,0,0.5,0.2,0.5,0.5v7.3
			C54.2,48.8,54,49,53.7,49z M15.4,48h37.8v-6.3H15.4V48z"/>
	</g>
	<g>
		<path class="st2" d="M55.2,62.2H13.4c-0.3,0-0.5-0.2-0.5-0.5V50.5c0-0.3,0.2-0.5,0.5-0.5h41.7c0.3,0,0.5,0.2,0.5,0.5v11.3
			C55.7,62,55.5,62.2,55.2,62.2z M13.9,61.2h40.7V51H13.9V61.2z"/>
	</g>
	<g>
		<polygon class="st3" points="53.7,41.2 14.9,41.2 20,36 48.7,36 		"/>
		<path class="st2" d="M53.7,41.7H14.9c-0.2,0-0.4-0.1-0.5-0.3c-0.1-0.2,0-0.4,0.1-0.5l5-5.2c0.1-0.1,0.2-0.2,0.4-0.2h28.7
			c0.1,0,0.3,0.1,0.4,0.2l5,5.2c0.1,0.1,0.2,0.4,0.1,0.5C54.1,41.6,53.9,41.7,53.7,41.7z M16.1,40.7h36.4l-4.1-4.2H20.2L16.1,40.7z"
			/>
	</g>
	<g>
		<g>
			<path class="st2" d="M44.1,36.3c-0.3,0-0.5-0.2-0.5-0.5v-1.2c0-1-0.5-1.7-1.3-1.7c-1,0-1.2,1.1-1.2,1.7c0,0.4,0,0.6,0,0.7
				c0,0.1,0,0.2,0,0.3c0,0.3-0.2,0.5-0.5,0.5c-0.3,0-0.5-0.2-0.5-0.5c0,0,0-0.1,0-0.1c0-0.2,0-0.5,0-1c0.1-2,1.2-2.7,2.3-2.7
				c1.3,0,2.2,1.1,2.2,2.7v1.2C44.6,36.1,44.3,36.3,44.1,36.3z"/>
		</g>
		<g>
			<path class="st2" d="M36.1,36.3c-0.3,0-0.5-0.2-0.5-0.5v-1.2c0-1-0.5-1.7-1.3-1.7c-1,0-1.2,1.1-1.2,1.7c0,0.4,0,0.6,0,0.7
				c0,0.1,0,0.2,0,0.3c0,0.3-0.2,0.5-0.5,0.5s-0.5-0.2-0.5-0.5c0,0,0-0.1,0-0.1c0-0.2,0-0.5,0-1c0.1-2,1.2-2.7,2.3-2.7
				c1.3,0,2.2,1.1,2.2,2.7v1.2C36.6,36.1,36.3,36.3,36.1,36.3z"/>
		</g>
		<g>
			<path class="st2" d="M28.1,36.3c-0.3,0-0.5-0.2-0.5-0.5v-1.2c0-1-0.5-1.7-1.3-1.7c-1,0-1.2,1.1-1.2,1.7c0,0.4,0,0.6,0,0.7
				c0,0.1,0,0.2,0,0.3c0,0.3-0.2,0.5-0.5,0.5s-0.5-0.2-0.5-0.5c0,0,0-0.1,0-0.1c0-0.2,0-0.5,0-1c0.1-2,1.2-2.7,2.3-2.7
				c1.3,0,2.2,1.1,2.2,2.7v1.2C28.6,36.1,28.3,36.3,28.1,36.3z"/>
		</g>
	</g>
	<g>
		<path class="st2" d="M55.4,34.8c-0.3,0-0.5-0.2-0.5-0.5v-1.2c0-1-0.5-1.7-1.3-1.7c-1,0-1.2,1.1-1.2,1.7c0,0.4,0,0.6,0,0.7
			c0,0.1,0,0.2,0,0.3c0,0.3-0.2,0.5-0.5,0.5c-0.3,0-0.5-0.2-0.5-0.5c0,0,0-0.1,0-0.1c0-0.2,0-0.5,0-1c0.1-2,1.2-2.7,2.3-2.7
			c1.3,0,2.2,1.1,2.2,2.7v1.2C55.9,34.6,55.6,34.8,55.4,34.8z"/>
	</g>
	<g>
		<g>
			<g>
				<path class="st2" d="M26.3,39.6L26.3,39.6c-0.3,0-0.5-0.2-0.5-0.5c0-0.3,0.2-0.5,0.5-0.5s0.5,0.2,0.5,0.5
					C26.8,39.3,26.6,39.6,26.3,39.6z"/>
			</g>
			<g>
				<path class="st2" d="M28.3,39.6L28.3,39.6c-0.3,0-0.5-0.2-0.5-0.5c0-0.3,0.2-0.5,0.5-0.5s0.5,0.2,0.5,0.5
					C28.8,39.3,28.6,39.6,28.3,39.6z"/>
			</g>
			<g>
				<g>
					<path class="st2" d="M20.3,39.6L20.3,39.6c-0.3,0-0.5-0.2-0.5-0.5c0-0.3,0.2-0.5,0.5-0.5s0.5,0.2,0.5,0.5
						C20.8,39.3,20.6,39.6,20.3,39.6z"/>
				</g>
				<g>
					<path class="st2" d="M22.3,39.6L22.3,39.6c-0.3,0-0.5-0.2-0.5-0.5c0-0.3,0.2-0.5,0.5-0.5s0.5,0.2,0.5,0.5
						C22.8,39.3,22.6,39.6,22.3,39.6z"/>
				</g>
				<g>
					<path class="st2" d="M24.3,39.6L24.3,39.6c-0.3,0-0.5-0.2-0.5-0.5c0-0.3,0.2-0.5,0.5-0.5s0.5,0.2,0.5,0.5
						C24.8,39.3,24.6,39.6,24.3,39.6z"/>
				</g>
			</g>
		</g>
		<g>
			<g>
				<path class="st2" d="M36.3,39.6L36.3,39.6c-0.3,0-0.5-0.2-0.5-0.5c0-0.3,0.2-0.5,0.5-0.5c0.3,0,0.5,0.2,0.5,0.5
					C36.8,39.3,36.6,39.6,36.3,39.6z"/>
			</g>
			<g>
				<path class="st2" d="M38.3,39.6L38.3,39.6c-0.3,0-0.5-0.2-0.5-0.5c0-0.3,0.2-0.5,0.5-0.5s0.5,0.2,0.5,0.5
					C38.8,39.3,38.6,39.6,38.3,39.6z"/>
			</g>
			<g>
				<g>
					<path class="st2" d="M30.3,39.6L30.3,39.6c-0.3,0-0.5-0.2-0.5-0.5c0-0.3,0.2-0.5,0.5-0.5s0.5,0.2,0.5,0.5
						C30.8,39.3,30.6,39.6,30.3,39.6z"/>
				</g>
				<g>
					<path class="st2" d="M32.3,39.6L32.3,39.6c-0.3,0-0.5-0.2-0.5-0.5c0-0.3,0.2-0.5,0.5-0.5c0.3,0,0.5,0.2,0.5,0.5
						C32.8,39.3,32.6,39.6,32.3,39.6z"/>
				</g>
				<g>
					<path class="st2" d="M34.3,39.6L34.3,39.6c-0.3,0-0.5-0.2-0.5-0.5c0-0.3,0.2-0.5,0.5-0.5c0.3,0,0.5,0.2,0.5,0.5
						C34.8,39.3,34.6,39.6,34.3,39.6z"/>
				</g>
			</g>
		</g>
		<g>
			<g>
				<path class="st2" d="M46.3,39.6L46.3,39.6c-0.3,0-0.5-0.2-0.5-0.5c0-0.3,0.2-0.5,0.5-0.5c0.3,0,0.5,0.2,0.5,0.5
					C46.8,39.3,46.6,39.6,46.3,39.6z"/>
			</g>
			<g>
				<path class="st2" d="M48.3,39.6L48.3,39.6c-0.3,0-0.5-0.2-0.5-0.5c0-0.3,0.2-0.5,0.5-0.5c0.3,0,0.5,0.2,0.5,0.5
					C48.8,39.3,48.6,39.6,48.3,39.6z"/>
			</g>
			<g>
				<g>
					<path class="st2" d="M40.3,39.6L40.3,39.6c-0.3,0-0.5-0.2-0.5-0.5c0-0.3,0.2-0.5,0.5-0.5c0.3,0,0.5,0.2,0.5,0.5
						C40.8,39.3,40.6,39.6,40.3,39.6z"/>
				</g>
				<g>
					<path class="st2" d="M42.3,39.6L42.3,39.6c-0.3,0-0.5-0.2-0.5-0.5c0-0.3,0.2-0.5,0.5-0.5c0.3,0,0.5,0.2,0.5,0.5
						C42.8,39.3,42.6,39.6,42.3,39.6z"/>
				</g>
				<g>
					<path class="st2" d="M44.3,39.6L44.3,39.6c-0.3,0-0.5-0.2-0.5-0.5c0-0.3,0.2-0.5,0.5-0.5c0.3,0,0.5,0.2,0.5,0.5
						C44.8,39.3,44.6,39.6,44.3,39.6z"/>
				</g>
			</g>
		</g>
	</g>
	<g>
		<g>
			<path class="st2" d="M41.7,62.2c-0.3,0-0.5-0.2-0.5-0.5v-3.6c0-1.8,0.5-3.2,1.4-4.2c0.7-0.7,1.7-1.1,2.8-1.1
				c2.5,0.1,4.2,2.2,4.2,5.3v3c0,0.3-0.2,0.5-0.5,0.5c-0.3,0-0.5-0.2-0.5-0.5v-3c0-2.6-1.3-4.3-3.3-4.3c-0.8,0-1.5,0.2-2.1,0.8
				c-0.7,0.7-1.1,1.9-1.1,3.4v3.6C42.2,62,42,62.2,41.7,62.2z"/>
		</g>
		<g>
			<path class="st2" d="M30.6,62.2c-0.3,0-0.5-0.2-0.5-0.5v-3.6c0-1.8,0.5-3.2,1.4-4.2c0.7-0.7,1.7-1.1,2.8-1.1
				c2.5,0.1,4.2,2.2,4.2,5.3v3c0,0.3-0.2,0.5-0.5,0.5c-0.3,0-0.5-0.2-0.5-0.5v-3c0-2.6-1.3-4.3-3.3-4.3c-0.8,0-1.5,0.2-2.1,0.8
				c-0.7,0.7-1.1,1.9-1.1,3.4v3.6C31.1,62,30.8,62.2,30.6,62.2z"/>
		</g>
		<g>
			<path class="st2" d="M19.5,62.2c-0.3,0-0.5-0.2-0.5-0.5v-3.6c0-1.8,0.5-3.2,1.4-4.2c0.7-0.7,1.7-1.1,2.8-1.1
				c2.5,0.1,4.2,2.2,4.2,5.3v3c0,0.3-0.2,0.5-0.5,0.5s-0.5-0.2-0.5-0.5v-3c0-2.6-1.3-4.3-3.3-4.3c-0.8,0-1.5,0.2-2.1,0.8
				c-0.7,0.7-1.1,1.9-1.1,3.4v3.6C20,62,19.7,62.2,19.5,62.2z"/>
		</g>
	</g>
	<g>
		<path class="st2" d="M17.4,48.7c-0.3,0-0.5-0.2-0.5-0.5v-6.6c0-0.3,0.2-0.5,0.5-0.5s0.5,0.2,0.5,0.5v6.6
			C17.9,48.5,17.7,48.7,17.4,48.7z"/>
	</g>
	<g>
		<path class="st2" d="M51.2,48.7c-0.3,0-0.5-0.2-0.5-0.5v-6.6c0-0.3,0.2-0.5,0.5-0.5c0.3,0,0.5,0.2,0.5,0.5v6.6
			C51.7,48.5,51.5,48.7,51.2,48.7z"/>
	</g>
	<g>
		<g>
			<path class="st2" d="M51.6,16.8L51.6,16.8c-0.3,0-0.5-0.2-0.5-0.5s0.2-0.5,0.5-0.5s0.5,0.2,0.5,0.5S51.9,16.8,51.6,16.8z"/>
		</g>
		<g>
			<path class="st2" d="M53.6,16.8L53.6,16.8c-0.3,0-0.5-0.2-0.5-0.5s0.2-0.5,0.5-0.5c0.3,0,0.5,0.2,0.5,0.5S53.9,16.8,53.6,16.8z"
				/>
		</g>
		<g>
			<path class="st2" d="M55.6,16.8L55.6,16.8c-0.3,0-0.5-0.2-0.5-0.5s0.2-0.5,0.5-0.5c0.3,0,0.5,0.2,0.5,0.5S55.9,16.8,55.6,16.8z"
				/>
		</g>
	</g>
	<g>
		<g>
			<path class="st2" d="M51.6,27.8L51.6,27.8c-0.3,0-0.5-0.2-0.5-0.5s0.2-0.5,0.5-0.5s0.5,0.2,0.5,0.5S51.9,27.8,51.6,27.8z"/>
		</g>
		<g>
			<path class="st2" d="M53.6,27.8L53.6,27.8c-0.3,0-0.5-0.2-0.5-0.5s0.2-0.5,0.5-0.5c0.3,0,0.5,0.2,0.5,0.5S53.9,27.8,53.6,27.8z"
				/>
		</g>
		<g>
			<path class="st2" d="M55.6,27.8L55.6,27.8c-0.3,0-0.5-0.2-0.5-0.5s0.2-0.5,0.5-0.5c0.3,0,0.5,0.2,0.5,0.5S55.9,27.8,55.6,27.8z"
				/>
		</g>
	</g>
	<g>
		<g>
			<path class="st2" d="M30.5,49h-7.3c-0.3,0-0.5-0.2-0.5-0.5v-7.3c0-0.3,0.2-0.5,0.5-0.5h7.3c0.3,0,0.5,0.2,0.5,0.5v7.3
				C31,48.8,30.8,49,30.5,49z M23.7,48H30v-6.3h-6.3V48z"/>
		</g>
		<g>
			<path class="st2" d="M37.9,49h-7.3c-0.3,0-0.5-0.2-0.5-0.5v-7.3c0-0.3,0.2-0.5,0.5-0.5h7.3c0.3,0,0.5,0.2,0.5,0.5v7.3
				C38.4,48.8,38.2,49,37.9,49z M31.2,48h6.3v-6.3h-6.3V48z"/>
		</g>
		<g>
			<path class="st2" d="M45.4,49h-7.3c-0.3,0-0.5-0.2-0.5-0.5v-7.3c0-0.3,0.2-0.5,0.5-0.5h7.3c0.3,0,0.5,0.2,0.5,0.5v7.3
				C45.9,48.8,45.7,49,45.4,49z M38.7,48h6.3v-6.3h-6.3V48z"/>
		</g>
	</g>
	<g>
		<path class="st2" d="M55.2,49h-3.1c-0.3,0-0.5-0.2-0.5-0.5c0-0.3,0.2-0.5,0.5-0.5h3.1c0.3,0,0.5,0.2,0.5,0.5
			C55.7,48.8,55.5,49,55.2,49z"/>
	</g>
	<g>
		<path class="st2" d="M56,35h-4.9c-0.3,0-0.5-0.2-0.5-0.5c0-0.3,0.2-0.5,0.5-0.5H56c0.3,0,0.5,0.2,0.5,0.5C56.5,34.8,56.3,35,56,35
			z"/>
	</g>
</g>
</svg>
