<svg xmlns="http://www.w3.org/2000/svg" width="80" height="80" viewBox="0 0 80 80"><g stroke="#666" stroke-width="2" stroke-linecap="round" stroke-linejoin="round" stroke-miterlimit="10"><path fill="none" d="M22.064 23s6.5-5.166 5.832-7.5c0 0 2.5 3.834 9 2.5 0 0 10.002-1 10.668 4 0 0 4-22.5-16.834-16.166 0 0-13.332.166-8.666 17.166z"/><path fill="none" d="M47.514 20.666c.06.627.092 1.268.092 1.916C47.606 31.557 41.633 39 34.73 39c-6.904 0-12.584-7.234-12.584-16.21M39.938 69.54h-27.5s-2.625.25-2.625-3.25v-9.374s.625-9.375 9-9.375c0 0 10.75-1 10.75-9.374"/><path fill="none" d="M29.438 69.54h27.5s2.625.25 2.625-3.25v-9.374s-.625-9.375-9-9.375c0 0-10.75-1-10.75-9.374M23.813 46.416s9.813 11.938 21.5.25"/><circle fill="#FFF" cx="58.125" cy="63.229" r="12.063"/><path fill="none" d="M57.938 57.29v10.876M53.188 62.666h9.5"/></g></svg>