<?xml version="1.0" encoding="utf-8"?>
<!-- Generator: Adobe Illustrator 23.0.3, SVG Export Plug-In . SVG Version: 6.00 Build 0)  -->
<svg version="1.1" id="Student_Profile" xmlns="http://www.w3.org/2000/svg" xmlns:xlink="http://www.w3.org/1999/xlink" x="0px"
	 y="0px" viewBox="0 0 2000 1500" style="enable-background:new 0 0 2000 1500;" xml:space="preserve">
<style type="text/css">
	.st0{fill-rule:evenodd;clip-rule:evenodd;fill:#216B75;}
	.st1{fill-rule:evenodd;clip-rule:evenodd;fill:#FFFFFF;}
	.st2{fill-rule:evenodd;clip-rule:evenodd;fill:#C3E6F9;}
	.st3{fill-rule:evenodd;clip-rule:evenodd;fill:#B6D957;}
	.st4{fill-rule:evenodd;clip-rule:evenodd;fill:#E6E6E6;}
	.st5{fill-rule:evenodd;clip-rule:evenodd;fill:#FBD260;}
	.st6{fill-rule:evenodd;clip-rule:evenodd;fill:#FBBEAC;}
	.st7{fill-rule:evenodd;clip-rule:evenodd;fill:#ADD7ED;}
	.st8{fill-rule:evenodd;clip-rule:evenodd;fill:#FFEC47;}
</style>
<g>
	<path class="st0" d="M992.5,1284.2h-49.8c-4.6,0-8.4,3.7-8.4,8.4c0,4.6,3.7,8.4,8.4,8.4h49.8c4.6,0,8.4-3.7,8.4-8.4
		S997.1,1284.2,992.5,1284.2z"/>
	<path class="st0" d="M901.3,1284.2h-321c-4.6,0-8.4,3.7-8.4,8.4c0,4.6,3.7,8.4,8.4,8.4h321c4.6,0,8.4-3.7,8.4-8.4
		S905.9,1284.2,901.3,1284.2z"/>
	<path class="st0" d="M538.5,1283.2H437.9c-2.8,0-5.1,3-5.1,6.7c0,3.7,2.2,6.7,5.1,8.3h100.6c2.8-1.6,5.1-4.6,5.1-8.3
		S541.3,1283.2,538.5,1283.2z"/>
</g>
<g>
	<path class="st1" d="M942.4,955.6l-52.8,336.9c120.2,0,240.4,0,360.6,0l-52.8-336.9C1112.4,955.6,1027.4,955.6,942.4,955.6z"/>
	<path class="st0" d="M942.4,947.3h-7.1c-18.5,117.9-37,235.8-55.4,353.6h380l-55.4-353.6L942.4,947.3L942.4,947.3z M899.4,1284.2
		L949.6,964h240.7l50.2,320.2H899.4L899.4,1284.2z"/>
	<path class="st2" d="M1286.8,1263.2H853c-4.8,0-8.7,3.9-8.7,8.7v11.9c0,4.8,3.9,8.7,8.7,8.7h433.8c4.8,0,8.7-3.9,8.7-8.7v-11.9
		C1295.5,1267.1,1291.6,1263.2,1286.8,1263.2z"/>
	<path class="st0" d="M1298.8,1259.8c-3.1-3.1-7.3-5-12-5H853c-4.7,0-9,1.9-12.1,5s-5,7.4-5,12.1v11.9c0,4.7,1.9,8.9,5,12l0,0
		c3.1,3.1,7.4,5,12.1,5h433.8c4.7,0,8.9-1.9,12-5l0,0c3.1-3.1,5-7.3,5-12v-11.9C1303.9,1267.2,1301.9,1262.9,1298.8,1259.8
		L1298.8,1259.8z M1287.1,1283.8c0,0.1,0,0.2-0.1,0.2c-0.1,0.1-0.2,0.1-0.3,0.1H852.9c-0.1,0-0.2,0-0.2-0.1l0,0c0,0-0.1-0.1-0.1-0.2
		v-11.9c0-0.1,0-0.2,0.1-0.2c0.1-0.1,0.2-0.1,0.2-0.1h433.8c0.1,0,0.2,0,0.3,0.1l0,0c0.1,0.1,0.1,0.2,0.1,0.2V1283.8L1287.1,1283.8z
		"/>
	<path class="st3" d="M1659.8,267.1H504.9c-24.8,0-45,20.3-45,45v739c0,24.8,20.3,45,45,45h1154.9c24.8,0,45-20.3,45-45v-739
		C1704.9,287.3,1684.6,267.1,1659.8,267.1z"/>
	<path class="st2" d="M459.9,1051.1c0,24.8,18.3,45,40.6,45h1163.8c22.3,0,40.6-20.3,40.6-45V942h-1245L459.9,1051.1L459.9,1051.1z"
		/>
	<rect x="535.7" y="338.4" class="st2" width="1093.5" height="530.6"/>
	<path class="st0" d="M1659.8,258.7H824.3c-4.6,0-8.4,3.7-8.4,8.4c0,4.6,3.7,8.4,8.4,8.4h835.5c10.1,0,19.3,4.1,25.9,10.8
		c6.7,6.7,10.8,15.8,10.8,25.9v739c0,10.1-4.1,19.2-10.8,25.9c-6.7,6.6-15.8,10.8-25.9,10.8H504.9c-10.1,0-19.3-4.1-25.9-10.8
		c-6.7-6.6-10.8-15.8-10.8-25.9v-739c0-10.1,4.1-19.2,10.8-25.9c6.6-6.7,15.8-10.8,25.9-10.8h155.6c4.6,0,8.4-3.7,8.4-8.4
		c0-4.6-3.7-8.4-8.4-8.4H504.9c-14.7,0-28,6-37.7,15.7s-15.7,23-15.7,37.7v739c0,14.7,6,28,15.7,37.7s23,15.7,37.7,15.7h1154.9
		c14.7,0,28-6,37.7-15.7s15.7-23,15.7-37.7v-739c0-14.7-6-28-15.7-37.7C1687.9,264.7,1674.5,258.7,1659.8,258.7z"/>
	<circle class="st0" cx="1082.4" cy="1019.1" r="34"/>
	<path class="st0" d="M1087.9,338.4c0,4.6,3.7,8.4,8.4,8.4h524.5v513.9H544v-514h353.2c4.6,0,8.4-3.7,8.4-8.4c0-4.6-3.7-8.4-8.4-8.4
		H527.3v547.3h1110.2V330h-541.2C1091.7,330,1087.9,333.8,1087.9,338.4z"/>
	<path class="st1" d="M797.3,258.7h-45.5c-4.6,0-8.4,3.7-8.4,8.4c0,4.6,3.7,8.4,8.4,8.4h45.5c4.6,0,8.4-3.7,8.4-8.4
		C805.6,262.5,801.9,258.7,797.3,258.7z"/>
	<path class="st1" d="M1056.3,330h-94.8c-4.6,0-8.4,3.7-8.4,8.4c0,4.6,3.7,8.4,8.4,8.4h94.8c4.6,0,8.4-3.7,8.4-8.4
		C1064.7,333.8,1060.9,330,1056.3,330z"/>
	<path class="st0" d="M1041.8,933.6h-65.7c-4.6,0-8.4,3.7-8.4,8.4c0,4.6,3.7,8.4,8.4,8.4h65.7c4.6,0,8.4-3.7,8.4-8.4
		C1050.1,937.4,1046.4,933.6,1041.8,933.6z"/>
	<path class="st0" d="M1704.9,933.6h-543.7c-4.6,0-8.4,3.7-8.4,8.4c0,4.6,3.7,8.4,8.4,8.4h543.7c4.6,0,8.4-3.7,8.4-8.4
		C1713.2,937.4,1709.5,933.6,1704.9,933.6z"/>
</g>
<g>
	<g>
		<rect x="621.4" y="478.8" class="st1" width="230.5" height="53.6"/>
		<rect x="851.9" y="478.8" class="st4" width="230.5" height="53.6"/>
		<rect x="1082.4" y="478.8" class="st1" width="230.5" height="53.6"/>
		<rect x="1312.9" y="478.8" class="st4" width="230.5" height="53.6"/>
	</g>
	<path class="st0" d="M1554.3,768.9c-5.4-5.4-12.9-8.8-21.1-8.8c-8.3,0-15.7,3.3-21.1,8.8l0,0c-5.4,5.4-8.8,12.9-8.8,21.1
		c0,8.3,3.3,15.7,8.8,21.2c5.4,5.4,12.9,8.8,21.1,8.8s15.7-3.4,21.1-8.8l0,0c5.4-5.4,8.8-12.9,8.8-21.2
		C1563.1,781.8,1559.7,774.3,1554.3,768.9L1554.3,768.9z M1542.5,799.3L1542.5,799.3c-2.4,2.4-5.7,3.9-9.3,3.9s-6.9-1.5-9.3-3.9
		s-3.9-5.7-3.9-9.3c0-3.7,1.5-7,3.8-9.3l0,0c2.4-2.4,5.7-3.9,9.3-3.9c3.7,0,7,1.5,9.3,3.8l0,0c2.4,2.4,3.8,5.7,3.8,9.3
		C1546.4,793.7,1544.9,797,1542.5,799.3z"/>
	<g>
		<path class="st5" d="M758.1,396.7H641.8c-11.2,0-20.4,9.2-20.4,20.4s9.2,20.4,20.4,20.4h116.3c11.2,0,20.4-9.2,20.4-20.4
			C778.6,405.9,769.4,396.7,758.1,396.7z"/>
		<path class="st0" d="M778.4,396.8c-5.2-5.2-12.4-8.5-20.3-8.5H641.8c-7.9,0-15.1,3.2-20.3,8.5l0,0c-5.2,5.2-8.5,12.4-8.5,20.3
			s3.2,15.1,8.5,20.3c5.2,5.2,12.4,8.5,20.3,8.5h116.3c7.9,0,15.1-3.2,20.3-8.5l0,0c5.2-5.2,8.5-12.4,8.5-20.3
			C786.9,409.3,783.7,402.1,778.4,396.8L778.4,396.8z M766.7,425.7L766.7,425.7c-2.2,2.2-5.2,3.6-8.5,3.6H641.9
			c-3.3,0-6.3-1.4-8.5-3.6s-3.6-5.2-3.6-8.5s1.3-6.4,3.5-8.5l0,0c2.2-2.2,5.2-3.6,8.5-3.6h116.3c3.3,0,6.4,1.3,8.5,3.5l0,0
			c2.2,2.2,3.5,5.2,3.5,8.5C770.2,420.5,768.9,423.5,766.7,425.7z"/>
	</g>
	<g>
		<rect x="621.4" y="566.2" class="st3" width="242.2" height="242.2"/>
		<path class="st0" d="M613,557.8v258.9h258.9V557.8H621.4H613z M629.7,574.5h225.5V800H629.7V574.5z"/>
		<path class="st0" d="M742.5,708c-54.8,0-99.1,44.4-99.1,99.1c0,0.4,0,0.8,0,1.2h198.3c0-0.4,0-0.8,0-1.2
			C841.6,752.4,797.2,708,742.5,708z"/>
		<path class="st6" d="M742.5,603.1c-27.1,0-49.3,22.2-49.3,49.3v21.9c0,27.1,22.2,49.3,49.3,49.3s49.3-22.2,49.3-49.3v-21.9
			C791.7,625.3,769.6,603.1,742.5,603.1z"/>
		<g>
			<path class="st6" d="M694.3,648.9c-4.3,0-7.7,3.5-7.7,7.7v5.9c0,4.3,3.5,7.7,7.7,7.7c4.3,0,7.7-3.5,7.7-7.7v-5.9
				C702.1,652.3,698.6,648.9,694.3,648.9z"/>
			<path class="st6" d="M790.6,648.9c-4.3,0-7.7,3.5-7.7,7.7v5.9c0,4.3,3.5,7.7,7.7,7.7c4.3,0,7.7-3.5,7.7-7.7v-5.9
				C798.4,652.3,794.9,648.9,790.6,648.9z"/>
		</g>
		<path class="st6" d="M742.5,680.2L742.5,680.2c-13.7,0-24.9,11.2-24.9,24.9v11.2c0,13.7,11.2,24.9,24.9,24.9l0,0
			c13.7,0,24.9-11.2,24.9-24.9v-11.1C767.4,691.5,756.2,680.2,742.5,680.2z"/>
		<path class="st0" d="M793.8,620.7c0.3-1.3,0.5-2.6,0.5-4c0-9.6-7.9-17.5-17.5-17.5h-58.6c-6,0-11.3,3.1-14.5,7.7
			c-0.9-0.2-1.9-0.4-2.9-0.4c-6.4,0-11.7,5.2-11.7,11.7c0,1.2,0.2,2.4,0.6,3.6c-2.4,2-3.9,4.9-3.9,8.2v15.9
			c0,5.9,4.8,10.7,10.7,10.7s10.7-4.8,10.7-10.7v-2.3c5.2-0.5,9.4-4.4,10.4-9.4h0.5H765c1,5.4,5.8,9.5,11.4,9.5c0.4,0,0.8,0,1.2-0.1
			v2.3c0,5.9,4.8,10.7,10.7,10.7s10.7-4.8,10.7-10.7V630C799.2,626.1,797,622.6,793.8,620.7z"/>
		<path class="st0" d="M753.7,689.4c-1.7-0.4-3.4,0.5-3.8,2.2s-1.4,3.1-2.7,4.1s-2.9,1.6-4.7,1.6c-1.7,0-3.4-0.6-4.7-1.6
			s-2.3-2.4-2.7-4.1c-0.4-1.7-2.2-2.7-3.8-2.2c-1.7,0.4-2.7,2.2-2.2,3.8c0.8,3,2.6,5.6,5,7.4c2.4,1.8,5.3,2.9,8.5,2.9
			c3.1,0,6.1-1.1,8.5-2.9c2.4-1.8,4.2-4.4,5-7.4C756.4,691.6,755.4,689.8,753.7,689.4z"/>
		<circle class="st0" cx="724" cy="653.5" r="6.4"/>
		<circle class="st0" cx="756" cy="654.5" r="6.4"/>
	</g>
	<rect x="921.4" y="737.8" class="st7" width="354.4" height="70.6"/>
	<rect x="921.4" y="566.2" class="st7" width="354.4" height="70.6"/>
	<rect x="921.4" y="652" class="st7" width="354.4" height="70.6"/>
</g>
<g>
	<path class="st0" d="M941.5,933.6H378.4c-4.6,0-8.4,3.7-8.4,8.4c0,4.6,3.7,8.4,8.4,8.4h563.1c4.6,0,8.4-3.7,8.4-8.4
		C949.8,937.4,946.1,933.6,941.5,933.6z"/>
</g>
<g>
	<rect x="686.5" y="1132" class="st3" width="142.6" height="160.5"/>
	<path class="st0" d="M678.1,1123.7v177.2h159.3v-177.2H686.5H678.1z M694.8,1140.4h125.8v143.8H694.8V1140.4z"/>
	<polygon class="st1" points="644.2,1132 757.7,1228.8 871.2,1132 757.7,871.2 	"/>
	<path class="st0" d="M757.7,862.8c-4.6,0-8.4,3.7-8.4,8.4v168.3c0,4.6,3.7,8.4,8.4,8.4c4.6,0,8.4-3.7,8.4-8.4V871.2
		C766.1,866.6,762.3,862.8,757.7,862.8z"/>
	<path class="st0" d="M757.7,1031.1c-9.6,0-18.2,3.9-24.5,10.1s-10.1,14.9-10.1,24.5s3.9,18.2,10.1,24.5s14.9,10.1,24.5,10.1
		s18.2-3.9,24.5-10.1s10.1-14.9,10.1-24.5s-3.9-18.2-10.1-24.5S767.3,1031.1,757.7,1031.1z M770.4,1078.4c-3.2,3.2-7.7,5.2-12.7,5.2
		c-4.9,0-9.4-2-12.7-5.2c-3.2-3.2-5.2-7.7-5.2-12.7c0-4.9,2-9.4,5.2-12.7c3.2-3.2,7.7-5.2,12.7-5.2c4.9,0,9.4,2,12.7,5.2
		c3.2,3.2,5.2,7.7,5.2,12.7S773.6,1075.2,770.4,1078.4z"/>
	<path class="st0" d="M711.1,957.5c-1.8,4.2,0.1,9.1,4.3,11c4.2,1.8,9.1-0.1,11-4.3l31.4-72.1l103.4,237.6l-103.4,88.2l-103.4-88.2
		l40-91.8c1.8-4.2-0.1-9.1-4.3-11c-4.2-1.8-9.1,0.1-11,4.3l-44.9,103.2l123.6,105.4l123.6-105.4L757.7,850.3L711.1,957.5z"/>
	<path class="st0" d="M713.4,973.2c-4.2-1.8-9.1,0.1-11,4.3l-5.4,12.4c-1.8,4.2,0.1,9.1,4.3,11c4.2,1.8,9.1-0.1,11-4.3l5.4-12.4
		C719.5,979.9,717.6,975,713.4,973.2z"/>
	<rect x="740.1" y="853.5" class="st1" width="35.3" height="35.3"/>
	<path class="st0" d="M731.7,845.2v52h52v-52h-43.6H731.7z M748.5,861.9H767v18.5h-18.5V861.9z"/>
</g>
<g>
	<path class="st0" d="M1444.6,900.2h-114.7c-14.8,0-28.2,6-37.9,15.8h-0.1c-9.7,9.7-15.8,23.2-15.8,38v30.6
		c0,13.6,11,24.7,24.7,24.7c13.6,0,24.7-11,24.7-24.7V954c0-1.2,0.5-2.3,1.3-3.1l0,0c0.8-0.8,1.9-1.3,3.2-1.3h114.7
		c1.2,0,2.3,0.5,3.1,1.3s1.3,1.9,1.3,3.1v30.6c0,13.6,11,24.7,24.7,24.7c13.6,0,24.7-11,24.7-24.7V954c0-14.8-6-28.3-15.8-38
		S1459.4,900.2,1444.6,900.2z"/>
	<path class="st8" d="M1549,984.6h-323.5c-34.8,0-63.3,28.5-63.3,63.3v181.3c0,34.8,28.5,63.3,63.3,63.3H1549
		c34.8,0,63.3-28.5,63.3-63.3v-181.3C1612.3,1013.1,1583.8,984.6,1549,984.6z"/>
	<path class="st0" d="M1549,976.2h-323.5c-19.7,0-37.6,8.1-50.6,21c-13,13-21,30.9-21,50.6v181.3c0,19.7,8.1,37.6,21,50.6
		c13,13,30.9,21,50.6,21H1549c19.7,0,37.6-8.1,50.6-21c13-13,21-30.9,21-50.6v-181.3c0-19.7-8.1-37.6-21-50.6
		C1586.6,984.3,1568.7,976.2,1549,976.2z M1603.9,1229.2c0,15.1-6.2,28.8-16.1,38.8c-10,10-23.7,16.1-38.8,16.1h-323.5
		c-15.1,0-28.8-6.2-38.8-16.1c-10-10-16.1-23.7-16.1-38.8v-181.3c0-15.1,6.2-28.8,16.1-38.8c10-10,23.7-16.1,38.8-16.1H1549
		c15.1,0,28.8,6.2,38.8,16.1c10,10,16.1,23.7,16.1,38.8V1229.2L1603.9,1229.2z"/>
	<path class="st1" d="M1549,984.6h-323.5c-34.8,0-63.3,28.5-63.3,63.3v60.2h450.1v-60.2C1612.3,1013.1,1583.8,984.6,1549,984.6z"/>
	<path class="st0" d="M1549,976.2h-323.5c-19.7,0-37.6,8.1-50.6,21c-13,13-21,30.9-21,50.6v68.6h466.8v-68.6
		c0-19.7-8.1-37.6-21-50.6C1586.6,984.3,1568.7,976.2,1549,976.2z M1603.9,1099.7h-433.4v-51.8c0-15.1,6.2-28.8,16.1-38.8
		c10-10,23.7-16.1,38.8-16.1h323.5c15.1,0,28.8,6.2,38.8,16.1c10,10,16.1,23.7,16.1,38.8L1603.9,1099.7L1603.9,1099.7z"/>
	<circle class="st3" cx="1387.2" cy="1125" r="42.3"/>
	<path class="st0" d="M1387.2,1074.3c-14,0-26.7,5.7-35.8,14.8c-9.2,9.2-14.8,21.9-14.8,35.8c0,14,5.7,26.7,14.8,35.8
		c9.2,9.2,21.8,14.8,35.8,14.8s26.7-5.7,35.8-14.8c9.2-9.2,14.8-21.8,14.8-35.8s-5.7-26.7-14.8-35.8
		C1413.9,1079.9,1401.2,1074.3,1387.2,1074.3z M1411.2,1149c-6.1,6.1-14.6,9.9-24,9.9s-17.9-3.8-24-9.9s-9.9-14.6-9.9-24
		s3.8-17.9,9.9-24s14.6-9.9,24-9.9s17.9,3.8,24,9.9s9.9,14.6,9.9,24C1421.2,1134.3,1417.4,1142.8,1411.2,1149z"/>
	<path class="st1" d="M1240.7,1165c0,13.5,11,24.5,24.5,24.5s24.5-11,24.5-24.5v-56.9h-49V1165z"/>
	<path class="st0" d="M1232.4,1099.7v65.3c0,9,3.7,17.2,9.7,23.2l0,0c6,6,14.2,9.7,23.2,9.7s17.3-3.7,23.2-9.7l0,0
		c6-6,9.7-14.2,9.7-23.2v-65.3h-57.4H1232.4z M1249.1,1116.4h32.3v48.5c0,4.5-1.8,8.5-4.7,11.4l0,0c-2.9,2.9-7,4.8-11.4,4.8
		s-8.5-1.8-11.4-4.8l0,0c-2.9-2.9-4.7-6.9-4.7-11.4v-48.5H1249.1z"/>
	<path class="st1" d="M1492.9,1165c0,13.5,11,24.5,24.5,24.5s24.5-11,24.5-24.5v-56.9h-49V1165z"/>
	<path class="st0" d="M1484.5,1099.7v65.3c0,9,3.7,17.2,9.7,23.2l0,0c6,6,14.2,9.7,23.2,9.7c9.1,0,17.3-3.7,23.2-9.7l0,0
		c6-6,9.7-14.2,9.7-23.2v-65.3h-57.4H1484.5z M1501.2,1116.4h32.3v48.5c0,4.5-1.8,8.5-4.7,11.4l0,0c-2.9,2.9-7,4.8-11.4,4.8
		s-8.5-1.8-11.4-4.8l0,0c-2.9-2.9-4.7-6.9-4.7-11.4v-48.5H1501.2z"/>
</g>
<g>
	<circle class="st3" cx="1523.8" cy="460.8" r="33.3"/>
	<path class="st0" d="M1555.5,429.1c-8.1-8.1-19.3-13.2-31.7-13.2s-23.6,5.1-31.7,13.2l0,0c-8.1,8.1-13.2,19.3-13.2,31.7
		c0,12.3,5.1,23.4,13.2,31.7l0,0c8.1,8.1,19.3,13.2,31.7,13.2s23.4-5.1,31.7-13.2l0,0c8.1-8.1,13.2-19.3,13.2-31.7
		C1568.7,448.3,1563.6,437.2,1555.5,429.1L1555.5,429.1z M1539.5,476.3L1539.5,476.3c-4,4-9.5,6.4-15.6,6.4c-6,0-11.5-2.5-15.5-6.4
		l0,0c-4-4-6.4-9.5-6.4-15.5s2.5-11.5,6.4-15.5l0,0c4-4,9.5-6.4,15.5-6.4s11.5,2.5,15.5,6.4l0,0c4,4,6.4,9.5,6.4,15.5
		S1543.4,472.3,1539.5,476.3z"/>
	
		<ellipse transform="matrix(0.7071 -0.7071 0.7071 0.7071 273.9619 1148.7954)" class="st8" cx="1523.7" cy="243.7" rx="133.5" ry="133.5"/>
	<path class="st0" d="M1523.8,98.8c-40,0-76.2,16.2-102.6,42.5c-26.2,26.2-42.5,62.5-42.5,102.6s16.2,76.2,42.5,102.6
		c26.2,26.2,62.5,42.5,102.6,42.5s76.2-16.2,102.6-42.5c26.2-26.2,42.5-62.5,42.5-102.6s-16.2-76.2-42.5-102.6
		C1600.2,115,1563.9,98.8,1523.8,98.8z M1610.2,330.1c-22.1,22.1-52.6,35.8-86.4,35.8c-33.7,0-64.3-13.7-86.4-35.8
		c-22.1-22.1-35.8-52.6-35.8-86.4s13.7-64.3,35.8-86.4c22.1-22.1,52.6-35.8,86.4-35.8c33.7,0,64.3,13.7,86.4,35.8
		c22.1,22.1,35.8,52.6,35.8,86.4S1632.3,308,1610.2,330.1z"/>
	<path class="st1" d="M1562.8,360.5h-77.9c-12.6,0-22.8,10.3-22.8,22.8l0,0c0,12.6,10.3,22.8,22.8,22.8h77.9
		c12.6,0,22.8-10.3,22.8-22.8l0,0C1585.7,370.8,1575.4,360.5,1562.8,360.5z"/>
	<path class="st0" d="M1586.9,359.2c-6.2-6.2-14.8-10-24.1-10h-77.9c-9.5,0-18,3.8-24.1,10l0,0c-6.2,6.2-10,14.8-10,24.1
		s3.8,18,10,24.1l0,0c6.2,6.2,14.8,10,24.1,10h77.9c9.5,0,18-3.8,24.1-10c6.2-6.2,10-14.8,10-24.3
		C1597.1,374,1593.2,365.3,1586.9,359.2L1586.9,359.2z M1570.9,391.4c-2.1,2.1-4.9,3.3-8.1,3.3h-77.9c-3.2,0-6-1.2-8.1-3.3l0,0
		c-2.1-2.1-3.3-4.9-3.3-8.1s1.2-6,3.3-8.1l0,0c2.1-2.1,4.9-3.3,8.1-3.3h77.9c3.2,0,6,1.2,8.1,3.3l0,0c2.1,2.1,3.3,4.9,3.3,8.1
		S1572.9,389.3,1570.9,391.4z"/>
	<path class="st1" d="M1562.8,406.2h-77.9c-12.6,0-22.8,10.3-22.8,22.8l0,0c0,12.6,10.3,22.8,22.8,22.8h77.9
		c12.6,0,22.8-10.3,22.8-22.8l0,0C1585.7,416.5,1575.4,406.2,1562.8,406.2z"/>
	<path class="st0" d="M1586.9,404.8c-6.2-6.2-14.8-10-24.1-10h-77.9c-9.5,0-18,3.8-24.1,10l0,0c-6.2,6.2-10,14.8-10,24.1
		c0,9.5,3.8,18,10,24.1l0,0c6.2,6.2,14.8,10,24.1,10h77.9c9.5,0,18-3.8,24.1-10c6.2-6.2,10-14.8,10-24.3
		C1597.1,419.6,1593.2,411,1586.9,404.8L1586.9,404.8z M1570.9,437c-2.1,2.1-4.9,3.3-8.1,3.3h-77.9c-3.2,0-6-1.2-8.1-3.3l0,0
		c-2.1-2.1-3.3-4.9-3.3-8.1s1.2-6,3.3-8.1l0,0c2.1-2.1,4.9-3.3,8.1-3.3h77.9c3.2,0,6,1.2,8.1,3.3l0,0c2.1,2.1,3.3,4.9,3.3,8.1
		S1572.9,435,1570.9,437z"/>
	<path class="st0" d="M1596.4,159c-15.1-12.9-33.6-21.8-54-25.2c-6.2-1.1-12.1,3.2-13.2,9.3c-1.1,6.2,3.2,12.1,9.3,13.2
		c16.2,2.7,31,9.9,42.9,20.2c12.1,10.3,21.3,23.7,26.5,39.4c1.9,6,8.4,9.2,14.4,7.3c6-1.9,9.2-8.4,7.3-14.4
		C1623.1,188.9,1611.5,171.9,1596.4,159z"/>
	<path class="st1" d="M1635.2,235.5c-0.4-6.3-5.9-11-12.2-10.6c-6.3,0.4-11,5.9-10.6,12.2c0.1,1.5,0.1,2.6,0.3,3.3v3.3
		c0,4-0.3,7.8-0.7,11.4c-0.8,6.2,3.6,11.9,9.9,12.8c6.2,0.8,11.9-3.6,12.8-9.9c0.7-4.9,1-9.7,1-14.3c0-0.7,0-2.1-0.1-4.1
		C1635.3,237.8,1635.2,236.3,1635.2,235.5z"/>
</g>
</svg>
