<?xml version="1.0" encoding="utf-8"?>
<!-- Generator: Adobe Illustrator 23.0.3, SVG Export Plug-In . SVG Version: 6.00 Build 0)  -->
<svg version="1.1" id="Capa_1" xmlns="http://www.w3.org/2000/svg" xmlns:xlink="http://www.w3.org/1999/xlink" x="0px" y="0px"
	 viewBox="0 0 925 925" style="enable-background:new 0 0 925 925;" xml:space="preserve">
<style type="text/css">
	.st0{fill:none;stroke:#666666;stroke-width:18;stroke-miterlimit:10;}
</style>
<g>
	<g>
		<path class="st0" d="M362.5,95.8h79c29.9,0,54.8,21.4,60.5,49.6h45.1C541,92.6,496,51.3,441.5,51.3h-79
			c-54.5,0-99.5,41.2-105.6,94.1H302C307.6,117.1,332.6,95.8,362.5,95.8z"/>
		<path class="st0" d="M161.5,335.4c63.9,41.3,149.3,64.1,240.5,64.1s176.5-22.8,240.5-64.1c57.5-37.1,90.9-85.1,95-136
			c-15.4-19.3-39.1-31.7-65.8-31.7H547.8h-44.5H300.8h-44.5H132.3c-26.6,0-50.4,12.4-65.8,31.7C70.6,250.2,104,298.1,161.5,335.4z"
			/>
		<path class="st0" d="M371.6,458.9c0,13.9,11.3,25.2,25.2,25.2h10.4c13.9,0,25.2-11.3,25.2-25.2v-20.1h-60.8L371.6,458.9
			L371.6,458.9z"/>
		<path class="st0" d="M132.3,597.8h373.5v-56.7c0-6.9,2.8-13.4,7.7-18.2l85.2-83.8c4.8-4.7,11.2-7.3,17.9-7.3h139.1V264.7
			c-3.7,7.7-8,15.2-12.9,22.7c-19.1,29.3-46.5,55.5-81,77.8c-53.7,34.7-120.9,57.3-193.7,66v7.5v20.1c0,33.6-27.2,60.8-60.8,60.8
			h-10.4c-33.6,0-60.8-27.2-60.8-60.8v-20.1v-7.5c-72.8-8.5-140.1-31.3-193.7-66c-34.5-22.3-61.9-48.5-81-77.8
			c-4.9-7.5-9.2-15-12.9-22.7v249.1C48.3,560.2,85.9,597.8,132.3,597.8z"/>
		<g>
			<path class="st0" d="M635.6,452.2c-11.9,0-23.6,4.9-32.1,13.4l-61.5,62c-8.5,8.5-13.1,19.8-13.1,31.8v38.6V609v11.1v203.6
				c0,2.1,0.2,4.3,0.4,6.3c3,21.9,21.9,38.8,44.7,38.8h252.7c24.8,0,45.1-20.2,45.1-45.1V497.2c0-21.8-15.5-40-36.1-44.2
				c-2.9-0.6-6-0.9-9-0.9h-48.9h-11.1h-11.1H635.6L635.6,452.2z M777.9,496.7h48.8c0.4,0,0.6,0.3,0.6,0.6v326.5c0,0.1,0,0.1,0,0.2
				c-0.1,0.3-0.3,0.4-0.5,0.4c0,0,0,0-0.1,0H574.1c-0.4,0-0.6-0.3-0.6-0.6V620.1V609v-11.1v-29.4h32.7c20.4,0,37-16.6,37-37v-34.8
				h112.6h11.1H777.9L777.9,496.7z"/>
			<path class="st0" d="M716.1,597.9h-97c-8.2,0-15.3,4.5-19.2,11c-2,3.3-3,7-3,11.1v0.1c0,12.3,10,22.3,22.3,22.3h162.7
				c12.3,0,22.3-10,22.3-22.3s-10-22.3-22.3-22.3h-45.1H716.1z"/>
			<path class="st0" d="M781.8,738.2H619.1c-12.3,0-22.3,10-22.3,22.3c0,12.3,10,22.3,22.3,22.3h162.7c12.3,0,22.3-10,22.3-22.3
				C804,748.1,794.1,738.2,781.8,738.2z"/>
			<path class="st0" d="M781.8,668.1H619.1c-12.3,0-22.3,10-22.3,22.3c0,12.3,10,22.3,22.3,22.3h162.7c12.3,0,22.3-10,22.3-22.3
				C804,678.1,794.1,668.1,781.8,668.1z"/>
		</g>
	</g>
</g>
</svg>
