<?xml version="1.0" encoding="utf-8"?>
<!-- Generator: Adobe Illustrator 23.0.3, SVG Export Plug-In . SVG Version: 6.00 Build 0)  -->
<svg version="1.1" id="Android" xmlns="http://www.w3.org/2000/svg" xmlns:xlink="http://www.w3.org/1999/xlink" x="0px" y="0px"
	 viewBox="0 0 30 27" style="enable-background:new 0 0 30 27;" xml:space="preserve">
<style type="text/css">
	.st0{fill:none;stroke:#020202;stroke-width:0.75;stroke-miterlimit:10;}
	.st1{fill:#FFAB30;stroke:#1C1C1C;stroke-width:0.75;stroke-miterlimit:10;}
	.st2{fill:none;stroke:#1C1C1C;stroke-width:0.75;stroke-miterlimit:10;}
	.st3{fill:none;stroke:#FFAB30;stroke-width:1.5;stroke-linecap:round;stroke-miterlimit:10;}
	.st4{fill:#1C1C1C;}
</style>
<path class="st0" d="M23,10.5H8v11h3V25c0,0.8,0.7,1.5,1.5,1.5S14,25.8,14,25v-3.5h3V25c0,0.8,0.7,1.5,1.5,1.5S20,25.8,20,25v-3.5h3
	V10.5z"/>
<path class="st1" d="M5.6,20.5H5.4c-0.8,0-1.4-0.6-1.4-1.4v-5.2c0-0.8,0.6-1.4,1.4-1.4h0.2c0.8,0,1.4,0.6,1.4,1.4v5.2
	C7,19.9,6.4,20.5,5.6,20.5z"/>
<path class="st1" d="M25.6,19.5h-0.2c-0.8,0-1.4-0.6-1.4-1.4v-5.2c0-0.8,0.6-1.4,1.4-1.4h0.2c0.8,0,1.4,0.6,1.4,1.4v5.2
	C27,18.9,26.4,19.5,25.6,19.5z"/>
<path class="st2" d="M23,8.5c0.6-1.6-3.1-6-7.5-6c-4.5,0-8.1,4.6-7.5,6C8.4,9.4,22.6,9.4,23,8.5z"/>
<line class="st3" x1="11" y1="1.5" x2="13" y2="4.5"/>
<line class="st3" x1="20.2" y1="1.5" x2="18.2" y2="4.6"/>
<circle class="st4" cx="13.5" cy="6" r="0.5"/>
<circle class="st4" cx="17.5" cy="6" r="0.5"/>
</svg>
