<?xml version="1.0" encoding="utf-8"?>
<!-- Generator: Adobe Illustrator 23.0.3, SVG Export Plug-In . SVG Version: 6.00 Build 0)  -->
<svg version="1.1" id="Layer_1" xmlns="http://www.w3.org/2000/svg" xmlns:xlink="http://www.w3.org/1999/xlink" x="0px" y="0px"
	 viewBox="0 0 511 511" style="enable-background:new 0 0 511 511;" xml:space="preserve">
<style type="text/css">
	.st0{fill:#FFAB30;}
</style>
<path d="M487,161.8c-0.2-12.8-3.7-42.4-17.4-45.3c-12.4-2.6-75.5,23.1-80.2,27.9c-3.8,3.8-4.4,9.8-5.5,14.7
	c-4.4,1.2-13.2,2.5-16.4,2.2c-4.2-3.7-13.4-18.4-27.6-14.7c-11.2,2.9-12.9,13.2-14.3,23.5c-29.2,2.7-35.7-9.9-47.2-12.2
	c-5.2-1-9.9-0.1-13.6,0c-5.1,0.1-21.1-7.9-24.9-15.5c-2.1-4.2,1.8-3.5,6-7.6c3.4-3.3,5-7.8,4.4-12.8c-0.7-6.2-4.6-12.3-10.1-15.7
	c-6.8-4.2-14.3-4.9-19.7-7.3c-3.4-1.5-5.5-4.6-5.2-5.8c1.1-2.2,2.3-3.1,4.2-4.4c2.4-1.6,6.1-4.1,7.8-9.4c1.4-4.5,0.4-8.5-0.5-11.7
	c-1.7-6.5-1.4-7.4,5.2-16.1c5.2-6.8,12.3-16.2,7.7-26.9c-0.1-0.2-0.1-0.3-0.2-0.5c-6.4-12.4-20.8-12.4-34.4-9.2
	c-5.1,1.2-10,2.3-13.8,1.2c-4.5-1.3-9.3-6.2-15.3-9.5c-15-8.3-42.4-8.9-55.3-1.3c-5.8,3.4-9,8.5-9,14.4c0,17.4,6.3,24.9,10.1,29.3
	c3.4,4.1,6.9,17.7,7.7,22.4c0.7,4.1,4.6,6.8,8.7,6.1c4.1-0.7,6.8-4.6,6.1-8.7c-1.1-6.3-5-22.3-11-29.4c-3.1-3.6-6.5-7.7-6.5-19.7
	c0.1-0.2,0.9-1.2,3.5-2.3c9.8-4,29.3-2.8,38.6,2.4c5.2,2.9,10.6,8.5,18.5,10.8c7.6,2.1,14.9,0.4,21.3-1.1c5-1.2,14.8-3.2,17.6,1.3
	c0.8,2.5-2,6.4-6,11.7c-8,10.6-11.1,16.1-7.8,28.9c1.1,4.1,1.1,3.5-1.3,5c-2.6,1.8-6.6,4.5-9.5,10.6c0,0.1-0.1,0.2-0.1,0.3
	c-3.4,8.1,0.5,19.8,12.9,25.3c6.6,2.9,13.5,3.6,17.9,6.3c2.2,1.4,3.3,4.2,3.1,5c-1.1,0.9-4.6,2.2-7.2,5.5
	c-4.5,5.7-5.2,12.6-1.8,19.5c6.2,12.5,27.6,24.1,38.6,23.8c4-0.1,7.7-0.8,10.3-0.3c2.5,0.5,5.5,2.6,8.5,4.4
	c15.3,9.3,43.1,9.9,50.4,6.3c8.9-4.4,5-21,9.4-22.2c4.9-1.3,11.6,11.9,18.7,14.3c7.4,2.6,26.7-1.5,30.7-3.8
	c5.7-3.3,5.5-11.4,7.2-16.5c10.5-5.6,53.4-22.5,65.6-23.8c4.4,6.9,7.1,27.9,6.1,36.1c-6.8,5.1-11.8,11.6-17.4,21.3h-14.3
	c-4.1,0-7.5,3.4-7.5,7.5c0,4.1,3.4,7.5,7.5,7.5h6c-11,20.6-12,20.6-17,44.2c-2,9.6-4.3,20.5-8.1,23.4c-0.7,0.5-1.1,0.7-2.4,0.1
	c-4.5-2.3-8.7-10.3-8.6-13c0.4-19.9-16.6-26.3-17.9-29.9c0-0.1,0-0.5,0.3-1.1c1.9-4.4,0.5-9.2-3.5-12.1c-8.2-6.1-31.5-5.8-39.1,0.4
	c-2.6,2.2-4.1,5.6-4.3,10.3c-0.6,9.4,3.6,23.9,12.6,35.5c-1.4,2.5-3,4.9-4.9,7.1c-4.6-2-10-2.4-15.3-1.1c-8.1,1.9-14.5,7.4-17,14.6
	c-1.4,3.9-1.6,8.1-2.6,9.7c-2.6,3.9-35.8,11.4-59.3,50.8H110.6c-2-10.5-11.7-68.5-12-69.8c-2.3-8.6-12.6-13.5-25.6-19.6
	c-14.6-6.9-32.8-15.5-33.1-27.9c0.9-2.4,7.1-7.9,10.9-11.2c4-3.5,7.8-6.9,10.7-10.3h345.8c4.1,0,7.5-3.4,7.5-7.5
	c0-4.1-3.4-7.5-7.5-7.5H67.4c0.3-3,0.2-5.8,0.2-8.7c-0.2-9.9-0.7-17.8,7.4-22.6c3.7-2.2,8-2.8,11.4-1.6c2.9,1,6.1,0.2,8.1-2.1
	c39.7-45,39.3-44.2,42.4-48.6c2.4-3.4,1.7-8-1.7-10.4c-3.4-2.4-8-1.7-10.4,1.7c-2.6,3.6-2.5,3.4-38.6,44.1c-6.3-0.8-13,0.6-18.9,4.1
	c-13.8,8.3-15,20.1-14.7,35.7c0.2,12.1-0.3,12.4-11.7,22.4c-8.2,7.2-16,14-16,22.1c0,22,24.1,33.4,41.7,41.7c6.3,3,15.8,7.5,17.5,10
	c18,105.6,7.1,65.7,64.5,220.2c2.8,7.6,7.6,14.4,15.8,14.4c4.6,0,9.2-2.4,13.8-7.2c17-17.8,31.8-34.1,40-54.2
	c1.6-3.8-0.3-8.2-4.1-9.8c-3.8-1.6-8.2,0.3-9.8,4.1c-7.3,17.7-21,32.9-37,49.5c-1.2,1.3-2.1,1.9-2.6,2.3c-0.5-0.6-1.2-1.9-2.1-4.3
	C129.4,401.8,119,375.6,114,357.3h119c-10.9,6-18.7,18.3-21.3,34.2c-1.3,8-1.4,15.9-1.8,23.7c-0.2,4.1,3,7.6,7.2,7.8
	c0.1,0,0.2,0,0.3,0c4,0,7.3-3.1,7.5-7.2c0.3-7.6,0.4-14.9,1.6-21.9c1.6-9.8,6.8-21.4,16.4-24.7c10.4-3.6,17.8-0.1,29-18.9
	c23.4-39.3,51.2-39,59-50.3c3.3-4.8,3.3-10.1,4.4-13.2c0.8-2.3,3.2-4.2,6.3-5c3.1-0.7,6.1-0.1,7.9,1.6c2.9,2.8,7.5,2.8,10.4,0
	c6-5.7,10.9-12.7,14.2-20.2c1.2-2.8,0.7-6-1.4-8.2c-9.5-10.1-12.4-23.6-12-28.4c3.7-1.2,12-1.3,16.8-0.4
	c-2.2,16.1,18,17.2,17.8,31.7c-0.2,8.2,7.1,21.6,16.7,26.5c6.1,3.2,12.8,2.7,18.2-1.3c8.4-6.2,11-18.9,13.8-32.3
	c4.4-21.1,5.1-20.7,13.3-36c11.1-20.9,16.2-30.4,24.9-36.3C485.8,175.9,487.2,171.2,487,161.8z"/>
<ellipse class="st0" cx="192.6" cy="267.8" rx="45.6" ry="48.7"/>
<path d="M140.7,269.5c0,27.8,22.6,50.4,50.4,50.4c27.8,0,50.4-22.6,50.4-50.4c0-27.8-22.6-50.4-50.4-50.4
	C163.3,219.1,140.7,241.7,140.7,269.5z M226.6,269.5c0,19.5-15.9,35.4-35.4,35.4s-35.4-15.9-35.4-35.4c0-19.5,15.9-35.4,35.4-35.4
	S226.6,249.9,226.6,269.5z"/>
<path d="M183.6,249.7v1.7l-1.2-1.2c-2.9-2.9-7.7-2.9-10.6,0c-2.9,2.9-2.9,7.7,0,10.6l1.2,1.2h-1.7c-4.1,0-7.5,3.4-7.5,7.5
	c0,4.1,3.4,7.5,7.5,7.5h1.7l-1.2,1.2c-2.9,2.9-2.9,7.7,0,10.6c1.5,1.5,3.4,2.2,5.3,2.2c1.9,0,3.8-0.7,5.3-2.2l1.2-1.2v1.7
	c0,4.1,3.3,7.5,7.5,7.5c4.1,0,7.5-3.3,7.5-7.5v-1.7l1.2,1.2c1.5,1.5,3.4,2.2,5.3,2.2c1.9,0,3.8-0.7,5.3-2.2c2.9-2.9,2.9-7.7,0-10.6
	l-1.2-1.2h1.7c4.1,0,7.5-3.3,7.5-7.5c0-4.1-3.3-7.5-7.5-7.5h-1.7l1.2-1.2c2.9-2.9,2.9-7.7,0-10.6c-2.9-2.9-7.7-2.9-10.6,0l-1.2,1.2
	v-1.7c0-4.1-3.4-7.5-7.5-7.5C187,242.2,183.6,245.5,183.6,249.7z"/>
</svg>
