<?xml version="1.0" encoding="utf-8"?>
<!-- Generator: Adobe Illustrator 19.2.1, SVG Export Plug-In . SVG Version: 6.00 Build 0)  -->
<svg version="1.1" id="Layer_1" xmlns="http://www.w3.org/2000/svg" xmlns:xlink="http://www.w3.org/1999/xlink" x="0px" y="0px"
	 viewBox="0 0 70 70" style="enable-background:new 0 0 70 70;" xml:space="preserve">
<style type="text/css">
	.st0{fill:#013D46;}
	.st1{fill:#FFAB31;}
</style>
<g>
	<g>
		<path class="st0" d="M45.6,60.6c-0.3,0-0.6-0.3-0.6-0.6c0-4.1,0-7.1,0-9.2c0-0.4-0.1-0.9-0.1-1.7c-0.3-7.3-3.6-11.4-9.2-11.4
			c-0.1,0-0.2,0-0.3,0c-5.8,0.1-9.5,4.7-9.5,11.7V60c0,0.3-0.3,0.6-0.6,0.6s-0.6-0.3-0.6-0.6V46.4c0-0.2,0.1-0.4,0.3-0.5
			c1.1-5.6,5-9.3,10.4-9.4c0.1,0,0.2,0,0.3,0c5.3,0,8.9,3.4,10.1,9.3c0.5,0.1,0.5,0.6,0.5,0.9c0.1,2.6,0.1,3.8,0,4.4c0,2,0,4.9,0,9
			C46.2,60.3,45.9,60.6,45.6,60.6C45.6,60.6,45.6,60.6,45.6,60.6z"/>
	</g>
	<g>
		<path class="st0" d="M52.5,70c-0.7,0-2.5,0-6.9,0c-0.3,0-0.6-0.3-0.6-0.6V33.5H25.8v35.9c0,0.3-0.3,0.6-0.6,0.6H11.7
			c-0.3,0-0.6-0.3-0.6-0.6L11,27.2H9.5c-0.3,0-0.6-0.3-0.6-0.6v-3.2c0-0.3,0.3-0.6,0.6-0.6h2.7v-6.4c0-0.3,0.3-0.6,0.6-0.6h0.7V12
			c0-0.3,0.3-0.6,0.6-0.6h3.1V6c0-0.3,0.3-0.6,0.6-0.6h5.4c0.9-1,4.5-4.7,11.2-5.3C34.5,0,34.6,0,34.7,0h1.4c0.1,0,0.2,0,0.3,0.1
			c6.7,0.6,10.3,4.3,11.2,5.3H53c0.3,0,0.6,0.3,0.6,0.6v5.4h3.1c0.3,0,0.6,0.3,0.6,0.6v3.7H58c0.3,0,0.6,0.3,0.6,0.6v6.4h2.7
			c0.3,0,0.6,0.3,0.6,0.6v3.2c0,0.3-0.3,0.6-0.6,0.6h-1.5l-0.1,42.2c0,0.3-0.3,0.6-0.6,0.6c-5.3,0-5.7,0-5.9,0
			C53.1,70,53,70,52.5,70z M46.2,68.8c6.6,0,6.7,0,6.9,0c0.2,0,0.6,0,5.4,0l0.1-42.2c0-0.3,0.3-0.6,0.6-0.6h1.5v-2H58
			c-0.3,0-0.6-0.3-0.6-0.6v-6.4h-0.7c-0.3,0-0.6-0.3-0.6-0.6v-3.7H53c-0.3,0-0.6-0.3-0.6-0.6V6.6h-5c-0.2,0-0.4-0.1-0.5-0.2
			c0,0-3.8-4.8-11.4-5.1C27.8,1.5,24,6.3,24,6.4c-0.1,0.2-0.3,0.2-0.5,0.2h-5V12c0,0.3-0.3,0.6-0.6,0.6h-3.1v3.7
			c0,0.3-0.3,0.6-0.6,0.6h-0.7v6.4c0,0.3-0.3,0.6-0.6,0.6h-2.7v2h1.5c0.3,0,0.6,0.3,0.6,0.6l0.1,42.2h12.3V32.9
			c0-0.3,0.3-0.6,0.6-0.6h20.4c0.3,0,0.6,0.3,0.6,0.6V68.8z"/>
	</g>
	<g>
		<path class="st0" d="M59.6,27.2H11.2c-0.3,0-0.6-0.3-0.6-0.6s0.3-0.6,0.6-0.6h48.4c0.3,0,0.6,0.3,0.6,0.6S59.9,27.2,59.6,27.2z"/>
	</g>
	<g>
		<path class="st0" d="M52.9,16.9H17.9c-0.3,0-0.6-0.3-0.6-0.6c0-0.3,0.3-0.6,0.6-0.6h35.1c0.3,0,0.6,0.3,0.6,0.6
			C53.6,16.6,53.3,16.9,52.9,16.9z"/>
	</g>
	<g>
		<g>
			<path class="st0" d="M24.9,43.3H11.8c-0.3,0-0.6-0.3-0.6-0.6s0.3-0.6,0.6-0.6h13.1c0.3,0,0.6,0.3,0.6,0.6S25.2,43.3,24.9,43.3z"
				/>
		</g>
		<g>
			<path class="st0" d="M24.9,50.6H11.8c-0.3,0-0.6-0.3-0.6-0.6s0.3-0.6,0.6-0.6h13.1c0.3,0,0.6,0.3,0.6,0.6S25.2,50.6,24.9,50.6z"
				/>
		</g>
		<g>
			<path class="st0" d="M59,43.3H45.9c-0.3,0-0.6-0.3-0.6-0.6s0.3-0.6,0.6-0.6H59c0.3,0,0.6,0.3,0.6,0.6S59.3,43.3,59,43.3z"/>
		</g>
		<g>
			<path class="st0" d="M59,50.6H45.9c-0.3,0-0.6-0.3-0.6-0.6s0.3-0.6,0.6-0.6H59c0.3,0,0.6,0.3,0.6,0.6S59.3,50.6,59,50.6z"/>
		</g>
	</g>
	<g>
		<g>
			<circle class="st1" cx="18.5" cy="35.2" r="2.3"/>
			<path class="st0" d="M18.5,38.1c-1.6,0-2.9-1.3-2.9-2.9s1.3-2.9,2.9-2.9s2.9,1.3,2.9,2.9S20.1,38.1,18.5,38.1z M18.5,33.5
				c-0.9,0-1.7,0.8-1.7,1.7s0.8,1.7,1.7,1.7s1.7-0.8,1.7-1.7S19.5,33.5,18.5,33.5z"/>
		</g>
		<g>
			<circle class="st1" cx="52.3" cy="35.2" r="2.3"/>
			<path class="st0" d="M52.3,38.1c-1.6,0-2.9-1.3-2.9-2.9s1.3-2.9,2.9-2.9s2.9,1.3,2.9,2.9S53.9,38.1,52.3,38.1z M52.3,33.5
				c-0.9,0-1.7,0.8-1.7,1.7s0.8,1.7,1.7,1.7s1.7-0.8,1.7-1.7S53.2,33.5,52.3,33.5z"/>
		</g>
	</g>
	<g>
		<rect x="27" y="8.4" class="st1" width="16.9" height="4.6"/>
		<path class="st0" d="M43.9,13.6H27c-0.3,0-0.6-0.3-0.6-0.6V8.4c0-0.3,0.3-0.6,0.6-0.6h16.9c0.3,0,0.6,0.3,0.6,0.6V13
			C44.5,13.3,44.2,13.6,43.9,13.6z M27.6,12.4h15.7V9H27.6V12.4z"/>
	</g>
</g>
</svg>
