<?xml version="1.0" encoding="utf-8"?>
<!-- Generator: Adobe Illustrator 23.0.3, SVG Export Plug-In . SVG Version: 6.00 Build 0)  -->
<svg version="1.1" id="Layer_1" xmlns="http://www.w3.org/2000/svg" xmlns:xlink="http://www.w3.org/1999/xlink" x="0px" y="0px"
	 viewBox="0 0 80 80" style="enable-background:new 0 0 80 80;" xml:space="preserve">
<style type="text/css">
	.st0{fill:none;stroke:#666666;stroke-width:2;stroke-miterlimit:10;}
	.st1{fill:none;stroke:#666666;stroke-width:2;stroke-linecap:round;stroke-linejoin:round;stroke-miterlimit:10;}
	.st2{fill:none;stroke:#666666;stroke-width:2;stroke-linecap:round;stroke-miterlimit:10;}
	.st3{fill:none;}
	.st4{fill:#666666;}
	.st5{font-family:'MyriadPro-Semibold';}
	.st6{font-size:10px;}
</style>
<path class="st0" d="M58.1,58.3c0,0.6-0.5,1.2-1.2,1.2H23.4c-0.6,0-1.2-0.5-1.2-1.2V46.6c0-0.6,0.5-1.2,1.2-1.2H57
	c0.6,0,1.2,0.5,1.2,1.2L58.1,58.3L58.1,58.3z"/>
<path class="st1" d="M69.1,21.9V70c0,3-2.4,5.5-5.5,5.5H16.4c-3,0-5.5-2.4-5.5-5.5V10c0-3,2.4-5.5,5.5-5.5h35.3"/>
<path class="st2" d="M51.7,4.5L69,21.8"/>
<g>
	<path class="st1" d="M27.6,29.4H58 M22.3,29.4h1.2 M27.6,36.5H58 M22.3,36.5h1.2"/>
</g>
<path class="st1" d="M51.7,4.9v11.7c0,3,2.4,5.5,5.5,5.5h11.4"/>
<rect x="26" y="48.5" class="st3" width="29" height="9.8"/>
<text transform="matrix(1 0 0 1 25.9555 55.6158)" class="st4 st5 st6">APPLY</text>
</svg>
