<?xml version="1.0" encoding="utf-8"?>
<!-- Generator: Adobe Illustrator 23.0.3, SVG Export Plug-In . SVG Version: 6.00 Build 0)  -->
<svg version="1.1" xmlns="http://www.w3.org/2000/svg" xmlns:xlink="http://www.w3.org/1999/xlink" x="0px" y="0px"
	 viewBox="0 0 800 600" style="enable-background:new 0 0 800 600;" xml:space="preserve">
<style type="text/css">
	.st0{fill:#FFBA55;}
	.st1{fill:#F0F0F0;}
	.st2{fill:#FFFFFF;}
	.st3{fill:url(#SVGID_1_);}
	.st4{fill:#CCCCCC;}
	.st5{fill:#F5F7FF;}
	.st6{fill:#E6E6E6;}
	.st7{fill:#78C2FF;}
	.st8{fill:#F3F3F3;}
	.st9{fill:#EEF0F7;}
	.st10{fill:#F0C141;stroke:#000000;stroke-width:2;stroke-miterlimit:10;}
	.st11{fill:#F0C141;}
	.st12{fill:#3C4145;}
	.st13{fill:#EEA886;}
	.st14{fill:#FFD255;}
	.st15{fill:url(#SVGID_2_);}
	.st16{fill:url(#SVGID_3_);}
	.st17{fill:url(#SVGID_4_);}
	.st18{fill:url(#SVGID_5_);}
	.st19{fill:url(#SVGID_6_);}
</style>
<g id="Leaves">
	<g>
		<g>
			<path class="st0" d="M227.5,306.5c-0.1,0-8,0.1-18.9-2c-10.1-1.9-25.1-6.1-38.8-15.2c-13.5-9-31.1-12.1-43.4-13.2
				c-13.4-1.1-23.7-0.1-23.8-0.1l-0.1-0.9c0.1,0,10.5-1,23.9,0.1c12.4,1.1,30.1,4.2,43.8,13.3c13.5,9,28.4,13.2,38.4,15.1
				c10.9,2.1,18.7,2,18.8,2L227.5,306.5z"/>
		</g>
		<g>
			<g>
				<g>
					<g>
						<path class="st0" d="M237.3,311.5c-9,10.2-47.3,16.5-70,4.6c-12.6-6.6-22.5-14.2-31.3-21c-11.5-8.8-21.3-16.4-33.5-19.2
							l-1.1-0.2l0.9-0.5c0.2-0.1,18-10.3,43.3-12c14.9-1,29.5,1.1,43.3,6.2c17.3,6.4,33.5,17.5,48.1,33l-0.3,0.3l0.3-0.3
							c2.6,2.7,2.8,5.7,0.6,8.5C237.7,311.1,237.5,311.3,237.3,311.5z M103.8,275.4c11.8,3,21.5,10.5,32.7,19.1
							c8.8,6.7,18.7,14.4,31.2,20.9c10.3,5.4,25,7.5,40.5,5.8c13.1-1.4,24.4-5.5,28.5-10.2c0.2-0.2,0.3-0.4,0.5-0.6
							c1.9-2.5,1.7-5-0.6-7.4c-32.9-35-67.5-40.5-90.7-38.9C124,265.5,107.9,273.3,103.8,275.4z"/>
					</g>
				</g>
			</g>
		</g>
		<g>
			
				<rect x="138" y="263.7" transform="matrix(0.8271 -0.5621 0.5621 0.8271 -128.7161 124.7768)" class="st0" width="0.9" height="15.8"/>
		</g>
		<g>
			
				<rect x="134.7" y="288" transform="matrix(0.7348 -0.6783 0.6783 0.7348 -157.031 175.2421)" class="st0" width="21.8" height="0.9"/>
		</g>
		<g>
			
				<rect x="168.7" y="264.5" transform="matrix(0.9972 -7.441540e-02 7.441540e-02 0.9972 -20.1243 13.3551)" class="st0" width="0.9" height="24.5"/>
		</g>
	</g>
	<g>
		<g>
			<path class="st0" d="M208.3,277.8c-0.1,0-8.2-2.9-18.6-10c-9.6-6.6-23-18.2-32.9-36.2c-11.5-20.9-24-34-32.4-41.4
				c-9.2-8-15.7-11.1-15.8-11.1l0.3-0.6c0.1,0,6.7,3.1,15.9,11.2c8.5,7.4,21.1,20.6,32.6,41.6c9.8,17.9,23.2,29.4,32.7,35.9
				c10.3,7.1,18.4,9.9,18.4,10L208.3,277.8z"/>
		</g>
		<g>
			<g>
				<g>
					<g>
						<path class="st0" d="M233.2,276.2l-1.8,0.3c-0.1,0-6.1,1.1-15.3,0.9c-8.5-0.2-21.7-1.4-35.8-6.6c-15.8-5.8-29.6-15.3-41-28.2
							c-14.2-16.1-24.5-37.5-30.8-63.7l-0.1-0.3l0.3-0.1c0.1,0,10.7-3.3,24.6,0.1c8.2,2,15.8,5.8,22.8,11.3
							c8.7,6.9,16.4,16.6,22.7,28.8c14.4,27.4,27.9,41.5,36.7,48.5c9.5,7.5,15.7,8.6,15.8,8.6L233.2,276.2z M109.1,179.1
							c14.2,58.9,46.6,82.1,71.3,91.2c14,5.2,27.1,6.4,35.5,6.6c6.5,0.1,11.3-0.4,13.7-0.7c-2.4-0.8-7.6-2.9-14.5-8.4
							c-8.9-7-22.5-21.2-36.9-48.7c-14.3-27.4-32.4-36.7-45.1-39.8C120.7,176.2,110.9,178.6,109.1,179.1z"/>
					</g>
				</g>
			</g>
		</g>
		<g>
			
				<rect x="148" y="224.9" transform="matrix(4.359272e-02 -0.999 0.999 4.359272e-02 -95.8571 375.7892)" class="st0" width="0.7" height="26"/>
		</g>
		<g>
			<rect x="152.8" y="188" class="st0" width="0.7" height="36.5"/>
		</g>
		<g>
			
				<rect x="125.5" y="190.7" transform="matrix(5.222056e-02 -0.9986 0.9986 5.222056e-02 -81.6393 316.3975)" class="st0" width="0.7" height="21.1"/>
		</g>
	</g>
</g>
<g id="Screen_Main">
	<g>
		<path class="st1" d="M188.2,427h370.3c11.6,0,21-9.4,21-21V157.1c0-11.6-9.4-21-21-21H188.2c-11.6,0-21,9.4-21,21V406
			C167.3,417.6,176.7,427,188.2,427z"/>
	</g>
	<g>
		
			<rect x="183.4" y="105.2" transform="matrix(-1 -1.224647e-16 1.224647e-16 -1 746.825 486.6202)" class="st2" width="380" height="276.2"/>
	</g>
	<g>
		<linearGradient id="SVGID_1_" gradientUnits="userSpaceOnUse" x1="183.4165" y1="121.8795" x2="563.4085" y2="121.8795">
			<stop  offset="0" style="stop-color:#FF9F55"/>
			<stop  offset="1" style="stop-color:#FFD255"/>
		</linearGradient>
		<polygon class="st3" points="183.4,138.6 563.4,138.6 563.4,105.2 183.4,105.2 		"/>
	</g>
	<g>
		<path class="st4" d="M517.2,402.3c0,7.3,7,13.3,15.6,13.3c8.6,0,15.6-6,15.6-13.3c0-7.3-7-13.3-15.6-13.3
			C524.2,389,517.2,394.9,517.2,402.3z"/>
	</g>
	<path class="st5" d="M249,128.2h-45.1c-2.5,0-4.5-2-4.5-4.5v-3.5c0-2.5,2-4.5,4.5-4.5H249c2.5,0,4.5,2,4.5,4.5v3.5
		C253.5,126.2,251.5,128.2,249,128.2z"/>
	<g>
		<rect x="211.3" y="180.7" class="st6" width="158.3" height="6.8"/>
		<rect x="211.3" y="193" class="st6" width="180.9" height="6.8"/>
	</g>
	<rect x="211.3" y="217.6" class="st6" width="198.9" height="6.8"/>
	<rect x="211.3" y="166.9" class="st7" width="167.8" height="6.8"/>
	<rect x="211.3" y="229.9" class="st6" width="147.6" height="6.8"/>
	<rect x="211.3" y="256.6" class="st6" width="93.6" height="6.8"/>
	<rect x="211.3" y="269" class="st6" width="168.1" height="6.8"/>
	<rect x="211.3" y="298.4" class="st6" width="119.6" height="6.8"/>
	<rect x="211.3" y="310.7" class="st6" width="146.1" height="6.8"/>
	<rect x="211.3" y="340.1" class="st6" width="159.9" height="6.8"/>
	<rect x="211.3" y="352.5" class="st6" width="84" height="6.8"/>
	<rect x="201.5" y="180.7" class="st7" width="5" height="19.2"/>
	<rect x="201.5" y="217.6" class="st7" width="5" height="19.2"/>
	<rect x="201.5" y="256.6" class="st7" width="5" height="19.2"/>
	<rect x="201.5" y="298.4" class="st7" width="5" height="19.2"/>
	<rect x="201.5" y="340.1" class="st7" width="5" height="19.2"/>
	<g>
		<g>
			<path class="st7" d="M476.3,363.4h-15.9c-3.2,0-5.7-2.6-5.7-5.7v-15.9c0-3.2,2.6-5.7,5.7-5.7h15.9c3.2,0,5.7,2.6,5.7,5.7v15.9
				C482,360.8,479.4,363.4,476.3,363.4z"/>
		</g>
		<g>
			<g>
				<g>
					<path class="st8" d="M467.4,355.7l-6.9-6c-0.6-0.5-0.6-1.4-0.1-1.9c0.5-0.6,1.4-0.6,1.9-0.1l4.9,4.3l7-7.8
						c0.5-0.6,1.4-0.6,1.9-0.1c0.6,0.5,0.6,1.4,0.1,1.9L467.4,355.7z"/>
				</g>
			</g>
		</g>
	</g>
	<g>
		<g>
			<g>
				<path class="st7" d="M475.8,321.7h-14.9c-3.4,0-6.2-2.8-6.2-6.2v-14.9c0-3.4,2.8-6.2,6.2-6.2h14.9c3.4,0,6.2,2.8,6.2,6.2v14.9
					C482,318.9,479.2,321.7,475.8,321.7z M460.8,296c-2.5,0-4.5,2-4.5,4.5v14.9c0,2.5,2,4.5,4.5,4.5h14.9c2.5,0,4.5-2,4.5-4.5v-14.9
					c0-2.5-2-4.5-4.5-4.5H460.8z"/>
			</g>
		</g>
	</g>
	<g>
		<g>
			<g>
				<path class="st7" d="M517,279.9h-14.9c-3.4,0-6.2-2.8-6.2-6.2v-14.9c0-3.4,2.8-6.2,6.2-6.2H517c3.4,0,6.2,2.8,6.2,6.2v14.9
					C523.3,277.1,520.5,279.9,517,279.9z M502.1,254.2c-2.5,0-4.5,2-4.5,4.5v14.9c0,2.5,2,4.5,4.5,4.5H517c2.5,0,4.5-2,4.5-4.5
					v-14.9c0-2.5-2-4.5-4.5-4.5H502.1z"/>
			</g>
		</g>
	</g>
	<g>
		<g>
			<g>
				<path class="st7" d="M517,363.4h-14.9c-3.4,0-6.2-2.8-6.2-6.2v-14.9c0-3.4,2.8-6.2,6.2-6.2H517c3.4,0,6.2,2.8,6.2,6.2v14.9
					C523.3,360.6,520.5,363.4,517,363.4z M502.1,337.7c-2.5,0-4.5,2-4.5,4.5v14.9c0,2.5,2,4.5,4.5,4.5H517c2.5,0,4.5-2,4.5-4.5
					v-14.9c0-2.5-2-4.5-4.5-4.5H502.1z"/>
			</g>
		</g>
	</g>
	<g>
		<g>
			<path class="st7" d="M517.5,321.7h-15.9c-3.2,0-5.7-2.6-5.7-5.7V300c0-3.2,2.6-5.7,5.7-5.7h15.9c3.2,0,5.7,2.6,5.7,5.7v15.9
				C523.3,319.1,520.7,321.7,517.5,321.7z"/>
		</g>
		<g>
			<g>
				<g>
					<path class="st8" d="M508.7,314l-6.9-6c-0.6-0.5-0.6-1.4-0.1-1.9c0.5-0.6,1.4-0.6,1.9-0.1l4.9,4.3l7-7.8
						c0.5-0.6,1.4-0.6,1.9-0.1c0.6,0.5,0.6,1.4,0.1,1.9L508.7,314z"/>
				</g>
			</g>
		</g>
	</g>
	<g>
		<g>
			<path class="st7" d="M476.3,279.9h-15.9c-3.2,0-5.7-2.6-5.7-5.7v-15.9c0-3.2,2.6-5.7,5.7-5.7h15.9c3.2,0,5.7,2.6,5.7,5.7v15.9
				C482,277.4,479.4,279.9,476.3,279.9z"/>
		</g>
		<g>
			<g>
				<g>
					<path class="st8" d="M467.4,272.3l-6.9-6c-0.6-0.5-0.6-1.4-0.1-1.9c0.5-0.6,1.4-0.6,1.9-0.1l4.9,4.3l7-7.8
						c0.5-0.6,1.4-0.6,1.9-0.1c0.6,0.5,0.6,1.4,0.1,1.9L467.4,272.3z"/>
				</g>
			</g>
		</g>
	</g>
	<g>
		<path class="st9" d="M529.3,196.4c0,9.9-3.6,19-9.5,26c-7.6,9-18.8,14.4-30.9,14.4c-12.8,0-24.5-6-31.9-15.7
			c-5.3-6.8-8.4-15.4-8.4-24.7c0-22.3,18.1-40.4,40.4-40.4C511.2,156,529.3,174.1,529.3,196.4z"/>
		<path class="st7" d="M517.8,218.1c-0.1-0.1-0.5-0.3-0.7-0.4c0,0,0,0,0,0l0,0c-1.8-1-7-3.6-17.2-6.5c0,0,0,0,0,0
			c-1.9-0.6-3.3-0.9-3.7-1.1l-0.9-1.4c-0.1-1.4-0.1-3.5-0.1-4.9c1.4-1.7,2.7-4.3,3.5-8.4c0.2,0.2,0.4-0.2,0.4-0.2
			c-0.1-0.2,1.9-5.3,1.6-6.4c-0.2-0.6-0.6-0.6-1-0.4c0.1-0.3,0.1-0.6,0.2-0.9c0,0,0.8-7.8-3.1-12.1c-0.4-0.4-1.9-0.5-1.9-0.5
			c-6.3-1.9-10.1-1.1-12.5-0.1c-3.5,2.9-3.8,7.8-3.6,10.5c0.1,0.6,0.1,1.3,0.2,1.9c0,0,0,0,0,0c0,0.3,0.1,0.5,0.1,0.7
			c-0.3-0.2-0.8-0.3-1,0.3c-0.4,1.1,1.1,6.2,1.3,6.5c0,0,0.3,0.5,0.6,0.3c0,0,0,0,0,0c0.7,4.4,2,7.2,3.4,8.9
			c-0.1,1.8-0.4,3.9-0.5,5.3l-1.6,1.6l0,0l0,0c-0.1,0-0.2,0.1-0.2,0.1c0,0,0,0,0,0c-17.7,4.7-22.7,8-22.7,8c-0.4,0.3-0.9,1-1.4,2.1
			c7.4,9.6,19,15.7,31.9,15.7c12.1,0,23.3-5.3,30.9-14.4C519.1,220.5,518.5,218.8,517.8,218.1z"/>
	</g>
</g>
<g id="Check_Ticks">
	<g>
		<g>
			<g>
				<g>
					<g>
						<g>
							<path class="st7" d="M659.6,118.2l-10.6-17.4c-0.9-1.4-0.4-3.3,1-4.2c1.4-0.9,3.3-0.4,4.2,1l7.5,12.3l20-11.8
								c1.4-0.9,3.3-0.4,4.1,1.1c0.9,1.4,0.4,3.3-1.1,4.1L659.6,118.2z"/>
						</g>
					</g>
				</g>
			</g>
		</g>
		<g>
			<path class="st7" d="M666.7,145c-21.1,0-38.2-17.2-38.2-38.2c0-21.1,17.2-38.2,38.2-38.2c21.1,0,38.2,17.2,38.2,38.2
				C705,127.8,687.8,145,666.7,145z M666.7,74c-18.1,0-32.8,14.7-32.8,32.8c0,18.1,14.7,32.8,32.8,32.8c18.1,0,32.8-14.7,32.8-32.8
				C699.5,88.7,684.8,74,666.7,74z"/>
		</g>
	</g>
	<g>
		<g>
			<g>
				<g>
					<g>
						<g>
							<path class="st7" d="M102.9,88.9l-8-13.1c-0.7-1.1-0.3-2.5,0.8-3.1c1.1-0.7,2.5-0.3,3.1,0.8l5.7,9.3l15-8.9
								c1.1-0.6,2.5-0.3,3.1,0.8c0.6,1.1,0.3,2.5-0.8,3.1L102.9,88.9z"/>
						</g>
					</g>
				</g>
			</g>
		</g>
		<g>
			<path class="st7" d="M108.2,109c-15.9,0-28.8-12.9-28.8-28.8c0-15.9,12.9-28.8,28.8-28.8c15.9,0,28.8,12.9,28.8,28.8
				C137,96.1,124.1,109,108.2,109z M108.2,55.6c-13.6,0-24.7,11.1-24.7,24.7c0,13.6,11.1,24.7,24.7,24.7c13.6,0,24.7-11.1,24.7-24.7
				C132.9,66.7,121.8,55.6,108.2,55.6z"/>
		</g>
	</g>
	<g>
		<g>
			<g>
				<g>
					<g>
						<g>
							<path class="st7" d="M235.6,63.2l-10.6-17.4c-0.9-1.4-0.4-3.3,1-4.2c1.4-0.9,3.3-0.4,4.2,1l7.5,12.3l20-11.8
								c1.4-0.9,3.3-0.4,4.1,1.1c0.9,1.4,0.4,3.3-1.1,4.1L235.6,63.2z"/>
						</g>
					</g>
				</g>
			</g>
		</g>
		<g>
			<path class="st7" d="M242.7,90c-21.1,0-38.2-17.2-38.2-38.2c0-21.1,17.2-38.2,38.2-38.2c21.1,0,38.2,17.2,38.2,38.2
				C281,72.8,263.8,90,242.7,90z M242.7,19c-18.1,0-32.8,14.7-32.8,32.8c0,18.1,14.7,32.8,32.8,32.8c18.1,0,32.8-14.7,32.8-32.8
				C275.5,33.7,260.8,19,242.7,19z"/>
		</g>
	</g>
	<g>
		<g>
			<g>
				<g>
					<g>
						<g>
							<path class="st7" d="M452.6,48.6l-6.9-11.3c-0.6-0.9-0.3-2.1,0.7-2.7c0.9-0.6,2.1-0.3,2.7,0.7l4.9,8l12.9-7.7
								c0.9-0.6,2.1-0.2,2.7,0.7c0.6,0.9,0.2,2.1-0.7,2.7L452.6,48.6z"/>
						</g>
					</g>
				</g>
			</g>
		</g>
		<g>
			<path class="st7" d="M457.2,66c-13.6,0-24.7-11.1-24.7-24.7c0-13.6,11.1-24.7,24.7-24.7c13.6,0,24.7,11.1,24.7,24.7
				C482,54.9,470.9,66,457.2,66z M457.2,20c-11.7,0-21.2,9.5-21.2,21.2c0,11.7,9.5,21.2,21.2,21.2c11.7,0,21.2-9.5,21.2-21.2
				C478.4,29.6,468.9,20,457.2,20z"/>
		</g>
	</g>
	<g>
		<g>
			<g>
				<g>
					<g>
						<g>
							<path class="st7" d="M559.5,61.7l-9.2-15.1c-0.8-1.2-0.4-2.9,0.9-3.6c1.2-0.8,2.9-0.4,3.6,0.9l6.5,10.7l17.4-10.3
								c1.3-0.7,2.9-0.3,3.6,0.9c0.7,1.3,0.3,2.9-0.9,3.6L559.5,61.7z"/>
						</g>
					</g>
				</g>
			</g>
		</g>
		<g>
			<path class="st7" d="M565.7,85c-18.3,0-33.3-14.9-33.3-33.3c0-18.3,14.9-33.3,33.3-33.3c18.3,0,33.3,14.9,33.3,33.3
				C599,70.1,584.1,85,565.7,85z M565.7,23.3c-15.7,0-28.5,12.8-28.5,28.5c0,15.7,12.8,28.5,28.5,28.5c15.7,0,28.5-12.8,28.5-28.5
				C594.2,36.1,581.5,23.3,565.7,23.3z"/>
		</g>
	</g>
	<g>
		<g>
			<g>
				<g>
					<g>
						<g>
							<path class="st7" d="M369.6,72.4l-6.2-10.1c-0.5-0.8-0.2-1.9,0.6-2.4c0.8-0.5,1.9-0.2,2.4,0.6l4.4,7.2l11.6-6.9
								c0.8-0.5,1.9-0.2,2.4,0.6c0.5,0.8,0.2,1.9-0.6,2.4L369.6,72.4z"/>
						</g>
					</g>
				</g>
			</g>
		</g>
		<g>
			<path class="st7" d="M373.7,88c-12.3,0-22.3-10-22.3-22.3c0-12.3,10-22.3,22.3-22.3c12.3,0,22.3,10,22.3,22.3
				C396,78.1,386,88,373.7,88z M373.7,46.7c-10.5,0-19.1,8.6-19.1,19.1c0,10.5,8.6,19.1,19.1,19.1c10.5,0,19.1-8.6,19.1-19.1
				C392.8,55.3,384.3,46.7,373.7,46.7z"/>
		</g>
	</g>
</g>
<g id="Stairs">
	<path class="st10" d="M294.6,586.8"/>
	<path class="st10" d="M325,277.5"/>
	<path class="st11" d="M412.4,571.8"/>
	<path class="st11" d="M429.8,331.3"/>
	<g>
		<g>
			<g>
				<g>
					<g>
						<polygon class="st11" points="409.2,566.4 442.1,327.5 437.8,329.2 404.9,568.1 						"/>
					</g>
				</g>
			</g>
		</g>
	</g>
	<g>
		<g>
			<g>
				<g>
					<g>
						<polygon class="st11" points="435.4,353.4 435.9,349.9 381.6,341.5 381.1,345 						"/>
					</g>
				</g>
			</g>
		</g>
	</g>
	<g>
		<g>
			<g>
				<g>
					<g>
						<polygon class="st11" points="356.4,564.3 390.9,325.6 386.6,327.3 352.1,566 						"/>
					</g>
				</g>
			</g>
		</g>
	</g>
	<polygon class="st11" points="433.5,380.8 433.9,377.4 381.5,369.8 381.1,373.2 	"/>
	<polygon class="st11" points="426.5,415.8 426.9,412.4 374.5,404.8 374.1,408.2 	"/>
	<polygon class="st11" points="424.3,447.5 424.9,444.1 372.7,435.1 372.1,438.5 	"/>
	<polygon class="st11" points="419.3,479.5 419.9,476.1 367.7,467.1 367.1,470.5 	"/>
	<polygon class="st11" points="415.3,514.5 415.9,511.1 363.7,502.1 363.1,505.5 	"/>
	<polygon class="st11" points="409.3,550.5 409.9,547.1 357.7,538.1 357.1,541.5 	"/>
</g>
<g id="Man">
	<path class="st12" d="M402.7,503.1c0,0,1.6,2.6,3.4,3.9c2.9,2.1,9.1,3.8,9.5,4.3c0.7,0.9,1.6,4.1-9.3,2.4
		c-7.8-1.3-11.6-1.1-12.3-2.5c-0.1-0.2,1.9-7.6,2.5-9.2C396.5,502,398.1,503,402.7,503.1z"/>
	<path class="st12" d="M411.3,401.1c0,0,4.3,21.5,5.5,29.2c1,6.7,3,24.6,3.3,28.8c0.3,4.2-12.8,45.4-14.1,52.8l-11.9-2.6
		c0,0,12.5-42.8,9.3-52.3c-4.9-14.1-5.5-13.7-9.3-25.4c-3.8-11.7-12.6-11.9-15-33.5C379,398.2,408.1,394.3,411.3,401.1z"/>
	<path class="st13" d="M382.7,263.3c0,0,12-2.8,16.3,5.7c4.3,8.4,1.7,24.3-4.4,25.6c-6.1,1.4-14.7-0.5-17-5.7
		c-2.3-5.3-4.1-12.7-3.3-17.5C375.1,266.7,379.5,264.4,382.7,263.3z"/>
	<path class="st13" d="M468.1,273.7c-0.5-2.2-6.1-8.5-8.2-1.8c-2.1,6.7,3.2,15.7,6.2,15C469,286.1,469.4,279.2,468.1,273.7z"/>
	<path class="st12" d="M371.5,392.1c0,0-3,12.4-3.9,24.8c-0.8,11.4-2.3,24-3.5,36c-1.3,13.3-5.1,34.9-5.3,42.1
		c-0.2,7.1-6.2,38.3-6.2,38.3L368,535c0,0,10-55.1,12.3-60.8c2.4-5.6,14.1-45.8,14.4-50.3C395.2,419.4,371.5,392.1,371.5,392.1z"/>
	<path class="st12" d="M365.9,524.5c0,0,2.9,4.2,5.9,6.2c3,2,14.4,4.3,16.1,6.2c1.2,1.4,3,6.7-15.2,4.8c-13-1.4-19.4-0.8-20.6-3
		c-1.2-2.2,3.3-15.4,3.3-15.4S358.2,524.6,365.9,524.5z"/>
	<path class="st14" d="M416.7,398.6c1.4-0.2-3.4-40.8-3-43.3c0.2-1.7,0.2-14.9,0.1-23.1l1.5-8.3c0.8-0.6,1.9-1.3,3.3-2.1
		c2.1-1.2,4.6-2.5,7.5-4c-0.3-2-0.6-3.5-0.7-4.4c-0.7-7.3-5.6-11.2-8.4-12.8c-1.1-0.7-1.9-1-1.9-1c-1.1-0.4-2.1-0.9-3.1-1.3
		c-6.7-2.8-15.2-5.3-15.2-5.3H383c0,0-10.4,2.1-16.6,4.6c-0.8,0.3-1.5,0.7-2.2,1.2l1.9,39c0,0,0,0,0,0c0,0,0,0,0,0.1
		c0.8,5.5,1.7,12,2,16.5c0.1,1.9-2,11.8-3.1,20.9l-3.9,21.8C361.1,397.1,363.3,406.2,416.7,398.6z"/>
	<path class="st14" d="M424.4,318.9c1.1-0.7,2.6-1.7,7.6-4.2c9.3-4.7,20.9-13.2,23-14.5c3.4-1.9,14-15,14-15c-0.5-2-5.6-5.9-5.6-5.9
		s-16.1,15.4-19.7,17.3c-3,1.6-18,3.3-22.1,3.7c-0.7,0.1-1.1,0.1-1.1,0.1C416.2,306.3,422,320.4,424.4,318.9z"/>
</g>
<g id="Flower_pot">
	<linearGradient id="SVGID_2_" gradientUnits="userSpaceOnUse" x1="598.5773" y1="360.8805" x2="708.7327" y2="360.8805">
		<stop  offset="0" style="stop-color:#40D5E6"/>
		<stop  offset="1" style="stop-color:#5577FF"/>
	</linearGradient>
	<path class="st15" d="M608.2,215.3c9.5-4.5,19,25.7,19,25.7c16.1,21.3,38.7-7,36.5,24.8c-3.9,55.8,64.2,17.5,32.8,75.8
		c-31.4,58.3,27.7,32.9,8.2,79.9c-19.5,47,5.8,103-23.6,80c0,0-25.9-56.7-52.5-74.3c-26.7-17.5,16-38.4,7.6-62.2
		c-12.1-34.6-41.3-33.3-20.3-70.5C637,257.4,575.9,230.8,608.2,215.3z"/>
	<path class="st2" d="M690.4,480.2c-12.7-9-27.6-71.4-28.5-108.5c-0.5-19-6.1-27-11-34c-4.7-6.7-8.8-12.5-6.5-25.7
		c4.6-25.3-7.4-36.3-7.6-36.4l1.4-1.6c0.5,0.5,13,11.8,8.2,38.4c-2.2,12.4,1.4,17.6,6.1,24.1c4.9,6.9,11,15.5,11.4,35.1
		c1,39.9,16.2,98.8,27.6,106.8L690.4,480.2z"/>
	<linearGradient id="SVGID_3_" gradientUnits="userSpaceOnUse" x1="679.3849" y1="422.3479" x2="779" y2="422.3479">
		<stop  offset="0" style="stop-color:#40D5E6"/>
		<stop  offset="1" style="stop-color:#5577FF"/>
	</linearGradient>
	<path class="st16" d="M695.2,484.8c-1.6,0-3.4-0.2-5.4-0.6c-4.9-1-8.1-3.6-9.6-7.7c-3.4-9.8,4.5-25.8,11-33.4
		c0.1-0.1,10.9-13.3,9.8-31.6c-0.2-3.1-0.5-5.9-0.8-8.4c-0.8-7.2-1.4-12.5,1.7-16c2.7-3.1,8-4.4,17.7-4.5c16.9-0.1,23.6-7.1,29-12.7
		c2.3-2.4,4.4-4.7,7.1-6.1l0,0c8.4-4.6,17.4-5.3,21.3-1.6c1.8,1.7,3.4,5.2,0.3,11.5c-2.8,5.8-6.4,9.5-9.3,12.5
		c-3.9,4-6.5,6.6-5.1,11.9c0.3,1.2,0.7,2.5,1,3.7c2.6,8.9,5.6,19.1-9.7,25.9c-3.2,1.5-6.2,2.6-8.8,3.6c-10.7,4.2-17.1,6.7-24.4,22.1
		c-1.4,3-2.7,5.8-3.9,8.5C711.3,475,707,484.8,695.2,484.8z M756.7,365.7c-2.3,1.3-4.3,3.3-6.6,5.7c-5.7,5.9-12.7,13.3-30.5,13.4
		c-8.9,0-13.9,1.2-16.1,3.8c-2.5,2.8-1.9,7.6-1.2,14.3c0.3,2.5,0.6,5.4,0.8,8.5c1.2,19.2-9.8,32.6-10.2,33.1
		c-6.4,7.6-13.6,22.8-10.6,31.4c1.2,3.4,3.9,5.5,8,6.3c14.4,2.9,18.4-6.1,25-21c1.2-2.7,2.5-5.6,3.9-8.6
		c7.6-16.1,14.7-18.9,25.5-23.1c2.6-1,5.5-2.2,8.7-3.6c13.6-6.1,11.2-14.5,8.6-23.4c-0.4-1.3-0.7-2.5-1.1-3.8
		c-1.6-6.4,1.6-9.7,5.7-13.9c2.9-3,6.3-6.4,8.9-11.9c1.4-2.9,2.5-6.8,0.1-9.1C772.3,360.7,764.2,361.6,756.7,365.7L756.7,365.7z"/>
	<linearGradient id="SVGID_4_" gradientUnits="userSpaceOnUse" x1="687.9001" y1="436.8336" x2="762.6682" y2="436.8336">
		<stop  offset="0" style="stop-color:#40D5E6"/>
		<stop  offset="1" style="stop-color:#5577FF"/>
	</linearGradient>
	<path class="st17" d="M690,497l-2.1-0.1c0.1-2,2.8-48.5,21.5-62.2c20.5-15,27-31,30.1-41.8c3.6-12.7,22.1-16.1,22.9-16.2l0.4,2.1
		c-0.2,0-18,3.3-21.2,14.7c-3.2,11.1-9.8,27.6-30.8,42.9C692.7,449.5,690,496.5,690,497z"/>
	<linearGradient id="SVGID_5_" gradientUnits="userSpaceOnUse" x1="660.9" y1="376.667" x2="747.9741" y2="376.667">
		<stop  offset="0" style="stop-color:#40D5E6"/>
		<stop  offset="1" style="stop-color:#5577FF"/>
	</linearGradient>
	<path class="st18" d="M732.8,262.3c-13.3-4.6-10.5,21.1-16.1,40c-5.6,19-62.5,8.3-38.6,55.7s-30.2,15.9-14,57.3
		c16.1,41.4,1.4,85.7,19,74.4s9.9-63.4,28.1-69.6c18.3-6.2,21.2-13.4,3.2-30.3c-18.1-16.8,47.3-33.6,31.2-67.6
		C729.2,288.3,748.1,267.6,732.8,262.3z"/>
	<path class="st2" d="M691.1,487.8c-1.7-7.1-15.9-69.5-2.6-77c11.7-6.6,11.4-32.5,9.6-56.9c-1.6-21.6,26.1-31.7,27.3-32.1l0.7,2
		c-0.3,0.1-27.4,10-25.9,30c1.9,25.1,2.1,51.7-10.7,58.9c-10.1,5.7-0.8,55.9,3.6,74.7L691.1,487.8z"/>
	<linearGradient id="SVGID_6_" gradientUnits="userSpaceOnUse" x1="640.9185" y1="501.5631" x2="721.2692" y2="501.5631">
		<stop  offset="0" style="stop-color:#FF9340"/>
		<stop  offset="1" style="stop-color:#FFCE45"/>
	</linearGradient>
	<polygon class="st19" points="721.3,465.6 702.3,537.6 659.9,537.6 640.9,465.6 	"/>
</g>
</svg>
