<?xml version="1.0" encoding="utf-8"?>
<!-- Generator: Adobe Illustrator 23.0.3, SVG Export Plug-In . SVG Version: 6.00 Build 0)  -->
<svg version="1.1" id="Layer_1" xmlns="http://www.w3.org/2000/svg" xmlns:xlink="http://www.w3.org/1999/xlink" x="0px" y="0px"
	 viewBox="0 0 5000 5000" style="enable-background:new 0 0 5000 5000;" xml:space="preserve">
<style type="text/css">
	.st0{fill:#FFFFFF;}
	.st1{fill:#E9ECF1;}
	.st2{fill:#364756;}
	.st3{fill:#696A7F;}
	.st4{opacity:0.35;fill:#FFFFFF;}
	.st5{opacity:0.18;}
	.st6{fill:#E5907C;}
	.st7{fill:#AC6C5D;}
	.st8{fill:#DBDBDB;}
	.st9{fill:#3B4858;}
	.st10{fill:#3D4D5C;}
	.st11{fill:#E9CA91;}
	.st12{fill:#F5E9D1;}
	.st13{fill:none;}
	.st14{font-family:'Montserrat-Regular';}
	.st15{font-size:141px;}
	.st16{font-family:'OpenSans-Light';}
</style>
<g>
	<g>
		<path class="st0" d="M2213.6,4466.5c-4.7,0-9-0.8-12.9-2.4c-3.9-1.6-7.2-3.9-9.9-6.9c-2.8-3-4.9-6.5-6.4-10.7
			c-1.5-4.1-2.3-8.8-2.3-13.8c0-5.1,0.8-9.8,2.3-13.9c1.5-4.1,3.6-7.7,6.4-10.6c2.7-2.9,6-5.2,9.9-6.8c3.8-1.6,8.1-2.4,12.7-2.4
			c3.9,0,7.5,0.5,10.8,1.5c3.3,1,6.2,2.4,8.7,4.2c2.5,1.8,4.5,4,6.1,6.6c1.5,2.6,2.5,5.4,2.8,8.6h-9c-0.2-2.1-0.7-4-1.7-5.7
			c-1-1.7-2.3-3.1-3.9-4.2c-1.7-1.2-3.6-2-5.9-2.6c-2.3-0.6-4.9-0.9-7.7-0.9c-3.3,0-6.4,0.6-9.1,1.7c-2.7,1.2-5.1,2.8-7.1,5.1
			c-2,2.2-3.5,5-4.6,8.2c-1.1,3.3-1.6,7-1.6,11.2c0,4.1,0.5,7.8,1.6,11.1c1.1,3.3,2.6,6,4.6,8.3c2,2.3,4.3,4,7.1,5.2
			s5.8,1.8,9.1,1.8c4.8,0,8.9-0.8,12.3-2.3c3.5-1.5,6.3-3.8,8.6-6.9v-10h-17.2v-7.8h25.6v33.3h-6.2l-2.2-6.9
			C2230.1,4463.9,2223.1,4466.5,2213.6,4466.5z"/>
		<path class="st0" d="M2304.7,4465.4H2256v-65.2h47.2v7.8h-38.6v19.8h36v7.8h-36v22.1h40V4465.4z"/>
		<path class="st0" d="M2363.2,4408h-21.6v57.4h-8.6V4408h-21.4v-7.8h51.6V4408z"/>
		<path class="st0" d="M2428.6,4466.5c-4.6,0-8.6-0.5-12.1-1.6c-3.4-1.1-6.3-2.6-8.6-4.6c-2.3-2-4-4.3-5.2-7
			c-1.2-2.7-1.8-5.7-1.9-8.9h8.3c0.2,2.5,0.9,4.6,2,6.4c1.1,1.8,2.5,3.3,4.2,4.5c1.7,1.2,3.6,2.1,5.9,2.6c2.2,0.6,4.6,0.8,7.1,0.8
			c2.4,0,4.6-0.3,6.6-0.8c2-0.5,3.7-1.3,5.1-2.2c1.4-1,2.5-2.1,3.3-3.5c0.8-1.4,1.2-2.9,1.2-4.6c0-1.8-0.4-3.3-1.1-4.5
			c-0.7-1.3-1.9-2.3-3.5-3.3c-1.6-0.9-3.7-1.8-6.3-2.5c-2.6-0.7-5.8-1.5-9.6-2.3c-3.7-0.8-6.8-1.8-9.5-2.8c-2.6-1.1-4.8-2.3-6.5-3.8
			c-1.7-1.4-3-3.1-3.8-4.9c-0.8-1.8-1.2-4-1.2-6.4c0-2.6,0.6-5,1.7-7.2s2.7-4.1,4.7-5.7c2-1.6,4.5-2.8,7.3-3.8
			c2.8-0.9,6-1.4,9.5-1.4c3.7,0,7,0.4,10,1.3c3,0.9,5.6,2.2,7.8,3.9c2.2,1.7,3.9,3.8,5.1,6.2c1.2,2.4,1.9,5.2,2,8.2h-8.3
			c-0.9-7.9-6.3-11.8-16.2-11.8c-4.8,0-8.6,0.9-11.2,2.7c-2.6,1.8-3.9,4.2-3.9,7.3c0,1.4,0.2,2.6,0.7,3.5c0.5,1,1.3,1.8,2.5,2.6
			c1.2,0.7,2.7,1.4,4.6,2c1.9,0.6,4.3,1.2,7.2,1.8c1.9,0.4,3.9,0.8,6,1.3c2.1,0.5,4.1,1,6,1.7c2,0.7,3.8,1.5,5.5,2.4
			c1.7,1,3.2,2.1,4.5,3.5c1.3,1.4,2.3,2.9,3.1,4.8c0.8,1.8,1.1,4,1.1,6.5c0,2.9-0.6,5.5-1.8,7.9c-1.2,2.4-2.9,4.5-5,6.2
			c-2.2,1.7-4.7,3.1-7.7,4C2435.3,4466.1,2432.1,4466.5,2428.6,4466.5z"/>
		<path class="st0" d="M2511.2,4408h-21.6v57.4h-8.6V4408h-21.4v-7.8h51.6V4408z"/>
		<path class="st0" d="M2574,4465.4h-9.8l-7.6-19.8h-27.3l-7.2,19.8h-9.1l25-65.2h9.4L2574,4465.4z M2554.2,4438.7l-11.5-30.2
			l-10.9,30.2H2554.2z"/>
		<path class="st0" d="M2635.6,4465.4h-9.4l-6.1-17.5c-0.6-1.5-1.3-2.9-2.2-4.2c-0.9-1.3-2-2.4-3.2-3.3c-1.2-0.9-2.6-1.6-4.1-2.1
			c-1.5-0.5-3.1-0.8-4.8-0.8h-16v27.8h-8.6v-65.2h28.9c1.7,0,3.4,0,5,0.1c1.6,0.1,3.1,0.3,4.5,0.5c1.4,0.3,2.8,0.7,4.1,1.3
			c1.3,0.6,2.5,1.3,3.7,2.3c2,1.7,3.5,3.9,4.5,6.3c1,2.5,1.5,5,1.5,7.7c0,2.3-0.3,4.4-1,6.3c-0.7,1.9-1.6,3.6-2.9,5.1
			c-1.3,1.5-2.8,2.7-4.6,3.8c-1.8,1-3.9,1.7-6.1,2.2v0.1c4.5,1.4,8,5.3,10.5,11.8L2635.6,4465.4z M2589.8,4429.8h19.4
			c2.7,0,5-0.2,6.9-0.6c1.9-0.4,3.5-1,4.7-1.9c1.2-0.9,2.1-2.1,2.7-3.5c0.6-1.4,0.9-3.2,0.9-5.3c0-3.8-1.2-6.5-3.5-8.3
			c-2.3-1.8-5.8-2.7-10.5-2.7h-20.6V4429.8z"/>
		<path class="st0" d="M2693.3,4408h-21.6v57.4h-8.6V4408h-21.4v-7.8h51.6V4408z"/>
		<path class="st0" d="M2751.2,4465.4h-48.7v-65.2h47.2v7.8h-38.6v19.8h36v7.8h-36v22.1h40V4465.4z"/>
		<path class="st0" d="M2817.2,4432.5c0,22-11.1,32.9-33.2,32.9h-20.7v-65.2h20.7C2806.2,4400.2,2817.2,4411,2817.2,4432.5z
			 M2808.4,4432.5c0-3.8-0.4-7.2-1.1-10.3c-0.8-3-2.1-5.6-3.9-7.7c-1.9-2.1-4.4-3.7-7.5-4.8c-3.1-1.1-7.1-1.7-11.9-1.7H2772v49.7
			h11.9c4.7,0,8.7-0.6,11.8-1.7c3.1-1.1,5.7-2.8,7.5-5c1.9-2.2,3.2-4.8,3.9-7.9C2808,4440,2808.4,4436.4,2808.4,4432.5z"/>
	</g>
</g>
<g>
	<g>
		<path class="st1" d="M3472,2655.7h1237.2c86.7,0,157.7-71,157.7-157.7v0c0-86.7-71-157.7-157.7-157.7H3472
			c-86.7,0-157.7,71-157.7,157.7v0C3314.3,2584.7,3385.3,2655.7,3472,2655.7z"/>
		<path class="st1" d="M3160.4,2098.1h1255.8c81.6,0,148.4-66.8,148.4-148.4v0c0-81.6-66.8-148.4-148.4-148.4H3160.4
			c-81.6,0-148.4,66.8-148.4,148.4v0C3012,2031.3,3078.8,2098.1,3160.4,2098.1z"/>
		<path class="st1" d="M227.5,1343.6h3940.7c52.2,0,95-42.7,95-95v0c0-52.2-42.7-95-95-95H227.5c-52.2,0-95,42.7-95,95v0
			C132.5,1300.9,175.2,1343.6,227.5,1343.6z"/>
		<path class="st1" d="M4015.7,3145.3h443.5c70.4,0,128.1-57.6,128.1-128.1v0c0-70.4-57.6-128.1-128.1-128.1h-443.5
			c-70.4,0-128.1,57.6-128.1,128.1v0C3887.6,3087.7,3945.2,3145.3,4015.7,3145.3z"/>
		<path class="st1" d="M1361.5,1009h884.9c70.4,0,128.1-57.6,128.1-128.1v0c0-70.4-57.6-128.1-128.1-128.1h-884.9
			c-70.4,0-128.1,57.6-128.1,128.1v0C1233.4,951.3,1291,1009,1361.5,1009z"/>
		<path class="st1" d="M643.5,3273.4H1087c70.4,0,128.1-57.6,128.1-128.1v0c0-70.4-57.6-128.1-128.1-128.1H643.5
			c-70.4,0-128.1,57.6-128.1,128.1v0C515.5,3215.8,573.1,3273.4,643.5,3273.4z"/>
		<path class="st1" d="M1528.8,3386.6h1857.9c70.4,0,128.1-57.6,128.1-128.1v0c0-70.4-57.6-128.1-128.1-128.1H1528.8
			c-70.4,0-128.1,57.6-128.1,128.1v0C1400.8,3328.9,1458.4,3386.6,1528.8,3386.6z"/>
		<path class="st1" d="M2305,1571.9h1204.1c95.8,0,174.3-78.4,174.3-174.3v0c0-95.8-78.4-174.3-174.3-174.3H2305
			c-95.8,0-174.3,78.4-174.3,174.3v0C2130.8,1493.4,2209.2,1571.9,2305,1571.9z"/>
		<path class="st1" d="M1023.2,2922.3h2628.3c113.6,0,206.5-92.9,206.5-206.5v0c0-113.6-92.9-206.5-206.5-206.5H1023.2
			c-113.6,0-206.5,92.9-206.5,206.5v0C816.7,2829.4,909.6,2922.3,1023.2,2922.3z"/>
		<path class="st1" d="M2474,1964v692h1635v-316h-150c-33.3,0-63.6-13.5-85.5-35.4c-21.9-22-35.6-52.2-35.6-85.5
			c0-66.6,54.5-121.1,121.1-121.1h150v-134H2474z"/>
		<path class="st1" d="M1909,2582.5H671.8c-86.7,0-157.7-71-157.7-157.7v0c0-86.7,71-157.7,157.7-157.7H1909
			c86.7,0,157.7,71,157.7,157.7v0C2066.7,2511.5,1995.7,2582.5,1909,2582.5z"/>
		<path class="st1" d="M2906,1891v692H1272v-316h149.9c33.3,0,63.6-13.6,85.5-35.5c21.9-22,35.6-52.1,35.6-85.5
			c0-66.6-54.5-121-121.1-121H1272v-134H2906z"/>
		<path class="st1" d="M1875,1333v692h1634v-224h-407.5c-58.8,0-106.5-47.8-106.5-106.7v-15.5c0-58.8,47.7-106.8,106.5-106.8H3509
			v-239H1875z"/>
		<path class="st1" d="M1719.9,1571.9H515.8c-95.8,0-174.3-78.4-174.3-174.3v0c0-95.8,78.4-174.3,174.3-174.3h1204.1
			c95.8,0,174.3,78.4,174.3,174.3v0C1894.2,1493.4,1815.8,1571.9,1719.9,1571.9z"/>
		<path class="st1" d="M2149.9,1333.1v691.8H627.3c-61.7,0-111.8-50.1-111.8-111.8v0c0-61.7,50.1-111.8,111.8-111.8h296.1
			c58.8,0,107-48.1,107-107v-15.5c0-58.8-48.1-107-107-107H515.5v-238.7H2149.9z"/>
	</g>
	<path class="st2" d="M1870.4,1964.6l0-24c13,0,26.2-0.5,39.1-1.5l1.8,24C1897.7,1964.1,1884,1964.6,1870.4,1964.6z M1829.6,1963.1
		c-13.6-1-27.2-2.5-40.6-4.5l3.5-23.8c12.8,1.9,25.9,3.4,38.9,4.3L1829.6,1963.1z M1951.9,1958.5l-3.6-23.8
		c12.8-1.9,25.8-4.4,38.4-7.2l5.3,23.4C1978.8,1954,1965.3,1956.5,1951.9,1958.5z M1748.7,1951.1c-13.2-3-26.5-6.5-39.5-10.5l7.1-23
		c12.4,3.8,25.1,7.2,37.8,10.1L1748.7,1951.1z M2031.6,1940.4l-7.1-23c12.4-3.8,24.8-8.2,36.9-12.9l8.8,22.4
		C2057.5,1931.8,2044.5,1936.4,2031.6,1940.4z M1670.6,1927.1c-12.6-5-25.3-10.5-37.5-16.4l10.4-21.6c11.7,5.6,23.8,10.9,35.9,15.6
		L1670.6,1927.1z M2107.6,1910.5l-10.4-21.6c11.7-5.6,23.3-11.8,34.5-18.3l12,20.8C2132,1898.2,2119.8,1904.6,2107.6,1910.5z
		 M1596.9,1891.6c-11.8-6.8-23.4-14.1-34.6-21.8l13.5-19.8c10.7,7.3,21.9,14.3,33.1,20.8L1596.9,1891.6z M2178.3,1869.6l-13.6-19.8
		c10.7-7.3,21.3-15.1,31.4-23.2l15,18.8C2200.5,1853.8,2189.5,1861.9,2178.3,1869.6z M1529.3,1845.5c-10.6-8.5-21-17.4-31-26.7
		l16.3-17.6c9.5,8.8,19.5,17.4,29.6,25.5L1529.3,1845.5z M2242.1,1818.6l-16.3-17.6c9.5-8.8,18.8-18.1,27.6-27.7l17.6,16.3
		C2261.8,1799.6,2252.1,1809.4,2242.1,1818.6z M1469.4,1789.9c-9.2-9.9-18.2-20.4-26.7-31l18.8-15c8.1,10.1,16.7,20.1,25.5,29.6
		L1469.4,1789.9z M2297.7,1758.7l-18.8-15c8.1-10.1,15.9-20.7,23.2-31.5l19.8,13.6C2314.4,1737,2306.2,1748.1,2297.7,1758.7z
		 M1418.4,1726.1c-7.7-11.2-15-22.8-21.8-34.6l20.8-12c6.5,11.2,13.5,22.3,20.8,33.1L1418.4,1726.1z M2343.8,1691.2l-20.8-12
		c6.5-11.3,12.7-22.9,18.3-34.6l21.6,10.4C2357.1,1667.2,2350.7,1679.4,2343.8,1691.2z M1377.4,1655.4
		c-5.9-12.2-11.4-24.8-16.4-37.4l22.4-8.8c4.8,12.1,10,24.1,15.7,35.8L1377.4,1655.4z M2379.4,1617.5l-22.4-8.8
		c4.7-12.1,9.1-24.5,12.9-36.9l23,7.1C2388.9,1591.8,2384.3,1604.8,2379.4,1617.5z M1347.5,1579.4c-4-13-7.6-26.3-10.6-39.5
		l23.4-5.3c2.9,12.7,6.3,25.4,10.1,37.7L1347.5,1579.4z M2403.4,1539.3l-23.4-5.3c2.9-12.7,5.3-25.6,7.2-38.4l23.8,3.6
		C2409,1512.6,2406.5,1526.1,2403.4,1539.3z M1329.3,1499.7c-2-13.4-3.6-27.1-4.6-40.6l24-1.8c1,13,2.4,26,4.4,38.8L1329.3,1499.7z
		 M2415.5,1458.5l-24-1.8c1-12.9,1.4-26.1,1.4-39.1l0-1.1h24l0,1.1C2417,1431.3,2416.5,1445,2415.5,1458.5z M1347.2,1418.3h-24
		l0-0.4c0-13.5,0.5-27.1,1.5-40.4l24,1.7c-0.9,12.7-1.4,25.7-1.4,38.5L1347.2,1418.3z M2391.5,1377.5c-1-13-2.5-26-4.4-38.8
		l23.8-3.6c2,13.4,3.6,27.1,4.6,40.6L2391.5,1377.5z M1352.9,1340.3l-23.8-3.5c2-13.4,4.5-27,7.5-40.2l23.4,5.3
		C1357.2,1314.6,1354.8,1327.5,1352.9,1340.3z M2379.8,1300.3c-2.9-12.6-6.3-25.3-10.2-37.7l22.9-7.1c4,13,7.6,26.3,10.6,39.5
		L2379.8,1300.3z M1370.1,1264.1l-23-7c4-13,8.5-26,13.5-38.7l22.4,8.8C1378.3,1239.3,1373.9,1251.7,1370.1,1264.1z M2356.6,1225.7
		c-4.8-12-10-24.1-15.7-35.8l21.6-10.5c5.9,12.2,11.5,24.8,16.4,37.4L2356.6,1225.7z M1398.6,1191.3l-21.6-10.4
		c5.9-12.2,12.3-24.4,19.1-36.2l20.8,12C1410.4,1168,1404.3,1179.6,1398.6,1191.3z M2322.6,1155.4c-6.5-11.2-13.5-22.3-20.9-33
		l19.8-13.6c7.7,11.2,15,22.8,21.8,34.6L2322.6,1155.4z M1437.7,1123.6l-19.9-13.5c7.6-11.2,15.8-22.3,24.3-32.9l18.8,15
		C1452.8,1102.3,1445,1112.9,1437.7,1123.6z M2278.4,1091c-8.1-10.1-16.7-20.1-25.6-29.6l17.6-16.4c9.3,9.9,18.2,20.3,26.7,30.9
		L2278.4,1091z M1486.4,1062.5l-17.6-16.3c9.2-10,18.9-19.7,28.9-28.9l16.4,17.6C1504.5,1043.6,1495.2,1052.9,1486.4,1062.5z
		 M2225.1,1033.8c-9.5-8.8-19.5-17.4-29.7-25.5l15-18.8c10.6,8.4,21.1,17.4,31,26.6L2225.1,1033.8z M1543.6,1009.2l-15-18.8
		c10.6-8.5,21.6-16.7,32.8-24.3L1575,986C1564.3,993.3,1553.8,1001.1,1543.6,1009.2z M2164,985.1c-10.7-7.3-21.9-14.3-33.1-20.8
		l12-20.8c11.8,6.8,23.4,14.1,34.7,21.7L2164,985.1z M1608.1,965.1l-12.1-20.8c11.7-6.8,23.9-13.3,36.1-19.2l10.5,21.6
		C1630.9,952.4,1619.3,958.6,1608.1,965.1z M2096.3,946.1c-11.7-5.6-23.8-10.9-35.9-15.6l8.7-22.4c12.7,4.9,25.3,10.4,37.5,16.3
		L2096.3,946.1z M1678.3,931.1l-8.8-22.3c12.6-5,25.6-9.5,38.6-13.6l7.1,22.9C1702.8,922,1690.4,926.3,1678.3,931.1z M2023.4,917.6
		c-12.4-3.8-25.1-7.2-37.8-10l5.3-23.4c13.2,3,26.5,6.5,39.5,10.5L2023.4,917.6z M1753,908l-5.4-23.4c13.2-3,26.7-5.6,40.2-7.6
		l3.6,23.8C1778.5,902.6,1765.6,905.1,1753,908z M1947.2,900.4c-12.8-1.9-25.9-3.3-38.9-4.3l1.7-24c13.6,1,27.2,2.5,40.6,4.5
		L1947.2,900.4z M1830.2,896.3l-1.8-24c13.5-1,27.3-1.5,40.8-1.6l0,24C1856.3,894.8,1843.1,895.3,1830.2,896.3z"/>
	<rect x="1689.8" y="3042.9" class="st3" width="397.2" height="146.9"/>
	<g>
		<polygon class="st0" points="2132.6,3182.7 1888.3,3182.7 1644.1,3182.7 1591.6,3226.7 1888.3,3226.7 2185.1,3226.7 		"/>
		<path class="st2" d="M2218.1,3238.7h-659.5l81.1-68.1H2137L2218.1,3238.7z M1624.6,3214.7h527.5l-23.9-20h-479.7L1624.6,3214.7z"
			/>
	</g>
	<g>
		<path class="st0" d="M1186.3,2033.3h1404c18.9,0,34.2,15.3,34.2,34.2v956.6c0,18.9-15.3,34.2-34.2,34.2h-1404
			c-18.9,0-34.2-15.3-34.2-34.2v-956.6C1152.1,2048.6,1167.4,2033.3,1186.3,2033.3z"/>
		<path class="st2" d="M2590.3,3070.3h-1404c-25.5,0-46.2-20.7-46.2-46.2v-956.6c0-25.5,20.7-46.2,46.2-46.2h1404
			c25.5,0,46.2,20.7,46.2,46.2v956.6C2636.6,3049.6,2615.8,3070.3,2590.3,3070.3z M1186.3,2045.3c-12.3,0-22.2,10-22.2,22.2v956.6
			c0,12.2,10,22.2,22.2,22.2h1404c12.3,0,22.2-10,22.2-22.2v-956.6c0-12.2-10-22.2-22.2-22.2H1186.3z"/>
	</g>
	<path class="st3" d="M2573.1,2860.5c0,7.7-6.2,13.9-13.9,13.9H1215.6c-7.7,0-13.9-6.2-13.9-13.9v-766.9c0-7.7,6.2-13.9,13.9-13.9
		h1343.5c7.7,0,13.9,6.2,13.9,13.9V2860.5z"/>
	<g>
		<path class="st3" d="M1899.5,2964.6c0,6.1-5,11.1-11.1,11.1c-6.1,0-11.1-5-11.1-11.1c0-6.1,5-11.1,11.1-11.1
			C1894.5,2953.5,1899.5,2958.4,1899.5,2964.6z"/>
		
			<ellipse transform="matrix(0.7071 -0.7071 0.7071 0.7071 -1522.8569 2252.6624)" class="st3" cx="1957.8" cy="2964.6" rx="15.9" ry="15.9"/>
		
			<ellipse transform="matrix(0.2298 -0.9732 0.9732 0.2298 -1323.8275 4256.4351)" class="st3" cx="2027.2" cy="2964.6" rx="15.9" ry="15.9"/>
		
			<ellipse transform="matrix(0.7071 -0.7071 0.7071 0.7071 -1583.8641 2105.3779)" class="st3" cx="1749.5" cy="2964.6" rx="15.9" ry="15.9"/>
		
			<ellipse transform="matrix(0.2298 -0.9732 0.9732 0.2298 -1484.2635 4053.7153)" class="st3" cx="1818.9" cy="2964.6" rx="15.9" ry="15.9"/>
	</g>
	<path class="st4" d="M1926.6,2872.4h-711.6c-7.7,0-13.2-4.3-13.2-12v-766.1c0-7.7,5.5-14.7,13.2-14.7h182.4L1926.6,2872.4z"/>
	<polygon class="st4" points="2229.7,2872.4 2081,2872.4 2080,2872.5 1550.8,2079.6 1699.4,2079.6 2228.7,2872.5 	"/>
	<rect x="1113.6" y="3214.7" class="st2" width="2894.8" height="24"/>
	<g>
		<circle class="st0" cx="1870.1" cy="1417.7" r="434.3"/>
		<path class="st2" d="M1870.1,1864c-119.2,0-231.3-46.4-315.6-130.7c-84.3-84.3-130.7-196.4-130.7-315.6
			c0-119.2,46.4-231.3,130.7-315.6c84.3-84.3,196.4-130.7,315.6-130.7s231.3,46.4,315.6,130.7c84.3,84.3,130.7,196.4,130.7,315.6
			c0,119.2-46.4,231.3-130.7,315.6C2101.4,1817.6,1989.3,1864,1870.1,1864z M1870.1,995.4c-232.9,0-422.3,189.5-422.3,422.3
			c0,232.9,189.5,422.3,422.3,422.3s422.3-189.5,422.3-422.3C2292.4,1184.8,2103,995.4,1870.1,995.4z"/>
	</g>
	<polygon class="st2" points="1907.9,1417.7 2094.9,1236.3 1877.8,1382.5 	"/>
	<polygon class="st2" points="1830.1,1425.3 1714.4,1328.1 1856.1,1386 	"/>
	
		<rect x="1983.6" y="1403.2" transform="matrix(0.6992 -0.7149 0.7149 0.6992 -505.1675 1884.7378)" class="st2" width="7.3" height="279.1"/>
	<rect x="1864.9" y="1014.3" class="st2" width="16.4" height="41.3"/>
	
		<rect x="2057" y="1063.7" transform="matrix(0.8656 0.5008 -0.5008 0.8656 816.6888 -887.0306)" class="st2" width="7.4" height="28.2"/>
	
		<rect x="2201.5" y="1204.8" transform="matrix(0.4985 0.8669 -0.8669 0.4985 2162.4937 -1300.3862)" class="st2" width="7.4" height="28.2"/>
	
		<rect x="2205.5" y="1594.8" transform="matrix(-0.503 0.8643 -0.8643 -0.503 4710.9697 508.7374)" class="st2" width="7.4" height="28.2"/>
	
		<rect x="2064.2" y="1739" transform="matrix(-0.8682 0.4963 -0.4963 -0.8682 4733.252 2248.9055)" class="st2" width="7.4" height="28.2"/>
	
		<rect x="1674.1" y="1742.5" transform="matrix(-0.863 -0.5052 0.5052 -0.863 2238.2876 4120.1606)" class="st2" width="7.4" height="28.2"/>
	
		<rect x="1530.4" y="1600.6" transform="matrix(-0.494 -0.8694 0.8694 -0.494 888.0815 3746.157)" class="st2" width="7.4" height="28.2"/>
	
		<rect x="1528.1" y="1210.5" transform="matrix(0.5075 -0.8617 0.8617 0.5075 -300.7066 1923.0833)" class="st2" width="7.4" height="28.2"/>
	
		<rect x="1670.4" y="1067.2" transform="matrix(0.8707 -0.4918 0.4918 0.8707 -315.357 963.1246)" class="st2" width="7.4" height="28.2"/>
	<rect x="1864.9" y="1779.8" class="st2" width="16.4" height="41.3"/>
	
		<rect x="2244.6" y="1397.1" transform="matrix(-1.836970e-16 1 -1 -1.836970e-16 3670.5173 -835.1376)" class="st2" width="16.4" height="41.3"/>
	
		<rect x="1479.2" y="1397.1" transform="matrix(-1.836970e-16 1 -1 -1.836970e-16 2905.0889 -69.7093)" class="st2" width="16.4" height="41.3"/>
	<g>
		
			<ellipse transform="matrix(0.9732 -0.2298 0.2298 0.9732 -275.6899 467.5863)" class="st0" cx="1870.1" cy="1417.7" rx="46.4" ry="46.4"/>
		<path class="st2" d="M1870.1,1476.1c-32.2,0-58.4-26.2-58.4-58.4c0-32.2,26.2-58.4,58.4-58.4s58.4,26.2,58.4,58.4
			C1928.6,1449.9,1902.3,1476.1,1870.1,1476.1z M1870.1,1383.3c-19,0-34.4,15.4-34.4,34.4c0,19,15.4,34.4,34.4,34.4
			s34.4-15.4,34.4-34.4C1904.5,1398.7,1889.1,1383.3,1870.1,1383.3z"/>
	</g>
	<path class="st5" d="M1873.1,1838c-19,0-37.7-1.3-56.1-3.8c578.6-276.4,223-801.6,223-801.6s0,0,0,0
		c147.3,64.8,250.3,212.9,250.3,385.2C2290.4,1649.9,2103.6,1838,1873.1,1838z"/>
	<rect x="2321.3" y="2944.4" class="st6" width="715.4" height="138"/>
	<rect x="2321.3" y="2944.4" class="st7" width="715.4" height="69"/>
	<rect x="2467.3" y="2943.1" class="st0" width="105.8" height="139.3"/>
	<rect x="2467.3" y="2944.4" class="st8" width="105.8" height="69.7"/>
	<rect x="2353.2" y="2648.9" class="st6" width="715.4" height="108.7"/>
	<rect x="2353.2" y="2648.9" class="st7" width="715.4" height="54.4"/>
	
		<rect x="2816.8" y="2647.9" transform="matrix(-1 -5.858247e-05 5.858247e-05 -1 5739.1973 5405.6968)" class="st0" width="105.8" height="109.8"/>
	
		<rect x="2816.8" y="2648.9" transform="matrix(-1 -5.669293e-05 5.669293e-05 -1 5739.2065 5352.9116)" class="st8" width="105.8" height="54.9"/>
	<g>
		<path class="st9" d="M3128.2,3082.5l-776.1,0l0,21.4l776.1,0c31.5,0,54.4,23.7,54.4,55.1v0.9c0,31.4-23,56.6-54.4,56.6l-776.1,0
			l0,21.4l776.1,0c43.4,0,75.9-34.7,75.9-78l0-0.9C3204.1,3115.7,3171.6,3082.5,3128.2,3082.5z"/>
	</g>
	<path class="st8" d="M3128.3,3216.4l-745,0l0-112.5l746.6,0c29,0,52.5,23.5,52.5,52.5l0,5.9
		C3182.5,3192.2,3158.2,3216.4,3128.3,3216.4z"/>
	<polygon class="st6" points="2936.1,3146 2902.7,3146 2902.7,3297.8 2936.1,3256.1 2969.5,3297.8 2969.5,3146 	"/>
	<g>
		<path class="st9" d="M2355.1,2849.3l0,1c0,51.8,32.5,93.4,75.9,93.4l776.1,0l0-25.7l-776.1,0c-31.5,0-54.4-30.1-54.4-67.7l0-1
			c0-37.6,23-65.9,54.4-65.9l776.1,0l0-25.7l-776.1,0C2387.7,2757.7,2355.1,2797.4,2355.1,2849.3z"/>
	</g>
	<path class="st0" d="M2436,2918l739.9,0l0-134.7l-741.7,0c-31.7,0-57.4,25.7-57.4,57.4l0,18C2376.8,2891.5,2403.3,2918,2436,2918z"
		/>
	<polygon class="st6" points="2656.5,2809.3 2689.9,2809.3 2689.9,2961.1 2656.5,2919.4 2623.1,2961.1 2623.1,2809.3 	"/>
	<path class="st0" d="M2496.5,2708.2c0,23.1-18.7,41.7-41.8,41.7c-23.1,0-41.7-18.7-41.7-41.8s18.7-41.7,41.8-41.7
		C2477.8,2666.5,2496.5,2685.1,2496.5,2708.2z"/>
	<path class="st2" d="M3612.1,1723.4v-218.1l184.3,109L3612.1,1723.4z M3636.1,1547.5v133.8l113.1-66.9L3636.1,1547.5z"/>
	<g>
		<rect x="2498.9" y="2345.9" class="st2" width="454.8" height="13.1"/>
		<rect x="2491.9" y="2338.9" class="st2" width="468.8" height="27.2"/>
	</g>
	<g>
		<rect x="2349.9" y="2521.2" class="st2" width="319.9" height="13.1"/>
		<rect x="2342.9" y="2514.2" class="st2" width="333.9" height="27.2"/>
	</g>
	<path class="st2" d="M3293.8,2365.9h-40v-24h40V2365.9z M3213.7,2365.9h-40v-24h40V2365.9z M3133.6,2365.9h-40v-24h40V2365.9z
		 M3053.5,2365.9h-40v-24h40V2365.9z"/>
	
		<ellipse transform="matrix(0.7071 -0.7071 0.7071 0.7071 -509.8049 3095.2502)" class="st6" cx="3481.4" cy="2163" rx="88.4" ry="88.4"/>
	<g>
		<g>
			<path class="st2" d="M3538.2,2138.1c44,0,79.6,35.6,79.6,79.6c0,44-35.6,79.6-79.6,79.6c-44,0-79.6-35.6-79.6-79.6
				C3458.6,2173.7,3494.2,2138.1,3538.2,2138.1 M3538.2,2129.3c-48.7,0-88.4,39.6-88.4,88.4s39.6,88.4,88.4,88.4
				s88.4-39.6,88.4-88.4S3586.9,2129.3,3538.2,2129.3L3538.2,2129.3z"/>
			<path class="st2" d="M3538.2,2313c-52.6,0-95.4-42.8-95.4-95.4c0-52.6,42.8-95.4,95.4-95.4c52.6,0,95.4,42.8,95.4,95.4
				C3633.5,2270.3,3590.8,2313,3538.2,2313z M3538.2,2145.1c-40,0-72.6,32.6-72.6,72.6c0,40,32.6,72.6,72.6,72.6
				c40,0,72.6-32.6,72.6-72.6C3610.8,2177.6,3578.2,2145.1,3538.2,2145.1z"/>
		</g>
	</g>
	<g>
		<rect x="3693" y="1889.6" class="st2" width="630.9" height="13.1"/>
		<rect x="3686" y="1882.6" class="st2" width="645" height="27.2"/>
	</g>
	<g>
		<rect x="3920.6" y="1992.7" class="st2" width="319.9" height="13.1"/>
		<rect x="3913.6" y="1985.7" class="st2" width="333.9" height="27.2"/>
	</g>
	<g>
		<rect x="817.9" y="1998.9" class="st2" width="118.3" height="13.1"/>
		<rect x="810.9" y="1991.8" class="st2" width="132.3" height="27.2"/>
	</g>
	<rect x="985.2" y="1533.2" class="st6" width="165.5" height="165.5"/>
	<path class="st2" d="M1221.4,1764.6h-189.5v-189.5h189.5V1764.6z M1055.9,1740.6h141.5v-141.5h-141.5V1740.6z"/>
	<path class="st3" d="M1068.6,2134.4c-2.1-0.5-4.3-0.9-6.4-1.4c-0.1,0-0.2,0-0.3-0.1c-16.9-3.6-30-16.7-33.7-33.5
		c-0.5-2.2-0.9-4.2-1.3-5.9c0-0.2-0.2-0.4-0.2-0.6c0,0.2-0.2,0.4-0.2,0.6c-0.4,1.7-0.8,3.7-1.3,5.9c-3.7,16.8-16.9,30-33.7,33.5
		c-0.1,0-0.2,0-0.3,0.1c-2.1,0.5-4.3,0.9-6.4,1.4c0,0,0,0.1,0,0.1c0.2,0,0.4,0.1,0.5,0.1c1.8,0.4,4,0.9,6.3,1.4
		c16.8,3.6,29.9,16.8,33.6,33.6c0.2,0.7,0.3,1.4,0.4,2c0.3,1.5,0.7,3,1,4.7c0,0,0-0.1,0-0.1c0,0,0,0.1,0,0.1c0.4-1.7,0.7-3.2,1-4.7
		c0.1-0.6,0.3-1.3,0.4-2c3.7-16.8,16.8-29.9,33.6-33.6c2.3-0.5,4.5-1,6.3-1.4c0.2,0,0.4-0.1,0.5-0.1
		C1068.6,2134.5,1068.6,2134.4,1068.6,2134.4z"/>
	<path class="st3" d="M4122.5,2129c-2.1-0.5-4.3-0.9-6.4-1.4c-0.1,0-0.2,0-0.3-0.1c-16.9-3.6-30-16.7-33.7-33.5
		c-0.5-2.2-0.9-4.2-1.3-5.9c0-0.2-0.2-0.4-0.2-0.6c0,0.2-0.2,0.4-0.2,0.6c-0.4,1.7-0.8,3.7-1.3,5.9c-3.7,16.8-16.9,30-33.7,33.5
		c-0.1,0-0.2,0-0.3,0.1c-2.1,0.5-4.3,0.9-6.4,1.4c0,0,0,0.1,0,0.1c0.2,0,0.4,0.1,0.5,0.1c1.8,0.4,4,0.9,6.3,1.4
		c16.8,3.6,29.9,16.8,33.6,33.6c0.2,0.7,0.3,1.4,0.4,2c0.3,1.5,0.7,3,1,4.7c0,0,0-0.1,0-0.1c0,0,0,0.1,0,0.1c0.4-1.7,0.7-3.2,1-4.7
		c0.1-0.6,0.3-1.3,0.4-2c3.7-16.8,16.8-29.9,33.6-33.6c2.3-0.5,4.5-1,6.3-1.4c0.2,0,0.4-0.1,0.5-0.1
		C4122.5,2129.1,4122.5,2129.1,4122.5,2129z"/>
	<g>
		<path class="st10" d="M3859.4,2272.3c-3.5-1.6-6.5-3.9-9-6.9l-477.6-557.4c-9.9-11.5-8.2-29.3,3.6-39.5c8.6-7.4,20.5-9.1,30.4-4.5
			c3.5,1.6,6.5,3.9,9,6.8l477.6,557.4c9.9,11.5,8.3,29.3-3.6,39.5C3881.3,2275.1,3869.3,2276.9,3859.4,2272.3z M3398.9,1681.2
			c-3.3-1.5-7.3-0.9-10.2,1.7c-4,3.4-4.7,9.2-1.6,12.8l477.6,557.4c3.1,3.6,8.9,3.7,12.8,0.3c4-3.4,4.7-9.2,1.6-12.8l-477.6-557.4
			C3400.8,1682.4,3399.9,1681.7,3398.9,1681.2z"/>
	</g>
	<g>
		<path class="st10" d="M3612.7,3150.9c-6.6,2.4-14,2.4-20.8,0.2c-7.7-2.6-14.1-8-17.8-15.1c-3.8-7.3-4.5-15.5-1.9-23.2l255.2-756.1
			c2.9-8.5,9.5-15.2,18.2-18.3c6.6-2.4,14-2.5,20.7-0.2c16.2,5.5,25,22.7,19.7,38.3l-255.1,756
			C3628,3141.1,3621.4,3147.8,3612.7,3150.9z M3852.5,2357.8c-2.7,1-4.8,3-5.6,5.5l-255.1,756.1c-0.8,2.3-0.5,4.8,0.6,7
			c1.3,2.4,3.5,4.3,6.2,5.2c5.2,1.8,11.2-0.9,12.8-5.5l255.1-756.1c1.7-4.9-1.4-10.4-6.8-12.2
			C3857.3,2356.9,3854.8,2356.9,3852.5,2357.8z"/>
	</g>
	<path class="st2" d="M3420.3,1693.9c-15.1,25.7-48.1,34.3-73.7,19.2c-25.6-15.1-34.2-48.1-19.2-73.8c15.1-25.6,48.1-34.2,73.8-19.1
		C3426.8,1635.3,3435.4,1668.3,3420.3,1693.9z"/>
	<path class="st3" d="M3955.8,2263.9c12.6,43.8-12.6,89.5-56.4,102.2c-43.8,12.7-89.6-12.6-102.2-56.4
		c-12.7-43.8,12.6-89.6,56.4-102.2C3897.4,2194.8,3943.2,2220.1,3955.8,2263.9z"/>
	<path class="st3" d="M3924.6,2272.9c7.3,25.4-7.3,52-32.7,59.3c-25.4,7.3-52-7.3-59.3-32.7c-7.3-25.4,7.3-52,32.7-59.4
		C3890.6,2232.8,3917.2,2247.5,3924.6,2272.9z"/>
	<g>
		<path class="st3" d="M3278.7,1708l57.1-29.3c74.2-38.1,112.4-111.6,85.5-164.2l-7.7-15c-27-52.5-109-64.2-183.2-26.1l-57.1,29.3
			L3278.7,1708z"/>
		<path class="st2" d="M3273.5,1724.1L3157,1497.5l67.8-34.8c38.1-19.6,79.5-27.4,116.5-22.2c38.6,5.5,68,24.5,82.9,53.4l7.7,15
			c14.9,29,13.2,64-4.8,98.5c-17.3,33.2-47.8,62.3-85.8,81.8L3273.5,1724.1z M3189.4,1507.9l94.5,183.9l46.4-23.8
			c68.2-35,104.2-101.4,80.3-148l-7.7-15c-23.9-46.6-98.9-55.9-167.1-20.9L3189.4,1507.9z"/>
	</g>
	<path class="st11" d="M2768.5,2204.2L2639.6,1972l-174.8-314.9c360.2-199.9,715.1-248.3,792.9-108.4l18.1,32.8l4,7.2
		C3357.5,1728.8,3128.7,2004.3,2768.5,2204.2z"/>
	<path class="st2" d="M2763.8,2220.6l-315.3-568.1l10.5-5.8c175.5-97.4,355.3-162.4,506.6-183c155-21.2,262.5,7,302.6,79.3l22.1,40
		c40.1,72.3,7.2,178.5-92.7,298.8c-97.5,117.4-247.8,235.6-423.3,333L2763.8,2220.6z M2481.2,1661.8l292,526.1
		c168.4-94.8,312.3-208.7,406-321.5c46-55.4,77.2-107.3,92.8-154.3c15.5-46.8,14.7-86.3-2.6-117.5l-22.1-40
		c-17.3-31.1-50.4-52.8-98.3-64.4c-48.1-11.6-108.7-12.6-180-2.8C2823.5,1507.2,2650.8,1569.1,2481.2,1661.8z"/>
	<polygon class="st10" points="3489.5,1839.2 3477.5,1826 3515.1,1791.7 3527.1,1805 	"/>
	<polygon class="st10" points="3517.7,1865 3505.7,1851.7 3537.9,1822.4 3549.9,1835.7 	"/>
	<polygon class="st10" points="3725.9,2111.7 3713.9,2098.4 3751.6,2064.2 3763.6,2077.5 	"/>
	<polygon class="st10" points="3754.1,2137.5 3742.1,2124.2 3774.3,2094.9 3786.3,2108.2 	"/>
	
		<rect x="3806.1" y="2462.6" transform="matrix(0.3217 -0.9468 0.9468 0.3217 230.3975 5302.1318)" class="st10" width="19.5" height="55.3"/>
	
		<rect x="3792.8" y="2505.7" transform="matrix(0.3217 -0.9468 0.9468 0.3217 184.3282 5316.0869)" class="st10" width="19.5" height="47.3"/>
	
		<rect x="3701.6" y="2768.7" transform="matrix(0.3217 -0.9468 0.9468 0.3217 -130.2539 5410.834)" class="st10" width="19.5" height="55.3"/>
	
		<rect x="3688.4" y="2811.8" transform="matrix(0.3217 -0.9468 0.9468 0.3217 -176.3234 5424.7886)" class="st10" width="19.5" height="47.3"/>
	<g class="st5">
		<path d="M2768.5,2204.2L2639.6,1972c163.6-34.3,479.3-131.8,636.2-390.5l4,7.2C3357.5,1728.8,3128.7,2004.3,2768.5,2204.2z"/>
	</g>
	<path class="st3" d="M3760,2990.6h-221.2c-20,0-36.4,16.4-36.4,36.4v54.6h294.1v-54.6C3796.5,3007,3780.1,2990.6,3760,2990.6z"/>
	<path class="st11" d="M3249.7,3227.4h725.1c0,0-4.7-186.7-373.4-172.7C3601.4,3054.7,3294.8,3029.7,3249.7,3227.4z"/>
	<path class="st2" d="M3987.1,3239.4h-752.4l3.4-14.7c19.6-85.7,89.3-144.3,201.8-169.5c79.7-17.9,153.1-13.2,161.8-12.5
		c84.7-3.2,157.4,4,216.1,21.3c48,14.1,87.1,35.1,116,62.3c51.2,48.1,53,98.7,53.1,100.9L3987.1,3239.4z M3265.4,3215.4h695.5
		c-3.6-15.7-14.1-44.2-44.3-72.3c-41.7-38.7-130.1-83.4-314.7-76.4l-0.7,0l-0.7-0.1c-0.7-0.1-76.2-5.9-155.8,12.1
		C3347.4,3100.7,3287.2,3146.6,3265.4,3215.4z"/>
	<path class="st12" d="M2799.3,2169.6c14,23.5,10.9,39.7-0.2,46l0,0c-11.2,6.3-26,0.1-40.2-23.2L2463.5,1668
		c-13.4-25.3-10-37.4,1.1-43.7l0,0c11.2-6.3,26.4-3.3,39.2,21L2799.3,2169.6z"/>
	<path class="st2" d="M2790.3,2229.9c-11,0-26.3-6-41.7-31.2l-0.2-0.4l-295.6-524.7c-19.1-36-7.3-52.4,5.9-59.8
		c8.1-4.5,16.9-5.6,25.5-3c11.7,3.4,21.9,13.1,30.2,28.7l295.3,524.2c12.2,20.5,12.1,35,9.8,43.5c-2.2,8.3-7.2,14.8-14.5,18.9
		C2802.4,2227.6,2797.1,2229.9,2790.3,2229.9z M2769.3,2186.3c8.8,14.4,18.4,21.9,24,18.8c1.5-0.9,2.5-2.2,3-4.1
		c0.7-2.7,1.4-10.6-7.3-25.2l-0.1-0.3l-295.6-524.7c-6.8-12.8-12.8-16.2-15.8-17c-2.3-0.7-4.6-0.4-6.9,0.9
		c-2.3,1.3-8.5,4.8,3.5,27.5L2769.3,2186.3z"/>
	
		<ellipse transform="matrix(0.7071 -0.7071 0.7071 0.7071 -55.9471 2253.5906)" class="st6" cx="2692.4" cy="1194.3" rx="146.2" ry="146.2"/>
	<g>
		<path class="st2" d="M2782,1306.8c-71.1,0-136.4-47.5-155.7-119.4c-11.2-41.6-5.5-85,16-122.4c21.5-37.3,56.3-64,97.8-75.2
			l6.2,23.2c-35.4,9.5-65,32.2-83.3,64c-18.3,31.8-23.1,68.7-13.6,104.1c19.6,73.1,95.1,116.5,168.1,96.9l6.2,23.2
			C2809.9,1305,2795.8,1306.8,2782,1306.8z"/>
		<g>
			<path class="st2" d="M2745.2,1013.3l-6.2-23.2c7-1.9,14.1-3.3,21.2-4.2l3.1,23.8C2757.2,1010.5,2751.2,1011.7,2745.2,1013.3z"/>
			<path class="st2" d="M2879.5,1273.4l-14.7-19c9.4-7.3,17.9-15.8,25.2-25.4l19.1,14.5C2900.6,1254.8,2890.6,1264.8,2879.5,1273.4z
				 M2930,1207.2l-22.2-9.2c4.6-11.1,7.7-22.7,9.2-34.5l23.8,3.1C2939,1180.5,2935.3,1194.2,2930,1207.2z M2916.9,1127.8
				c-0.8-5.9-2-11.8-3.5-17.5c-1.6-5.8-3.5-11.5-5.8-17l22.2-9.2c2.7,6.4,4.9,13.2,6.8,19.9c1.8,6.8,3.2,13.7,4.1,20.6
				L2916.9,1127.8z M2889.7,1062.3c-7.3-9.5-15.8-18-25.3-25.3l14.6-19.1c11.2,8.6,21.2,18.6,29.7,29.7L2889.7,1062.3z
				 M2833.5,1019.1c-11.1-4.6-22.7-7.7-34.5-9.3l3.2-23.8c13.9,1.9,27.6,5.6,40.5,11L2833.5,1019.1z"/>
			<path class="st2" d="M2822.7,1301.6l-6.2-23.2c5.9-1.6,11.8-3.6,17.4-5.9l9.3,22.2C2836.5,1297.3,2829.7,1299.7,2822.7,1301.6z"
				/>
		</g>
	</g>
	<path class="st2" d="M3530,941.4l-57-33.3l57-33.3V941.4z M3492.9,908.1l27.1,15.9v-31.7L3492.9,908.1z"/>
	<rect x="3123.7" y="1018.7" class="st6" width="156.1" height="156.1"/>
	<path class="st2" d="M3340.6,1208.2h-180.2V1028h180.2V1208.2z M3184.4,1184.2h132.1v-132.1h-132.1V1184.2z"/>
	<g>
		<rect x="3482.9" y="1288.3" class="st2" width="252.2" height="12.4"/>
		<rect x="3475.9" y="1281.3" class="st2" width="266.2" height="26.4"/>
	</g>
	<path class="st2" d="M3433.9,1306.8h-40v-24h40V1306.8z M3353.8,1306.8h-40v-24h40V1306.8z M3273.7,1306.8h-40v-24h40V1306.8z
		 M3193.7,1306.8h-40v-24h40V1306.8z"/>
</g>
<rect x="1679.6" y="3600.6" class="st13" width="2522.2" height="511.1"/>
<text transform="matrix(1 0 0 1 1679.5557 3705.1758)"><tspan x="0" y="0" class="st14 st15">     Online Trainings</tspan><tspan x="0" y="169.2" class="st16 st15">Explore the Opportunity</tspan></text>
</svg>
