<?xml version="1.0" encoding="utf-8"?>
<!-- Generator: Adobe Illustrator 23.0.3, SVG Export Plug-In . SVG Version: 6.00 Build 0)  -->
<svg version="1.1" id="Layer_1" xmlns="http://www.w3.org/2000/svg" xmlns:xlink="http://www.w3.org/1999/xlink" x="0px" y="0px"
	 viewBox="0 0 5000 2900" style="enable-background:new 0 0 5000 2900;" xml:space="preserve">
<style type="text/css">
	.st0{fill:#E9ECF1;}
	.st1{fill:#364756;}
	.st2{fill:#696A7F;}
	.st3{fill:#FFFFFF;}
	.st4{opacity:0.35;fill:#FFFFFF;enable-background:new    ;}
	.st5{opacity:0.18;enable-background:new    ;}
	.st6{fill:#E5907C;}
	.st7{fill:#AC6C5D;}
	.st8{fill:#DBDBDB;}
	.st9{fill:#3B4858;}
	.st10{fill:#3D4D5C;}
	.st11{fill:#E9CA91;}
	.st12{fill:#F5E9D1;}
</style>
<g>
	<g>
		<path class="st0" d="M3555.8,1993.2H4793c86.7,0,157.7-71,157.7-157.7l0,0c0-86.7-71-157.7-157.7-157.7H3555.8
			c-86.7,0-157.7,71-157.7,157.7l0,0C3398.1,1922.2,3469.1,1993.2,3555.8,1993.2z"/>
		<path class="st0" d="M3244.2,1435.6H4500c81.6,0,148.4-66.8,148.4-148.4l0,0c0-81.6-66.8-148.4-148.4-148.4H3244.2
			c-81.6,0-148.4,66.8-148.4,148.4l0,0C3095.8,1368.8,3162.6,1435.6,3244.2,1435.6z"/>
		<path class="st0" d="M311.3,658.2H4252c52.2,0,95-42.7,95-95l0,0c0-52.2-42.7-95-95-95H311.3c-52.2,0-95,42.7-95,95l0,0
			C216.3,615.5,259,658.2,311.3,658.2z"/>
		<path class="st0" d="M4099.5,2482.8H4543c70.4,0,128.1-57.6,128.1-128.1l0,0c0-70.4-57.6-128.1-128.1-128.1h-443.5
			c-70.4,0-128.1,57.6-128.1,128.1l0,0C3971.4,2425.2,4029,2482.8,4099.5,2482.8z"/>
		<path class="st0" d="M1445.3,346.5h884.9c70.4,0,128.1-57.6,128.1-128.1l0,0c0-70.4-57.6-128.1-128.1-128.1h-884.9
			c-70.4,0-128.1,57.6-128.1,128.1l0,0C1317.2,288.8,1374.8,346.5,1445.3,346.5z"/>
		<path class="st0" d="M727.3,2610.9h443.5c70.4,0,128.1-57.6,128.1-128.1l0,0c0-70.4-57.6-128.1-128.1-128.1H727.3
			c-70.4,0-128.1,57.6-128.1,128.1l0,0C599.3,2553.3,656.9,2610.9,727.3,2610.9z"/>
		<path class="st0" d="M1612.6,2724.1h1857.9c70.4,0,128.1-57.6,128.1-128.1l0,0c0-70.4-57.6-128.1-128.1-128.1H1612.6
			c-70.4,0-128.1,57.6-128.1,128.1l0,0C1484.6,2666.4,1542.2,2724.1,1612.6,2724.1z"/>
		<path class="st0" d="M2388.8,909.4h1204.1c95.8,0,174.3-78.4,174.3-174.3l0,0c0-95.8-78.4-174.3-174.3-174.3H2388.8
			c-95.8,0-174.3,78.4-174.3,174.3l0,0C2214.6,830.9,2293,909.4,2388.8,909.4z"/>
		<path class="st0" d="M1107,2259.8h2628.3c113.6,0,206.5-92.9,206.5-206.5l0,0c0-113.6-92.9-206.5-206.5-206.5H1107
			c-113.6,0-206.5,92.9-206.5,206.5l0,0C900.5,2166.9,993.4,2259.8,1107,2259.8z"/>
		<path class="st0" d="M2448.2,473.4v692h1635v-316h-150c-33.3,0-63.6-13.5-85.5-35.4c-21.9-22-35.6-52.2-35.6-85.5
			c0-66.6,54.5-121.1,121.1-121.1h150v-134H2448.2z"/>
		<path class="st0" d="M1992.8,1920H755.6c-86.7,0-157.7-71-157.7-157.7l0,0c0-86.7,71-157.7,157.7-157.7h1237.2
			c86.7,0,157.7,71,157.7,157.7l0,0C2150.5,1849,2079.5,1920,1992.8,1920z"/>
		<path class="st0" d="M2989.8,1228.5v692h-1634v-316h149.9c33.3,0,63.6-13.6,85.5-35.5c21.9-22,35.6-52.1,35.6-85.5
			c0-66.6-54.5-121-121.1-121h-149.9v-134H2989.8z"/>
		<path class="st0" d="M1958.8,670.5v692h1634v-224h-407.5c-58.8,0-106.5-47.8-106.5-106.7v-15.5c0-58.8,47.7-106.8,106.5-106.8
			h407.5v-239H1958.8z"/>
		<path class="st0" d="M1803.7,909.4H599.6c-95.8,0-174.3-78.4-174.3-174.3l0,0c0-95.8,78.4-174.3,174.3-174.3h1204.1
			c95.8,0,174.3,78.4,174.3,174.3l0,0C1978,830.9,1899.6,909.4,1803.7,909.4z"/>
		<path class="st0" d="M2233.7,670.6v691.8H711.1c-61.7,0-111.8-50.1-111.8-111.8l0,0c0-61.7,50.1-111.8,111.8-111.8h296.1
			c58.8,0,107-48.1,107-107v-15.5c0-58.8-48.1-107-107-107H599.3V670.6L2233.7,670.6L2233.7,670.6z"/>
	</g>
	<path class="st1" d="M1954.2,1302.1v-24c13,0,26.2-0.5,39.1-1.5l1.8,24C1981.5,1301.6,1967.8,1302.1,1954.2,1302.1z M1913.4,1300.6
		c-13.6-1-27.2-2.5-40.6-4.5l3.5-23.8c12.8,1.9,25.9,3.4,38.9,4.3L1913.4,1300.6z M2035.7,1296l-3.6-23.8
		c12.8-1.9,25.8-4.4,38.4-7.2l5.3,23.4C2062.6,1291.5,2049.1,1294,2035.7,1296z M1832.5,1288.6c-13.2-3-26.5-6.5-39.5-10.5l7.1-23
		c12.4,3.8,25.1,7.2,37.8,10.1L1832.5,1288.6z M2115.4,1277.9l-7.1-23c12.4-3.8,24.8-8.2,36.9-12.9l8.8,22.4
		C2141.3,1269.3,2128.3,1273.9,2115.4,1277.9z M1754.4,1264.6c-12.6-5-25.3-10.5-37.5-16.4l10.4-21.6c11.7,5.6,23.8,10.9,35.9,15.6
		L1754.4,1264.6z M2191.4,1248l-10.4-21.6c11.7-5.6,23.3-11.8,34.5-18.3l12,20.8C2215.8,1235.7,2203.6,1242.1,2191.4,1248z
		 M1680.7,1229.1c-11.8-6.8-23.4-14.1-34.6-21.8l13.5-19.8c10.7,7.3,21.9,14.3,33.1,20.8L1680.7,1229.1z M2262.1,1207.1l-13.6-19.8
		c10.7-7.3,21.3-15.1,31.4-23.2l15,18.8C2284.3,1191.3,2273.3,1199.4,2262.1,1207.1z M1613.1,1183c-10.6-8.5-21-17.4-31-26.7
		l16.3-17.6c9.5,8.8,19.5,17.4,29.6,25.5L1613.1,1183z M2325.9,1156.1l-16.3-17.6c9.5-8.8,18.8-18.1,27.6-27.7l17.6,16.3
		C2345.6,1137.1,2335.9,1146.9,2325.9,1156.1z M1553.2,1127.4c-9.2-9.9-18.2-20.4-26.7-31l18.8-15c8.1,10.1,16.7,20.1,25.5,29.6
		L1553.2,1127.4z M2381.5,1096.2l-18.8-15c8.1-10.1,15.9-20.7,23.2-31.5l19.8,13.6C2398.2,1074.5,2390,1085.6,2381.5,1096.2z
		 M1502.2,1063.6c-7.7-11.2-15-22.8-21.8-34.6l20.8-12c6.5,11.2,13.5,22.3,20.8,33.1L1502.2,1063.6z M2427.6,1028.7l-20.8-12
		c6.5-11.3,12.7-22.9,18.3-34.6l21.6,10.4C2440.9,1004.7,2434.5,1016.9,2427.6,1028.7z M1461.2,992.9c-5.9-12.2-11.4-24.8-16.4-37.4
		l22.4-8.8c4.8,12.1,10,24.1,15.7,35.8L1461.2,992.9z M2463.2,955l-22.4-8.8c4.7-12.1,9.1-24.5,12.9-36.9l23,7.1
		C2472.7,929.3,2468.1,942.3,2463.2,955z M1431.3,916.9c-4-13-7.6-26.3-10.6-39.5l23.4-5.3c2.9,12.7,6.3,25.4,10.1,37.7
		L1431.3,916.9z M2487.2,876.8l-23.4-5.3c2.9-12.7,5.3-25.6,7.2-38.4l23.8,3.6C2492.8,850.1,2490.3,863.6,2487.2,876.8z
		 M1413.1,837.2c-2-13.4-3.6-27.1-4.6-40.6l24-1.8c1,13,2.4,26,4.4,38.8L1413.1,837.2z M2499.3,796l-24-1.8
		c1-12.9,1.4-26.1,1.4-39.1V754h24v1.1C2500.8,768.8,2500.3,782.5,2499.3,796z M1431,755.8h-24v-0.4c0-13.5,0.5-27.1,1.5-40.4
		l24,1.7c-0.9,12.7-1.4,25.7-1.4,38.5L1431,755.8z M2475.3,715c-1-13-2.5-26-4.4-38.8l23.8-3.6c2,13.4,3.6,27.1,4.6,40.6L2475.3,715
		z M1436.7,677.8l-23.8-3.5c2-13.4,4.5-27,7.5-40.2l23.4,5.3C1441,652.1,1438.6,665,1436.7,677.8z M2463.6,637.8
		c-2.9-12.6-6.3-25.3-10.2-37.7l22.9-7.1c4,13,7.6,26.3,10.6,39.5L2463.6,637.8z M1453.9,601.6l-23-7c4-13,8.5-26,13.5-38.7
		l22.4,8.8C1462.1,576.8,1457.7,589.2,1453.9,601.6z M2440.4,563.2c-4.8-12-10-24.1-15.7-35.8l21.6-10.5
		c5.9,12.2,11.5,24.8,16.4,37.4L2440.4,563.2z M1482.4,528.8l-21.6-10.4c5.9-12.2,12.3-24.4,19.1-36.2l20.8,12
		C1494.2,505.5,1488.1,517.1,1482.4,528.8z M2406.4,492.9c-6.5-11.2-13.5-22.3-20.9-33l19.8-13.6c7.7,11.2,15,22.8,21.8,34.6
		L2406.4,492.9z M1521.5,461.1l-19.9-13.5c7.6-11.2,15.8-22.3,24.3-32.9l18.8,15C1536.6,439.8,1528.8,450.4,1521.5,461.1z
		 M2362.2,428.5c-8.1-10.1-16.7-20.1-25.6-29.6l17.6-16.4c9.3,9.9,18.2,20.3,26.7,30.9L2362.2,428.5z M1570.2,400l-17.6-16.3
		c9.2-10,18.9-19.7,28.9-28.9l16.4,17.6C1588.3,381.1,1579,390.4,1570.2,400z M2308.9,371.3c-9.5-8.8-19.5-17.4-29.7-25.5l15-18.8
		c10.6,8.4,21.1,17.4,31,26.6L2308.9,371.3z M1627.4,346.7l-15-18.8c10.6-8.5,21.6-16.7,32.8-24.3l13.6,19.9
		C1648.1,330.8,1637.6,338.6,1627.4,346.7z M2247.8,322.6c-10.7-7.3-21.9-14.3-33.1-20.8l12-20.8c11.8,6.8,23.4,14.1,34.7,21.7
		L2247.8,322.6z M1691.9,302.6l-12.1-20.8c11.7-6.8,23.9-13.3,36.1-19.2l10.5,21.6C1714.7,289.9,1703.1,296.1,1691.9,302.6z
		 M2180.1,283.6c-11.7-5.6-23.8-10.9-35.9-15.6l8.7-22.4c12.7,4.9,25.3,10.4,37.5,16.3L2180.1,283.6z M1762.1,268.6l-8.8-22.3
		c12.6-5,25.6-9.5,38.6-13.6l7.1,22.9C1786.6,259.5,1774.2,263.8,1762.1,268.6z M2107.2,255.1c-12.4-3.8-25.1-7.2-37.8-10l5.3-23.4
		c13.2,3,26.5,6.5,39.5,10.5L2107.2,255.1z M1836.8,245.5l-5.4-23.4c13.2-3,26.7-5.6,40.2-7.6l3.6,23.8
		C1862.3,240.1,1849.4,242.6,1836.8,245.5z M2031,237.9c-12.8-1.9-25.9-3.3-38.9-4.3l1.7-24c13.6,1,27.2,2.5,40.6,4.5L2031,237.9z
		 M1914,233.8l-1.8-24c13.5-1,27.3-1.5,40.8-1.6v24C1940.1,232.3,1926.9,232.8,1914,233.8z"/>
	<rect x="1773.6" y="2380.4" class="st2" width="397.2" height="146.9"/>
	<g>
		<polygon class="st3" points="2216.4,2520.2 1972.1,2520.2 1727.9,2520.2 1675.4,2564.2 1972.1,2564.2 2268.9,2564.2 		"/>
		<path class="st1" d="M2301.9,2576.2h-659.5l81.1-68.1h497.3L2301.9,2576.2z M1708.4,2552.2h527.5l-23.9-20h-479.7L1708.4,2552.2z"
			/>
	</g>
	<g>
		<path class="st3" d="M1270.1,1370.8h1404c18.9,0,34.2,15.3,34.2,34.2v956.6c0,18.9-15.3,34.2-34.2,34.2h-1404
			c-18.9,0-34.2-15.3-34.2-34.2V1405C1235.9,1386.1,1251.2,1370.8,1270.1,1370.8z"/>
		<path class="st1" d="M2674.1,2407.8h-1404c-25.5,0-46.2-20.7-46.2-46.2V1405c0-25.5,20.7-46.2,46.2-46.2h1404
			c25.5,0,46.2,20.7,46.2,46.2v956.6C2720.4,2387.1,2699.6,2407.8,2674.1,2407.8z M1270.1,1382.8c-12.3,0-22.2,10-22.2,22.2v956.6
			c0,12.2,10,22.2,22.2,22.2h1404c12.3,0,22.2-10,22.2-22.2V1405c0-12.2-10-22.2-22.2-22.2H1270.1z"/>
	</g>
	<path class="st2" d="M2656.9,2198c0,7.7-6.2,13.9-13.9,13.9H1299.4c-7.7,0-13.9-6.2-13.9-13.9v-766.9c0-7.7,6.2-13.9,13.9-13.9
		h1343.5c7.7,0,13.9,6.2,13.9,13.9V2198H2656.9z"/>
	<g>
		<path class="st2" d="M1983.3,2302.1c0,6.1-5,11.1-11.1,11.1s-11.1-5-11.1-11.1s5-11.1,11.1-11.1S1983.3,2295.9,1983.3,2302.1z"/>
		
			<ellipse transform="matrix(0.7071 -0.7071 0.7071 0.7071 -1029.8544 2117.8726)" class="st2" cx="2041.6" cy="2302.1" rx="15.9" ry="15.9"/>
		
			<ellipse transform="matrix(0.2298 -0.9732 0.9732 0.2298 -614.8668 3827.7148)" class="st2" cx="2111" cy="2302.3" rx="15.9" ry="15.9"/>
		
			<ellipse transform="matrix(0.7071 -0.7071 0.7071 0.7071 -1090.8661 1970.5863)" class="st2" cx="1833.3" cy="2302.1" rx="15.9" ry="15.9"/>
		
			<ellipse transform="matrix(0.2298 -0.9732 0.9732 0.2298 -775.2981 3624.9849)" class="st2" cx="1902.7" cy="2302.3" rx="15.9" ry="15.9"/>
	</g>
	<path class="st4" d="M2010.4,2209.9h-711.6c-7.7,0-13.2-4.3-13.2-12v-766.1c0-7.7,5.5-14.7,13.2-14.7h182.4L2010.4,2209.9z"/>
	<polygon class="st4" points="2313.5,2209.9 2164.8,2209.9 2163.8,2210 1634.6,1417.1 1783.2,1417.1 2312.5,2210 	"/>
	<rect x="1197.4" y="2552.2" class="st1" width="2894.8" height="24"/>
	<g>
		<circle class="st3" cx="1953.9" cy="755.2" r="434.3"/>
		<path class="st1" d="M1953.9,1201.5c-119.2,0-231.3-46.4-315.6-130.7c-84.3-84.3-130.7-196.4-130.7-315.6s46.4-231.3,130.7-315.6
			c84.3-84.3,196.4-130.7,315.6-130.7s231.3,46.4,315.6,130.7c84.3,84.3,130.7,196.4,130.7,315.6s-46.4,231.3-130.7,315.6
			C2185.2,1155.1,2073.1,1201.5,1953.9,1201.5z M1953.9,332.9c-232.9,0-422.3,189.5-422.3,422.3c0,232.9,189.5,422.3,422.3,422.3
			s422.3-189.5,422.3-422.3C2376.2,522.3,2186.8,332.9,1953.9,332.9z"/>
	</g>
	<polygon class="st1" points="1991.7,755.2 2178.7,573.8 1961.6,720 	"/>
	<polygon class="st1" points="1913.9,762.8 1798.2,665.6 1939.9,723.5 	"/>
	
		<rect x="2067.4" y="740.7" transform="matrix(0.6992 -0.7149 0.7149 0.6992 -6.3664 1745.3749)" class="st1" width="7.3" height="279.1"/>
	<rect x="1948.7" y="351.8" class="st1" width="16.4" height="41.3"/>
	
		<rect x="2130.4" y="411.7" transform="matrix(0.5008 -0.8656 0.8656 0.5008 710.9753 2063.5767)" class="st1" width="28.2" height="7.4"/>
	
		<rect x="2274.8" y="552.7" transform="matrix(0.8669 -0.4985 0.4985 0.8669 27.2936 1215.0822)" class="st1" width="28.2" height="7.4"/>
	
		<rect x="2289.3" y="932.3" transform="matrix(0.503 -0.8643 0.8643 0.503 321.6707 2452.1472)" class="st1" width="7.4" height="28.2"/>
	
		<rect x="2147.9" y="1076.6" transform="matrix(0.8682 -0.4963 0.4963 0.8682 -257.6128 1211.6029)" class="st1" width="7.4" height="28.2"/>
	
		<rect x="1747.5" y="1090.4" transform="matrix(0.5052 -0.863 0.863 0.5052 -72.5824 2061.606)" class="st1" width="28.2" height="7.4"/>
	
		<rect x="1603.8" y="948.6" transform="matrix(0.8694 -0.494 0.494 0.8694 -259.2248 923.584)" class="st1" width="28.2" height="7.4"/>
	
		<rect x="1612" y="548" transform="matrix(0.5075 -0.8617 0.8617 0.5075 311.4122 1669.0658)" class="st1" width="7.4" height="28.2"/>
	
		<rect x="1754.2" y="404.7" transform="matrix(0.8707 -0.4918 0.4918 0.8707 21.3137 918.6721)" class="st1" width="7.4" height="28.2"/>
	<rect x="1948.7" y="1117.3" class="st1" width="16.4" height="41.3"/>
	<rect x="2315.9" y="747" class="st1" width="41.3" height="16.4"/>
	<rect x="1550.5" y="747" class="st1" width="41.3" height="16.4"/>
	<g>
		<ellipse class="st3" cx="1953.9" cy="755.1" rx="46.4" ry="46.4"/>
		<path class="st1" d="M1953.9,813.6c-32.2,0-58.4-26.2-58.4-58.4c0-32.2,26.2-58.4,58.4-58.4s58.4,26.2,58.4,58.4
			C2012.4,787.4,1986.1,813.6,1953.9,813.6z M1953.9,720.8c-19,0-34.4,15.4-34.4,34.4s15.4,34.4,34.4,34.4s34.4-15.4,34.4-34.4
			C1988.3,736.2,1972.9,720.8,1953.9,720.8z"/>
	</g>
	<path class="st5" d="M1956.9,1175.5c-19,0-37.7-1.3-56.1-3.8c578.6-276.4,223-801.6,223-801.6l0,0
		c147.3,64.8,250.3,212.9,250.3,385.2C2374.2,987.4,2187.4,1175.5,1956.9,1175.5z"/>
	<rect x="2405.1" y="2281.9" class="st6" width="715.4" height="138"/>
	<rect x="2405.1" y="2281.9" class="st7" width="715.4" height="69"/>
	<rect x="2551.1" y="2280.6" class="st3" width="105.8" height="139.3"/>
	<rect x="2551.1" y="2281.9" class="st8" width="105.8" height="69.7"/>
	<rect x="2437" y="1986.4" class="st6" width="715.4" height="108.7"/>
	<rect x="2437" y="1986.4" class="st7" width="715.4" height="54.4"/>
	<rect x="2900.6" y="1985.3" class="st3" width="105.8" height="109.8"/>
	<rect x="2900.6" y="1986.5" class="st8" width="105.8" height="54.9"/>
	<g>
		<path class="st9" d="M3212,2420h-776.1v21.4H3212c31.5,0,54.4,23.7,54.4,55.1v0.9c0,31.4-23,56.6-54.4,56.6h-776.1v21.4H3212
			c43.4,0,75.9-34.7,75.9-78v-0.9C3287.9,2453.2,3255.4,2420,3212,2420z"/>
	</g>
	<path class="st8" d="M3212.1,2553.9h-745v-112.5h746.6c29,0,52.5,23.5,52.5,52.5v5.9C3266.3,2529.7,3242,2553.9,3212.1,2553.9z"/>
	<polygon class="st6" points="3019.9,2483.5 2986.5,2483.5 2986.5,2635.3 3019.9,2593.6 3053.3,2635.3 3053.3,2483.5 	"/>
	<g>
		<path class="st9" d="M2438.9,2186.8v1c0,51.8,32.5,93.4,75.9,93.4h776.1v-25.7h-776.1c-31.5,0-54.4-30.1-54.4-67.7v-1
			c0-37.6,23-65.9,54.4-65.9h776.1v-25.7h-776.1C2471.5,2095.2,2438.9,2134.9,2438.9,2186.8z"/>
	</g>
	<path class="st3" d="M2519.8,2255.5h739.9v-134.7H2518c-31.7,0-57.4,25.7-57.4,57.4v18C2460.6,2229,2487.1,2255.5,2519.8,2255.5z"
		/>
	<polygon class="st6" points="2740.3,2146.8 2773.7,2146.8 2773.7,2298.6 2740.3,2256.9 2706.9,2298.6 2706.9,2146.8 	"/>
	<path class="st3" d="M2580.3,2045.7c0,23.1-18.7,41.7-41.8,41.7s-41.7-18.7-41.7-41.8s18.7-41.7,41.8-41.7
		C2561.6,2004,2580.3,2022.6,2580.3,2045.7z"/>
	<path class="st1" d="M3695.9,1060.9V842.8l184.3,109L3695.9,1060.9z M3719.9,885v133.8l113.1-66.9L3719.9,885z"/>
	<g>
		<rect x="2582.7" y="1683.4" class="st1" width="454.8" height="13.1"/>
		<rect x="2575.7" y="1676.4" class="st1" width="468.8" height="27.2"/>
	</g>
	<g>
		<rect x="2433.7" y="1858.7" class="st1" width="319.9" height="13.1"/>
		<rect x="2426.7" y="1851.7" class="st1" width="333.9" height="27.2"/>
	</g>
	<path class="st1" d="M3377.6,1703.4h-40v-24h40V1703.4z M3297.5,1703.4h-40v-24h40V1703.4z M3217.4,1703.4h-40v-24h40V1703.4z
		 M3137.3,1703.4h-40v-24h40V1703.4z"/>
	<ellipse class="st6" cx="3565.1" cy="1500.5" rx="88.4" ry="88.4"/>
	<g>
		<g>
			<path class="st1" d="M3622,1475.6c44,0,79.6,35.6,79.6,79.6s-35.6,79.6-79.6,79.6s-79.6-35.6-79.6-79.6
				C3542.4,1511.2,3578,1475.6,3622,1475.6 M3622,1466.8c-48.7,0-88.4,39.6-88.4,88.4s39.6,88.4,88.4,88.4s88.4-39.6,88.4-88.4
				S3670.7,1466.8,3622,1466.8L3622,1466.8z"/>
			<path class="st1" d="M3622,1650.5c-52.6,0-95.4-42.8-95.4-95.4c0-52.6,42.8-95.4,95.4-95.4c52.6,0,95.4,42.8,95.4,95.4
				C3717.3,1607.8,3674.6,1650.5,3622,1650.5z M3622,1482.6c-40,0-72.6,32.6-72.6,72.6s32.6,72.6,72.6,72.6s72.6-32.6,72.6-72.6
				C3694.6,1515.1,3662,1482.6,3622,1482.6z"/>
		</g>
	</g>
	<g>
		<rect x="3776.8" y="1227.1" class="st1" width="630.9" height="13.1"/>
		<rect x="3769.8" y="1220.1" class="st1" width="645" height="27.2"/>
	</g>
	<g>
		<rect x="4004.4" y="1330.2" class="st1" width="319.9" height="13.1"/>
		<rect x="3997.4" y="1323.2" class="st1" width="333.9" height="27.2"/>
	</g>
	<g>
		<rect x="901.7" y="1336.4" class="st1" width="118.3" height="13.1"/>
		<rect x="894.7" y="1329.3" class="st1" width="132.3" height="27.2"/>
	</g>
	<rect x="1069" y="870.7" class="st6" width="165.5" height="165.5"/>
	<path class="st1" d="M1305.2,1102.1h-189.5V912.6h189.5V1102.1z M1139.7,1078.1h141.5V936.6h-141.5V1078.1z"/>
	<path class="st2" d="M1152.4,1471.9c-2.1-0.5-4.3-0.9-6.4-1.4c-0.1,0-0.2,0-0.3-0.1c-16.9-3.6-30-16.7-33.7-33.5
		c-0.5-2.2-0.9-4.2-1.3-5.9c0-0.2-0.2-0.4-0.2-0.6c0,0.2-0.2,0.4-0.2,0.6c-0.4,1.7-0.8,3.7-1.3,5.9c-3.7,16.8-16.9,30-33.7,33.5
		c-0.1,0-0.2,0-0.3,0.1c-2.1,0.5-4.3,0.9-6.4,1.4v0.1c0.2,0,0.4,0.1,0.5,0.1c1.8,0.4,4,0.9,6.3,1.4c16.8,3.6,29.9,16.8,33.6,33.6
		c0.2,0.7,0.3,1.4,0.4,2c0.3,1.5,0.7,3,1,4.7v-0.1v0.1c0.4-1.7,0.7-3.2,1-4.7c0.1-0.6,0.3-1.3,0.4-2c3.7-16.8,16.8-29.9,33.6-33.6
		c2.3-0.5,4.5-1,6.3-1.4c0.2,0,0.4-0.1,0.5-0.1C1152.4,1472,1152.4,1471.9,1152.4,1471.9z"/>
	<path class="st2" d="M4206.3,1466.5c-2.1-0.5-4.3-0.9-6.4-1.4c-0.1,0-0.2,0-0.3-0.1c-16.9-3.6-30-16.7-33.7-33.5
		c-0.5-2.2-0.9-4.2-1.3-5.9c0-0.2-0.2-0.4-0.2-0.6c0,0.2-0.2,0.4-0.2,0.6c-0.4,1.7-0.8,3.7-1.3,5.9c-3.7,16.8-16.9,30-33.7,33.5
		c-0.1,0-0.2,0-0.3,0.1c-2.1,0.5-4.3,0.9-6.4,1.4v0.1c0.2,0,0.4,0.1,0.5,0.1c1.8,0.4,4,0.9,6.3,1.4c16.8,3.6,29.9,16.8,33.6,33.6
		c0.2,0.7,0.3,1.4,0.4,2c0.3,1.5,0.7,3,1,4.7v-0.1v0.1c0.4-1.7,0.7-3.2,1-4.7c0.1-0.6,0.3-1.3,0.4-2c3.7-16.8,16.8-29.9,33.6-33.6
		c2.3-0.5,4.5-1,6.3-1.4c0.2,0,0.4-0.1,0.5-0.1C4206.3,1466.6,4206.3,1466.6,4206.3,1466.5z"/>
	<g>
		<path class="st10" d="M3943.2,1609.8c-3.5-1.6-6.5-3.9-9-6.9l-477.6-557.4c-9.9-11.5-8.2-29.3,3.6-39.5c8.6-7.4,20.5-9.1,30.4-4.5
			c3.5,1.6,6.5,3.9,9,6.8l477.6,557.4c9.9,11.5,8.3,29.3-3.6,39.5C3965.1,1612.6,3953.1,1614.4,3943.2,1609.8z M3482.7,1018.7
			c-3.3-1.5-7.3-0.9-10.2,1.7c-4,3.4-4.7,9.2-1.6,12.8l477.6,557.4c3.1,3.6,8.9,3.7,12.8,0.3c4-3.4,4.7-9.2,1.6-12.8l-477.6-557.4
			C3484.6,1019.9,3483.7,1019.2,3482.7,1018.7z"/>
	</g>
	<g>
		<path class="st10" d="M3696.5,2488.4c-6.6,2.4-14,2.4-20.8,0.2c-7.7-2.6-14.1-8-17.8-15.1c-3.8-7.3-4.5-15.5-1.9-23.2l255.2-756.1
			c2.9-8.5,9.5-15.2,18.2-18.3c6.6-2.4,14-2.5,20.7-0.2c16.2,5.5,25,22.7,19.7,38.3l-255.1,756
			C3711.8,2478.6,3705.2,2485.3,3696.5,2488.4z M3936.3,1695.3c-2.7,1-4.8,3-5.6,5.5l-255.1,756.1c-0.8,2.3-0.5,4.8,0.6,7
			c1.3,2.4,3.5,4.3,6.2,5.2c5.2,1.8,11.2-0.9,12.8-5.5l255.1-756.1c1.7-4.9-1.4-10.4-6.8-12.2
			C3941.1,1694.4,3938.6,1694.4,3936.3,1695.3z"/>
	</g>
	<path class="st1" d="M3504.1,1031.4c-15.1,25.7-48.1,34.3-73.7,19.2c-25.6-15.1-34.2-48.1-19.2-73.8c15.1-25.6,48.1-34.2,73.8-19.1
		C3510.6,972.8,3519.2,1005.8,3504.1,1031.4z"/>
	<path class="st2" d="M4039.6,1601.4c12.6,43.8-12.6,89.5-56.4,102.2s-89.6-12.6-102.2-56.4c-12.7-43.8,12.6-89.6,56.4-102.2
		C3981.2,1532.3,4027,1557.6,4039.6,1601.4z"/>
	<path class="st2" d="M4008.4,1610.4c7.3,25.4-7.3,52-32.7,59.3s-52-7.3-59.3-32.7c-7.3-25.4,7.3-52,32.7-59.4
		C3974.4,1570.3,4001,1585,4008.4,1610.4z"/>
	<g>
		<path class="st2" d="M3362.5,1045.5l57.1-29.3c74.2-38.1,112.4-111.6,85.5-164.2l-7.7-15c-27-52.5-109-64.2-183.2-26.1l-57.1,29.3
			L3362.5,1045.5z"/>
		<path class="st1" d="M3357.3,1061.6L3240.8,835l67.8-34.8c38.1-19.6,79.5-27.4,116.5-22.2c38.6,5.5,68,24.5,82.9,53.4l7.7,15
			c14.9,29,13.2,64-4.8,98.5c-17.3,33.2-47.8,62.3-85.8,81.8L3357.3,1061.6z M3273.2,845.4l94.5,183.9l46.4-23.8
			c68.2-35,104.2-101.4,80.3-148l-7.7-15c-23.9-46.6-98.9-55.9-167.1-20.9L3273.2,845.4z"/>
	</g>
	<path class="st11" d="M2852.3,1541.7l-128.9-232.2l-174.8-314.9c360.2-199.9,715.1-248.3,792.9-108.4l18.1,32.8l4,7.2
		C3441.3,1066.3,3212.5,1341.8,2852.3,1541.7z"/>
	<path class="st1" d="M2847.6,1558.1L2532.3,990l10.5-5.8c175.5-97.4,355.3-162.4,506.6-183c155-21.2,262.5,7,302.6,79.3l22.1,40
		c40.1,72.3,7.2,178.5-92.7,298.8c-97.5,117.4-247.8,235.6-423.3,333L2847.6,1558.1z M2565,999.3l292,526.1
		c168.4-94.8,312.3-208.7,406-321.5c46-55.4,77.2-107.3,92.8-154.3c15.5-46.8,14.7-86.3-2.6-117.5l-22.1-40
		c-17.3-31.1-50.4-52.8-98.3-64.4c-48.1-11.6-108.7-12.6-180-2.8C2907.3,844.7,2734.6,906.6,2565,999.3z"/>
	<polygon class="st10" points="3573.3,1176.7 3561.3,1163.5 3598.9,1129.2 3610.9,1142.5 	"/>
	<polygon class="st10" points="3601.5,1202.5 3589.5,1189.2 3621.7,1159.9 3633.7,1173.2 	"/>
	<polygon class="st10" points="3809.7,1449.2 3797.7,1435.9 3835.4,1401.7 3847.4,1415 	"/>
	<polygon class="st10" points="3837.9,1475 3825.9,1461.7 3858.1,1432.4 3870.1,1445.7 	"/>
	
		<rect x="3889.8" y="1800.3" transform="matrix(0.3217 -0.9468 0.9468 0.3217 914.2662 4932.0625)" class="st10" width="19.5" height="55.3"/>
	
		<rect x="3876.4" y="1843.4" transform="matrix(0.3217 -0.9468 0.9468 0.3217 868.1799 4945.9814)" class="st10" width="19.5" height="47.3"/>
	
		<rect x="3785.3" y="2106.4" transform="matrix(0.3217 -0.9468 0.9468 0.3217 553.5753 5040.7959)" class="st10" width="19.5" height="55.3"/>
	
		<rect x="3772" y="2149.4" transform="matrix(0.3217 -0.9468 0.9468 0.3217 507.6008 5054.6807)" class="st10" width="19.5" height="47.3"/>
	<path class="st2" d="M3843.8,2328.1h-221.2c-20,0-36.4,16.4-36.4,36.4v54.6h294.1v-54.6C3880.3,2344.5,3863.9,2328.1,3843.8,2328.1
		z"/>
	<path class="st11" d="M3333.5,2564.9h725.1c0,0-4.7-186.7-373.4-172.7C3685.2,2392.2,3378.6,2367.2,3333.5,2564.9z"/>
	<path class="st1" d="M4070.9,2576.9h-752.4l3.4-14.7c19.6-85.7,89.3-144.3,201.8-169.5c79.7-17.9,153.1-13.2,161.8-12.5
		c84.7-3.2,157.4,4,216.1,21.3c48,14.1,87.1,35.1,116,62.3c51.2,48.1,53,98.7,53.1,100.9L4070.9,2576.9z M3349.2,2552.9h695.5
		c-3.6-15.7-14.1-44.2-44.3-72.3c-41.7-38.7-130.1-83.4-314.7-76.4h-0.7l-0.7-0.1c-0.7-0.1-76.2-5.9-155.8,12.1
		C3431.2,2438.2,3371,2484.1,3349.2,2552.9z"/>
	<path class="st12" d="M2883.1,1507.1c14,23.5,10.9,39.7-0.2,46l0,0c-11.2,6.3-26,0.1-40.2-23.2l-295.4-524.4
		c-13.4-25.3-10-37.4,1.1-43.7l0,0c11.2-6.3,26.4-3.3,39.2,21L2883.1,1507.1z"/>
	<path class="st1" d="M2874.1,1567.4c-11,0-26.3-6-41.7-31.2l-0.2-0.4l-295.6-524.7c-19.1-36-7.3-52.4,5.9-59.8
		c8.1-4.5,16.9-5.6,25.5-3c11.7,3.4,21.9,13.1,30.2,28.7l295.3,524.2c12.2,20.5,12.1,35,9.8,43.5c-2.2,8.3-7.2,14.8-14.5,18.9
		C2886.2,1565.1,2880.9,1567.4,2874.1,1567.4z M2853.1,1523.8c8.8,14.4,18.4,21.9,24,18.8c1.5-0.9,2.5-2.2,3-4.1
		c0.7-2.7,1.4-10.6-7.3-25.2l-0.1-0.3l-295.6-524.7c-6.8-12.8-12.8-16.2-15.8-17c-2.3-0.7-4.6-0.4-6.9,0.9s-8.5,4.8,3.5,27.5
		L2853.1,1523.8z"/>
	<ellipse class="st6" cx="2776.1" cy="531.8" rx="146.2" ry="146.2"/>
	<g>
		<path class="st1" d="M2865.8,644.3c-71.1,0-136.4-47.5-155.7-119.4c-11.2-41.6-5.5-85,16-122.4c21.5-37.3,56.3-64,97.8-75.2
			l6.2,23.2c-35.4,9.5-65,32.2-83.3,64c-18.3,31.8-23.1,68.7-13.6,104.1c19.6,73.1,95.1,116.5,168.1,96.9l6.2,23.2
			C2893.7,642.5,2879.6,644.3,2865.8,644.3z"/>
		<g>
			<path class="st1" d="M2829,350.8l-6.2-23.2c7-1.9,14.1-3.3,21.2-4.2l3.1,23.8C2841,348,2835,349.2,2829,350.8z"/>
			<path class="st1" d="M2963.3,610.9l-14.7-19c9.4-7.3,17.9-15.8,25.2-25.4l19.1,14.5C2984.4,592.3,2974.4,602.3,2963.3,610.9z
				 M3013.8,544.7l-22.2-9.2c4.6-11.1,7.7-22.7,9.2-34.5l23.8,3.1C3022.8,518,3019.1,531.7,3013.8,544.7z M3000.7,465.3
				c-0.8-5.9-2-11.8-3.5-17.5c-1.6-5.8-3.5-11.5-5.8-17l22.2-9.2c2.7,6.4,4.9,13.2,6.8,19.9c1.8,6.8,3.2,13.7,4.1,20.6L3000.7,465.3
				z M2973.5,399.8c-7.3-9.5-15.8-18-25.3-25.3l14.6-19.1c11.2,8.6,21.2,18.6,29.7,29.7L2973.5,399.8z M2917.3,356.6
				c-11.1-4.6-22.7-7.7-34.5-9.3l3.2-23.8c13.9,1.9,27.6,5.6,40.5,11L2917.3,356.6z"/>
			<path class="st1" d="M2906.5,639.1l-6.2-23.2c5.9-1.6,11.8-3.6,17.4-5.9l9.3,22.2C2920.3,634.8,2913.5,637.2,2906.5,639.1z"/>
		</g>
	</g>
	<path class="st1" d="M3613.8,278.9l-57-33.3l57-33.3V278.9z M3576.7,245.6l27.1,15.9v-31.7L3576.7,245.6z"/>
	<rect x="3207.5" y="356.2" class="st6" width="156.1" height="156.1"/>
	<path class="st1" d="M3424.4,545.7h-180.2V365.5h180.2V545.7z M3268.2,521.7h132.1V389.6h-132.1V521.7z"/>
	<g>
		<rect x="3566.7" y="625.8" class="st1" width="252.2" height="12.4"/>
		<rect x="3559.7" y="618.8" class="st1" width="266.2" height="26.4"/>
	</g>
	<path class="st1" d="M3517.7,644.3h-40v-24h40V644.3z M3437.6,644.3h-40v-24h40V644.3z M3357.5,644.3h-40v-24h40V644.3z
		 M3277.5,644.3h-40v-24h40V644.3z"/>
</g>
</svg>
