<?xml version="1.0" encoding="utf-8"?>
<!-- Generator: Adobe Illustrator 23.0.3, SVG Export Plug-In . SVG Version: 6.00 Build 0)  -->
<svg version="1.1" id="Layer_1" xmlns="http://www.w3.org/2000/svg" xmlns:xlink="http://www.w3.org/1999/xlink" x="0px" y="0px"
	 viewBox="0 0 2000 1500" style="enable-background:new 0 0 2000 1500;" xml:space="preserve">
<style type="text/css">
	.st0{fill:none;}
	.st1{fill-rule:evenodd;clip-rule:evenodd;fill:#216B75;}
	.st2{fill-rule:evenodd;clip-rule:evenodd;fill:#FFFFFF;}
	.st3{fill-rule:evenodd;clip-rule:evenodd;fill:#C3E6F9;}
	.st4{fill-rule:evenodd;clip-rule:evenodd;fill:#FBD260;}
	.st5{fill-rule:evenodd;clip-rule:evenodd;fill:#E6E6E6;}
	.st6{fill-rule:evenodd;clip-rule:evenodd;fill:#B6D957;}
	.st7{fill-rule:evenodd;clip-rule:evenodd;fill:#FBBEAC;}
	.st8{fill-rule:evenodd;clip-rule:evenodd;fill:#ADD7ED;}
	.st9{fill:#FFFFFF;stroke:#000000;stroke-miterlimit:10;}
	.st10{fill:#B6D957;stroke:#216B75;stroke-width:8;stroke-miterlimit:10;}
	.st11{fill:#C3E6F9;stroke:#216B75;stroke-width:11.7468;stroke-miterlimit:10;}
	.st12{fill:none;stroke:#083B5A;stroke-width:9;stroke-linecap:round;stroke-miterlimit:10;}
	.st13{fill:none;stroke:#083B5A;stroke-width:6.6155;stroke-linecap:round;stroke-miterlimit:10;}
	.st14{fill:#FFFFFF;stroke:#083B5A;stroke-width:8;stroke-linecap:round;stroke-miterlimit:10;}
</style>
<g>
	<g>
		<g>
			<circle class="st0" cx="841.8" cy="741.5" r="642.7"/>
			<g>
				<g>
					<path class="st1" d="M992.5,1284.2h-49.8c-4.6,0-8.4,3.7-8.4,8.4c0,4.6,3.7,8.4,8.4,8.4h49.8c4.6,0,8.4-3.7,8.4-8.4
						S997.1,1284.2,992.5,1284.2z"/>
					<path class="st2" d="M519.5,1284.2H500c-4.6,0-8.4,3.7-8.4,8.4c0,4.6,3.7,8.4,8.4,8.4h19.5c4.6,0,8.4-3.7,8.4-8.4
						S524.1,1284.2,519.5,1284.2z"/>
					<path class="st1" d="M901.3,1284.2h-321c-4.6,0-8.4,3.7-8.4,8.4c0,4.6,3.7,8.4,8.4,8.4h321c4.6,0,8.4-3.7,8.4-8.4
						S905.9,1284.2,901.3,1284.2z"/>
					<path class="st1" d="M586.8,1192.8H419.7c-4.6,0-8.4,3.7-8.4,8.4c0,4.6,3.7,8.4,8.4,8.4h167.1c4.6,0,8.4-3.7,8.4-8.4
						S591.5,1192.8,586.8,1192.8z"/>
					<path class="st2" d="M653.4,1192.8h-31.5c-4.6,0-8.4,3.7-8.4,8.4c0,4.6,3.7,8.4,8.4,8.4h31.5c4.6,0,8.4-3.7,8.4-8.4
						C661.7,1196.5,658,1192.8,653.4,1192.8z"/>
				</g>
				<g>
					<g>
						<path class="st2" d="M942.4,955.6l-52.8,336.9c120.2,0,240.4,0,360.6,0l-52.8-336.9C1112.4,955.6,1027.4,955.6,942.4,955.6z"
							/>
						<path class="st1" d="M942.4,947.3h-7.1c-18.5,117.9-37,235.8-55.4,353.6h380l-55.4-353.6L942.4,947.3L942.4,947.3z
							 M899.4,1284.2L949.6,964h240.7l50.2,320.2H899.4L899.4,1284.2z"/>
						<path class="st3" d="M1286.8,1263.2H853c-4.8,0-8.7,3.9-8.7,8.7v11.9c0,4.8,3.9,8.7,8.7,8.7h433.8c4.8,0,8.7-3.9,8.7-8.7
							v-11.9C1295.5,1267.1,1291.6,1263.2,1286.8,1263.2z"/>
						<path class="st1" d="M1298.8,1259.8c-3.1-3.1-7.3-5-12-5H853c-4.7,0-9,1.9-12.1,5s-5,7.4-5,12.1v11.9c0,4.7,1.9,8.9,5,12l0,0
							c3.1,3.1,7.4,5,12.1,5h433.8c4.7,0,8.9-1.9,12-5l0,0c3.1-3.1,5-7.3,5-12v-11.9C1303.9,1267.2,1301.9,1262.9,1298.8,1259.8
							L1298.8,1259.8z M1287.1,1283.8c0,0.1,0,0.2-0.1,0.2c-0.1,0.1-0.2,0.1-0.3,0.1H852.9c-0.1,0-0.2,0-0.2-0.1l0,0
							c0,0-0.1-0.1-0.1-0.2v-11.9c0-0.1,0-0.2,0.1-0.2c0.1-0.1,0.2-0.1,0.2-0.1h433.8c0.1,0,0.2,0,0.3,0.1l0,0
							c0.1,0.1,0.1,0.2,0.1,0.2V1283.8L1287.1,1283.8z"/>
					</g>
					<g>
						<g>
							<g>
								<path class="st4" d="M1659.8,267.1H504.9c-24.8,0-45,20.3-45,45v739c0,24.8,20.3,45,45,45h1154.9c24.8,0,45-20.3,45-45v-739
									C1704.9,287.3,1684.6,267.1,1659.8,267.1z"/>
								<path class="st3" d="M459.9,1051.1c0,24.8,18.3,45,40.6,45h1163.8c22.3,0,40.6-20.3,40.6-45V942h-1245L459.9,1051.1
									L459.9,1051.1z"/>
								<rect x="535.7" y="338.4" class="st3" width="1093.5" height="530.6"/>
							</g>
							<g>
								<path class="st1" d="M1659.8,258.7H824.3c-4.6,0-8.4,3.7-8.4,8.4c0,4.6,3.7,8.4,8.4,8.4h835.5c10.1,0,19.3,4.1,25.9,10.8
									c6.7,6.7,10.8,15.8,10.8,25.9v739c0,10.1-4.1,19.2-10.8,25.9c-6.7,6.6-15.8,10.8-25.9,10.8H504.9
									c-10.1,0-19.3-4.1-25.9-10.8c-6.7-6.6-10.8-15.8-10.8-25.9v-739c0-10.1,4.1-19.2,10.8-25.9c6.6-6.7,15.8-10.8,25.9-10.8
									h155.6c4.6,0,8.4-3.7,8.4-8.4c0-4.6-3.7-8.4-8.4-8.4H504.9c-14.7,0-28,6-37.7,15.7s-15.7,23-15.7,37.7v739
									c0,14.7,6,28,15.7,37.7s23,15.7,37.7,15.7h1154.9c14.7,0,28-6,37.7-15.7s15.7-23,15.7-37.7v-739c0-14.7-6-28-15.7-37.7
									C1687.9,264.7,1674.5,258.7,1659.8,258.7z"/>
								<circle class="st1" cx="1082.4" cy="1019.1" r="34"/>
								<path class="st1" d="M1087.9,338.4c0,4.6,3.7,8.4,8.4,8.4h524.5v513.9H544v-514h353.2c4.6,0,8.4-3.7,8.4-8.4
									c0-4.6-3.7-8.4-8.4-8.4H527.3v547.3h1110.2V330h-541.2C1091.7,330,1087.9,333.8,1087.9,338.4z"/>
								<path class="st2" d="M797.3,258.7h-45.5c-4.6,0-8.4,3.7-8.4,8.4c0,4.6,3.7,8.4,8.4,8.4h45.5c4.6,0,8.4-3.7,8.4-8.4
									C805.6,262.5,801.9,258.7,797.3,258.7z"/>
								<path class="st2" d="M1056.3,330h-94.8c-4.6,0-8.4,3.7-8.4,8.4c0,4.6,3.7,8.4,8.4,8.4h94.8c4.6,0,8.4-3.7,8.4-8.4
									C1064.7,333.8,1060.9,330,1056.3,330z"/>
							</g>
						</g>
						<path class="st1" d="M1041.8,933.6h-65.7c-4.6,0-8.4,3.7-8.4,8.4c0,4.6,3.7,8.4,8.4,8.4h65.7c4.6,0,8.4-3.7,8.4-8.4
							C1050.1,937.4,1046.4,933.6,1041.8,933.6z"/>
						<path class="st1" d="M1704.9,933.6h-543.7c-4.6,0-8.4,3.7-8.4,8.4c0,4.6,3.7,8.4,8.4,8.4h543.7c4.6,0,8.4-3.7,8.4-8.4
							C1713.2,937.4,1709.5,933.6,1704.9,933.6z"/>
					</g>
				</g>
				<g>
					<g>
						<rect x="621.4" y="478.8" class="st2" width="230.5" height="53.6"/>
						<rect x="851.9" y="478.8" class="st5" width="230.5" height="53.6"/>
						<rect x="1082.4" y="478.8" class="st2" width="230.5" height="53.6"/>
						<rect x="1312.9" y="478.8" class="st5" width="230.5" height="53.6"/>
					</g>
					<path class="st1" d="M1554.3,768.9c-5.4-5.4-12.9-8.8-21.1-8.8c-8.3,0-15.7,3.3-21.1,8.8l0,0c-5.4,5.4-8.8,12.9-8.8,21.1
						c0,8.3,3.3,15.7,8.8,21.2c5.4,5.4,12.9,8.8,21.1,8.8s15.7-3.4,21.1-8.8l0,0c5.4-5.4,8.8-12.9,8.8-21.2
						C1563.1,781.8,1559.7,774.3,1554.3,768.9L1554.3,768.9z M1542.5,799.3L1542.5,799.3c-2.4,2.4-5.7,3.9-9.3,3.9s-6.9-1.5-9.3-3.9
						s-3.9-5.7-3.9-9.3c0-3.7,1.5-7,3.8-9.3l0,0c2.4-2.4,5.7-3.9,9.3-3.9c3.7,0,7,1.5,9.3,3.8l0,0c2.4,2.4,3.8,5.7,3.8,9.3
						C1546.4,793.7,1544.9,797,1542.5,799.3z"/>
					<g>
						<path class="st4" d="M758.1,396.7H641.8c-11.2,0-20.4,9.2-20.4,20.4s9.2,20.4,20.4,20.4h116.3c11.2,0,20.4-9.2,20.4-20.4
							C778.6,405.9,769.4,396.7,758.1,396.7z"/>
						<path class="st1" d="M778.4,396.8c-5.2-5.2-12.4-8.5-20.3-8.5H641.8c-7.9,0-15.1,3.2-20.3,8.5l0,0c-5.2,5.2-8.5,12.4-8.5,20.3
							s3.2,15.1,8.5,20.3c5.2,5.2,12.4,8.5,20.3,8.5h116.3c7.9,0,15.1-3.2,20.3-8.5l0,0c5.2-5.2,8.5-12.4,8.5-20.3
							C786.9,409.3,783.7,402.1,778.4,396.8L778.4,396.8z M766.7,425.7L766.7,425.7c-2.2,2.2-5.2,3.6-8.5,3.6H641.9
							c-3.3,0-6.3-1.4-8.5-3.6s-3.6-5.2-3.6-8.5s1.3-6.4,3.5-8.5l0,0c2.2-2.2,5.2-3.6,8.5-3.6h116.3c3.3,0,6.4,1.3,8.5,3.5l0,0
							c2.2,2.2,3.5,5.2,3.5,8.5C770.2,420.5,768.9,423.5,766.7,425.7z"/>
					</g>
					<g>
						<rect x="621.4" y="566.2" class="st6" width="242.2" height="242.2"/>
						<path class="st1" d="M613,557.8v258.9h258.9V557.8H621.4H613z M629.7,574.5h225.5V800H629.7V574.5z"/>
						<path class="st1" d="M742.5,708c-54.8,0-99.1,44.4-99.1,99.1c0,0.4,0,0.8,0,1.2h198.3c0-0.4,0-0.8,0-1.2
							C841.6,752.4,797.2,708,742.5,708z"/>
						<path class="st7" d="M742.5,603.1c-27.1,0-49.3,22.2-49.3,49.3v21.9c0,27.1,22.2,49.3,49.3,49.3s49.3-22.2,49.3-49.3v-21.9
							C791.7,625.3,769.6,603.1,742.5,603.1z"/>
						<g>
							<path class="st7" d="M694.3,648.9c-4.3,0-7.7,3.5-7.7,7.7v5.9c0,4.3,3.5,7.7,7.7,7.7c4.3,0,7.7-3.5,7.7-7.7v-5.9
								C702.1,652.3,698.6,648.9,694.3,648.9z"/>
							<path class="st7" d="M790.6,648.9c-4.3,0-7.7,3.5-7.7,7.7v5.9c0,4.3,3.5,7.7,7.7,7.7c4.3,0,7.7-3.5,7.7-7.7v-5.9
								C798.4,652.3,794.9,648.9,790.6,648.9z"/>
						</g>
						<path class="st7" d="M742.5,680.2L742.5,680.2c-13.7,0-24.9,11.2-24.9,24.9v11.2c0,13.7,11.2,24.9,24.9,24.9l0,0
							c13.7,0,24.9-11.2,24.9-24.9v-11.1C767.4,691.5,756.2,680.2,742.5,680.2z"/>
						<path class="st1" d="M793.8,620.7c0.3-1.3,0.5-2.6,0.5-4c0-9.6-7.9-17.5-17.5-17.5h-58.6c-6,0-11.3,3.1-14.5,7.7
							c-0.9-0.2-1.9-0.4-2.9-0.4c-6.4,0-11.7,5.2-11.7,11.7c0,1.2,0.2,2.4,0.6,3.6c-2.4,2-3.9,4.9-3.9,8.2v15.9
							c0,5.9,4.8,10.7,10.7,10.7s10.7-4.8,10.7-10.7v-2.3c5.2-0.5,9.4-4.4,10.4-9.4h0.5H765c1,5.4,5.8,9.5,11.4,9.5
							c0.4,0,0.8,0,1.2-0.1v2.3c0,5.9,4.8,10.7,10.7,10.7s10.7-4.8,10.7-10.7V630C799.2,626.1,797,622.6,793.8,620.7z"/>
						<path class="st1" d="M753.7,689.4c-1.7-0.4-3.4,0.5-3.8,2.2s-1.4,3.1-2.7,4.1s-2.9,1.6-4.7,1.6c-1.7,0-3.4-0.6-4.7-1.6
							s-2.3-2.4-2.7-4.1c-0.4-1.7-2.2-2.7-3.8-2.2c-1.7,0.4-2.7,2.2-2.2,3.8c0.8,3,2.6,5.6,5,7.4c2.4,1.8,5.3,2.9,8.5,2.9
							c3.1,0,6.1-1.1,8.5-2.9c2.4-1.8,4.2-4.4,5-7.4C756.4,691.6,755.4,689.8,753.7,689.4z"/>
					</g>
					<rect x="921.4" y="737.8" class="st8" width="354.4" height="70.6"/>
					<rect x="921.4" y="566.2" class="st8" width="354.4" height="70.6"/>
					<rect x="921.4" y="652" class="st8" width="354.4" height="70.6"/>
				</g>
				<g>
					<path class="st1" d="M941.5,933.6H378.4c-4.6,0-8.4,3.7-8.4,8.4c0,4.6,3.7,8.4,8.4,8.4h563.1c4.6,0,8.4-3.7,8.4-8.4
						C949.8,937.4,946.1,933.6,941.5,933.6z"/>
					<path class="st2" d="M352.9,933.6h-30.5c-4.6,0-8.4,3.7-8.4,8.4c0,4.6,3.7,8.4,8.4,8.4h30.5c4.6,0,8.4-3.7,8.4-8.4
						C361.2,937.4,357.5,933.6,352.9,933.6z"/>
				</g>
				<g>
					<path class="st2" d="M486.2,713.1c-1.6-29.8-26.4-53.7-56.5-53.7h-40.1c-30.1,0-55,23.9-56.5,53.7
						c-29.8,1.5-53.7,26.4-53.7,56.5c0,31.1,25.5,56.6,56.6,56.6h147.4c31.1,0,56.6-25.5,56.6-56.6
						C539.9,739.4,516,714.6,486.2,713.1z"/>
					<path class="st1" d="M493.8,705.5c-2.3-14.3-9.4-27-19.4-36.5c-11.7-11.1-27.4-17.9-44.7-17.9h-40.1c-17.2,0-33,6.8-44.7,17.9
						c-10.1,9.5-17.1,22.3-19.4,36.5c-14.3,2.3-27,9.4-36.6,19.4c-11.1,11.7-17.9,27.4-17.9,44.7c0,17.9,7.3,34.1,19.1,45.9
						c11.8,11.8,28,19.1,45.9,19.1h147.4c17.9,0,34.1-7.3,45.9-19.1c11.8-11.8,19.1-28,19.1-45.9c0-17.3-6.8-33-17.9-44.7
						C520.8,714.9,508,707.8,493.8,705.5z M517.4,803.7c-8.7,8.7-20.8,14.2-34.1,14.2H335.9c-13.3,0-25.3-5.4-34.1-14.2
						c-8.7-8.7-14.2-20.8-14.2-34.1c0-12.8,5.1-24.5,13.3-33.2c8.3-8.7,19.8-14.4,32.5-15l7.5-0.4l0.4-7.5
						c0.7-12.7,6.3-24.2,15-32.5c8.6-8.2,20.3-13.3,33.2-13.3h40.1c12.8,0,24.5,5.1,33.2,13.3c8.7,8.3,14.4,19.7,15,32.5l0.4,7.5
						l7.5,0.4c12.7,0.6,24.2,6.3,32.5,15c8.2,8.7,13.3,20.4,13.3,33.2C531.6,782.9,526.1,794.9,517.4,803.7z"/>
					<path class="st1" d="M401.1,689.6c-13,0-24.9,5.2-33.8,13.5c-7.2,6.8-12.4,15.9-14.4,26c-10.2,2-19.2,7.2-26,14.4
						c-8.4,8.9-13.6,20.8-13.6,33.8c0,4.6,3.7,8.4,8.4,8.4c4.6,0,8.4-3.7,8.4-8.4c0-8.6,3.4-16.5,8.9-22.3
						c5.6-5.8,13.2-9.6,21.8-10.1l7.5-0.4l0.4-7.5c0.4-8.5,4.2-16.2,10.1-21.8c5.8-5.5,13.7-8.9,22.3-8.9c4.6,0,8.4-3.7,8.4-8.4
						C409.5,693.3,405.7,689.6,401.1,689.6z"/>
				</g>
				<g>
					<g>
						<rect x="1380.9" y="131.3" class="st4" width="464.6" height="464.6"/>
						<path class="st1" d="M1372.6,186.8c0,4.6,3.7,8.4,8.4,8.4c4.6,0,8.4-3.7,8.4-8.4v-47.1h447.9v447.9h-447.9V234.3
							c0-4.6-3.7-8.4-8.4-8.4c-4.6,0-8.4,3.7-8.4,8.4v370h481.3V123h-481.3L1372.6,186.8L1372.6,186.8z"/>
						<g>
							<path class="st1" d="M1385.2,124.2c-3.9-2.4-9.1-1.1-11.4,2.9l-138.5,230.6c-2.4,3.9-1.1,9.1,2.9,11.4
								c3.9,2.4,9.1,1.1,11.4-2.9l138.5-230.6C1390.4,131.7,1389.1,126.5,1385.2,124.2z"/>
							<path class="st1" d="M1378.8,587.9l-105.1,27.6c-4.5,1.2-7.1,5.7-5.9,10.2s5.7,7.1,10.2,5.9l105.1-27.6
								c4.5-1.2,7.1-5.7,5.9-10.2C1387.8,589.4,1383.2,586.7,1378.8,587.9z"/>
							<path class="st1" d="M1159.9,499.4c-3.9-2.4-9.1-1.1-11.4,2.9l-55.6,92.6c-2.4,3.9-1.1,9.1,2.9,11.4
								c3.9,2.4,9.1,1.1,11.4-2.9l55.6-92.6C1165.1,506.9,1163.8,501.8,1159.9,499.4z"/>
							<path class="st1" d="M1243.3,623.5l-45.4,11.9c-4.5,1.2-7.1,5.7-5.9,10.2s5.7,7.1,10.2,5.9l45.4-11.9
								c4.5-1.2,7.1-5.7,5.9-10.2C1252.3,625,1247.7,622.3,1243.3,623.5z"/>
							<path class="st2" d="M1173.2,641.9l-21.6,5.7c-4.5,1.2-7.1,5.7-5.9,10.2s5.7,7.1,10.2,5.9l21.6-5.7c4.5-1.2,7.1-5.7,5.9-10.2
								C1182.2,643.4,1177.7,640.7,1173.2,641.9z"/>
							<path class="st2" d="M1228,386c-3.9-2.4-9.1-1.1-11.4,2.9l-51.4,85.7c-2.4,3.9-1.1,9.1,2.9,11.4c3.9,2.4,9.1,1.1,11.4-2.9
								l51.4-85.7C1233.2,393.5,1231.9,388.4,1228,386z"/>
						</g>
					</g>
					<g>
						<path class="st4" d="M1695.1,123.7l-32.6,44.9h15.8l0,0v25.3c0,3.4,2.8,6.1,6.3,6.1h35.7c3.4,0,6.3-2.7,6.3-6.1v-25.3l0,0
							h15.8l-33-45.5C1705.5,118,1699.2,118.2,1695.1,123.7z"/>
						<path class="st1" d="M1712.9,113.9c-2.8-1.9-5.8-2.8-9.1-2.8c-3.1,0.1-6.2,1-9,2.9c-1.7,1.2-3.4,2.8-4.8,4.8l-43.6,60.9h23.9
							v20.7c0,3.8,1.6,7.3,4.1,9.8s6.1,4,9.9,4h38.8c3.8,0,7.4-1.6,9.9-4l0,0c2.5-2.5,4.1-6,4.1-9.8v-20.7l24.8-0.9l-44.1-61.5
							C1715.9,116.5,1714.5,115.1,1712.9,113.9z M1722.5,165.4l0.3,7.2l0,0V200H1685v-27.4l0,0l0.3-7.2h-10.7l27.4-38.2
							c0.4-0.6,0.9-1,1.2-1.3c0.3-0.3,0.6-0.3,0.8-0.3c0.1,0,0.3,0.1,0.5,0.3c0.3,0.2,0.5,0.4,0.8,0.9l27.8,38.9L1722.5,165.4
							L1722.5,165.4L1722.5,165.4z"/>
						<path class="st6" d="M1815.9,118V92.4c0-3.4-2.8-6.2-6.3-6.2h-35.7c-3.5,0-6.3,2.8-6.3,6.2V118l0,0h-15.8l32.7,45.6
							c4,5.5,10.3,5.8,14,0.6l33.1-46.2L1815.9,118L1815.9,118z"/>
						<path class="st1" d="M1829.6,87c0-3.8-1.6-7.2-4.1-9.8l0,0c-2.6-2.5-6.2-4-10.1-4h-39.3c-3.9,0-7.4,1.5-10.1,4l0,0
							c-2.6,2.5-4.1,6-4.1,9.8v20.7h-24.3l44.1,60.8c1.4,2,3.1,3.5,4.9,4.8c2.7,1.9,5.9,2.9,9.1,2.9c3.2,0.1,6.4-0.9,9.2-2.8l0,0
							c1.6-1.1,3.1-2.6,4.4-4.3l36.4-50.2l8.2-11.4h-24.3L1829.6,87L1829.6,87z M1797.3,160.9c-0.3,0.3-0.5,0.7-0.8,0.9l0,0
							c-0.2,0.1-0.4,0.2-0.5,0.2c-0.2,0-0.4-0.2-0.8-0.3c-0.4-0.3-0.9-0.7-1.2-1.3l-27.7-38.2h10.5V87.5h38.3v34.6h10.5
							L1797.3,160.9z"/>
					</g>
				</g>
				<g>
					<path class="st1" d="M439.3,69.8c-17.5,0-33.4,7.1-44.8,18.6c-11.5,11.5-18.6,27.3-18.6,44.8s7.1,33.4,18.6,44.8
						c11.5,11.5,27.3,18.6,44.8,18.6s33.4-7.1,44.8-18.6c11.5-11.5,18.6-27.3,18.6-44.8s-7.1-33.4-18.6-44.8
						C472.7,76.9,456.8,69.8,439.3,69.8z M472.3,166.3c-8.4,8.4-20.1,13.7-33,13.7s-24.6-5.2-33-13.7c-8.4-8.4-13.7-20.1-13.7-33
						s5.2-24.6,13.7-33c8.4-8.4,20.1-13.7,33-13.7s24.6,5.2,33,13.7c8.4,8.4,13.7,20.1,13.7,33C486,146.1,480.8,157.8,472.3,166.3z"
						/>
					<path class="st6" d="M462.7,126.2h-47.6c-9.3,0-16.9,7.6-16.9,16.9v43c0,9.3,7.6,16.9,16.9,16.9h47.6c9.3,0,16.9-7.6,16.9-16.9
						v-43C479.7,133.8,472.1,126.2,462.7,126.2z"/>
					<path class="st1" d="M480.6,125.2c-4.6-4.6-10.9-7.4-17.9-7.4h-47.6c-7,0-13.3,2.8-17.9,7.4c-4.6,4.6-7.4,10.9-7.4,17.9v43
						c0,7,2.8,13.3,7.4,17.9c4.6,4.6,10.9,7.4,17.9,7.4h47.6c7,0,13.3-2.8,17.9-7.4c4.6-4.6,7.4-10.9,7.4-17.9v-43
						C488,136.2,485.2,129.9,480.6,125.2L480.6,125.2z M471.3,186.1c0,2.3-1,4.5-2.5,6c-1.6,1.6-3.7,2.5-6,2.5h-47.6
						c-2.3,0-4.5-1-6-2.5c-1.6-1.6-2.5-3.7-2.5-6v-43c0-2.3,1-4.5,2.5-6c1.6-1.6,3.7-2.5,6-2.5h47.6c2.3,0,4.5,1,6,2.5l0,0
						c1.5,1.6,2.5,3.7,2.5,6.1V186.1z"/>
					<circle class="st2" cx="435.6" cy="364.5" r="176.2"/>
					<path class="st1" d="M435.6,179.9c-51,0-97.1,20.7-130.5,54.1S251,313.5,251,364.5s20.7,97.1,54.1,130.5s79.5,54.1,130.5,54.1
						s97.1-20.7,130.5-54.1c33.4-33.4,54.1-79.5,54.1-130.5s-20.7-97.1-54.1-130.5S486.6,179.9,435.6,179.9z M554.3,483.2
						c-30.4,30.4-72.3,49.2-118.7,49.2s-88.3-18.8-118.7-49.2s-49.2-72.3-49.2-118.7s18.8-88.3,49.2-118.7
						c30.4-30.4,72.3-49.2,118.7-49.2s88.3,18.8,118.7,49.2s49.2,72.3,49.2,118.7S584.7,452.8,554.3,483.2z"/>
					<polygon class="st4" points="471.7,264 362.2,373.4 399.6,373.4 399.6,465.1 509,355.6 471.7,355.6 					"/>
					<path class="st1" d="M480,243.8l-138,138h49.2v103.4l123.7-123.7l14.3-14.3H480V243.8L480,243.8z M488.9,363.9L408,444.8V365
						h-25.6l80.9-80.9v79.8L488.9,363.9L488.9,363.9z"/>
					<circle class="st1" cx="435.6" cy="229.2" r="11.6"/>
					<path class="st1" d="M330.5,253.3c-15.3,14.5-27.3,31.8-35.5,50.7s-12.5,39.5-12.5,60.6c0,7.2,0.5,14.5,1.6,21.7
						c1,7.2,2.6,14.3,4.6,21.3c1.3,4.4,5.9,6.9,10.4,5.6c4.4-1.3,6.9-5.9,5.7-10.4c-1.8-6.2-3.2-12.5-4.1-19
						c-0.9-6.3-1.4-12.8-1.4-19.4c0-18.8,3.9-37.1,11.1-54c7.3-16.9,17.9-32.3,31.5-45.1c3.4-3.2,3.5-8.4,0.4-11.8
						C339.2,250.3,333.9,250.1,330.5,253.3z"/>
				</g>
				<g>
					<path class="st2" d="M1703.9,828.9c0,47.4-38.4,85.8-85.8,85.8c47.4,0,85.8,38.4,85.8,85.8c0-47.4,38.4-85.8,85.8-85.8
						C1742.3,914.7,1703.9,876.3,1703.9,828.9z"/>
					<path class="st1" d="M1798.7,757.6c0,22.2-18,40.1-40.1,40.1c22.2,0,40.1,18,40.1,40.1c0-22.2,18-40.1,40.1-40.1
						C1816.6,797.7,1798.7,779.7,1798.7,757.6z"/>
				</g>
				<path class="st2" d="M275,605l-25,25c-3.3,3.3-3.3,8.6,0,11.8c3.3,3.3,8.6,3.3,11.8,0l25-25c3.3-3.3,3.3-8.6,0-11.8
					C283.5,601.7,278.2,601.7,275,605z"/>
				<path class="st2" d="M261.8,556c-3.3-3.3-8.6-3.3-11.8,0c-3.3,3.3-3.3,8.6,0,11.8l25,25c3.3,3.3,8.6,3.3,11.8,0
					c3.3-3.3,3.3-8.6,0-11.8L261.8,556z"/>
				<path class="st2" d="M310.7,605c-3.3-3.3-8.6-3.3-11.8,0c-3.3,3.3-3.3,8.6,0,11.8l25,25c3.3,3.3,8.6,3.3,11.8,0
					c3.3-3.3,3.3-8.6,0-11.8L310.7,605z"/>
				<path class="st2" d="M323.9,556l-25,25c-3.3,3.3-3.3,8.6,0,11.8c3.3,3.3,8.6,3.3,11.8,0l25-25c3.3-3.3,3.3-8.6,0-11.8
					C332.5,552.8,327.2,552.8,323.9,556z"/>
				<path class="st1" d="M1799.4,1237.9c3.3-3.3,3.3-8.6,0-11.8c-3.3-3.3-8.6-3.3-11.8,0l-13.9,13.9c-0.3,0.3-0.5,0.5-0.7,0.8
					c-0.2-0.3-0.5-0.6-0.7-0.8l-13.9-13.9c-3.3-3.3-8.6-3.3-11.8,0c-3.3,3.3-3.3,8.6,0,11.8l13.9,13.9c0.3,0.3,0.5,0.5,0.8,0.7
					c-0.3,0.2-0.6,0.5-0.8,0.7l-13.9,13.9c-3.3,3.3-3.3,8.6,0,11.8c3.3,3.3,8.6,3.3,11.8,0l13.9-13.9c0.3-0.3,0.5-0.5,0.7-0.8
					c0.2,0.3,0.5,0.6,0.7,0.8l13.9,13.9c3.3,3.3,8.6,3.3,11.8,0c3.3-3.3,3.3-8.6,0-11.8l-13.9-13.9c-0.3-0.3-0.5-0.5-0.8-0.7
					c0.3-0.2,0.6-0.5,0.8-0.7L1799.4,1237.9z"/>
				<path class="st2" d="M856.2,131.9c3.3-3.3,3.3-8.6,0-11.8c-3.3-3.3-8.6-3.3-11.8,0L830.5,134c-0.3,0.3-0.5,0.5-0.7,0.8
					c-0.2-0.3-0.5-0.6-0.7-0.8l-13.9-13.9c-3.3-3.3-8.6-3.3-11.8,0c-3.3,3.3-3.3,8.6,0,11.8l13.9,13.9c0.3,0.3,0.5,0.5,0.8,0.7
					c-0.3,0.2-0.6,0.5-0.8,0.7l-13.9,13.9c-3.3,3.3-3.3,8.6,0,11.8c3.3,3.3,8.6,3.3,11.8,0l13.9-13.9c0.3-0.3,0.5-0.5,0.7-0.8
					c0.2,0.3,0.5,0.6,0.7,0.8l13.9,13.9c3.3,3.3,8.6,3.3,11.8,0c3.3-3.3,3.3-8.6,0-11.8l-13.9-13.9c-0.3-0.3-0.5-0.5-0.8-0.7
					c0.3-0.2,0.6-0.5,0.8-0.7L856.2,131.9z"/>
				<g>
					<rect x="686.5" y="1132" class="st6" width="142.6" height="160.5"/>
					<path class="st1" d="M678.1,1123.7v177.2h159.3v-177.2H686.5H678.1z M694.8,1140.4h125.8v143.8H694.8V1140.4z"/>
					<polygon class="st2" points="644.2,1132 757.7,1228.8 871.2,1132 757.7,871.2 					"/>
					<path class="st1" d="M757.7,862.8c-4.6,0-8.4,3.7-8.4,8.4v168.3c0,4.6,3.7,8.4,8.4,8.4c4.6,0,8.4-3.7,8.4-8.4V871.2
						C766.1,866.6,762.3,862.8,757.7,862.8z"/>
					<path class="st1" d="M757.7,1031.1c-9.6,0-18.2,3.9-24.5,10.1s-10.1,14.9-10.1,24.5s3.9,18.2,10.1,24.5s14.9,10.1,24.5,10.1
						s18.2-3.9,24.5-10.1s10.1-14.9,10.1-24.5s-3.9-18.2-10.1-24.5S767.3,1031.1,757.7,1031.1z M770.4,1078.4
						c-3.2,3.2-7.7,5.2-12.7,5.2c-4.9,0-9.4-2-12.7-5.2c-3.2-3.2-5.2-7.7-5.2-12.7c0-4.9,2-9.4,5.2-12.7c3.2-3.2,7.7-5.2,12.7-5.2
						c4.9,0,9.4,2,12.7,5.2c3.2,3.2,5.2,7.7,5.2,12.7S773.6,1075.2,770.4,1078.4z"/>
					<path class="st1" d="M711.1,957.5c-1.8,4.2,0.1,9.1,4.3,11c4.2,1.8,9.1-0.1,11-4.3l31.4-72.1l103.4,237.6l-103.4,88.2
						l-103.4-88.2l40-91.8c1.8-4.2-0.1-9.1-4.3-11c-4.2-1.8-9.1,0.1-11,4.3l-44.9,103.2l123.6,105.4l123.6-105.4L757.7,850.3
						L711.1,957.5z"/>
					<path class="st1" d="M713.4,973.2c-4.2-1.8-9.1,0.1-11,4.3l-5.4,12.4c-1.8,4.2,0.1,9.1,4.3,11c4.2,1.8,9.1-0.1,11-4.3l5.4-12.4
						C719.5,979.9,717.6,975,713.4,973.2z"/>
					<path class="st1" d="M938.3,862.8H577.1c-4.6,0-8.4,3.7-8.4,8.4c0,4.6,3.7,8.4,8.4,8.4h361.2c4.6,0,8.4-3.7,8.4-8.4
						C946.7,866.6,942.9,862.8,938.3,862.8z"/>
					<rect x="740.1" y="853.5" class="st2" width="35.3" height="35.3"/>
					<path class="st1" d="M731.7,845.2v52h52v-52h-43.6H731.7z M748.5,861.9H767v18.5h-18.5V861.9z"/>
					<circle class="st6" cx="592.5" cy="871.2" r="15.3"/>
					<path class="st1" d="M592.5,847.5c-6.5,0-12.5,2.7-16.7,6.9c-4.3,4.3-6.9,10.2-6.9,16.7s2.7,12.5,6.9,16.7
						c4.3,4.3,10.2,6.9,16.7,6.9s12.5-2.7,16.7-6.9c4.3-4.3,6.9-10.2,6.9-16.7s-2.7-12.5-6.9-16.7
						C604.9,850.1,599,847.5,592.5,847.5z M597.4,876.1c-1.3,1.3-3,2-4.9,2s-3.7-0.8-4.9-2c-1.3-1.3-2-3-2-4.9s0.8-3.7,2-4.9
						c1.3-1.3,3-2,4.9-2s3.7,0.8,4.9,2c1.3,1.3,2,3,2,4.9S598.6,874.8,597.4,876.1z"/>
					<circle class="st6" cx="923" cy="871.2" r="15.3"/>
					<path class="st1" d="M923,847.5c-6.5,0-12.5,2.7-16.7,6.9s-6.9,10.2-6.9,16.7s2.7,12.5,6.9,16.7c4.3,4.3,10.2,6.9,16.7,6.9
						s12.5-2.7,16.7-6.9c4.3-4.3,6.9-10.2,6.9-16.7s-2.7-12.5-6.9-16.7C935.5,850.1,929.5,847.5,923,847.5z M927.9,876.1
						c-1.3,1.3-3,2-4.9,2s-3.7-0.8-4.9-2c-1.3-1.3-2-3-2-4.9s0.8-3.7,2-4.9c1.3-1.3,3-2,4.9-2s3.7,0.8,4.9,2c1.3,1.3,2,3,2,4.9
						C930,873.1,929.2,874.8,927.9,876.1z"/>
				</g>
				<g>
					<path class="st1" d="M1444.6,900.2h-114.7c-14.8,0-28.2,6-37.9,15.8h-0.1c-9.7,9.7-15.8,23.2-15.8,38v30.6
						c0,13.6,11,24.7,24.7,24.7c13.6,0,24.7-11,24.7-24.7V954c0-1.2,0.5-2.3,1.3-3.1l0,0c0.8-0.8,1.9-1.3,3.2-1.3h114.7
						c1.2,0,2.3,0.5,3.1,1.3s1.3,1.9,1.3,3.1v30.6c0,13.6,11,24.7,24.7,24.7c13.6,0,24.7-11,24.7-24.7V954c0-14.8-6-28.3-15.8-38
						S1459.4,900.2,1444.6,900.2z"/>
					<path class="st4" d="M1549,984.6h-323.5c-34.8,0-63.3,28.5-63.3,63.3v181.3c0,34.8,28.5,63.3,63.3,63.3H1549
						c34.8,0,63.3-28.5,63.3-63.3v-181.3C1612.3,1013.1,1583.8,984.6,1549,984.6z"/>
					<path class="st1" d="M1549,976.2h-323.5c-19.7,0-37.6,8.1-50.6,21c-13,13-21,30.9-21,50.6v181.3c0,19.7,8.1,37.6,21,50.6
						c13,13,30.9,21,50.6,21H1549c19.7,0,37.6-8.1,50.6-21c13-13,21-30.9,21-50.6v-181.3c0-19.7-8.1-37.6-21-50.6
						C1586.6,984.3,1568.7,976.2,1549,976.2z M1603.9,1229.2c0,15.1-6.2,28.8-16.1,38.8c-10,10-23.7,16.1-38.8,16.1h-323.5
						c-15.1,0-28.8-6.2-38.8-16.1c-10-10-16.1-23.7-16.1-38.8v-181.3c0-15.1,6.2-28.8,16.1-38.8c10-10,23.7-16.1,38.8-16.1H1549
						c15.1,0,28.8,6.2,38.8,16.1c10,10,16.1,23.7,16.1,38.8V1229.2L1603.9,1229.2z"/>
					<path class="st2" d="M1549,984.6h-323.5c-34.8,0-63.3,28.5-63.3,63.3v60.2h450.1v-60.2C1612.3,1013.1,1583.8,984.6,1549,984.6z
						"/>
					<path class="st1" d="M1549,976.2h-323.5c-19.7,0-37.6,8.1-50.6,21c-13,13-21,30.9-21,50.6v68.6h466.8v-68.6
						c0-19.7-8.1-37.6-21-50.6C1586.6,984.3,1568.7,976.2,1549,976.2z M1603.9,1099.7h-433.4v-51.8c0-15.1,6.2-28.8,16.1-38.8
						c10-10,23.7-16.1,38.8-16.1h323.5c15.1,0,28.8,6.2,38.8,16.1c10,10,16.1,23.7,16.1,38.8L1603.9,1099.7L1603.9,1099.7z"/>
					<circle class="st6" cx="1387.2" cy="1125" r="42.3"/>
					<path class="st1" d="M1387.2,1074.3c-14,0-26.7,5.7-35.8,14.8c-9.2,9.2-14.8,21.9-14.8,35.8c0,14,5.7,26.7,14.8,35.8
						c9.2,9.2,21.8,14.8,35.8,14.8s26.7-5.7,35.8-14.8c9.2-9.2,14.8-21.8,14.8-35.8s-5.7-26.7-14.8-35.8
						C1413.9,1079.9,1401.2,1074.3,1387.2,1074.3z M1411.2,1149c-6.1,6.1-14.6,9.9-24,9.9s-17.9-3.8-24-9.9s-9.9-14.6-9.9-24
						s3.8-17.9,9.9-24s14.6-9.9,24-9.9s17.9,3.8,24,9.9s9.9,14.6,9.9,24C1421.2,1134.3,1417.4,1142.8,1411.2,1149z"/>
					<path class="st2" d="M1240.7,1165c0,13.5,11,24.5,24.5,24.5s24.5-11,24.5-24.5v-56.9h-49V1165z"/>
					<path class="st1" d="M1232.4,1099.7v65.3c0,9,3.7,17.2,9.7,23.2l0,0c6,6,14.2,9.7,23.2,9.7s17.3-3.7,23.2-9.7l0,0
						c6-6,9.7-14.2,9.7-23.2v-65.3h-57.4H1232.4z M1249.1,1116.4h32.3v48.5c0,4.5-1.8,8.5-4.7,11.4l0,0c-2.9,2.9-7,4.8-11.4,4.8
						s-8.5-1.8-11.4-4.8l0,0c-2.9-2.9-4.7-6.9-4.7-11.4v-48.5H1249.1z"/>
					<path class="st2" d="M1492.9,1165c0,13.5,11,24.5,24.5,24.5s24.5-11,24.5-24.5v-56.9h-49V1165z"/>
					<path class="st1" d="M1484.5,1099.7v65.3c0,9,3.7,17.2,9.7,23.2l0,0c6,6,14.2,9.7,23.2,9.7c9.1,0,17.3-3.7,23.2-9.7l0,0
						c6-6,9.7-14.2,9.7-23.2v-65.3h-57.4H1484.5z M1501.2,1116.4h32.3v48.5c0,4.5-1.8,8.5-4.7,11.4l0,0c-2.9,2.9-7,4.8-11.4,4.8
						s-8.5-1.8-11.4-4.8l0,0c-2.9-2.9-4.7-6.9-4.7-11.4v-48.5H1501.2z"/>
				</g>
			</g>
			<g>
				<path class="st2" d="M341.7,1062.9h-67.5c-5.8,0-11.7,4.8-13.1,10.6l-5.7,23.2c-1.4,5.8,2.2,10.6,8,10.6h67.5
					c5.8,0,11.7-4.8,13.1-10.6l5.7-23.2C351.1,1067.6,347.5,1062.9,341.7,1062.9z"/>
				<path class="st1" d="M233.7,1009.9h-33.8c-5.8,0-11.7,4.8-13.1,10.6l-5.7,23.2c-1.4,5.8,2.2,10.6,8,10.6h33.8
					c5.8,0,11.7-4.8,13.1-10.6l5.7-23.2C243.1,1014.7,239.5,1009.9,233.7,1009.9z"/>
			</g>
		</g>
		<g>
			<circle class="st6" cx="1059.6" cy="350.2" r="24.3"/>
			<path class="st1" d="M1082.7,327.1c-5.9-5.9-14.1-9.6-23.1-9.6s-17.2,3.7-23.1,9.6l0,0c-5.9,5.9-9.6,14.1-9.6,23.1
				s3.7,17.1,9.6,23.1l0,0c5.9,5.9,14.1,9.6,23.1,9.6s17.1-3.7,23.1-9.6l0,0c5.9-5.9,9.6-14.1,9.6-23.1
				C1092.3,341.1,1088.6,333,1082.7,327.1L1082.7,327.1z M1071,361.5L1071,361.5c-2.9,2.9-6.9,4.7-11.4,4.7c-4.4,0-8.4-1.8-11.3-4.7
				l0,0c-2.9-2.9-4.7-6.9-4.7-11.3s1.8-8.4,4.7-11.3l0,0c2.9-2.9,6.9-4.7,11.3-4.7s8.4,1.8,11.3,4.7l0,0c2.9,2.9,4.7,6.9,4.7,11.3
				S1073.9,358.6,1071,361.5z"/>
			
				<ellipse transform="matrix(0.7071 -0.7071 0.7071 0.7071 174.633 805.3603)" class="st4" cx="1059.5" cy="191.9" rx="97.4" ry="97.4"/>
			<path class="st1" d="M1059.6,86.2c-29.2,0-55.6,11.8-74.8,31c-19.1,19.1-31,45.6-31,74.8s11.8,55.6,31,74.8
				c19.1,19.1,45.6,31,74.8,31s55.6-11.8,74.8-31c19.1-19.1,31-45.6,31-74.8s-11.8-55.6-31-74.8C1115.3,98,1088.8,86.2,1059.6,86.2z
				 M1122.6,254.9c-16.1,16.1-38.4,26.1-63,26.1s-46.9-10-63-26.1s-26.1-38.4-26.1-63s10-46.9,26.1-63s38.4-26.1,63-26.1
				s46.9,10,63,26.1s26.1,38.4,26.1,63S1138.7,238.8,1122.6,254.9z"/>
			<path class="st2" d="M1088,277.1h-56.8c-9.2,0-16.6,7.5-16.6,16.6l0,0c0,9.2,7.5,16.6,16.6,16.6h56.8c9.2,0,16.6-7.5,16.6-16.6
				l0,0C1104.7,284.6,1097.2,277.1,1088,277.1z"/>
			<path class="st1" d="M1105.6,276.1c-4.5-4.5-10.8-7.3-17.6-7.3h-56.8c-6.9,0-13.1,2.8-17.6,7.3l0,0c-4.5,4.5-7.3,10.8-7.3,17.6
				s2.8,13.1,7.3,17.6l0,0c4.5,4.5,10.8,7.3,17.6,7.3h56.8c6.9,0,13.1-2.8,17.6-7.3s7.3-10.8,7.3-17.7
				C1113,286.9,1110.2,280.6,1105.6,276.1L1105.6,276.1z M1093.9,299.6c-1.5,1.5-3.6,2.4-5.9,2.4h-56.8c-2.3,0-4.4-0.9-5.9-2.4l0,0
				c-1.5-1.5-2.4-3.6-2.4-5.9s0.9-4.4,2.4-5.9l0,0c1.5-1.5,3.6-2.4,5.9-2.4h56.8c2.3,0,4.4,0.9,5.9,2.4l0,0c1.5,1.5,2.4,3.6,2.4,5.9
				S1095.4,298.1,1093.9,299.6z"/>
			<path class="st2" d="M1088,310.4h-56.8c-9.2,0-16.6,7.5-16.6,16.6l0,0c0,9.2,7.5,16.6,16.6,16.6h56.8c9.2,0,16.6-7.5,16.6-16.6
				l0,0C1104.7,317.9,1097.2,310.4,1088,310.4z"/>
			<path class="st1" d="M1105.6,309.4c-4.5-4.5-10.8-7.3-17.6-7.3h-56.8c-6.9,0-13.1,2.8-17.6,7.3l0,0c-4.5,4.5-7.3,10.8-7.3,17.6
				c0,6.9,2.8,13.1,7.3,17.6l0,0c4.5,4.5,10.8,7.3,17.6,7.3h56.8c6.9,0,13.1-2.8,17.6-7.3s7.3-10.8,7.3-17.7
				C1113,320.2,1110.2,313.9,1105.6,309.4L1105.6,309.4z M1093.9,332.9c-1.5,1.5-3.6,2.4-5.9,2.4h-56.8c-2.3,0-4.4-0.9-5.9-2.4l0,0
				c-1.5-1.5-2.4-3.6-2.4-5.9s0.9-4.4,2.4-5.9l0,0c1.5-1.5,3.6-2.4,5.9-2.4h56.8c2.3,0,4.4,0.9,5.9,2.4l0,0c1.5,1.5,2.4,3.6,2.4,5.9
				S1095.4,331.4,1093.9,332.9z"/>
			<path class="st1" d="M1112.5,130.1c-11-9.4-24.5-15.9-39.4-18.4c-4.5-0.8-8.8,2.3-9.6,6.8s2.3,8.8,6.8,9.6
				c11.8,2,22.6,7.2,31.3,14.7c8.8,7.5,15.5,17.3,19.3,28.7c1.4,4.4,6.1,6.7,10.5,5.3s6.7-6.1,5.3-10.5
				C1132,151.9,1123.5,139.5,1112.5,130.1z"/>
			<path class="st2" d="M1140.8,185.9c-0.3-4.6-4.3-8-8.9-7.7s-8,4.3-7.7,8.9c0.1,1.1,0.1,1.9,0.2,2.4v2.4c0,2.9-0.2,5.7-0.5,8.3
				c-0.6,4.5,2.6,8.7,7.2,9.3c4.5,0.6,8.7-2.6,9.3-7.2c0.5-3.6,0.7-7.1,0.7-10.4c0-0.5,0-1.5-0.1-3
				C1140.9,187.6,1140.8,186.5,1140.8,185.9z"/>
		</g>
	</g>
</g>
<path class="st9" d="M747.3,634.2"/>
<circle class="st1" cx="724" cy="653.5" r="6.4"/>
<circle class="st1" cx="756" cy="654.5" r="6.4"/>
<g>
	<rect x="1594.6" y="195.1" class="st10" width="30.1" height="378.7"/>
	<polygon class="st10" points="1489.3,564.9 1461.6,555.1 1606.2,267 1634,276.9 	"/>
	<polygon class="st10" points="1725.9,564.9 1753.6,555.1 1609,267 1581.2,276.9 	"/>
	<path class="st11" d="M1781,455.6h-324.3c-11.4,0-20.7-9.3-20.7-20.7V276.4c0-11.4,9.3-20.7,35.8-20.7H1796
		c-3.6,0,5.7,9.3,5.7,20.7v158.4C1801.8,446.3,1792.5,455.6,1781,455.6z"/>
	<g>
		<polyline class="st12" points="1716.5,430.3 1515.8,430.3 1515.8,273.5 		"/>
		<line class="st13" x1="1543" y1="429.1" x2="1543" y2="418.8"/>
		<line class="st13" x1="1571.6" y1="429.1" x2="1571.6" y2="418.8"/>
		<line class="st13" x1="1600.2" y1="429.1" x2="1600.2" y2="418.8"/>
		<line class="st13" x1="1628.8" y1="429.1" x2="1628.8" y2="418.8"/>
		<line class="st13" x1="1657.3" y1="429.1" x2="1657.3" y2="418.8"/>
		<line class="st13" x1="1685.9" y1="429.1" x2="1685.9" y2="418.8"/>
		<polyline class="st13" points="1703.6,440.6 1716.5,430.5 1703.6,418.8 		"/>
		<polyline class="st13" points="1528.7,283.6 1516.8,272.8 1502.8,283.6 		"/>
		<path class="st12" d="M1515.8,430.3c0,0,25.9-75,55.8-84.1c29.9-9.2,30.9,26.7,57.2,21.5c26.3-5.3,14.1-62.5,38.1-73.2
			c24-10.7,39.9,24.5,39.9,24.5"/>
		<path class="st14" d="M1552.5,374.9c0,4.6-4.5,8.4-10,8.4s-10-3.8-10-8.4s4.5-8.4,10-8.4C1548.1,366.5,1552.5,370.3,1552.5,374.9z
			"/>
		<path class="st14" d="M1638.7,366.5c0,4.6-4.5,8.4-10,8.4s-10-3.8-10-8.4s4.5-8.4,10-8.4C1634.3,358.1,1638.7,361.9,1638.7,366.5z
			"/>
		<path class="st14" d="M1674.1,297.4c0,4.6-4.5,8.4-10,8.4s-10-3.8-10-8.4s4.5-8.4,10-8.4C1669.7,289,1674.1,292.8,1674.1,297.4z"
			/>
	</g>
</g>
</svg>
