<?xml version="1.0" encoding="utf-8"?>
<!-- Generator: Adobe Illustrator 23.0.3, SVG Export Plug-In . SVG Version: 6.00 Build 0)  -->
<svg version="1.1" id="Layer_1" xmlns="http://www.w3.org/2000/svg" xmlns:xlink="http://www.w3.org/1999/xlink" x="0px" y="0px"
	 viewBox="0 0 3000 2000" style="enable-background:new 0 0 3000 2000;" xml:space="preserve">
<style type="text/css">
	.st0{fill-rule:evenodd;clip-rule:evenodd;fill:none;}
	.st1{fill-rule:evenodd;clip-rule:evenodd;fill:#216B75;}
	.st2{fill-rule:evenodd;clip-rule:evenodd;fill:#FFFFFF;}
	.st3{fill-rule:evenodd;clip-rule:evenodd;fill:#C3E6F9;}
	.st4{fill-rule:evenodd;clip-rule:evenodd;fill:#FBD260;}
	.st5{fill-rule:evenodd;clip-rule:evenodd;fill:#E6E6E6;}
	.st6{fill-rule:evenodd;clip-rule:evenodd;fill:#B6D957;}
	.st7{fill-rule:evenodd;clip-rule:evenodd;fill:#FBBEAC;}
	.st8{fill-rule:evenodd;clip-rule:evenodd;fill:#ADD7ED;}
</style>
<g>
	<g>
		<g>
			<circle class="st0" cx="1339.8" cy="991.5" r="642.7"/>
			<g>
				<g>
					<path class="st1" d="M1490.5,1534.2h-49.8c-4.6,0-8.4,3.7-8.4,8.4c0,4.6,3.7,8.4,8.4,8.4h49.8c4.6,0,8.4-3.7,8.4-8.4
						S1495.1,1534.2,1490.5,1534.2z"/>
					<path class="st2" d="M1017.5,1534.2H998c-4.6,0-8.4,3.7-8.4,8.4c0,4.6,3.7,8.4,8.4,8.4h19.5c4.6,0,8.4-3.7,8.4-8.4
						S1022.1,1534.2,1017.5,1534.2z"/>
					<path class="st1" d="M1399.3,1534.2h-321c-4.6,0-8.4,3.7-8.4,8.4c0,4.6,3.7,8.4,8.4,8.4h321c4.6,0,8.4-3.7,8.4-8.4
						S1403.9,1534.2,1399.3,1534.2z"/>
					<path class="st1" d="M1084.8,1442.8H917.7c-4.6,0-8.4,3.7-8.4,8.4c0,4.6,3.7,8.4,8.4,8.4h167.1c4.6,0,8.4-3.7,8.4-8.4
						S1089.5,1442.8,1084.8,1442.8z"/>
					<path class="st2" d="M1151.4,1442.8h-31.5c-4.6,0-8.4,3.7-8.4,8.4c0,4.6,3.7,8.4,8.4,8.4h31.5c4.6,0,8.4-3.7,8.4-8.4
						C1159.7,1446.5,1156,1442.8,1151.4,1442.8z"/>
				</g>
				<g>
					<g>
						<path class="st2" d="M1440.4,1205.6l-52.8,336.9c120.2,0,240.4,0,360.6,0l-52.8-336.9
							C1610.4,1205.6,1525.4,1205.6,1440.4,1205.6z"/>
						<path class="st1" d="M1440.4,1197.3h-7.1c-18.5,117.9-37,235.8-55.4,353.6h380l-55.4-353.6H1440.4z M1397.4,1534.2l50.2-320.2
							h240.7l50.2,320.2H1397.4L1397.4,1534.2z"/>
						<path class="st3" d="M1784.8,1513.2H1351c-4.8,0-8.7,3.9-8.7,8.7v11.9c0,4.8,3.9,8.7,8.7,8.7h433.8c4.8,0,8.7-3.9,8.7-8.7
							v-11.9C1793.5,1517.1,1789.6,1513.2,1784.8,1513.2z"/>
						<path class="st1" d="M1796.8,1509.8c-3.1-3.1-7.3-5-12-5H1351c-4.7,0-9,1.9-12.1,5s-5,7.4-5,12.1v11.9c0,4.7,1.9,8.9,5,12l0,0
							c3.1,3.1,7.4,5,12.1,5h433.8c4.7,0,8.9-1.9,12-5l0,0c3.1-3.1,5-7.3,5-12v-11.9C1801.9,1517.2,1799.9,1512.9,1796.8,1509.8
							L1796.8,1509.8z M1785.1,1533.8c0,0.1,0,0.2-0.1,0.2c-0.1,0.1-0.2,0.1-0.3,0.1h-433.8c-0.1,0-0.2,0-0.2-0.1l0,0
							c0,0-0.1-0.1-0.1-0.2v-11.9c0-0.1,0-0.2,0.1-0.2c0.1-0.1,0.2-0.1,0.2-0.1h433.8c0.1,0,0.2,0,0.3,0.1l0,0
							c0.1,0.1,0.1,0.2,0.1,0.2V1533.8L1785.1,1533.8z"/>
					</g>
					<g>
						<g>
							<g>
								<path class="st4" d="M2157.8,517.1H1002.9c-24.8,0-45,20.3-45,45v739c0,24.8,20.3,45,45,45h1154.9c24.8,0,45-20.3,45-45
									v-739C2202.9,537.3,2182.6,517.1,2157.8,517.1z"/>
								<path class="st3" d="M957.9,1301.1c0,24.8,18.3,45,40.6,45h1163.8c22.3,0,40.6-20.3,40.6-45V1192h-1245L957.9,1301.1
									L957.9,1301.1z"/>
								<rect x="1033.7" y="588.4" class="st3" width="1093.5" height="530.6"/>
							</g>
							<g>
								<path class="st1" d="M2157.8,508.7h-835.5c-4.6,0-8.4,3.7-8.4,8.4c0,4.6,3.7,8.4,8.4,8.4h835.5c10.1,0,19.3,4.1,25.9,10.8
									c6.7,6.7,10.8,15.8,10.8,25.9v739c0,10.1-4.1,19.2-10.8,25.9c-6.7,6.6-15.8,10.8-25.9,10.8H1002.9
									c-10.1,0-19.3-4.1-25.9-10.8c-6.7-6.6-10.8-15.8-10.8-25.9v-739c0-10.1,4.1-19.2,10.8-25.9c6.6-6.7,15.8-10.8,25.9-10.8
									h155.6c4.6,0,8.4-3.7,8.4-8.4c0-4.6-3.7-8.4-8.4-8.4h-155.6c-14.7,0-28,6-37.7,15.7s-15.7,23-15.7,37.7v739
									c0,14.7,6,28,15.7,37.7s23,15.7,37.7,15.7h1154.9c14.7,0,28-6,37.7-15.7s15.7-23,15.7-37.7v-739c0-14.7-6-28-15.7-37.7
									C2185.9,514.7,2172.5,508.7,2157.8,508.7z"/>
								<circle class="st1" cx="1580.4" cy="1269.1" r="34"/>
								<path class="st1" d="M1585.9,588.4c0,4.6,3.7,8.4,8.4,8.4h524.5v513.9H1042v-514h353.2c4.6,0,8.4-3.7,8.4-8.4
									c0-4.6-3.7-8.4-8.4-8.4h-369.9v547.3h1110.2V580h-541.2C1589.7,580,1585.9,583.8,1585.9,588.4z"/>
								<path class="st2" d="M1295.3,508.7h-45.5c-4.6,0-8.4,3.7-8.4,8.4c0,4.6,3.7,8.4,8.4,8.4h45.5c4.6,0,8.4-3.7,8.4-8.4
									C1303.6,512.5,1299.9,508.7,1295.3,508.7z"/>
								<path class="st2" d="M1554.3,580h-94.8c-4.6,0-8.4,3.7-8.4,8.4c0,4.6,3.7,8.4,8.4,8.4h94.8c4.6,0,8.4-3.7,8.4-8.4
									C1562.7,583.8,1558.9,580,1554.3,580z"/>
							</g>
						</g>
						<path class="st1" d="M1539.8,1183.6h-65.7c-4.6,0-8.4,3.7-8.4,8.4c0,4.6,3.7,8.4,8.4,8.4h65.7c4.6,0,8.4-3.7,8.4-8.4
							C1548.1,1187.4,1544.4,1183.6,1539.8,1183.6z"/>
						<path class="st1" d="M2202.9,1183.6h-543.7c-4.6,0-8.4,3.7-8.4,8.4c0,4.6,3.7,8.4,8.4,8.4h543.7c4.6,0,8.4-3.7,8.4-8.4
							C2211.2,1187.4,2207.5,1183.6,2202.9,1183.6z"/>
					</g>
				</g>
				<g>
					<g>
						<rect x="1119.4" y="728.8" class="st2" width="230.5" height="53.6"/>
						<rect x="1349.9" y="728.8" class="st5" width="230.5" height="53.6"/>
						<rect x="1580.4" y="728.8" class="st2" width="230.5" height="53.6"/>
						<rect x="1810.9" y="728.8" class="st5" width="230.5" height="53.6"/>
					</g>
					<path class="st1" d="M2052.3,1018.9c-5.4-5.4-12.9-8.8-21.1-8.8c-8.3,0-15.7,3.3-21.1,8.8l0,0c-5.4,5.4-8.8,12.9-8.8,21.1
						c0,8.3,3.3,15.7,8.8,21.2c5.4,5.4,12.9,8.8,21.1,8.8s15.7-3.4,21.1-8.8l0,0c5.4-5.4,8.8-12.9,8.8-21.2
						C2061.1,1031.8,2057.7,1024.3,2052.3,1018.9L2052.3,1018.9z M2040.5,1049.3L2040.5,1049.3c-2.4,2.4-5.7,3.9-9.3,3.9
						s-6.9-1.5-9.3-3.9s-3.9-5.7-3.9-9.3c0-3.7,1.5-7,3.8-9.3l0,0c2.4-2.4,5.7-3.9,9.3-3.9c3.7,0,7,1.5,9.3,3.8l0,0
						c2.4,2.4,3.8,5.7,3.8,9.3C2044.4,1043.7,2042.9,1047,2040.5,1049.3z"/>
					<g>
						<path class="st4" d="M1256.1,646.7h-116.3c-11.2,0-20.4,9.2-20.4,20.4s9.2,20.4,20.4,20.4h116.3c11.2,0,20.4-9.2,20.4-20.4
							C1276.6,655.9,1267.4,646.7,1256.1,646.7z"/>
						<path class="st1" d="M1276.4,646.8c-5.2-5.2-12.4-8.5-20.3-8.5h-116.3c-7.9,0-15.1,3.2-20.3,8.5l0,0
							c-5.2,5.2-8.5,12.4-8.5,20.3c0,7.9,3.2,15.1,8.5,20.3c5.2,5.2,12.4,8.5,20.3,8.5h116.3c7.9,0,15.1-3.2,20.3-8.5l0,0
							c5.2-5.2,8.5-12.4,8.5-20.3C1284.9,659.3,1281.7,652.1,1276.4,646.8L1276.4,646.8z M1264.7,675.7L1264.7,675.7
							c-2.2,2.2-5.2,3.6-8.5,3.6h-116.3c-3.3,0-6.3-1.4-8.5-3.6c-2.2-2.2-3.6-5.2-3.6-8.5s1.3-6.4,3.5-8.5l0,0
							c2.2-2.2,5.2-3.6,8.5-3.6h116.3c3.3,0,6.4,1.3,8.5,3.5l0,0c2.2,2.2,3.5,5.2,3.5,8.5C1268.2,670.5,1266.9,673.5,1264.7,675.7z"
							/>
					</g>
					<g>
						<rect x="1119.4" y="816.2" class="st6" width="242.2" height="242.2"/>
						<path class="st1" d="M1111,807.8v258.9h258.9V807.8h-250.5H1111z M1127.7,824.5h225.5V1050h-225.5V824.5z"/>
						<path class="st1" d="M1240.5,958c-54.8,0-99.1,44.4-99.1,99.1c0,0.4,0,0.8,0,1.2h198.3c0-0.4,0-0.8,0-1.2
							C1339.6,1002.4,1295.2,958,1240.5,958z"/>
						<path class="st7" d="M1240.5,853.1c-27.1,0-49.3,22.2-49.3,49.3v21.9c0,27.1,22.2,49.3,49.3,49.3c27.1,0,49.3-22.2,49.3-49.3
							v-21.9C1289.7,875.3,1267.6,853.1,1240.5,853.1z"/>
						<g>
							<path class="st7" d="M1192.3,898.9c-4.3,0-7.7,3.5-7.7,7.7v5.9c0,4.3,3.5,7.7,7.7,7.7c4.3,0,7.7-3.5,7.7-7.7v-5.9
								C1200.1,902.3,1196.6,898.9,1192.3,898.9z"/>
							<path class="st7" d="M1288.6,898.9c-4.3,0-7.7,3.5-7.7,7.7v5.9c0,4.3,3.5,7.7,7.7,7.7c4.3,0,7.7-3.5,7.7-7.7v-5.9
								C1296.4,902.3,1292.9,898.9,1288.6,898.9z"/>
						</g>
						<path class="st7" d="M1240.5,930.2L1240.5,930.2c-13.7,0-24.9,11.2-24.9,24.9v11.2c0,13.7,11.2,24.9,24.9,24.9l0,0
							c13.7,0,24.9-11.2,24.9-24.9v-11.1C1265.4,941.5,1254.2,930.2,1240.5,930.2z"/>
						<path class="st1" d="M1291.8,870.7c0.3-1.3,0.5-2.6,0.5-4c0-9.6-7.9-17.5-17.5-17.5h-58.6c-6,0-11.3,3.1-14.5,7.7
							c-0.9-0.2-1.9-0.4-2.9-0.4c-6.4,0-11.7,5.2-11.7,11.7c0,1.2,0.2,2.4,0.6,3.6c-2.4,2-3.9,4.9-3.9,8.2v15.9
							c0,5.9,4.8,10.7,10.7,10.7c5.9,0,10.7-4.8,10.7-10.7v-2.3c5.2-0.5,9.4-4.4,10.4-9.4h0.5h46.9c1,5.4,5.8,9.5,11.4,9.5
							c0.4,0,0.8,0,1.2-0.1v2.3c0,5.9,4.8,10.7,10.7,10.7c5.9,0,10.7-4.8,10.7-10.7V880C1297.2,876.1,1295,872.6,1291.8,870.7z"/>
						<path class="st1" d="M1251.7,939.4c-1.7-0.4-3.4,0.5-3.8,2.2s-1.4,3.1-2.7,4.1c-1.3,1-2.9,1.6-4.7,1.6c-1.7,0-3.4-0.6-4.7-1.6
							c-1.3-1-2.3-2.4-2.7-4.1c-0.4-1.7-2.2-2.7-3.8-2.2c-1.7,0.4-2.7,2.2-2.2,3.8c0.8,3,2.6,5.6,5,7.4c2.4,1.8,5.3,2.9,8.5,2.9
							c3.1,0,6.1-1.1,8.5-2.9c2.4-1.8,4.2-4.4,5-7.4C1254.4,941.6,1253.4,939.8,1251.7,939.4z"/>
					</g>
					<rect x="1419.4" y="987.8" class="st8" width="354.4" height="70.6"/>
					<rect x="1419.4" y="816.2" class="st8" width="354.4" height="70.6"/>
					<rect x="1419.4" y="902" class="st8" width="354.4" height="70.6"/>
				</g>
				<g>
					<path class="st1" d="M1439.5,1183.6H876.4c-4.6,0-8.4,3.7-8.4,8.4c0,4.6,3.7,8.4,8.4,8.4h563.1c4.6,0,8.4-3.7,8.4-8.4
						C1447.8,1187.4,1444.1,1183.6,1439.5,1183.6z"/>
					<path class="st2" d="M850.9,1183.6h-30.5c-4.6,0-8.4,3.7-8.4,8.4c0,4.6,3.7,8.4,8.4,8.4h30.5c4.6,0,8.4-3.7,8.4-8.4
						C859.2,1187.4,855.5,1183.6,850.9,1183.6z"/>
				</g>
				<g>
					<path class="st2" d="M984.2,963.1c-1.6-29.8-26.4-53.7-56.5-53.7h-40.1c-30.1,0-55,23.9-56.5,53.7
						c-29.8,1.5-53.7,26.4-53.7,56.5c0,31.1,25.5,56.6,56.6,56.6h147.4c31.1,0,56.6-25.5,56.6-56.6
						C1037.9,989.4,1014,964.6,984.2,963.1z"/>
					<path class="st1" d="M991.8,955.5c-2.3-14.3-9.4-27-19.4-36.5c-11.7-11.1-27.4-17.9-44.7-17.9h-40.1c-17.2,0-33,6.8-44.7,17.9
						c-10.1,9.5-17.1,22.3-19.4,36.5c-14.3,2.3-27,9.4-36.6,19.4c-11.1,11.7-17.9,27.4-17.9,44.7c0,17.9,7.3,34.1,19.1,45.9
						c11.8,11.8,28,19.1,45.9,19.1h147.4c17.9,0,34.1-7.3,45.9-19.1c11.8-11.8,19.1-28,19.1-45.9c0-17.3-6.8-33-17.9-44.7
						C1018.8,964.9,1006,957.8,991.8,955.5z M1015.4,1053.7c-8.7,8.7-20.8,14.2-34.1,14.2H833.9c-13.3,0-25.3-5.4-34.1-14.2
						c-8.7-8.7-14.2-20.8-14.2-34.1c0-12.8,5.1-24.5,13.3-33.2c8.3-8.7,19.8-14.4,32.5-15l7.5-0.4l0.4-7.5
						c0.7-12.7,6.3-24.2,15-32.5c8.6-8.2,20.3-13.3,33.2-13.3h40.1c12.8,0,24.5,5.1,33.2,13.3c8.7,8.3,14.4,19.7,15,32.5l0.4,7.5
						l7.5,0.4c12.7,0.6,24.2,6.3,32.5,15c8.2,8.7,13.3,20.4,13.3,33.2C1029.6,1032.9,1024.1,1044.9,1015.4,1053.7z"/>
					<path class="st1" d="M899.1,939.6c-13,0-24.9,5.2-33.8,13.5c-7.2,6.8-12.4,15.9-14.4,26c-10.2,2-19.2,7.2-26,14.4
						c-8.4,8.9-13.6,20.8-13.6,33.8c0,4.6,3.7,8.4,8.4,8.4c4.6,0,8.4-3.7,8.4-8.4c0-8.6,3.4-16.5,8.9-22.3
						c5.6-5.8,13.2-9.6,21.8-10.1l7.5-0.4l0.4-7.5c0.4-8.5,4.2-16.2,10.1-21.8c5.8-5.5,13.7-8.9,22.3-8.9c4.6,0,8.4-3.7,8.4-8.4
						C907.5,943.3,903.7,939.6,899.1,939.6z"/>
				</g>
				<g>
					<g>
						<rect x="1878.9" y="381.3" class="st3" width="464.6" height="464.6"/>
						<circle class="st4" cx="2135.9" cy="663.2" r="85.8"/>
						<path class="st1" d="M2135.9,569c-26,0-49.5,10.5-66.6,27.6c-17,17-27.6,40.6-27.6,66.6s10.5,49.5,27.6,66.6
							c17,17,40.6,27.6,66.6,27.6s49.5-10.5,66.6-27.6c17-17,27.6-40.6,27.6-66.6s-10.5-49.5-27.6-66.6S2161.9,569,2135.9,569z
							 M2190.6,717.9c-14,14-33.4,22.7-54.8,22.7c-21.4,0-40.8-8.7-54.8-22.7s-22.7-33.4-22.7-54.8c0-21.4,8.7-40.8,22.7-54.8
							s33.4-22.7,54.8-22.7c21.4,0,40.8,8.7,54.8,22.7s22.7,33.4,22.7,54.8S2204.7,703.9,2190.6,717.9z"/>
						<polygon class="st2" points="1991.2,846 2343.5,846 2343.5,645.1 2267.8,569.4 						"/>
						<path class="st1" d="M1971.1,854.3h380.8V645.1v-3.5l-84.1-84.1L1971.1,854.3z M2335.2,837.6h-323.8l256.4-256.4l67.4,67.4
							L2335.2,837.6L2335.2,837.6z"/>
						<polygon class="st6" points="1878.9,602.8 1878.9,846 2291.4,846 1963.6,518.1 						"/>
						<path class="st1" d="M1870.6,599.3v255h420.8h20.2c-116-116-232-232-348-348L1870.6,599.3z M1887.3,837.6V606.2l76.3-76.3
							l307.6,307.6L1887.3,837.6L1887.3,837.6z"/>
						<path class="st1" d="M1870.6,436.8c0,4.6,3.7,8.4,8.4,8.4c4.6,0,8.4-3.7,8.4-8.4v-47.1h447.9v447.9h-447.9V484.3
							c0-4.6-3.7-8.4-8.4-8.4c-4.6,0-8.4,3.7-8.4,8.4v370h481.3V373h-481.3L1870.6,436.8L1870.6,436.8z"/>
						<g>
							<path class="st1" d="M1883.2,374.2c-3.9-2.4-9.1-1.1-11.4,2.9l-138.5,230.6c-2.4,3.9-1.1,9.1,2.9,11.4
								c3.9,2.4,9.1,1.1,11.4-2.9l138.5-230.6C1888.4,381.7,1887.1,376.5,1883.2,374.2z"/>
							<path class="st1" d="M1876.8,837.9l-105.1,27.6c-4.5,1.2-7.1,5.7-5.9,10.2s5.7,7.1,10.2,5.9l105.1-27.6
								c4.5-1.2,7.1-5.7,5.9-10.2C1885.8,839.4,1881.2,836.7,1876.8,837.9z"/>
							<path class="st1" d="M1657.9,749.4c-3.9-2.4-9.1-1.1-11.4,2.9l-55.6,92.6c-2.4,3.9-1.1,9.1,2.9,11.4
								c3.9,2.4,9.1,1.1,11.4-2.9l55.6-92.6C1663.1,756.9,1661.8,751.8,1657.9,749.4z"/>
							<path class="st1" d="M1741.3,873.5l-45.4,11.9c-4.5,1.2-7.1,5.7-5.9,10.2s5.7,7.1,10.2,5.9l45.4-11.9
								c4.5-1.2,7.1-5.7,5.9-10.2C1750.3,875,1745.7,872.3,1741.3,873.5z"/>
							<path class="st2" d="M1671.2,891.9l-21.6,5.7c-4.5,1.2-7.1,5.7-5.9,10.2s5.7,7.1,10.2,5.9l21.6-5.7c4.5-1.2,7.1-5.7,5.9-10.2
								C1680.2,893.4,1675.7,890.7,1671.2,891.9z"/>
							<path class="st2" d="M1726,636c-3.9-2.4-9.1-1.1-11.4,2.9l-51.4,85.7c-2.4,3.9-1.1,9.1,2.9,11.4c3.9,2.4,9.1,1.1,11.4-2.9
								l51.4-85.7C1731.2,643.5,1729.9,638.4,1726,636z"/>
						</g>
					</g>
					<g>
						<path class="st4" d="M2161.2,374.9l-40.7,57.6h19.7l0,0v32.4c0,4.3,3.5,7.8,7.8,7.8h44.5c4.3,0,7.8-3.5,7.8-7.8v-32.4l0,0
							h19.7l-41.2-58.3C2174.1,367.6,2166.2,367.9,2161.2,374.9z"/>
						<path class="st1" d="M2180.6,364.4c-3.2-2.2-6.7-3.3-10.4-3.3c-3.6,0.1-7.1,1.2-10.3,3.4c-2,1.4-3.9,3.3-5.5,5.6l-50,70.7
							h27.4v24c0,4.4,1.8,8.5,4.7,11.4s7,4.7,11.4,4.7h44.5c4.4,0,8.5-1.8,11.4-4.7l0,0c2.9-2.9,4.7-7,4.7-11.4v-24h27.4l-50.5-71.4
							C2184.1,367.4,2182.4,365.7,2180.6,364.4z M2191.6,424.1l0.4,8.4l0,0v31.8h-43.4v-31.8l0,0l0.4-8.4h-12.3l31.4-44.4
							c0.5-0.7,1-1.2,1.4-1.5s0.7-0.4,0.9-0.4c0.1,0,0.3,0.1,0.6,0.3c0.3,0.2,0.6,0.5,0.9,1l31.9,45.1h-12.2L2191.6,424.1
							L2191.6,424.1z"/>
						<path class="st6" d="M2278.6,354.9v-32.4c0-4.3-3.5-7.8-7.8-7.8h-44.5c-4.3,0-7.8,3.5-7.8,7.8v32.4l0,0h-19.7l40.7,57.6
							c5,7,12.8,7.3,17.5,0.7l41.2-58.3L2278.6,354.9L2278.6,354.9z"/>
						<path class="st1" d="M2286.9,322.5c0-4.4-1.8-8.4-4.7-11.4l0,0c-2.9-2.9-7-4.7-11.4-4.7h-44.5c-4.4,0-8.4,1.8-11.4,4.7l0,0
							c-2.9,2.9-4.7,7-4.7,11.4v24h-27.5l50,70.7c1.6,2.3,3.5,4.1,5.5,5.6c3.1,2.2,6.7,3.4,10.3,3.4c3.6,0.1,7.2-1,10.4-3.3l0,0
							c1.8-1.3,3.5-3,5-5l41.2-58.3l9.3-13.2h-27.5L2286.9,322.5L2286.9,322.5z M2250.2,408.4c-0.3,0.4-0.6,0.8-0.9,1l0,0
							c-0.2,0.1-0.4,0.2-0.6,0.2c-0.2,0-0.5-0.2-0.9-0.4c-0.5-0.3-1-0.8-1.4-1.5l-31.4-44.4h11.9v-40.2h43.4v40.2h11.9L2250.2,408.4
							z"/>
					</g>
				</g>
				<g>
					<path class="st1" d="M937.3,319.8c-17.5,0-33.4,7.1-44.8,18.6c-11.5,11.5-18.6,27.3-18.6,44.8s7.1,33.4,18.6,44.8
						c11.5,11.5,27.3,18.6,44.8,18.6s33.4-7.1,44.8-18.6c11.5-11.5,18.6-27.3,18.6-44.8s-7.1-33.4-18.6-44.8
						C970.7,326.9,954.8,319.8,937.3,319.8z M970.3,416.3c-8.4,8.4-20.1,13.7-33,13.7s-24.6-5.2-33-13.7c-8.4-8.4-13.7-20.1-13.7-33
						s5.2-24.6,13.7-33c8.4-8.4,20.1-13.7,33-13.7s24.6,5.2,33,13.7c8.4,8.4,13.7,20.1,13.7,33C984,396.1,978.8,407.8,970.3,416.3z"
						/>
					<path class="st6" d="M960.7,376.2h-47.6c-9.3,0-16.9,7.6-16.9,16.9v43c0,9.3,7.6,16.9,16.9,16.9h47.6c9.3,0,16.9-7.6,16.9-16.9
						v-43C977.7,383.8,970.1,376.2,960.7,376.2z"/>
					<path class="st1" d="M978.6,375.2c-4.6-4.6-10.9-7.4-17.9-7.4h-47.6c-7,0-13.3,2.8-17.9,7.4c-4.6,4.6-7.4,10.9-7.4,17.9v43
						c0,7,2.8,13.3,7.4,17.9c4.6,4.6,10.9,7.4,17.9,7.4h47.6c7,0,13.3-2.8,17.9-7.4c4.6-4.6,7.4-10.9,7.4-17.9v-43
						C986,386.2,983.2,379.9,978.6,375.2L978.6,375.2z M969.3,436.1c0,2.3-1,4.5-2.5,6c-1.6,1.6-3.7,2.5-6,2.5h-47.6
						c-2.3,0-4.5-1-6-2.5c-1.6-1.6-2.5-3.7-2.5-6v-43c0-2.3,1-4.5,2.5-6c1.6-1.6,3.7-2.5,6-2.5h47.6c2.3,0,4.5,1,6,2.5l0,0
						c1.5,1.6,2.5,3.7,2.5,6.1V436.1z"/>
					<circle class="st2" cx="933.6" cy="614.5" r="176.2"/>
					<path class="st1" d="M933.6,429.9c-51,0-97.1,20.7-130.5,54.1S749,563.5,749,614.5s20.7,97.1,54.1,130.5s79.5,54.1,130.5,54.1
						s97.1-20.7,130.5-54.1c33.4-33.4,54.1-79.5,54.1-130.5s-20.7-97.1-54.1-130.5S984.6,429.9,933.6,429.9z M1052.3,733.2
						c-30.4,30.4-72.3,49.2-118.7,49.2s-88.3-18.8-118.7-49.2s-49.2-72.3-49.2-118.7s18.8-88.3,49.2-118.7
						c30.4-30.4,72.3-49.2,118.7-49.2s88.3,18.8,118.7,49.2s49.2,72.3,49.2,118.7S1082.7,702.8,1052.3,733.2z"/>
					<polygon class="st4" points="969.7,514 860.2,623.4 897.6,623.4 897.6,715.1 1007,605.6 969.7,605.6 					"/>
					<path class="st1" d="M978,493.8l-138,138h49.2v103.4l123.7-123.7l14.3-14.3H978V493.8L978,493.8z M986.9,613.9L906,694.8V615
						h-25.6l80.9-80.9v79.8L986.9,613.9L986.9,613.9z"/>
					<circle class="st1" cx="933.6" cy="479.2" r="11.6"/>
					<path class="st1" d="M828.5,503.3c-15.3,14.5-27.3,31.8-35.5,50.7s-12.5,39.5-12.5,60.6c0,7.2,0.5,14.5,1.6,21.7
						c1,7.2,2.6,14.3,4.6,21.3c1.3,4.4,5.9,6.9,10.4,5.6c4.4-1.3,6.9-5.9,5.7-10.4c-1.8-6.2-3.2-12.5-4.1-19
						c-0.9-6.3-1.4-12.8-1.4-19.4c0-18.8,3.9-37.1,11.1-54c7.3-16.9,17.9-32.3,31.5-45.1c3.4-3.2,3.5-8.4,0.4-11.8
						C837.2,500.3,831.9,500.1,828.5,503.3z"/>
				</g>
				<g>
					<path class="st2" d="M2201.9,1078.9c0,47.4-38.4,85.8-85.8,85.8c47.4,0,85.8,38.4,85.8,85.8c0-47.4,38.4-85.8,85.8-85.8
						C2240.3,1164.7,2201.9,1126.3,2201.9,1078.9z"/>
					<path class="st1" d="M2296.7,1007.6c0,22.2-18,40.1-40.1,40.1c22.2,0,40.1,18,40.1,40.1c0-22.2,18-40.1,40.1-40.1
						C2314.6,1047.7,2296.7,1029.7,2296.7,1007.6z"/>
				</g>
				<path class="st2" d="M773,855l-25,25c-3.3,3.3-3.3,8.6,0,11.8c3.3,3.3,8.6,3.3,11.8,0l25-25c3.3-3.3,3.3-8.6,0-11.8
					C781.5,851.7,776.2,851.7,773,855z"/>
				<path class="st2" d="M759.8,806c-3.3-3.3-8.6-3.3-11.8,0c-3.3,3.3-3.3,8.6,0,11.8l25,25c3.3,3.3,8.6,3.3,11.8,0
					c3.3-3.3,3.3-8.6,0-11.8L759.8,806z"/>
				<path class="st2" d="M808.7,855c-3.3-3.3-8.6-3.3-11.8,0c-3.3,3.3-3.3,8.6,0,11.8l25,25c3.3,3.3,8.6,3.3,11.8,0
					c3.3-3.3,3.3-8.6,0-11.8L808.7,855z"/>
				<path class="st2" d="M821.9,806l-25,25c-3.3,3.3-3.3,8.6,0,11.8c3.3,3.3,8.6,3.3,11.8,0l25-25c3.3-3.3,3.3-8.6,0-11.8
					C830.5,802.8,825.2,802.8,821.9,806z"/>
				<path class="st1" d="M2297.4,1487.9c3.3-3.3,3.3-8.6,0-11.8c-3.3-3.3-8.6-3.3-11.8,0l-13.9,13.9c-0.3,0.3-0.5,0.5-0.7,0.8
					c-0.2-0.3-0.5-0.6-0.7-0.8l-13.9-13.9c-3.3-3.3-8.6-3.3-11.8,0c-3.3,3.3-3.3,8.6,0,11.8l13.9,13.9c0.3,0.3,0.5,0.5,0.8,0.7
					c-0.3,0.2-0.6,0.5-0.8,0.7l-13.9,13.9c-3.3,3.3-3.3,8.6,0,11.8c3.3,3.3,8.6,3.3,11.8,0l13.9-13.9c0.3-0.3,0.5-0.5,0.7-0.8
					c0.2,0.3,0.5,0.6,0.7,0.8l13.9,13.9c3.3,3.3,8.6,3.3,11.8,0c3.3-3.3,3.3-8.6,0-11.8l-13.9-13.9c-0.3-0.3-0.5-0.5-0.8-0.7
					c0.3-0.2,0.6-0.5,0.8-0.7L2297.4,1487.9z"/>
				<path class="st2" d="M1354.2,381.9c3.3-3.3,3.3-8.6,0-11.8c-3.3-3.3-8.6-3.3-11.8,0l-13.9,13.9c-0.3,0.3-0.5,0.5-0.7,0.8
					c-0.2-0.3-0.5-0.6-0.7-0.8l-13.9-13.9c-3.3-3.3-8.6-3.3-11.8,0c-3.3,3.3-3.3,8.6,0,11.8l13.9,13.9c0.3,0.3,0.5,0.5,0.8,0.7
					c-0.3,0.2-0.6,0.5-0.8,0.7l-13.9,13.9c-3.3,3.3-3.3,8.6,0,11.8c3.3,3.3,8.6,3.3,11.8,0l13.9-13.9c0.3-0.3,0.5-0.5,0.7-0.8
					c0.2,0.3,0.5,0.6,0.7,0.8l13.9,13.9c3.3,3.3,8.6,3.3,11.8,0c3.3-3.3,3.3-8.6,0-11.8l-13.9-13.9c-0.3-0.3-0.5-0.5-0.8-0.7
					c0.3-0.2,0.6-0.5,0.8-0.7L1354.2,381.9z"/>
				<g>
					<rect x="1184.5" y="1382" class="st6" width="142.6" height="160.5"/>
					<path class="st1" d="M1176.1,1373.7v177.2h159.3v-177.2h-150.9H1176.1z M1192.8,1390.4h125.8v143.8h-125.8V1390.4z"/>
					<polygon class="st2" points="1142.2,1382 1255.7,1478.8 1369.2,1382 1255.7,1121.2 					"/>
					<path class="st1" d="M1255.7,1112.8c-4.6,0-8.4,3.7-8.4,8.4v168.3c0,4.6,3.7,8.4,8.4,8.4c4.6,0,8.4-3.7,8.4-8.4v-168.3
						C1264.1,1116.6,1260.3,1112.8,1255.7,1112.8z"/>
					<path class="st1" d="M1255.7,1281.1c-9.6,0-18.2,3.9-24.5,10.1s-10.1,14.9-10.1,24.5s3.9,18.2,10.1,24.5s14.9,10.1,24.5,10.1
						s18.2-3.9,24.5-10.1s10.1-14.9,10.1-24.5s-3.9-18.2-10.1-24.5S1265.3,1281.1,1255.7,1281.1z M1268.4,1328.4
						c-3.2,3.2-7.7,5.2-12.7,5.2c-4.9,0-9.4-2-12.7-5.2c-3.2-3.2-5.2-7.7-5.2-12.7c0-4.9,2-9.4,5.2-12.7c3.2-3.2,7.7-5.2,12.7-5.2
						c4.9,0,9.4,2,12.7,5.2c3.2,3.2,5.2,7.7,5.2,12.7S1271.6,1325.2,1268.4,1328.4z"/>
					<path class="st1" d="M1209.1,1207.5c-1.8,4.2,0.1,9.1,4.3,11c4.2,1.8,9.1-0.1,11-4.3l31.4-72.1l103.4,237.6l-103.4,88.2
						l-103.4-88.2l40-91.8c1.8-4.2-0.1-9.1-4.3-11c-4.2-1.8-9.1,0.1-11,4.3l-44.9,103.2l123.6,105.4l123.6-105.4l-123.7-284.1
						L1209.1,1207.5z"/>
					<path class="st1" d="M1211.4,1223.2c-4.2-1.8-9.1,0.1-11,4.3l-5.4,12.4c-1.8,4.2,0.1,9.1,4.3,11c4.2,1.8,9.1-0.1,11-4.3
						l5.4-12.4C1217.5,1229.9,1215.6,1225,1211.4,1223.2z"/>
					<path class="st1" d="M1436.3,1112.8h-361.2c-4.6,0-8.4,3.7-8.4,8.4c0,4.6,3.7,8.4,8.4,8.4h361.2c4.6,0,8.4-3.7,8.4-8.4
						C1444.7,1116.6,1440.9,1112.8,1436.3,1112.8z"/>
					<rect x="1238.1" y="1103.5" class="st2" width="35.3" height="35.3"/>
					<path class="st1" d="M1229.7,1095.2v52h52v-52h-43.6H1229.7z M1246.5,1111.9h18.5v18.5h-18.5V1111.9z"/>
					<circle class="st6" cx="1090.5" cy="1121.2" r="15.3"/>
					<path class="st1" d="M1090.5,1097.5c-6.5,0-12.5,2.7-16.7,6.9c-4.3,4.3-6.9,10.2-6.9,16.7s2.7,12.5,6.9,16.7
						c4.3,4.3,10.2,6.9,16.7,6.9s12.5-2.7,16.7-6.9c4.3-4.3,6.9-10.2,6.9-16.7s-2.7-12.5-6.9-16.7
						C1102.9,1100.1,1097,1097.5,1090.5,1097.5z M1095.4,1126.1c-1.3,1.3-3,2-4.9,2s-3.7-0.8-4.9-2c-1.3-1.3-2-3-2-4.9
						s0.8-3.7,2-4.9c1.3-1.3,3-2,4.9-2s3.7,0.8,4.9,2c1.3,1.3,2,3,2,4.9S1096.6,1124.8,1095.4,1126.1z"/>
					<circle class="st6" cx="1421" cy="1121.2" r="15.3"/>
					<path class="st1" d="M1421,1097.5c-6.5,0-12.5,2.7-16.7,6.9s-6.9,10.2-6.9,16.7s2.7,12.5,6.9,16.7c4.3,4.3,10.2,6.9,16.7,6.9
						s12.5-2.7,16.7-6.9c4.3-4.3,6.9-10.2,6.9-16.7s-2.7-12.5-6.9-16.7C1433.5,1100.1,1427.5,1097.5,1421,1097.5z M1425.9,1126.1
						c-1.3,1.3-3,2-4.9,2s-3.7-0.8-4.9-2c-1.3-1.3-2-3-2-4.9s0.8-3.7,2-4.9c1.3-1.3,3-2,4.9-2s3.7,0.8,4.9,2c1.3,1.3,2,3,2,4.9
						C1428,1123.1,1427.2,1124.8,1425.9,1126.1z"/>
				</g>
				<g>
					<path class="st1" d="M1942.6,1150.2h-114.7c-14.8,0-28.2,6-37.9,15.8h-0.1c-9.7,9.7-15.8,23.2-15.8,38v30.6
						c0,13.6,11,24.7,24.7,24.7c13.6,0,24.7-11,24.7-24.7V1204c0-1.2,0.5-2.3,1.3-3.1l0,0c0.8-0.8,1.9-1.3,3.2-1.3h114.7
						c1.2,0,2.3,0.5,3.1,1.3s1.3,1.9,1.3,3.1v30.6c0,13.6,11,24.7,24.7,24.7c13.6,0,24.7-11,24.7-24.7V1204c0-14.8-6-28.3-15.8-38
						S1957.4,1150.2,1942.6,1150.2z"/>
					<path class="st4" d="M2047,1234.6h-323.5c-34.8,0-63.3,28.5-63.3,63.3v181.3c0,34.8,28.5,63.3,63.3,63.3H2047
						c34.8,0,63.3-28.5,63.3-63.3v-181.3C2110.3,1263.1,2081.8,1234.6,2047,1234.6z"/>
					<path class="st1" d="M2047,1226.2h-323.5c-19.7,0-37.6,8.1-50.6,21c-13,13-21,30.9-21,50.6v181.3c0,19.7,8.1,37.6,21,50.6
						c13,13,30.9,21,50.6,21H2047c19.7,0,37.6-8.1,50.6-21c13-13,21-30.9,21-50.6v-181.3c0-19.7-8.1-37.6-21-50.6
						C2084.6,1234.3,2066.7,1226.2,2047,1226.2z M2101.9,1479.2c0,15.1-6.2,28.8-16.1,38.8c-10,10-23.7,16.1-38.8,16.1h-323.5
						c-15.1,0-28.8-6.2-38.8-16.1c-10-10-16.1-23.7-16.1-38.8v-181.3c0-15.1,6.2-28.8,16.1-38.8c10-10,23.7-16.1,38.8-16.1H2047
						c15.1,0,28.8,6.2,38.8,16.1c10,10,16.1,23.7,16.1,38.8L2101.9,1479.2L2101.9,1479.2z"/>
					<path class="st2" d="M2047,1234.6h-323.5c-34.8,0-63.3,28.5-63.3,63.3v60.2h450.1v-60.2
						C2110.3,1263.1,2081.8,1234.6,2047,1234.6z"/>
					<path class="st1" d="M2047,1226.2h-323.5c-19.7,0-37.6,8.1-50.6,21c-13,13-21,30.9-21,50.6v68.6h466.8v-68.6
						c0-19.7-8.1-37.6-21-50.6C2084.6,1234.3,2066.7,1226.2,2047,1226.2z M2101.9,1349.7h-433.4v-51.8c0-15.1,6.2-28.8,16.1-38.8
						c10-10,23.7-16.1,38.8-16.1h323.5c15.1,0,28.8,6.2,38.8,16.1c10,10,16.1,23.7,16.1,38.8L2101.9,1349.7L2101.9,1349.7z"/>
					<circle class="st6" cx="1885.2" cy="1375" r="42.3"/>
					<path class="st1" d="M1885.2,1324.3c-14,0-26.7,5.7-35.8,14.8c-9.2,9.2-14.8,21.9-14.8,35.8c0,14,5.7,26.7,14.8,35.8
						c9.2,9.2,21.8,14.8,35.8,14.8s26.7-5.7,35.8-14.8c9.2-9.2,14.8-21.8,14.8-35.8s-5.7-26.7-14.8-35.8
						C1911.9,1329.9,1899.2,1324.3,1885.2,1324.3z M1909.2,1399c-6.1,6.1-14.6,9.9-24,9.9s-17.9-3.8-24-9.9s-9.9-14.6-9.9-24
						s3.8-17.9,9.9-24s14.6-9.9,24-9.9s17.9,3.8,24,9.9s9.9,14.6,9.9,24C1919.2,1384.3,1915.4,1392.8,1909.2,1399z"/>
					<path class="st2" d="M1738.7,1415c0,13.5,11,24.5,24.5,24.5s24.5-11,24.5-24.5v-56.9h-49V1415z"/>
					<path class="st1" d="M1730.4,1349.7v65.3c0,9,3.7,17.2,9.7,23.2l0,0c6,6,14.2,9.7,23.2,9.7s17.3-3.7,23.2-9.7l0,0
						c6-6,9.7-14.2,9.7-23.2v-65.3h-57.4H1730.4z M1747.1,1366.4h32.3v48.5c0,4.5-1.8,8.5-4.7,11.4l0,0c-2.9,2.9-7,4.8-11.4,4.8
						s-8.5-1.8-11.4-4.8l0,0c-2.9-2.9-4.7-6.9-4.7-11.4v-48.5H1747.1z"/>
					<path class="st2" d="M1990.9,1415c0,13.5,11,24.5,24.5,24.5s24.5-11,24.5-24.5v-56.9h-49V1415z"/>
					<path class="st1" d="M1982.5,1349.7v65.3c0,9,3.7,17.2,9.7,23.2l0,0c6,6,14.2,9.7,23.2,9.7c9.1,0,17.3-3.7,23.2-9.7l0,0
						c6-6,9.7-14.2,9.7-23.2v-65.3h-57.4H1982.5z M1999.2,1366.4h32.3v48.5c0,4.5-1.8,8.5-4.7,11.4l0,0c-2.9,2.9-7,4.8-11.4,4.8
						s-8.5-1.8-11.4-4.8l0,0c-2.9-2.9-4.7-6.9-4.7-11.4v-48.5H1999.2z"/>
				</g>
			</g>
			<g>
				<path class="st2" d="M839.7,1312.9h-67.5c-5.8,0-11.7,4.8-13.1,10.6l-5.7,23.2c-1.4,5.8,2.2,10.6,8,10.6h67.5
					c5.8,0,11.7-4.8,13.1-10.6l5.7-23.2C849.1,1317.6,845.5,1312.9,839.7,1312.9z"/>
				<path class="st1" d="M731.7,1259.9h-33.8c-5.8,0-11.7,4.8-13.1,10.6l-5.7,23.2c-1.4,5.8,2.2,10.6,8,10.6h33.8
					c5.8,0,11.7-4.8,13.1-10.6l5.7-23.2C741.1,1264.7,737.5,1259.9,731.7,1259.9z"/>
			</g>
		</g>
		<g>
			<circle class="st6" cx="1557.6" cy="600.2" r="24.3"/>
			<path class="st1" d="M1580.7,577.1c-5.9-5.9-14.1-9.6-23.1-9.6s-17.2,3.7-23.1,9.6l0,0c-5.9,5.9-9.6,14.1-9.6,23.1
				s3.7,17.1,9.6,23.1l0,0c5.9,5.9,14.1,9.6,23.1,9.6s17.1-3.7,23.1-9.6l0,0c5.9-5.9,9.6-14.1,9.6-23.1
				C1590.3,591.1,1586.6,583,1580.7,577.1L1580.7,577.1z M1569,611.5L1569,611.5c-2.9,2.9-6.9,4.7-11.4,4.7c-4.4,0-8.4-1.8-11.3-4.7
				l0,0c-2.9-2.9-4.7-6.9-4.7-11.3c0-4.4,1.8-8.4,4.7-11.3l0,0c2.9-2.9,6.9-4.7,11.3-4.7s8.4,1.8,11.3,4.7l0,0
				c2.9,2.9,4.7,6.9,4.7,11.3S1571.9,608.6,1569,611.5z"/>
			
				<ellipse transform="matrix(0.7071 -0.7071 0.7071 0.7071 143.6829 1230.7505)" class="st4" cx="1557.5" cy="441.9" rx="97.4" ry="97.4"/>
			<path class="st1" d="M1557.6,336.2c-29.2,0-55.6,11.8-74.8,31c-19.1,19.1-31,45.6-31,74.8s11.8,55.6,31,74.8
				c19.1,19.1,45.6,31,74.8,31c29.2,0,55.6-11.8,74.8-31c19.1-19.1,31-45.6,31-74.8c0-29.2-11.8-55.6-31-74.8
				C1613.3,348,1586.8,336.2,1557.6,336.2z M1620.6,504.9c-16.1,16.1-38.4,26.1-63,26.1s-46.9-10-63-26.1s-26.1-38.4-26.1-63
				s10-46.9,26.1-63s38.4-26.1,63-26.1s46.9,10,63,26.1s26.1,38.4,26.1,63S1636.7,488.8,1620.6,504.9z"/>
			<path class="st2" d="M1586,527.1h-56.8c-9.2,0-16.6,7.5-16.6,16.6l0,0c0,9.2,7.5,16.6,16.6,16.6h56.8c9.2,0,16.6-7.5,16.6-16.6
				l0,0C1602.7,534.6,1595.2,527.1,1586,527.1z"/>
			<path class="st1" d="M1603.6,526.1c-4.5-4.5-10.8-7.3-17.6-7.3h-56.8c-6.9,0-13.1,2.8-17.6,7.3l0,0c-4.5,4.5-7.3,10.8-7.3,17.6
				s2.8,13.1,7.3,17.6l0,0c4.5,4.5,10.8,7.3,17.6,7.3h56.8c6.9,0,13.1-2.8,17.6-7.3s7.3-10.8,7.3-17.7
				C1611,536.9,1608.2,530.6,1603.6,526.1L1603.6,526.1z M1591.9,549.6c-1.5,1.5-3.6,2.4-5.9,2.4h-56.8c-2.3,0-4.4-0.9-5.9-2.4l0,0
				c-1.5-1.5-2.4-3.6-2.4-5.9c0-2.3,0.9-4.4,2.4-5.9l0,0c1.5-1.5,3.6-2.4,5.9-2.4h56.8c2.3,0,4.4,0.9,5.9,2.4l0,0
				c1.5,1.5,2.4,3.6,2.4,5.9S1593.4,548.1,1591.9,549.6z"/>
			<path class="st2" d="M1586,560.4h-56.8c-9.2,0-16.6,7.5-16.6,16.6l0,0c0,9.2,7.5,16.6,16.6,16.6h56.8c9.2,0,16.6-7.5,16.6-16.6
				l0,0C1602.7,567.9,1595.2,560.4,1586,560.4z"/>
			<path class="st1" d="M1603.6,559.4c-4.5-4.5-10.8-7.3-17.6-7.3h-56.8c-6.9,0-13.1,2.8-17.6,7.3l0,0c-4.5,4.5-7.3,10.8-7.3,17.6
				c0,6.9,2.8,13.1,7.3,17.6l0,0c4.5,4.5,10.8,7.3,17.6,7.3h56.8c6.9,0,13.1-2.8,17.6-7.3s7.3-10.8,7.3-17.7
				C1611,570.2,1608.2,563.9,1603.6,559.4L1603.6,559.4z M1591.9,582.9c-1.5,1.5-3.6,2.4-5.9,2.4h-56.8c-2.3,0-4.4-0.9-5.9-2.4l0,0
				c-1.5-1.5-2.4-3.6-2.4-5.9c0-2.3,0.9-4.4,2.4-5.9l0,0c1.5-1.5,3.6-2.4,5.9-2.4h56.8c2.3,0,4.4,0.9,5.9,2.4l0,0
				c1.5,1.5,2.4,3.6,2.4,5.9S1593.4,581.4,1591.9,582.9z"/>
			<path class="st1" d="M1610.5,380.1c-11-9.4-24.5-15.9-39.4-18.4c-4.5-0.8-8.8,2.3-9.6,6.8s2.3,8.8,6.8,9.6
				c11.8,2,22.6,7.2,31.3,14.7c8.8,7.5,15.5,17.3,19.3,28.7c1.4,4.4,6.1,6.7,10.5,5.3s6.7-6.1,5.3-10.5
				C1630,401.9,1621.5,389.5,1610.5,380.1z"/>
			<path class="st2" d="M1638.8,435.9c-0.3-4.6-4.3-8-8.9-7.7s-8,4.3-7.7,8.9c0.1,1.1,0.1,1.9,0.2,2.4v2.4c0,2.9-0.2,5.7-0.5,8.3
				c-0.6,4.5,2.6,8.7,7.2,9.3c4.5,0.6,8.7-2.6,9.3-7.2c0.5-3.6,0.7-7.1,0.7-10.4c0-0.5,0-1.5-0.1-3
				C1638.9,437.6,1638.8,436.5,1638.8,435.9z"/>
		</g>
	</g>
</g>
</svg>
