<?xml version="1.0" encoding="utf-8"?>
<!-- Generator: Adobe Illustrator 23.0.3, SVG Export Plug-In . SVG Version: 6.00 Build 0)  -->
<svg version="1.1" id="Capa_1" xmlns="http://www.w3.org/2000/svg" xmlns:xlink="http://www.w3.org/1999/xlink" x="0px" y="0px"
	 viewBox="0 0 406.4 290" style="enable-background:new 0 0 406.4 290;" xml:space="preserve">
<style type="text/css">
	.st0{fill:#FFFFFF;}
	.st1{fill:#F4E9A9;}
	.st2{fill:none;stroke:#093B59;stroke-width:0.9944;stroke-linecap:round;stroke-linejoin:round;stroke-miterlimit:10;}
	.st3{fill:none;stroke:#093B59;stroke-width:0.7458;stroke-linecap:round;stroke-linejoin:round;}
	.st4{fill:none;stroke:#093B59;stroke-width:0.7458;stroke-linecap:round;stroke-linejoin:round;stroke-dasharray:2.2726,2.2726;}
	.st5{fill:none;stroke:#093B59;stroke-width:0.7458;stroke-linecap:round;stroke-linejoin:round;stroke-dasharray:2.2719,2.2719;}
	.st6{fill:none;stroke:#093B59;stroke-width:0.7458;stroke-linecap:round;stroke-linejoin:round;stroke-dasharray:2.2722,2.2722;}
	.st7{fill:none;stroke:#093B59;stroke-width:0.7458;stroke-linecap:round;stroke-linejoin:round;stroke-dasharray:2.2732,2.2732;}
	.st8{fill:none;stroke:#093B59;stroke-width:1.0508;stroke-linecap:round;stroke-miterlimit:10;}
	.st9{fill:none;stroke:#093B59;stroke-width:1.1261;stroke-linecap:round;stroke-miterlimit:10;}
	.st10{fill:none;stroke:#093B59;stroke-width:1.1261;stroke-linecap:round;stroke-miterlimit:10;stroke-dasharray:2.8951;}
	.st11{fill:none;stroke:#093B59;stroke-width:1.2598;stroke-linecap:round;stroke-linejoin:round;stroke-miterlimit:10;}
	.st12{fill:#FFFFFF;stroke:#093B59;stroke-width:1.2598;stroke-linecap:round;stroke-linejoin:round;stroke-miterlimit:10;}
	.st13{fill:none;stroke:#093B59;stroke-width:1.2598;stroke-miterlimit:10;}
	.st14{fill:#FFFFFF;stroke:#093B59;stroke-width:1.1738;stroke-linecap:round;stroke-linejoin:round;stroke-miterlimit:10;}
	.st15{fill:#FFFFFF;stroke:#093B59;stroke-width:1.1738;stroke-miterlimit:10;}
	.st16{fill:none;stroke:#093B59;stroke-width:1.1738;stroke-linecap:round;stroke-linejoin:round;stroke-miterlimit:10;}
	.st17{fill:#FFFFFF;stroke:#093B59;stroke-width:1.0662;stroke-linecap:round;stroke-miterlimit:10;}
	.st18{fill:none;stroke:#093B59;stroke-width:1.0662;stroke-linecap:round;stroke-miterlimit:10;}
	.st19{fill:#FFFFFF;stroke:#093B59;stroke-width:1.159;stroke-linecap:round;stroke-linejoin:round;stroke-miterlimit:10;}
	.st20{fill:none;stroke:#093B59;stroke-width:1.159;stroke-linecap:round;stroke-linejoin:round;stroke-miterlimit:10;}
	.st21{fill:#FFFFFF;stroke:#093B59;stroke-width:1.079;stroke-linecap:round;stroke-linejoin:round;stroke-miterlimit:10;}
	.st22{fill:#093B59;}
	.st23{fill:none;stroke:#093B59;stroke-width:1.079;stroke-linecap:round;stroke-linejoin:round;stroke-miterlimit:10;}
	.st24{fill:#FFFFFF;stroke:#093B59;stroke-width:0.7344;stroke-miterlimit:10;}
	.st25{fill:#CACACA;}
	.st26{fill:#D0D0D0;stroke:#093B59;stroke-width:0.7344;stroke-miterlimit:10;}
	.st27{fill:#878786;}
	.st28{fill:#DADADA;}
	.st29{fill:#C7C6C2;}
	.st30{fill:#EFECC7;}
	.st31{fill:#454F56;}
	.st32{fill:none;stroke:#4C4745;stroke-width:2.34;stroke-miterlimit:10;}
	.st33{fill:none;stroke:#C6C6C6;stroke-width:2.34;stroke-miterlimit:10;}
	.st34{fill:#D6D6D6;}
	.st35{fill:none;stroke:#093B59;stroke-width:0.7344;stroke-miterlimit:10;}
</style>
<g>
	<path class="st0" d="M406.4-12.1"/>
	<path class="st1" d="M394.5,190H293.4c-6.8,0-12.2-6.3-12.2-14.1s5.5-14.1,12.2-14.1h101.2c6.8,0,12.2-6.3,12.2-14.1
		s-5.5-14.1-12.2-14.1h-40.4c6.8,0,12.2-6.3,12.2-14.1s-5.5-14.1-12.2-14.1h-67c-6.8,0-12.2-6.3-12.2-14.1s5.5-14.1,12.2-14.1h46
		c6.8,0,12.2-6.3,12.2-14.1S339.9,49,333.2,49h-298C28.4,49,23,55.3,23,63.1s5.5,14.1,12.2,14.1h21c-6.8,0-12.2,6.3-12.2,14.1
		s5.5,14.1,12.2,14.1h48.2c6.8,0,12.2,6.3,12.2,14.1s-5.5,14.1-12.2,14.1H56.2c-6.8,0-12.2,6.3-12.2,14.1s5.5,14.1,12.2,14.1h98.3
		c6.8,0,12.2,6.3,12.2,14.1s-5.5,14.1-12.2,14.1H56.2c-6.8,0-12.2,6.3-12.2,14.1s5.5,14.1,12.2,14.1h27.2c6.8,0,12.2,6.3,12.2,14.1
		s-5.5,14.1-12.2,14.1H35.2c-6.8,0-12.2,6.3-12.2,14.1c0,7.8,5.5,14.1,12.2,14.1h338.4c6.8,0,12.2-6.3,12.2-14.1
		c0-7.8-5.5-14.1-12.2-14.1h-40.4c6.8,0,12.2-6.3,12.2-14.1s-5.5-14.1-12.2-14.1h61.4c6.8,0,12.2-6.3,12.2-14.1
		C406.8,196.3,401.3,190,394.5,190z"/>
	<g>
		<g>
			<line class="st2" x1="380.1" y1="173.9" x2="380.1" y2="186.8"/>
			<line class="st2" x1="386.5" y1="180.3" x2="373.6" y2="180.3"/>
			<line class="st2" x1="384.6" y1="175.7" x2="375.5" y2="184.9"/>
			<line class="st2" x1="384.6" y1="184.9" x2="375.5" y2="175.7"/>
		</g>
		<g>
			<g>
				<g>
					<line class="st3" x1="304.2" y1="195.5" x2="305.7" y2="195.5"/>
					<line class="st4" x1="307.9" y1="195.5" x2="311.4" y2="195.5"/>
					<line class="st3" x1="312.5" y1="195.5" x2="313.9" y2="195.5"/>
				</g>
			</g>
			<g>
				<g>
					<line class="st3" x1="307.6" y1="191.7" x2="309.1" y2="191.7"/>
					<line class="st4" x1="311.3" y1="191.7" x2="314.7" y2="191.7"/>
					<line class="st3" x1="315.9" y1="191.7" x2="317.3" y2="191.7"/>
				</g>
			</g>
		</g>
		<g>
			<g>
				<g>
					<line class="st3" x1="302.6" y1="137.8" x2="304.1" y2="137.8"/>
					<line class="st5" x1="306.4" y1="137.8" x2="309.8" y2="137.8"/>
					<line class="st3" x1="310.9" y1="137.8" x2="312.4" y2="137.8"/>
				</g>
			</g>
			<g>
				<g>
					<line class="st3" x1="306" y1="133.9" x2="307.5" y2="133.9"/>
					<line class="st4" x1="309.8" y1="133.9" x2="313.2" y2="133.9"/>
					<line class="st3" x1="314.3" y1="133.9" x2="315.8" y2="133.9"/>
				</g>
			</g>
		</g>
		<g>
			<line class="st2" x1="362.6" y1="66.3" x2="362.6" y2="79.2"/>
			<line class="st2" x1="369.1" y1="72.8" x2="356.1" y2="72.8"/>
			<line class="st2" x1="367.2" y1="68.2" x2="358" y2="77.3"/>
			<line class="st2" x1="367.2" y1="77.3" x2="358" y2="68.2"/>
		</g>
		<g>
			<line class="st2" x1="249.9" y1="19.8" x2="249.9" y2="32.7"/>
			<line class="st2" x1="256.4" y1="26.2" x2="243.5" y2="26.2"/>
			<line class="st2" x1="254.5" y1="21.7" x2="245.4" y2="30.8"/>
			<line class="st2" x1="254.5" y1="30.8" x2="245.4" y2="21.7"/>
		</g>
		<g>
			<g>
				<g>
					<line class="st3" x1="298.5" y1="25.5" x2="299.9" y2="25.5"/>
					<line class="st6" x1="302.2" y1="25.5" x2="305.6" y2="25.5"/>
					<line class="st3" x1="306.8" y1="25.5" x2="308.2" y2="25.5"/>
				</g>
			</g>
			<g>
				<g>
					<line class="st3" x1="301.9" y1="21.7" x2="303.3" y2="21.7"/>
					<line class="st6" x1="305.6" y1="21.7" x2="309" y2="21.7"/>
					<line class="st3" x1="310.1" y1="21.7" x2="311.6" y2="21.7"/>
				</g>
			</g>
		</g>
		<g>
			<line class="st2" x1="42.8" y1="161.3" x2="42.8" y2="174.2"/>
			<line class="st2" x1="36.3" y1="167.8" x2="49.3" y2="167.8"/>
			<line class="st2" x1="38.2" y1="163.2" x2="47.4" y2="172.3"/>
			<line class="st2" x1="38.2" y1="172.3" x2="47.4" y2="163.2"/>
		</g>
		<g>
			<g>
				<g>
					<line class="st3" x1="83.9" y1="177.7" x2="82.4" y2="177.7"/>
					<line class="st4" x1="80.1" y1="177.7" x2="76.7" y2="177.7"/>
					<line class="st3" x1="75.6" y1="177.7" x2="74.1" y2="177.7"/>
				</g>
			</g>
			<g>
				<g>
					<line class="st3" x1="80.5" y1="173.8" x2="79" y2="173.8"/>
					<line class="st6" x1="76.7" y1="173.8" x2="73.3" y2="173.8"/>
					<line class="st3" x1="72.2" y1="173.8" x2="70.7" y2="173.8"/>
				</g>
			</g>
		</g>
		<g>
			<g>
				<g>
					<line class="st3" x1="81.5" y1="141.1" x2="80.1" y2="141.1"/>
					<line class="st5" x1="77.8" y1="141.1" x2="74.4" y2="141.1"/>
					<line class="st3" x1="73.3" y1="141.1" x2="71.8" y2="141.1"/>
				</g>
			</g>
			<g>
				<g>
					<line class="st3" x1="78.2" y1="137.3" x2="76.7" y2="137.3"/>
					<line class="st7" x1="74.4" y1="137.3" x2="71" y2="137.3"/>
					<line class="st3" x1="69.9" y1="137.3" x2="68.4" y2="137.3"/>
				</g>
			</g>
		</g>
		<g>
			<line class="st2" x1="53.4" y1="26.2" x2="53.4" y2="39.2"/>
			<line class="st2" x1="46.9" y1="32.7" x2="59.8" y2="32.7"/>
			<line class="st2" x1="48.8" y1="28.1" x2="58" y2="37.3"/>
			<line class="st2" x1="48.8" y1="37.3" x2="58" y2="28.1"/>
		</g>
		<g>
			<g>
				<g>
					<line class="st3" x1="152.5" y1="12.1" x2="151.1" y2="12.1"/>
					<line class="st6" x1="148.8" y1="12.1" x2="145.4" y2="12.1"/>
					<line class="st3" x1="144.2" y1="12.1" x2="142.8" y2="12.1"/>
				</g>
			</g>
			<g>
				<g>
					<line class="st3" x1="149.1" y1="8.2" x2="147.7" y2="8.2"/>
					<line class="st6" x1="145.4" y1="8.2" x2="142" y2="8.2"/>
					<line class="st3" x1="140.9" y1="8.2" x2="139.4" y2="8.2"/>
				</g>
			</g>
		</g>
	</g>
	<line class="st8" x1="153.9" y1="277.1" x2="102" y2="277.1"/>
	<line class="st8" x1="194.2" y1="277.1" x2="172.3" y2="277.1"/>
	<line class="st8" x1="270.6" y1="274.3" x2="209.5" y2="274.3"/>
	<line class="st8" x1="155" y1="264.9" x2="317.4" y2="264.9"/>
	<line class="st8" x1="117.5" y1="264.9" x2="138.3" y2="264.9"/>
	<line class="st8" x1="77.3" y1="264.9" x2="102" y2="264.9"/>
	<line class="st8" x1="310.8" y1="254.6" x2="56.3" y2="254.6"/>
	<g>
		<path class="st8" d="M55.2,232.9c0,7.4-6,13.3-13.3,13.3c-7.4,0-13.3-6-13.3-13.3c0-7.4,6-13.3,13.3-13.3
			C49.3,219.6,55.2,225.6,55.2,232.9z"/>
		<path class="st8" d="M68.6,234.7v-4.3l-7-2.8c-0.5-1.7-1.1-3.2-2-4.7l2.4-7.5l-3.1-3.1l-7,3c-1.5-0.8-3-1.5-4.7-1.9l-3.6-7h-4.3
			l-2.8,7.1c-1.7,0.5-3.2,1.1-4.7,2l-7.5-2.4l-3.1,3.1l3,7c-0.8,1.5-1.5,3-2,4.7l-7,3.6v4.3l7,2.8c0.5,1.7,1.1,3.3,2,4.7l-2.4,7.5
			l3.1,3.1l7-3c1.5,0.8,3.1,1.5,4.7,2l3.6,7h4.3l2.8-7c1.7-0.5,3.3-1.1,4.7-2l7.5,2.4l3.1-3.1l-3-7c0.8-1.5,1.5-3.1,2-4.7
			L68.6,234.7z"/>
	</g>
	<g>
		<rect x="105.5" y="85.4" class="st9" width="32.9" height="5.3"/>
		<rect x="105.5" y="31.8" class="st9" width="32.9" height="5.3"/>
		<path class="st9" d="M125.7,62.3v-2c4.8-2.3,12.3-6.7,12.3-11.8c0-7.5-3.4-11.3-3.4-11.3h-26.2c0,0-2.7,4-2.7,11.3
			c0,5.1,7.5,9.5,12.3,11.8v2c-4.8,2.3-12.3,6.7-12.3,11.8c0,7.5,3.4,11.3,3.4,11.3h26.2c0,0,2.7-4,2.7-11.3
			C138.1,69,130.5,64.6,125.7,62.3z"/>
		<path class="st9" d="M135,49.8c0,0.8-5.8,8.8-13.1,8.8s-13.2-7.9-13.2-8.8c0-0.8,5.9-1.5,13.1-1.5S135,48.9,135,49.8z"/>
		<path class="st9" d="M109.6,82.8c0-0.8,5.4-8.8,12.2-8.8c6.7,0,12.2,7.9,12.2,8.8H109.6z"/>
		<line class="st10" x1="121.9" y1="58.5" x2="121.9" y2="74"/>
	</g>
	<g>
		<path class="st11" d="M61.9,77.3c0,3.1-2.5,5.6-5.6,5.6s-5.6-2.5-5.6-5.6s2.5-5.6,5.6-5.6S61.9,74.2,61.9,77.3z"/>
		<rect x="31.2" y="81.8" class="st12" width="50.2" height="73"/>
		<polygon class="st12" points="77.3,136.5 60.8,149 35.3,149 35.3,86.4 77.3,86.4 		"/>
		<polygon class="st12" points="77.3,136.5 60.8,149 69.1,133.1 		"/>
		<rect x="47" y="78.5" class="st12" width="18.7" height="9"/>
		<path class="st12" d="M54,82.9c0,1.2-1,2.1-2.1,2.1c-1.2,0-2.1-1-2.1-2.1c0-1.2,1-2.1,2.1-2.1S54,81.7,54,82.9z"/>
		<path class="st12" d="M62.8,82.9c0,1.2-1,2.1-2.1,2.1c-1.2,0-2.1-1-2.1-2.1c0-1.2,1-2.1,2.1-2.1S62.8,81.7,62.8,82.9z"/>
		<g>
			<line class="st13" x1="42" y1="99" x2="71.7" y2="99"/>
			<line class="st13" x1="42" y1="104.7" x2="59" y2="104.7"/>
			<line class="st13" x1="61.9" y1="104.7" x2="71.7" y2="104.7"/>
			<line class="st13" x1="42" y1="109.9" x2="59" y2="109.9"/>
			<line class="st13" x1="61.9" y1="109.9" x2="71.7" y2="109.9"/>
			<line class="st13" x1="42" y1="115.1" x2="59" y2="115.1"/>
			<line class="st13" x1="61.9" y1="115.1" x2="71.7" y2="115.1"/>
			<line class="st13" x1="42" y1="120.1" x2="59" y2="120.1"/>
			<line class="st13" x1="61.9" y1="120.1" x2="71.7" y2="120.1"/>
			<line class="st13" x1="42" y1="125.3" x2="59" y2="125.3"/>
			<line class="st13" x1="61.9" y1="125.3" x2="71.7" y2="125.3"/>
			<line class="st13" x1="42" y1="130.5" x2="59" y2="130.5"/>
			<line class="st13" x1="61.9" y1="130.5" x2="71.7" y2="130.5"/>
		</g>
	</g>
	<g>
		<path class="st14" d="M219.6,53.1c0-10.7-8.6-19.3-19.3-19.3S181,42.4,181,53.1c0,13.6,13.2,15,13.2,21.6v3.7h13.5v-4.2
			C207.7,67.6,219.6,66.7,219.6,53.1z"/>
		<path class="st15" d="M207.1,85.8c0,2.6-2.8,4.8-6.2,4.8s-6.2-2.1-6.2-4.8H207.1z"/>
		<rect x="194.2" y="79.9" class="st14" width="13.5" height="5"/>
		<rect x="193.3" y="83.3" class="st15" width="15.3" height="3.2"/>
		<rect x="193.3" y="76.7" class="st14" width="15.3" height="3.2"/>
		<line class="st16" x1="200.3" y1="30.2" x2="200.3" y2="24.1"/>
		<line class="st16" x1="223.5" y1="52.7" x2="229.1" y2="52.7"/>
		<line class="st16" x1="173" y1="52.7" x2="178.6" y2="52.7"/>
		<line class="st16" x1="213.4" y1="35.4" x2="217.9" y2="30.2"/>
		<line class="st16" x1="183.9" y1="66.1" x2="178.6" y2="70.5"/>
		<line class="st16" x1="183.9" y1="37.5" x2="179.8" y2="33.8"/>
		<line class="st16" x1="216.8" y1="66.1" x2="220.6" y2="70.5"/>
		<line class="st16" x1="198.3" y1="76.7" x2="194.9" y2="52.7"/>
		<line class="st16" x1="203.9" y1="76.7" x2="207.2" y2="52.7"/>
		<line class="st16" x1="195.2" y1="55" x2="206.8" y2="55"/>
	</g>
	<g>
		<rect x="354.5" y="107.1" class="st17" width="4.5" height="62.3"/>
		
			<rect x="320.1" y="139.3" transform="matrix(0.3895 -0.921 0.921 0.3895 81.808 406.5587)" class="st17" width="54.9" height="4.5"/>
		
			<rect x="363" y="114" transform="matrix(0.921 -0.3895 0.3895 0.921 -26.2635 153.4307)" class="st17" width="4.5" height="54.9"/>
		<rect x="326.2" y="111.4" class="st17" width="61.1" height="39.6"/>
		<g>
			<polyline class="st18" points="372.5,144.1 342.8,144.1 342.8,116.6 			"/>
			<line class="st18" x1="346.8" y1="143.9" x2="346.8" y2="142.1"/>
			<line class="st18" x1="351.1" y1="143.9" x2="351.1" y2="142.1"/>
			<line class="st18" x1="355.3" y1="143.9" x2="355.3" y2="142.1"/>
			<line class="st18" x1="359.5" y1="143.9" x2="359.5" y2="142.1"/>
			<line class="st18" x1="363.8" y1="143.9" x2="363.8" y2="142.1"/>
			<line class="st18" x1="368" y1="143.9" x2="368" y2="142.1"/>
			<polyline class="st18" points="370.6,145.9 372.5,144.2 370.6,142.1 			"/>
			<polyline class="st18" points="344.7,118.4 343,116.4 340.9,118.4 			"/>
			<path class="st18" d="M342.8,144.1c0,0,3.8-13.2,8.3-14.8c4.4-1.6,4.6,4.7,8.5,3.8s2.1-11,5.6-12.9c3.6-1.9,5.9,4.3,5.9,4.3"/>
			<path class="st17" d="M348.3,134.4c0,0.8-0.7,1.5-1.5,1.5s-1.5-0.7-1.5-1.5s0.7-1.5,1.5-1.5C347.6,132.9,348.3,133.6,348.3,134.4
				z"/>
			<path class="st17" d="M361,132.9c0,0.8-0.7,1.5-1.5,1.5s-1.5-0.7-1.5-1.5s0.7-1.5,1.5-1.5S361,132.1,361,132.9z"/>
			<path class="st17" d="M366.2,120.8c0,0.8-0.7,1.5-1.5,1.5s-1.5-0.7-1.5-1.5s0.7-1.5,1.5-1.5C365.6,119.3,366.2,120,366.2,120.8z"
				/>
		</g>
	</g>
	<g>
		<path class="st19" d="M320,69.1c0,16.2-13.1,29.3-29.3,29.3c-16.2,0-29.3-13.1-29.3-29.3s13.1-29.3,29.3-29.3
			C306.9,39.7,320,52.8,320,69.1z"/>
		<path class="st19" d="M310.8,69.1c0,11.1-9,20.1-20.1,20.1s-20.1-9-20.1-20.1s9-20.1,20.1-20.1S310.8,58,310.8,69.1z"/>
		<path class="st19" d="M300.1,69.1c0,5.2-4.2,9.4-9.4,9.4c-5.2,0-9.4-4.2-9.4-9.4c0-5.2,4.2-9.4,9.4-9.4
			C295.9,59.6,300.1,63.8,300.1,69.1z"/>
		<line class="st20" x1="290.7" y1="69.1" x2="321" y2="42.8"/>
		<polygon class="st19" points="314.4,54.8 309.2,53.3 319.1,44.4 325.6,46.7 		"/>
		<polygon class="st19" points="307.6,47 309.2,53.3 319.1,44.4 317.4,37.3 		"/>
	</g>
	<g>
		<path class="st21" d="M377.5,226.1c0,14.9-12,26.9-26.9,26.9c-2.6,0-9.9,0-9.9,0l-0.1-53.8h10
			C365.5,199.2,377.5,211.3,377.5,226.1z"/>
		<path class="st21" d="M368.8,226.1c0,14.9-12,26.9-26.9,26.9S315,241,315,226.1s12-26.9,26.9-26.9
			C356.7,199.2,368.8,211.3,368.8,226.1z"/>
		<path class="st21" d="M362.6,226.1c0,11.5-9.3,20.7-20.7,20.7c-11.5,0-20.7-9.3-20.7-20.7c0-11.5,9.3-20.7,20.7-20.7
			C353.3,205.4,362.6,214.7,362.6,226.1z"/>
		<g>
			<path class="st22" d="M340.2,243.6v-4.3c-2.5,0-5-0.8-6.5-1.9l1-2.9c1.5,1,3.8,1.8,6.2,1.8c3,0,5.1-1.8,5.1-4.2s-1.7-3.8-4.8-5.1
				c-4.4-1.7-7.1-3.7-7.1-7.4c0-3.5,2.5-6.2,6.5-6.9v-4.3h2.7v4.1c2.6,0.1,4.3,0.8,5.6,1.5l-1.1,2.8c-0.9-0.5-2.7-1.5-5.4-1.5
				c-3.3,0-4.5,2-4.5,3.7c0,2.2,1.6,3.3,5.3,4.9c4.4,1.8,6.6,4,6.6,7.8c0,3.4-2.4,6.5-6.8,7.3v4.4h-2.8V243.6z"/>
		</g>
		<line class="st23" x1="376.9" y1="224.5" x2="371.2" y2="224.5"/>
		<line class="st23" x1="376.5" y1="219.7" x2="370.3" y2="219.7"/>
		<line class="st23" x1="374.5" y1="214.3" x2="368.8" y2="214.3"/>
		<line class="st23" x1="371.6" y1="209.5" x2="365.9" y2="209.5"/>
		<line class="st23" x1="367.1" y1="205.1" x2="362.6" y2="205.1"/>
		<line class="st23" x1="375.9" y1="234.9" x2="369.7" y2="234.9"/>
		<line class="st23" x1="376.7" y1="229.9" x2="370.5" y2="229.9"/>
		<line class="st23" x1="373.8" y1="239.2" x2="367.8" y2="239.2"/>
		<line class="st23" x1="356.7" y1="250.6" x2="361.4" y2="250.6"/>
		<line class="st23" x1="361.9" y1="247.1" x2="367" y2="247.1"/>
		<line class="st23" x1="365.4" y1="243.5" x2="370.8" y2="243.5"/>
	</g>
	<g>
		<path class="st24" d="M256.9,245.8c-1.3,0-2.4-1.6-2.4-3.6l0,0c0-2,1.1-3.6,2.4-3.6h9.7c1.3,0,2.4,1.6,2.4,3.6l0,0
			c0,2-1.1,3.6-2.4,3.6H256.9z"/>
		<path class="st24" d="M241.4,245.8c-1.3,0-2.4-1.6-2.4-3.6l0,0c0-2,1.1-3.6,2.4-3.6h9.7c1.3,0,2.4,1.6,2.4,3.6l0,0
			c0,2-1.1,3.6-2.4,3.6H241.4z"/>
		<path class="st24" d="M217.9,245.8c-1.3,0-2.4-1.6-2.4-3.6l0,0c0-2,1.1-3.6,2.4-3.6h9.7c1.3,0,2.4,1.6,2.4,3.6l0,0
			c0,2-1.1,3.6-2.4,3.6H217.9z"/>
		<path class="st24" d="M109.3,243.8c-5.4,0-6.7-0.6-6.7-5.1v-110c0-4.5,1.3-5.1,6.7-5.1h165.5c5.4,0,6.7,0.6,6.7,5.1v110.1
			c0,4.5-1.3,5.1-6.7,5.1H109.3V243.8z"/>
		<path class="st25" d="M281.4,238.8V128.7c0-2.6-0.5-3.9-1.9-4.5c0.3,0.7,0.4,1.7,0.4,3v110.1c0,4.5-1.3,5.1-6.7,5.1H107.7
			c-2.2,0-3.7-0.1-4.8-0.5c0.7,1.8,2.5,2.1,6.3,2.1h165.5C280.1,243.8,281.4,243.1,281.4,238.8z"/>
		<path class="st26" d="M202.7,128.4c0,1-0.5,1.9-1.2,1.9h-11.4c-0.7,0-1.2-0.9-1.2-1.9l0,0c0-1,0.5-1.9,1.2-1.9h11.4
			C202.1,126.5,202.7,127.3,202.7,128.4L202.7,128.4z"/>
		<path class="st26" d="M207.6,128.4c0,1-0.9,1.9-1.9,1.9c-1.1,0-1.9-0.9-1.9-1.9s0.9-1.9,1.9-1.9
			C206.8,126.5,207.6,127.3,207.6,128.4z"/>
		<rect x="108.2" y="132.3" class="st27" width="166.2" height="100.6"/>
		<polygon class="st28" points="114.5,135.2 274.3,135.2 274.3,132.3 108.2,132.3 108.2,232.9 114.5,232.9 		"/>
	</g>
	<g>
		<g>
			<rect x="121.1" y="104.4" class="st0" width="173.9" height="117.7"/>
			<path class="st22" d="M294.7,104.8v117H121.5v-117L294.7,104.8 M295.4,104.1h-0.7H121.5h-0.7v0.7v117v0.7h0.7h173.2h0.7v-0.7
				v-117L295.4,104.1L295.4,104.1z"/>
		</g>
		<rect x="121.5" y="113.6" class="st29" width="173.2" height="9.9"/>
		<rect x="121.5" y="123.5" class="st30" width="173.2" height="14.6"/>
		<rect x="130.9" y="128.2" class="st0" width="77.2" height="5.8"/>
		<rect x="213.9" y="128.2" class="st31" width="21.1" height="5.8"/>
		<rect x="135" y="146.2" class="st28" width="34.5" height="24.6"/>
		<g>
			<line class="st32" x1="176.5" y1="148.8" x2="213.9" y2="148.8"/>
			<line class="st33" x1="176.5" y1="157.6" x2="280.1" y2="157.6"/>
			<line class="st33" x1="176.5" y1="162.9" x2="280.1" y2="162.9"/>
			<line class="st33" x1="176.5" y1="168.1" x2="224.5" y2="168.1"/>
		</g>
		<rect x="135" y="177" class="st28" width="34.5" height="24.6"/>
		<g>
			<line class="st32" x1="176.5" y1="179.6" x2="213.9" y2="179.6"/>
			<line class="st33" x1="176.5" y1="188.4" x2="280.1" y2="188.4"/>
			<line class="st33" x1="176.5" y1="193.7" x2="280.1" y2="193.7"/>
			<line class="st33" x1="176.5" y1="198.9" x2="224.5" y2="198.9"/>
		</g>
		<path class="st34" d="M274.4,109c0,1.8-1.5,3.3-3.3,3.3s-3.3-1.5-3.3-3.3s1.5-3.3,3.3-3.3C273,105.7,274.4,107.2,274.4,109z"/>
		<path class="st34" d="M283.3,109c0,1.8-1.5,3.3-3.3,3.3s-3.3-1.5-3.3-3.3s1.5-3.3,3.3-3.3C281.9,105.7,283.3,107.2,283.3,109z"/>
		<path class="st34" d="M265.7,109c0,1.8-1.5,3.3-3.3,3.3s-3.3-1.5-3.3-3.3s1.5-3.3,3.3-3.3S265.7,107.2,265.7,109z"/>
		<line class="st35" x1="169.5" y1="201.6" x2="144.4" y2="201.6"/>
		<line class="st35" x1="169.5" y1="197.2" x2="169.5" y2="198.9"/>
		<line class="st35" x1="169.5" y1="181" x2="169.5" y2="195.5"/>
		<line class="st35" x1="161.1" y1="177" x2="167.2" y2="177"/>
		<line class="st35" x1="153.8" y1="177" x2="158.2" y2="177"/>
		<line class="st35" x1="135" y1="177" x2="151.4" y2="177"/>
		<line class="st35" x1="135" y1="193.7" x2="135" y2="177"/>
		<line class="st35" x1="135" y1="165.8" x2="135" y2="150.5"/>
		<line class="st35" x1="153.8" y1="170.7" x2="135" y2="170.7"/>
		<line class="st35" x1="169.5" y1="146.2" x2="169.5" y2="166.9"/>
		<line class="st35" x1="140.4" y1="146.2" x2="169.5" y2="146.2"/>
		<line class="st35" x1="270.4" y1="138.1" x2="290.6" y2="138.1"/>
		<line class="st35" x1="259.1" y1="138.1" x2="266.7" y2="138.1"/>
		<line class="st35" x1="253.5" y1="138.1" x2="256.6" y2="138.1"/>
		<line class="st35" x1="202.7" y1="138.1" x2="250.9" y2="138.1"/>
		<line class="st35" x1="184.8" y1="138.1" x2="190" y2="138.1"/>
		<line class="st35" x1="179.7" y1="138.1" x2="181.7" y2="138.1"/>
		<line class="st35" x1="121.5" y1="138.1" x2="173.3" y2="138.1"/>
		<line class="st35" x1="126.8" y1="124.1" x2="132.1" y2="124.1"/>
		<line class="st35" x1="187.8" y1="124.1" x2="138.4" y2="124.1"/>
		<line class="st35" x1="197.7" y1="123.5" x2="195.2" y2="123.5"/>
		<line class="st35" x1="214.9" y1="123.5" x2="209.4" y2="123.5"/>
		<line class="st35" x1="227.1" y1="123.5" x2="294.7" y2="123.5"/>
		<line class="st35" x1="294.7" y1="113.6" x2="267.9" y2="113.6"/>
		<line class="st35" x1="224.5" y1="113.6" x2="255.1" y2="113.6"/>
		<line class="st35" x1="217.5" y1="113.6" x2="219.5" y2="113.6"/>
		<line class="st35" x1="208.1" y1="113.6" x2="213.9" y2="113.6"/>
		<line class="st35" x1="121.5" y1="113.6" x2="203.8" y2="113.6"/>
	</g>
</g>
</svg>
