<?xml version="1.0" encoding="utf-8"?>
<!-- Generator: Adobe Illustrator 23.0.3, SVG Export Plug-In . SVG Version: 6.00 Build 0)  -->
<svg version="1.1" id="Layer_1" xmlns="http://www.w3.org/2000/svg" xmlns:xlink="http://www.w3.org/1999/xlink" x="0px" y="0px"
	 viewBox="0 0 62.4 62.4" style="enable-background:new 0 0 62.4 62.4;" xml:space="preserve">
<style type="text/css">
	.st0{fill:none;stroke:#093B59;stroke-width:0.6243;stroke-linecap:round;stroke-linejoin:round;stroke-miterlimit:10;}
	.st1{fill:#FFFFFF;stroke:#093B59;stroke-width:0.6243;stroke-linecap:round;stroke-linejoin:round;stroke-miterlimit:10;}
	.st2{fill:#E7EA88;stroke:#093B59;stroke-width:0.6243;stroke-linecap:round;stroke-linejoin:round;stroke-miterlimit:10;}
	.st3{fill:none;stroke:#093B59;stroke-width:0.6243;stroke-miterlimit:10;}
	.st4{fill:none;stroke:#173066;stroke-width:1.1927;stroke-linecap:round;stroke-linejoin:round;stroke-miterlimit:10;}
	.st5{fill:#173066;}
	.st6{fill:#7FDD81;}
	.st7{fill:#FFFFFF;}
	.st8{fill:none;stroke:#173066;stroke-width:1.1927;stroke-linecap:round;stroke-linejoin:round;}
	.st9{fill:none;stroke:#173066;stroke-width:1.1927;stroke-linecap:round;stroke-linejoin:round;stroke-dasharray:2.2685,3.4027;}
</style>
<g id="Assesment">
	<path class="st0" d="M21.4,17.2c0,1.5-1.2,2.8-2.8,2.8s-2.8-1.2-2.8-2.8s1.2-2.8,2.8-2.8S21.4,15.6,21.4,17.2z"/>
	<rect x="6.1" y="19.4" class="st1" width="24.9" height="36.2"/>
	<polygon class="st2" points="29,46.5 20.8,52.7 8.2,52.7 8.2,21.7 29,21.7 	"/>
	<polygon class="st1" points="29,46.5 20.8,52.7 24.9,44.8 	"/>
	<rect x="14" y="17.8" class="st1" width="9.3" height="4.5"/>
	<path class="st1" d="M17.4,19.9c0,0.6-0.5,1-1,1c-0.6,0-1-0.5-1-1c0-0.6,0.5-1,1-1C17,18.9,17.4,19.3,17.4,19.9z"/>
	<path class="st1" d="M21.8,19.9c0,0.6-0.5,1-1,1c-0.6,0-1-0.5-1-1c0-0.6,0.5-1,1-1C21.3,18.9,21.8,19.3,21.8,19.9z"/>
	<g>
		<line class="st3" x1="11.5" y1="27.9" x2="26.2" y2="27.9"/>
		<line class="st3" x1="11.5" y1="30.7" x2="19.9" y2="30.7"/>
		<line class="st3" x1="21.4" y1="30.7" x2="26.2" y2="30.7"/>
		<line class="st3" x1="11.5" y1="33.3" x2="19.9" y2="33.3"/>
		<line class="st3" x1="21.4" y1="33.3" x2="26.2" y2="33.3"/>
		<line class="st3" x1="11.5" y1="35.9" x2="19.9" y2="35.9"/>
		<line class="st3" x1="21.4" y1="35.9" x2="26.2" y2="35.9"/>
		<line class="st3" x1="11.5" y1="38.4" x2="19.9" y2="38.4"/>
		<line class="st3" x1="21.4" y1="38.4" x2="26.2" y2="38.4"/>
		<line class="st3" x1="11.5" y1="41" x2="19.9" y2="41"/>
		<line class="st3" x1="21.4" y1="41" x2="26.2" y2="41"/>
		<line class="st3" x1="11.5" y1="43.5" x2="19.9" y2="43.5"/>
		<line class="st3" x1="21.4" y1="43.5" x2="26.2" y2="43.5"/>
	</g>
</g>
<g>
	<line class="st4" x1="50.1" y1="19.1" x2="52.5" y2="21.5"/>
	<g>
		<path class="st5" d="M58.9,27.9L58.9,27.9c-0.7,0.7-1.9,0.7-2.6,0l-3.8-3.8c-0.7-0.7-0.7-1.9,0-2.6l0,0c0.7-0.7,1.9-0.7,2.6,0
			l3.8,3.8C59.6,26,59.6,27.2,58.9,27.9z"/>
	</g>
	<g>
		<path class="st6" d="M50.1,4.4c4.1,4.1,4.1,10.7,0,14.7s-10.7,4.1-14.7,0s-4.1-10.7,0-14.7S46,0.3,50.1,4.4z"/>
	</g>
	<path class="st7" d="M47.8,6.7c2.8,2.8,2.8,7.3,0,10.1s-7.3,2.8-10.1,0s-2.8-7.3,0-10.1S45,3.9,47.8,6.7z"/>
	<g>
		<g>
			<path class="st8" d="M37.7,6.7c0.2-0.2,0.5-0.5,0.8-0.7"/>
			<path class="st9" d="M41.6,4.7c1.3-0.2,2.7-0.1,3.9,0.5"/>
			<path class="st8" d="M46.9,6c0.3,0.2,0.5,0.5,0.8,0.7"/>
		</g>
	</g>
</g>
</svg>
